<?xml version="1.0" encoding="utf-8"?>
<!-- Generator: Adobe Illustrator 28.0.0, SVG Export Plug-In . SVG Version: 6.00 Build 0)  -->
<svg version="1.1" id="レイヤー_1" xmlns="http://www.w3.org/2000/svg" xmlns:xlink="http://www.w3.org/1999/xlink" x="0px"
	 y="0px" viewBox="0 0 198.4 85" style="enable-background:new 0 0 198.4 85;" xml:space="preserve">
<style type="text/css">
	.st0{enable-background:new    ;}
	.st1{fill:#333333;}
</style>
<g>
	<g class="st0">
		<path class="st1" d="M65.8,9.7c0,0.9-0.1,2.7-0.3,3.6c-0.1,0.4-0.2,0.8-0.6,0.8c-0.5,0-0.7-0.3-0.7-0.7c0-0.3,0.2-1.4,0.2-1.5
			c0-0.4,0.2-2.5,0.2-2.6c0.1-0.3,0.3-0.4,0.5-0.4C65.8,8.7,65.8,9.2,65.8,9.7z M67.5,13.1c0,0.8,0,1-0.1,1.7c0.4,0.8,0.6,1.3,1.2,2
			c0.1,0.2,0.2,0.3,0.2,0.5c0.1-0.2,0.1-0.2,0.3-0.8c0.1-0.4,0.4-0.4,0.6-0.4c0.1,0,0.8,0,0.8,0.7c0,0.4-0.3,1.4-0.7,2.2
			c-0.4,1-0.6,1.3-0.9,1.3c-0.4,0-0.9-0.3-0.9-0.8c0-0.2,0.1-0.4,0.2-0.5c0.3-0.6,0.3-0.6,0.4-0.8c-0.1,0.1-0.3,0.2-0.4,0.2
			c-0.4,0-0.5-0.3-0.9-1.4c-0.3,1.2-0.5,1.8-0.9,2.7c-0.2,0.3-0.3,0.7-0.8,0.7c-0.5,0-0.9-0.5-0.9-0.9c0-0.1,0-0.3,0.3-0.6
			c0.5-0.9,1.4-2.4,1.4-5.6V6.8c0-0.8,0.3-0.9,0.8-0.9c0.7,0,0.7,0.7,0.7,0.9v2.1c0.1-0.1,0.3-0.6,0.3-0.6c0-0.1,0.2-0.3,0.3-0.3
			c0.3,0,0.6,0.3,0.6,0.8c0,0.3-0.1,0.4-0.3,0.6c-0.4,0.6-0.8,1.2-1,1.4L67.5,13.1L67.5,13.1z M72.3,10.7c-0.3,1.1-0.8,2.7-1.9,4.2
			C70,15.4,69.5,16,69.1,16s-0.8-0.4-0.8-0.9c0-0.3,0.2-0.5,0.3-0.7c0.3-0.3,0.8-0.8,1.3-1.4c-0.5-0.4-0.5-0.5-0.9-0.8
			c-0.2,0.3-0.3,0.4-0.5,0.4c-0.3,0-0.8-0.3-0.8-0.8c0-0.2,0.1-0.3,0.3-0.7c0.8-1.5,1.2-2.5,1.5-4.6c0.1-0.3,0.1-0.8,0.7-0.8
			c0.3,0,0.7,0.1,0.7,0.6c0,0.2,0,0.4-0.1,0.8h0.7c0.7,0,1.3,0.2,1.3,1.1c0,0.3,0,0.5,0,0.7h0.9V6.7c0-0.3,0.1-0.8,0.8-0.8
			s0.7,0.6,0.7,0.8V9h1.4c0.6,0,0.8,0.3,0.8,0.9c0,0.8-0.6,0.8-0.8,0.8h-1.3c0.2,1,0.7,2.3,1.4,3.1c0.8,1,0.8,1,0.8,1.3
			c0,0.5-0.4,1-0.8,1c-0.4,0-0.7-0.4-0.9-0.8c-0.7-0.9-0.8-1.6-1.2-2.9c-0.3,0.9-0.5,1.9-1.4,3c-0.2,0.3-0.8,0.8-1.1,0.8
			c-0.3,0-0.8-0.4-0.8-1c0-0.3,0.2-0.5,0.4-0.8c1-0.9,1.7-2,2-3.8L72.3,10.7L72.3,10.7z M70.5,11.9c0.1-0.2,0.2-0.3,0.3-0.7
			c-0.3-0.3-0.7-0.5-0.9-0.7c-0.1,0.2-0.1,0.3-0.3,0.6C70.1,11.4,70.2,11.5,70.5,11.9z M70.4,8.6C70.3,9,70.3,9,70.2,9.2
			c0.3,0.2,0.6,0.4,0.8,0.6c0.1-0.4,0.2-0.7,0.2-0.8S71.2,8.6,71,8.6C71,8.6,70.4,8.6,70.4,8.6z M72.2,17c0.2,0.9,0.2,2.3,0.2,2.4
			c0,0.4-0.2,0.8-0.8,0.8c-0.7,0-0.7-0.4-0.7-0.7s0-1.2,0-1.4c0-0.2,0-1,0-1.2c0.1-0.5,0.5-0.5,0.6-0.5C71.9,16.5,72.1,16.6,72.2,17
			z M74.2,17.4c0.1,0.6,0.3,1.6,0.3,2.1c0,0.2,0,0.3-0.2,0.5c-0.2,0.1-0.3,0.2-0.5,0.2c-0.6,0-0.6-0.4-0.7-0.8
			c-0.1-0.8-0.1-0.9-0.2-1.7c-0.1-0.6-0.1-0.7-0.1-0.8c0-0.2,0.1-0.6,0.8-0.6C74,16.4,74.1,16.9,74.2,17.4z M76.5,17.6
			c0.3,0.6,0.5,1.4,0.5,1.9c0,0.7-0.5,0.8-0.8,0.8c-0.5,0-0.5-0.2-0.8-1.2c0-0.1-0.3-0.8-0.6-1.8c0-0.1-0.1-0.3-0.1-0.4
			c0-0.6,0.6-0.7,0.8-0.7C75.9,16.1,76,16.3,76.5,17.6z M76.5,7c0.2,0.4,0.4,0.8,0.4,1.1c0,0.3-0.3,0.6-0.7,0.6
			c-0.3,0-0.3-0.1-0.6-0.7c-0.1-0.2-0.3-0.8-0.4-0.9c-0.1-0.1-0.1-0.3-0.1-0.4c0-0.3,0.3-0.6,0.6-0.6C76,6.1,76.2,6.4,76.5,7z"/>
		<path class="st1" d="M83.9,19.1c0,0.9-0.8,0.9-1,0.9c-0.8,0-0.8-0.6-0.9-1.2c-0.3-1.9-0.3-2.3-1.3-6.5c-0.2,0.1-1,0.5-1.1,0.6
			c-0.3,0.1-0.4,0.3-0.7,0.3c-0.6,0-0.8-0.7-0.8-1.1c0-0.3,0.1-0.6,0.5-0.8c0.4-0.3,1.1-0.5,1.8-0.8C80.4,10,80.1,8.7,80,8.5
			c-0.1-0.3-0.2-0.6-0.2-0.8c0-0.8,0.8-0.9,0.9-0.9c0.5,0,0.7,0.3,0.8,0.6c0.1,0.3,0.2,0.4,0.6,2.4C82.8,9.5,83.5,9.2,84,9
			c-0.1-0.3-0.3-0.9-0.5-1.4c-0.1-0.2-0.1-0.3-0.1-0.4c0-0.7,0.6-0.8,0.8-0.8c0.6,0,0.8,0.4,1.4,2.2c0.3-0.1,0.8-0.1,1.1-0.1
			c2,0,3.3,1.5,3.3,3.8c0,1.4-0.3,2.7-1.3,3.6c-0.8,0.7-1.6,0.8-2.5,0.8c-0.6,0-1.6-0.1-1.6-1.1c0-0.7,0.4-0.9,0.8-0.9
			c0.2,0,0.8,0.1,0.9,0.1c1.6,0,2-1.4,2-2.4c0-0.5-0.1-1.1-0.4-1.5c-0.3-0.4-0.8-0.6-1.3-0.6c-0.2,0-0.3,0-0.5,0
			c0.2,0.5,0.3,1.2,0.3,1.5c0,0.6-0.4,0.9-0.9,0.9s-0.6-0.3-0.8-0.7c-0.1-0.3-0.3-1.2-0.3-1.4c-0.7,0.3-1.1,0.4-2.1,0.8
			C83.4,15.8,83.9,18.5,83.9,19.1z"/>
		<path class="st1" d="M95.2,15.2c0,2.1,0.3,2.6,3,2.6c1,0,1.9-0.1,2.7-0.3c0.2,0,0.5-0.1,0.8-0.1c0.6,0,0.8,0.6,0.8,0.9
			c0,0.8-0.4,0.9-0.7,0.9c-0.6,0.2-2.1,0.3-3.4,0.3c-2.6,0-4.1-0.4-4.6-2.1c-0.3-0.7-0.3-2.3-0.3-2.3v-3.5c-0.2,0-1.1,0.1-1.3,0.1
			c-0.2,0-0.8,0-0.8-0.9s0.6-0.9,0.9-0.9s0.9,0,1.3-0.1V7.6c0-0.4,0.1-1,0.8-1s0.8,0.4,0.8,1.1v2.1c2-0.1,2.3-0.1,4.3-0.2
			c0-0.3,0-1.8,0-2.1c0-0.5,0-1.2,0.8-1.2c0.6,0,0.8,0.3,0.9,0.8c0,0.3,0,2,0,2.4c0.6,0,1.2,0,1.4,0c0.3,0,0.9,0,0.9,0.9
			c0,0.8-0.5,0.9-0.9,0.9c0,0-1.3,0-1.4,0c0,1.3,0,3-0.3,3.7c-0.4,0.8-1.4,0.9-1.8,0.9c-0.8,0-1.6-0.3-2.1-0.5
			c-0.5-0.3-0.5-0.6-0.5-0.8c0-0.6,0.3-0.9,0.8-0.9c0.2,0,0.3,0,0.8,0.3c0.4,0.2,0.8,0.2,0.8,0.2c0.4,0,0.6-0.2,0.7-0.8
			c0-0.2,0-1.6,0-1.9c-1.9,0.1-2.2,0.1-4.3,0.2L95.2,15.2z"/>
	</g>
	<g class="st0">
		<path class="st1" d="M106.8,16.4c-0.3,0.4-0.4,0.8-0.8,0.8c-0.5,0-0.9-0.4-0.9-0.9c0-0.3,0.1-0.5,1-2.3c0.5-1.1,0.9-2.5,1.3-3.6
			c-0.4,0-1.6,0-1.8,0c-0.3-0.1-0.5-0.3-0.5-0.9c0-0.8,0.5-0.9,0.7-0.9c0.1,0,1.9-0.1,2.1-0.1c0.1-0.3,0.3-1.4,0.3-1.6
			c0.1-0.3,0.3-0.6,0.8-0.6c0.2,0,0.9,0,0.9,0.8c0,0.3-0.1,0.8-0.3,1.3c0.1,0,1.3-0.1,1.3-0.1c0.3,0,0.8,0,0.8,0.9
			c0,0.9-0.6,0.9-0.9,0.9c-0.3,0-1.1,0.1-1.8,0.1C108.6,11.9,108,14.1,106.8,16.4z M112.2,11.6c0-0.4,0.1-1,0.8-1
			c0.5,0,0.8,0.3,0.8,0.9l0.2,3.1c0.8,0.4,1.4,0.9,2,1.5c0.3,0.3,0.5,0.7,0.5,1c0,0.5-0.3,1-0.8,1c-0.3,0-0.4-0.2-0.9-0.7
			c-0.5-0.5-0.6-0.5-0.8-0.8c0,0.6,0,1-0.3,1.5c-0.7,1.5-2.2,1.5-2.6,1.5c-2.4,0-3.3-1.5-3.3-2.9c0-1.3,0.8-3,3.5-3
			c0.4,0,0.8,0.1,1,0.1L112.2,11.6z M111.2,15.6c-0.7,0-1.8,0.2-1.8,1.4c0,1.3,1.4,1.3,1.6,1.3c1.4,0,1.4-1.1,1.4-2.4
			C112.2,15.8,111.9,15.6,111.2,15.6z M113,7c0.5,0,2,0.9,3.1,1.9c0.4,0.3,0.6,0.7,0.6,1.1c0,0.6-0.5,1-0.8,1
			c-0.3,0-0.5-0.2-0.8-0.5c-0.8-0.8-1-0.9-2.5-1.9c-0.2-0.1-0.5-0.3-0.5-0.8c0-0.3,0.1-0.4,0.2-0.5C112.4,7.4,112.5,7,113,7z"/>
	</g>
	<g class="st0">
		<path class="st1" d="M120.2,7.8c0,0.2-0.1,1-0.1,1.2c0,0.4-0.2,1.8-0.2,3c0,1.4,0.2,3.6,0.7,4.7c0.2,0.3,0.4,0.5,0.8,0.5
			c0.7,0,1.2-0.9,1.4-1.9c0.3-0.8,0.3-1,0.8-1c0.5,0,0.9,0.3,0.9,0.9c0,0.7-0.3,1.5-0.8,2.4c-0.4,0.9-1.2,2-2.5,2
			c-3.1,0-3.1-6.1-3.1-7.8c0-1.3,0.1-3.8,0.2-4.2c0.2-0.7,0.6-0.7,0.9-0.7C120,6.9,120.2,7.2,120.2,7.8z M128,17.3
			c0-2.5,0-4.7-0.6-6.3c-0.4-1.1-1.1-1.2-1.6-1.3c-0.3-0.1-0.8-0.1-0.8-1c0-0.3,0.1-1,0.9-1c0.5,0,2.1,0.3,3,1.9
			c0.8,1.5,1,4.5,1,7.3c0,0.7,0,1.4-0.9,1.4C128,18.5,128,17.7,128,17.3z"/>
	</g>
	<g class="st0">
		<path class="st1" d="M141.3,19.1c-0.7,0.2-2.4,0.4-4.3,0.4c-1.1,0-1.9-0.1-2.5-0.2c-0.9-0.2-3.5-0.7-3.5-3.2
			c0-1.5,0.9-2.6,1.5-3.2c0.3-0.3,0.5-0.3,0.8-0.3c0.6,0,0.9,0.6,0.9,0.9s-0.3,0.6-0.8,1.2c-0.6,0.7-0.7,0.9-0.7,1.3
			c0,1.4,2.2,1.6,3.8,1.6c1.3,0,2.6-0.2,3.6-0.3c0.8-0.2,0.8-0.2,1-0.2c0.2,0,0.8,0,0.8,0.9C142.2,18.7,141.9,19,141.3,19.1z
			 M133,9.2c-0.4,0-1.1,0-1.1-1s0.6-1,1.2-1c0.2,0,1.8,0.1,2.1,0.1c0.5,0,3.3-0.1,3.9-0.1c0.2,0,0.7,0,0.8,0c0.5,0,1.1,0.1,1.1,0.9
			c0,0.6-0.2,0.8-1.1,1.4c-0.3,0.3-1.9,1.4-2.1,1.5c-0.3,0.3-0.6,0.3-0.8,0.3c-0.5,0-0.8-0.4-0.8-0.9c0-0.3,0.2-0.6,0.8-0.9
			c0.1-0.1,0.7-0.4,0.8-0.5C136.2,9.1,134.4,9.2,133,9.2z M139.2,11.2c0-0.1-0.1-0.2-0.1-0.3c0-0.3,0.3-0.4,0.5-0.4
			c0.2,0,0.3,0.1,0.6,0.7c0.1,0.3,0.5,1.1,0.5,1.4c0,0.3-0.3,0.5-0.5,0.5s-0.3-0.2-0.3-0.3c-0.1-0.3-0.3-0.6-0.3-0.8
			C139.4,11.8,139.3,11.3,139.2,11.2z M140.6,10.5c0-0.1-0.1-0.2-0.1-0.3c0-0.3,0.3-0.4,0.5-0.4c0.2,0,0.3,0.2,0.6,0.8
			c0.2,0.3,0.4,1,0.4,1.3c0,0.3-0.3,0.5-0.5,0.5c-0.2,0-0.3-0.2-0.3-0.3c-0.1-0.1-0.3-0.7-0.3-0.8C140.9,11.1,140.6,10.6,140.6,10.5
			z"/>
	</g>
	<g class="st0">
		<path class="st1" d="M152.6,9.9c0-0.6,0.2-1.1,0.9-1.1c0.8,0,1,0.5,1,1.4c0,0.7-0.2,2.5-0.2,2.7c1.3,0.6,1.7,0.9,1.7,1.5
			c0,0.5-0.3,1.1-0.8,1.1c-0.3,0-0.3-0.1-1.2-0.6c-0.8,3.2-2.6,4.7-3.6,4.7c-0.4,0-0.8-0.5-0.8-1c0-0.5,0.2-0.6,1.3-1.4
			c1.3-0.8,1.5-2.6,1.6-3.2c-0.6-0.3-1.9-0.8-2.9-0.9c-0.3,1.3-0.7,2.5-1.1,3.6c-0.5,1.3-1.1,2-2,2c-1.1,0-2.5-1.1-2.5-3.2
			c0-1.4,0.6-3.2,2.5-4c0.8-0.3,1.4-0.3,1.8-0.3c0-0.3,0.3-1.4,0.3-1.5c0-0.2,0.2-0.8,0.2-1c0-0.3-0.2-0.4-0.5-0.4
			c-0.1,0-2,0.2-2.5,0.2c-0.3,0-0.9,0-0.9-0.9c0-1,0.6-1,1.1-1c0.8,0,2.3-0.1,3.1-0.1c0.3,0,1.4,0,1.4,1.3c0,0.6-0.2,1.4-0.3,1.7
			c-0.1,0.3-0.4,1.7-0.4,1.9c0.3,0.1,1.1,0.3,2.6,0.8C152.6,11.5,152.6,11.4,152.6,9.9z M147,13.6c-1,0.4-1.5,1.4-1.5,2.4
			s0.6,1.3,0.8,1.3c0.3,0,0.6-0.4,0.9-1.4c0.3-0.9,0.5-1.5,0.7-2.5C147.4,13.4,147.2,13.4,147,13.6z"/>
	</g>
	<path class="st1" d="M166.7,18.3c0.3,0.8,1.1,1.3,1.9,1.3c1.2,0,2.2-0.8,2.2-2.5c0-0.7-0.4-1.4-0.9-2L166.7,18.3z"/>
	
		<rect x="155.8" y="11.8" transform="matrix(0.7071 -0.7071 0.7071 0.7071 39.9235 123.1286)" class="st1" width="25.6" height="3"/>
	<path class="st1" d="M164.3,14.7c0.5-1.9,2.1-4.2,3.8-6.1c0.5,0.3,0.9,0.6,1.4,0.9l2.4-2.4c-0.8-1.8-1.4-3.9-1.5-4.8
		c-5.2,2.6-6.5,8.6-6.6,10c0,0-1.2-2-1.4-3c-1.9,2.4-2.2,5.7-0.8,8.2L164.3,14.7z"/>
	<path class="st1" d="M171.4,13.6c0.1,0.5,0.2,0.9,0.2,1.1c0,0,1.2-1.1,1.3-1.7c2,2.5,0.3,6.8-4.3,6.8c-1.1-0.2-1.9-0.4-2.5-0.7
		l-1.2,1.2c1.2,0.5,2.5,0.8,4.1,0.8c6.4,0,8.4-6.3,6.7-11.6L171.4,13.6z"/>
</g>
<g>
	<g class="st0">
		<path class="st1" d="M117.4,27.1c0.3,0,0.9,0,0.9,0.8c0,0.7-0.3,0.9-0.9,0.9h-6.9c-0.2,0.3-0.3,0.6-0.6,1h4.9
			c1.3,0,1.9,0.4,1.9,1.9v6c0,1.9-0.5,2-2.6,2c-1.1,0-1.3-0.1-1.4-0.1c-0.4-0.1-0.7-0.3-0.7-0.9c0-0.8,0.6-0.8,0.8-0.8
			c0.2,0,0.9,0,1.1,0c0.4,0,0.8,0,0.8-0.7v-0.7h-6.1v2.3c0,0.3,0,0.9-0.9,0.9c-0.7,0-1-0.3-1-0.9v-5.1c-0.9,0.9-1.4,1.2-1.8,1.2
			c-0.6,0-1.1-0.6-1.1-1.1c0-0.4,0.3-0.7,0.8-1c1.1-0.8,2.5-2.1,3.6-4h-3.3c-0.3,0-0.9,0-0.9-0.9c0-0.8,0.6-0.9,0.9-0.9h4.1
			c0.1-0.1,0.4-1.1,0.4-1.2c0.2-0.3,0.4-0.5,0.9-0.5c0.3,0,1.2,0.1,1.2,0.8c0,0.3-0.1,0.5-0.2,0.8L117.4,27.1L117.4,27.1z
			 M108.7,32.7h6V32c0-0.3-0.2-0.4-0.4-0.4h-5.2c-0.3,0-0.4,0.2-0.4,0.4V32.7z M114.7,34.2h-6v1.1h6V34.2z"/>
	</g>
	<g class="st0">
		<path class="st1" d="M127.4,28.9h3.5c0.4,0,0.6,0.3,0.6,0.7s-0.2,0.7-0.6,0.7h-3.5v0.6h3.7c0.2,0,0.6,0,0.6,0.6
			c0,0.6-0.4,0.6-0.6,0.6h-3.7v0.6h5.5c0.3,0,0.8,0,0.8,0.8c0,0.8-0.5,0.8-0.8,0.8h-12.9c-0.3,0-0.8,0-0.8-0.8
			c0-0.8,0.5-0.8,0.8-0.8h5.5V32h-3.7c-0.2,0-0.6,0-0.6-0.6c0-0.6,0.4-0.6,0.6-0.6h3.7v-0.6h-3.4c-0.4,0-0.6-0.3-0.6-0.7
			c0-0.4,0.2-0.7,0.6-0.7h3.4v-0.3c0-0.3,0.2-0.5,0.3-0.6H122c-0.3,0-0.4,0.2-0.4,0.4V29c0,0.3,0,0.9-0.9,0.9c-0.8,0-1-0.3-1-0.9
			v-0.9c0-1.4,0.6-1.8,1.8-1.8h4.1v-0.4c0-0.6,0.6-0.7,0.9-0.7c0.7,0,1.1,0.1,1.1,0.7v0.4h4.1c1.2,0,1.8,0.4,1.8,1.8v0.8
			c0,0.3,0,0.9-0.9,0.9c-0.8,0-1-0.4-1-0.9v-0.7c0-0.3-0.2-0.4-0.4-0.4h-3.9c0.3,0.2,0.3,0.4,0.3,0.6v0.4H127.4z M132.1,37.9
			c0,1.4-0.6,1.8-1.8,1.8h-7.6c-1.2,0-1.8-0.4-1.8-1.8v-1.3c0-1.4,0.6-1.8,1.8-1.8h7.6c1.2,0,1.8,0.4,1.8,1.8V37.9z M130.1,36.9
			c0-0.3-0.2-0.4-0.4-0.4h-6.3c-0.3,0-0.4,0.1-0.4,0.4v0.8c0,0.3,0.2,0.4,0.4,0.4h6.3c0.3,0,0.4-0.2,0.4-0.4V36.9z"/>
	</g>
	<g class="st0">
		<path class="st1" d="M146.5,38.7c-0.8,0.2-2.7,0.4-4.9,0.4c-1.3,0-2.2-0.1-2.9-0.2c-1.1-0.2-4-0.7-4-3.2c0-1.5,1-2.6,1.8-3.2
			c0.3-0.3,0.6-0.3,0.8-0.3c0.8,0,1.1,0.6,1.1,0.9s-0.3,0.6-0.8,1.2c-0.7,0.7-0.8,0.9-0.8,1.3c0,1.4,2.5,1.6,4.3,1.6
			c1.4,0,3-0.2,4.1-0.3c0.8-0.2,0.9-0.2,1.2-0.2c0.2,0,0.9,0,0.9,0.9C147.4,38.3,147.1,38.5,146.5,38.7z M136.9,28.8
			c-0.5,0-1.3,0-1.3-1c0-1,0.7-1,1.4-1c0.3,0,2,0.1,2.4,0.1c0.6,0,3.8-0.1,4.5-0.1c0.2,0,0.8,0,0.9,0c0.6,0,1.3,0.1,1.3,0.9
			c0,0.6-0.2,0.8-1.3,1.4c-0.4,0.3-2.1,1.4-2.5,1.5c-0.4,0.3-0.7,0.3-0.9,0.3c-0.6,0-1-0.4-1-0.9c0-0.3,0.3-0.6,0.8-0.9
			c0.2-0.1,0.8-0.4,0.9-0.5C140.5,28.6,138.4,28.8,136.9,28.8z M144,30.8c-0.1-0.1-0.1-0.2-0.1-0.3c0-0.3,0.3-0.4,0.6-0.4
			s0.3,0.1,0.7,0.7c0.1,0.3,0.6,1.1,0.6,1.4s-0.4,0.5-0.6,0.5c-0.3,0-0.3-0.2-0.4-0.3c-0.1-0.3-0.3-0.6-0.4-0.8
			C144.4,31.4,144,30.9,144,30.8z M145.6,30c-0.1-0.1-0.1-0.2-0.1-0.3c0-0.3,0.3-0.4,0.6-0.4s0.4,0.2,0.7,0.8c0.2,0.3,0.5,1,0.5,1.3
			s-0.3,0.5-0.6,0.5c-0.3,0-0.3-0.2-0.4-0.3c-0.1-0.1-0.3-0.7-0.3-0.8C146,30.6,145.7,30.1,145.6,30z"/>
	</g>
	<g class="st0">
		<path class="st1" d="M159.4,29.5c0-0.6,0.2-1.1,1-1.1c0.9,0,1.1,0.5,1.1,1.4c0,0.7-0.2,2.5-0.2,2.7c1.4,0.6,1.9,0.9,1.9,1.5
			c0,0.5-0.4,1.1-0.9,1.1c-0.3,0-0.4-0.1-1.4-0.6c-0.8,3.2-3,4.7-4.2,4.7c-0.5,0-1-0.5-1-1c0-0.5,0.2-0.6,1.5-1.4
			c1.4-0.8,1.8-2.6,1.9-3.2c-0.7-0.3-2.2-0.8-3.3-0.9c-0.3,1.3-0.8,2.5-1.3,3.6c-0.6,1.3-1.3,2-2.4,2c-1.3,0-2.9-1.1-2.9-3.2
			c0-1.4,0.8-3.2,3-4c0.9-0.3,1.7-0.3,2-0.3c0.1-0.3,0.3-1.4,0.4-1.5c0.1-0.2,0.2-0.8,0.2-1c0-0.3-0.2-0.4-0.6-0.4
			c-0.1,0-2.4,0.2-2.8,0.2c-0.3,0-1.1,0-1.1-0.9c0-1,0.7-1,1.3-1c1,0,2.6-0.1,3.6-0.1c0.3,0,1.7,0,1.7,1.3c0,0.6-0.2,1.4-0.3,1.7
			c-0.1,0.3-0.4,1.7-0.5,1.9c0.4,0.1,1.3,0.3,3,0.8C159.4,31.1,159.4,31,159.4,29.5z M152.9,33.1c-1.2,0.4-1.7,1.4-1.7,2.4
			c0,1,0.7,1.3,0.9,1.3c0.4,0,0.7-0.4,1.1-1.4c0.3-0.9,0.6-1.5,0.8-2.5C153.4,32.9,153.2,33,152.9,33.1z"/>
	</g>
	<path class="st1" d="M178.6,34.4c0-2.6-0.1-5.8-0.1-8l0,0c0-0.8,0-1.2,0-1.2c0-0.6-1.8-1-4.2-1.2c0-0.3,0-0.7,0-0.7
		c0-0.2-0.7-0.3-1.5-0.3s-1.5,0.2-1.5,0.3c0,0,0,0.3,0,0.7c-2.5,0.2-4.2,0.7-4.2,1.3c0,0,0,0.4,0,1.2l0,0c0.1,4.3,0.1,12.4,0.2,12.9
		l0,0c0,0.8,0,1.4,0,1.4c0,0.7,2.6,1.3,5.8,1.2c3.2,0,5.8-0.6,5.8-1.4C178.7,40.7,178.7,37.7,178.6,34.4z M174.1,23.5
		c0,0.3,0,0.9,0,1.2c-0.2,0.1-0.6,0.2-1.2,0.2c-0.6,0-1.1-0.1-1.2-0.2v-1.2H174.1z M167.4,25.8c0.8,0.5,3,0.8,5.5,0.8
		c2.5,0,4.7-0.4,5.4-0.9c0,0.3,0,0.7,0,1.2c-0.8,0.5-2.9,0.9-5.4,0.9c-2.5,0-4.7-0.3-5.5-0.8C167.4,26.5,167.4,26.1,167.4,25.8z
		 M169.9,34.4l3.3-5.2l-1.3,4.3h4l-5.5,6.5l2.8-5.8L169.9,34.4z M173,41.9c-3.2,0-5.2-0.5-5.5-0.9l0,0c0-0.1,0-0.5,0-1.1
		c0.8,0.5,3,0.8,5.5,0.8s4.7-0.4,5.4-0.9c0,0.6,0,1,0,1.1C178.4,41.2,176.4,41.9,173,41.9z"/>
</g>
<g>
	<g class="st0">
		<path class="st1" d="M67.1,59.2c0,0.3,0,0.9-0.7,0.9s-0.8-0.4-0.8-0.9v-6.3c-0.1,0.3-0.3,0.4-0.6,0.4c-0.4,0-0.8-0.6-0.8-1.1
			c0-0.3,0.1-0.5,0.3-1c0.8-1.5,1.3-3.2,1.6-4.7c0.1-0.4,0.2-0.8,0.7-0.8c0.3,0,0.8,0.2,0.8,0.8c0,0.4-0.3,1.7-0.6,3V59.2z
			 M68.2,48.7c-0.3,0-0.7-0.1-0.7-0.8c0-0.8,0.3-0.8,0.7-0.8h2.6v-0.6c0-0.3,0-0.8,0.7-0.8c0.6,0,0.8,0.3,0.8,0.8V47h2.6
			c0.2,0,0.8,0,0.8,0.8c0,0.8-0.4,0.8-0.8,0.8h-2.6v0.9h1.5c0.8,0,1.4,0.3,1.4,1.8v1.4c0,1.4-0.4,1.8-1.4,1.8h-1.7
			c-0.1,0.9-0.3,1.6-0.5,2.3c1.2,0.8,1.9,0.9,3.4,1.3c0.4,0.1,0.6,0.4,0.6,0.8c0,0.2,0,1.1-0.8,1.1c-0.5,0-2.5-0.5-4.1-1.7
			c-0.8,1.1-2,1.7-2.6,1.7c-0.6,0-0.8-0.7-0.8-1c0-0.6,0.3-0.8,0.5-0.8c1.1-0.5,1.2-0.5,1.6-0.8c-0.6-0.6-0.9-1.2-1-1.3
			c-0.1-0.2-0.2-0.3-0.2-0.5c0-0.3,0.3-0.9,0.7-0.9c0.3,0,0.3,0.1,0.5,0.3c0.3,0.5,0.6,0.8,0.8,0.9c0.1-0.3,0.3-0.6,0.3-1.3h-1.4
			c-0.9,0-1.4-0.4-1.4-1.8v-1.4c0-1.4,0.5-1.8,1.4-1.8h1.5v-0.9L68.2,48.7L68.2,48.7z M70.8,51.2h-1.2c-0.3,0-0.4,0.2-0.4,0.5v0.8
			c0,0.3,0.2,0.5,0.4,0.5h1.1c0-0.8,0-1.1,0-1.5L70.8,51.2L70.8,51.2z M72.3,51.2c0,0.8,0,1,0,1.8h1.2c0.3,0,0.4-0.2,0.4-0.5v-0.8
			c0-0.3-0.1-0.5-0.4-0.5H72.3z"/>
		<path class="st1" d="M82.8,55.5v3.6c0,0.4-0.1,0.9-0.7,0.9c-0.5,0-0.8-0.2-0.8-0.9v-3.6h-2.5c-0.1,1.2-0.3,2.2-0.7,3.4
			c-0.3,1-0.6,1.1-0.9,1.1c-0.5,0-0.9-0.5-0.9-1.1c0-0.3,0-0.3,0.5-1.4c0.3-0.8,0.6-2,0.6-4v-5.4c0-1.4,0.5-1.9,1.4-1.9h6.4
			c0.9,0,1.4,0.4,1.4,1.9v10.2c0,1.8-0.8,1.8-2,1.8c-0.7,0-1.3,0-1.3-1c0-0.6,0.2-0.9,0.7-0.9c0.1,0,0.6,0,0.7,0
			c0.3,0,0.3-0.2,0.3-0.6v-1.9H82.8z M81.3,50v-2h-2c-0.3,0-0.4,0.2-0.4,0.5V50H81.3z M81.3,51.7H79v2.1h2.4V51.7z M82.8,50h2.6
			v-1.5c0-0.3-0.2-0.5-0.4-0.5h-2.2V50z M85.3,51.7h-2.6v2.1h2.6V51.7z"/>
		<path class="st1" d="M89.9,50.4c0.1,0.1,0.6,0.5,0.8,0.8c0.1,0.2,0.2,0.3,0.2,0.5c0,0.4-0.3,1-0.8,1c-0.3,0-0.4-0.2-0.7-0.5
			c-0.3-0.3-0.5-0.5-0.8-0.8s-0.5-0.4-0.5-0.8c0-0.3,0.3-0.8,0.7-0.9C89.1,49.7,89.5,50.1,89.9,50.4z M90.6,56.4
			c-0.3,0.8-0.8,2.3-1.1,3c-0.2,0.4-0.4,0.4-0.6,0.4c-0.4,0-0.8-0.4-0.8-0.9c0-0.3,0-0.3,0.5-1.4c0.3-0.6,0.6-1.5,0.9-2.6
			c0.2-0.5,0.3-0.8,0.7-0.8c0.4,0,0.7,0.4,0.7,0.7C91,55.2,91,55.3,90.6,56.4z M90.4,46.5c0.6,0.5,0.8,0.8,0.8,1.1
			c0,0.4-0.3,1-0.7,1c-0.3,0-0.3,0-0.9-0.7c-0.2-0.1-0.8-0.7-0.9-0.8c-0.2-0.2-0.2-0.3-0.2-0.5c0-0.4,0.3-0.9,0.7-0.9
			C89.4,45.6,89.5,45.6,90.4,46.5z M93.2,57.3c-0.2,0.9-0.4,1.6-0.7,1.9c-0.3,0.6-0.5,0.8-0.8,0.8c-0.3,0-0.8-0.3-0.8-0.9
			c0-0.3,0.1-0.3,0.4-1.1c0.7-1.3,0.7-2.5,0.7-3v-1.4c0-0.4,0.1-0.5,0.1-0.6c-0.2,0-0.4,0.1-0.6,0.1c-0.6,0-0.6-0.9-0.6-1
			c0-0.7,0.3-0.8,0.7-0.8c0.9-0.2,1.4-0.3,2.3-0.6c-0.5-0.5-0.9-1.2-1.4-2.2h-0.7c-0.2,0-0.7,0-0.7-0.8s0.4-0.8,0.7-0.8h2.6v-0.5
			c0-0.6,0.5-0.7,0.8-0.7s0.7,0.1,0.7,0.7v0.5h2.7c0.3,0,0.7,0.1,0.7,0.8s-0.4,0.8-0.6,0.8h-0.6c-0.3,0.8-0.8,1.5-1.5,2.3
			c0.6,0.3,0.9,0.3,2,0.6c0.4,0.1,0.8,0.3,0.8,0.8c0,0.3-0.1,1-0.7,1c-0.1,0-0.3,0-0.3-0.1c0,0.1,0.1,0.2,0.1,0.4v5.7
			c0,0.7-0.3,0.9-0.8,0.9c-0.7,0-0.7-0.7-0.7-0.9v-1.9H93.2z M96.8,53.4c0-0.4,0.1-0.6,0.3-0.7c-1-0.3-1.6-0.8-2-1
			c-0.9,0.6-1.6,0.8-2.1,1c0.4,0.2,0.4,0.4,0.4,0.7H96.8z M96.8,55.8v-0.9h-3.4c0,0.4,0,0.6,0,1L96.8,55.8L96.8,55.8z M93.9,48.4
			c0.3,0.6,0.8,1.1,1.2,1.4c0.6-0.5,0.9-0.9,1.3-1.4H93.9z"/>
		<path class="st1" d="M103.4,48.9c0,0.3-0.4,3.5-1.2,5.8c-0.2,0.6-0.6,1.7-1,2c-0.1,0.1-0.3,0.2-0.4,0.2c-0.5,0-0.9-0.6-0.9-1.1
			c0-0.3,0.1-0.5,0.3-1c0.9-1.9,1.2-3.2,1.5-5.9c0.1-0.7,0.3-0.9,0.8-0.9C102.6,48,103.4,48,103.4,48.9z M106.3,58.1
			c0,1.9-0.8,1.9-2.2,1.9c-0.3,0-1,0-1.3-0.1c-0.5-0.1-0.6-0.7-0.6-1c0-1,0.6-1,0.8-1c0.1,0,0.8,0,1,0c0.4,0,0.7,0,0.7-0.7V46.5
			c0-0.3,0-0.9,0.8-0.9c0.7,0,0.8,0.3,0.8,0.9C106.3,46.5,106.3,58.1,106.3,58.1z M109.2,49.1c0.3,2.3,0.8,4.1,1.4,5.2
			c0.1,0.2,0.5,1,0.5,1.2c0.1,0.2,0.1,0.3,0.1,0.5c0,0.8-0.6,1.1-0.9,1.1c-0.4,0-0.7-0.3-1-1.3c-0.8-1.7-1.1-3.6-1.4-4.7
			c-0.1-0.6-0.3-1.7-0.3-2.2c0-0.8,0.8-0.9,0.8-0.9C109.1,48,109.2,48.3,109.2,49.1z"/>
		<path class="st1" d="M118.1,54.8h3.3c0.2,0,0.7,0,0.7,0.8s-0.5,0.8-0.7,0.8H118v1.3h4.1c0.2,0,0.8,0,0.8,0.9
			c0,0.9-0.5,0.9-0.8,0.9h-9.7c-0.2,0-0.7,0-0.7-0.8c0-0.7,0.2-0.9,0.7-0.9h4.1v-1.4h-3.3c-0.2,0-0.7,0-0.7-0.8s0.5-0.8,0.7-0.8h3.3
			v-0.8c-0.1,0.1-0.3,0.1-0.3,0.1c-0.5,0-0.8-0.3-0.8-0.9v-2.3h-1c-0.1,1.7-0.8,3.6-1.5,3.6c-0.3,0-0.8-0.3-0.8-0.8
			c0-0.3,0.1-0.4,0.4-0.9c0.3-0.6,0.5-1.4,0.5-1.7h-0.8c-0.2,0-0.6,0-0.6-0.8s0.4-0.8,0.6-0.8h0.8v-1.5h-0.5c-0.4,0-0.6-0.3-0.6-0.8
			c0-0.8,0.4-0.8,0.7-0.8h4.7c0.2,0,0.7,0,0.7,0.8c0,0.6-0.3,0.8-0.6,0.8h-0.5v1.5h0.7c0.2,0,0.6,0.1,0.6,0.8c0,0.7-0.3,0.8-0.6,0.8
			h-0.7v2.3c0,0.2,0,0.2,0,0.3c0.1-0.1,0.2-0.1,0.4-0.1c0.7,0,0.8,0.4,0.8,0.8L118.1,54.8L118.1,54.8z M115.5,47.7h-0.9v1.5h0.9
			V47.7z M119.9,51.6c0,0.3,0,0.8-0.7,0.8s-0.7-0.6-0.7-0.8v-4.6c0-0.3,0-0.8,0.7-0.8s0.7,0.6,0.7,0.8V51.6z M122.5,52.6
			c0,1.6-0.7,1.6-1.6,1.6c-0.3,0-0.8,0-0.9-0.1c-0.2-0.1-0.5-0.3-0.5-0.9c0-0.8,0.4-0.8,0.7-0.8c0.1,0,0.7,0.1,0.8,0
			c0.2-0.1,0.3-0.3,0.3-0.5v-5.3c0-0.3,0-0.9,0.7-0.9s0.7,0.6,0.7,0.9L122.5,52.6L122.5,52.6z"/>
		<path class="st1" d="M131.4,50.6c0.1,0.7,0.3,1.4,0.4,2.1c0.3-0.2,0.6-0.5,1-0.9c0.6-0.6,0.6-0.6,0.8-0.6c0.3,0,0.7,0.4,0.7,0.9
			c0,0.3-0.1,0.4-0.6,0.9c-0.6,0.6-1,0.9-1.4,1.2c0.6,1.4,1.3,2.3,1.9,2.9c0.3,0.3,0.5,0.5,0.5,0.9c0,0.5-0.3,1.1-0.8,1.1
			c-0.2,0-0.3-0.1-0.4-0.3c-0.2-0.2-0.7-0.8-1.2-1.7c-1.4-2.5-1.9-5.6-2-6.6h-0.3c-0.2,0.2-0.3,0.4-0.7,0.8c0.4,0.7,1.6,2.4,1.6,5.7
			c0,2.9-1.2,2.9-2.3,2.9c-0.2,0-0.8,0-1-0.1c-0.3-0.1-0.4-0.5-0.4-0.8c0-0.8,0.5-0.8,0.6-0.8c0.2,0,0.8,0.1,1,0.1
			c0.4,0,0.8,0,0.8-2.1c-1.8,1.9-4.7,3-5.1,3c-0.5,0-0.7-0.6-0.7-1c0-0.3,0.1-0.6,0.4-0.7c0.2-0.1,0.8-0.3,1-0.3
			c1.5-0.5,2.9-1.3,4.1-2.5c-0.1-0.3-0.2-0.5-0.2-0.7c-1.9,1.8-4.2,2.5-4.5,2.5c-0.4,0-0.6-0.6-0.6-0.9c0-0.6,0.3-0.7,0.7-0.8
			c0.2-0.1,2.2-0.6,3.9-2c-0.1-0.2-0.2-0.3-0.3-0.5c-1.9,1.4-3.5,1.6-3.6,1.6c-0.5,0-0.6-0.6-0.6-0.8c0-0.6,0.3-0.7,0.7-0.8
			c0.6-0.1,1.3-0.3,2.4-0.9c0.2-0.1,0.8-0.7,1-0.8h-1.9c-0.3,0-0.7-0.1-0.7-0.8c0-0.7,0.4-0.8,0.7-0.8h6.4c0.3,0,0.7,0.1,0.7,0.8
			c0,0.7-0.4,0.8-0.7,0.8L131.4,50.6L131.4,50.6z M133.2,46.7c1.1,0,1.4,0.3,1.4,1.8v1c0,0.3,0,0.9-0.7,0.9c-0.5,0-0.8-0.3-0.8-0.9
			v-0.8c0-0.3-0.1-0.3-0.3-0.3h-7.2c-0.2,0-0.3,0.1-0.3,0.3v0.8c0,0.3,0,0.9-0.7,0.9c-0.5,0-0.8-0.3-0.8-0.9v-1
			c0-1.4,0.3-1.8,1.4-1.8h3.2v-0.3c0-0.6,0.3-0.8,0.7-0.8c0.4,0,0.8,0.2,0.8,0.8v0.4L133.2,46.7L133.2,46.7z"/>
		<path class="st1" d="M141.7,51.2c0,0.3,0,0.8-0.6,0.8c-0.5,0-0.7-0.3-0.7-0.8v-2h-3c-0.3,0-0.4,0.2-0.4,0.5v1.1
			c0,0.3,0,0.8-0.7,0.8c-0.5,0-0.8-0.3-0.8-0.8v-0.9c0-1.5,0.3-1.9,1.4-1.9h3.3v-0.5h-3.6c-0.3,0-0.6,0-0.6-0.8
			c0-0.6,0.3-0.8,0.6-0.8h8.5c0.3,0,0.6,0.1,0.6,0.8c0,0.5-0.2,0.8-0.6,0.8h-3.6V48h3.3c1.2,0,1.4,0.3,1.4,1.9v0.9
			c0,0.3,0,0.8-0.7,0.8c-0.6,0-0.8-0.3-0.8-0.8v-1c0-0.3-0.1-0.5-0.4-0.5h-2.9V51.2z M140.2,57.7h-2.7c-1,0-1.3-0.5-1.3-1.7v-2.1
			c0-1.4,0.4-1.7,1.3-1.7h6.9c0.8,0,1.3,0.4,1.3,1.7v2.2c0,0.2,0,0.3,0,0.6c0.1,0,0.9-0.2,0.9,0.8c0,0.1,0,1.4-0.3,1.8
			c-0.3,0.5-0.7,0.5-1.5,0.5h-2.9c-1.4,0-1.7-0.1-1.7-1.7L140.2,57.7L140.2,57.7z M139.7,49.7c0.1,0,0.3,0,0.3,0.4
			c0,0.3-0.1,0.4-0.3,0.4h-1.9c-0.2,0-0.3-0.1-0.3-0.3s0-0.4,0.3-0.4L139.7,49.7L139.7,49.7z M139.7,50.9c0.1,0,0.3,0,0.3,0.4
			c0,0.3-0.1,0.4-0.3,0.4h-1.9c-0.2,0-0.3,0-0.3-0.4c0-0.3,0-0.4,0.3-0.4H139.7z M140.2,56.4v-0.8h-2.5V56c0,0.3,0.1,0.3,0.3,0.3
			H140.2z M140.2,54.3v-0.8H138c-0.2,0-0.3,0.1-0.3,0.3v0.4L140.2,54.3L140.2,54.3z M141.6,54.3h2.5v-0.4c0-0.3-0.1-0.3-0.3-0.3
			h-2.3V54.3z M141.6,55.5v0.8h2.3c0.2,0,0.3-0.2,0.3-0.3v-0.5H141.6z M141.6,58.1c0,0.4,0.3,0.4,0.3,0.4h2.4c0.6,0,0.8,0,0.8-0.9
			c-0.1,0.1-0.3,0.2-0.8,0.2h-2.8V58.1z M144.4,49.7c0.1,0,0.3,0,0.3,0.3c0,0.3-0.1,0.4-0.3,0.4h-1.9c-0.1,0-0.3,0-0.3-0.3
			c0-0.3,0.1-0.4,0.3-0.4H144.4z M144.4,50.9c0.2,0,0.3,0.1,0.3,0.4c0,0.3-0.1,0.4-0.3,0.4h-1.9c-0.2,0-0.3,0-0.3-0.4
			c0-0.3,0-0.4,0.3-0.4H144.4z"/>
	</g>
	<g>
		<polygon class="st1" points="156.3,57.4 155.3,58.8 178.7,58.8 177.3,57.4 		"/>
		<path class="st1" d="M156.6,54.4c-0.3,1.3-0.3,2.2-0.3,2.2h21c0,0-1.4-3.5-4.4-6c-1.3-2-4.3-5.8-8.5-5.7c-5.5,0.1-7.2,3-7.7,8.9
			c-0.3-0.1-0.5-0.1-0.8-0.1c-0.9,0.1-1.6,1.1-2.2,2c-0.7,1.1-1.4,1.6-1.9,1.6l0,0c-0.3,0-0.7-0.3-0.9-0.7l-0.4,0.3
			c0.4,0.7,0.8,0.9,1.4,0.9l0,0c0.9,0,1.8-1,2.3-1.9c0.5-0.8,1.1-1.8,1.8-1.9C156.1,54.3,156.4,54.3,156.6,54.4 M164.3,46.8
			c1.3,0,2.5,0.6,3.5,1.4c-0.6-0.1-1.2-0.2-1.8-0.2c-2.6,0-4.5,0.6-5.9,1.4C161,47.9,162.4,46.8,164.3,46.8"/>
	</g>
</g>
</svg>
