<?xml version="1.0" encoding="utf-8"?>
<!-- Generator: Adobe Illustrator 28.0.0, SVG Export Plug-In . SVG Version: 6.00 Build 0)  -->
<svg version="1.1" id="レイヤー_1" xmlns="http://www.w3.org/2000/svg" xmlns:xlink="http://www.w3.org/1999/xlink" x="0px"
	 y="0px" viewBox="0 0 200.8 82" style="enable-background:new 0 0 200.8 82;" xml:space="preserve">
<style type="text/css">
	.st0{fill-rule:evenodd;clip-rule:evenodd;fill:#231815;}
	.st1{fill:#231815;}
	.st2{fill:#747374;}
</style>
<g>
	<path class="st0" d="M85.7,39.6L85.7,39.6L85.7,39.6z"/>
	<g>
		<path class="st1" d="M87.7,49.5c1.3-1.3,2.6-3.1,3.3-8.1l1,0.1c-0.6,4.8-1.9,6.9-3.4,8.7L87.7,49.5z M96.1,51.8
			c0,1.1-0.5,1.2-1.4,1.2h-3.2l-0.2-0.9h3.1c0.7,0,0.7-0.1,0.7-0.6V39h1V51.8L96.1,51.8z M100.3,41.4c0.8,5.2,2.4,7.3,3.1,8.1
			l-0.8,0.7c-1.3-1.5-2.5-3.5-3.3-8.7L100.3,41.4z"/>
		<path class="st1" d="M113,39.6v0.7h-1.8v2.4h2.3v0.7h-2.3v4h-0.9v-4h-2.2c-0.3,1.9-1.3,3.3-2.7,4.4l-0.7-0.7
			c1.1-0.7,2.3-1.9,2.5-3.7h-2.5v-0.7h2.5v-2.4h-2.1v-0.7H113z M111.9,51.8v-2.4h-5.8v-0.7h5.9V47h0.9v1.6h5.9v0.7h-5.9v2.4h7.3v0.7
			h-15.4v-0.7L111.9,51.8L111.9,51.8z M110.3,40.4h-2.2v2.4h2.2V40.4z M115.5,39.9v5.8h-0.9v-5.8H115.5z M119.4,46.4
			c0,0.7-0.1,1-1.3,1h-1.9l-0.2-0.8h1.9c0.5,0,0.5-0.1,0.5-0.5v-6.9h0.9C119.4,39.2,119.4,46.4,119.4,46.4z"/>
		<path class="st1" d="M136.1,44.6c-0.5,0.5-1.3,1.2-3.7,2.3c1.3,2.5,3.3,3.8,4.4,4.5l-0.7,0.7c-2.7-2-4.9-4.4-5.8-8.9h-0.7
			c-0.3,0.3-0.5,0.5-1.1,1c0.7,0.6,2.5,2.3,2.5,5.8c0,1.3-0.3,3.1-2.1,3.1h-2.1l-0.2-0.9h2.2c0.5,0,1.3,0,1.3-2.1
			c0-0.4-0.1-0.9-0.2-1.6c-1.8,1.6-4.8,2.9-8.2,3.5l-0.4-0.8c3.7-0.6,6.5-1.8,8.4-3.5c-0.1-0.2-0.2-0.7-0.6-1.3
			c-2.5,2.2-5.7,2.9-6.8,3.1l-0.4-0.7c1.7-0.3,4.4-1.1,6.8-3c-0.5-0.5-0.7-0.8-0.9-0.9c-1.9,1.2-3.5,1.8-5.5,2.3l-0.5-0.7
			c3.2-0.5,5.5-1.7,6.7-2.9h-5.1v-0.8h11.3v0.7H131c0.3,1.5,0.8,2.5,1.1,3c1.3-0.6,2.3-1.3,3.3-2.1L136.1,44.6z M128.7,40.4V39h0.9
			v1.3h6.8v3.1h-0.9v-2.3h-12.7v2.3h-0.9v-3.1h6.8V40.4z"/>
		<path class="st1" d="M152.6,40.3h-6.3v0.9h6.9v3h-0.9v-2.3h-6v3h-0.9v-3h-6v2.3h-0.9v-3h6.9v-0.9h-6.2v-0.7h13.3L152.6,40.3
			L152.6,40.3z M146.4,51.5c0,0.4,0,0.5,0.7,0.5h4.7c0.9,0,1.2,0,1.3-1.9l0.8,0.3c-0.3,2.1-0.6,2.3-2.1,2.3h-4.9
			c-1.1,0-1.3-0.5-1.3-1.1v-1h-6.1v-5.1h13v5h-6.1L146.4,51.5L146.4,51.5z M145.5,46.2h-5.1v1.4h5.1V46.2z M145.5,48.3h-5.1v1.5h5.1
			V48.3z M144.4,42.6v0.6h-3.9v-0.6H144.4z M144.4,44v0.6h-3.9V44H144.4z M151.5,46.2h-5.1v1.4h5.1V46.2z M151.5,48.3h-5.1v1.5h5.1
			V48.3z M151.4,42.6v0.6h-3.9v-0.6H151.4z M151.4,44v0.6h-3.9V44H151.4z"/>
	</g>
</g>
<g>
	<path class="st1" d="M61.9,43v1.5l2.4-2.4h-1.5C62.4,42.1,61.9,42.5,61.9,43z"/>
	<rect x="60.1" y="53.7" class="st1" width="2.3" height="1"/>
	<rect x="76.3" y="53.7" class="st1" width="2.3" height="1"/>
	<path class="st1" d="M79.7,37.4H58.9c-0.8,0-1.5,0.7-1.5,1.5v12.9c0,0.8,0.7,1.5,1.5,1.5h20.9c0.8,0,1.5-0.7,1.5-1.5V38.9
		C81.2,38.1,80.5,37.4,79.7,37.4z M73.6,49.2c0,0.5-0.4,0.9-0.9,0.9H61.3c-0.5,0-0.9-0.4-0.9-0.9v-7.8c0-0.5,0.4-0.9,0.9-0.9h11.4
		c0.5,0,0.9,0.4,0.9,0.9V49.2z M76.1,50c-0.4,0-0.7-0.3-0.7-0.7s0.3-0.7,0.7-0.7c0.4,0,0.7,0.3,0.7,0.7C76.9,49.7,76.5,50,76.1,50z
		 M76.1,47.3c-0.4,0-0.7-0.3-0.7-0.7s0.3-0.7,0.7-0.7c0.4,0,0.7,0.3,0.7,0.7C76.9,47,76.5,47.3,76.1,47.3z M78.9,50
		c-0.4,0-0.7-0.3-0.7-0.7s0.3-0.7,0.7-0.7c0.4,0,0.7,0.3,0.7,0.7S79.3,50,78.9,50z M78.9,47.3c-0.4,0-0.7-0.3-0.7-0.7
		s0.3-0.7,0.7-0.7c0.4,0,0.7,0.3,0.7,0.7S79.3,47.3,78.9,47.3z M79.6,42.8h-4.1v-2.2h4.1V42.8z"/>
</g>
<g>
	<path class="st0" d="M56.4,1.8L56.4,1.8L56.4,1.8z"/>
	<g>
		<path class="st1" d="M58.5,8.2C58.8,7.3,59,6.1,59,3.9h0.8c0,2.5,0,3.5-0.4,4.6L58.5,8.2z M58.5,14.5c0.9-0.7,2-1.9,2-6.2V1.1h0.8
			V5c0.6-1,0.8-1.3,1.1-2l0.7,0.5c-0.4,0.9-1.7,2.7-1.9,2.9v1.9c0,0.7,0,0.8,0,1.5c0.5,1.5,1.5,2.5,1.9,2.8l-0.7,0.7
			c-0.5-0.5-0.9-1-1.4-2c-0.3,1.4-0.7,2.7-2,3.9L58.5,14.5z M62.1,7.1c1.7-1.6,2.5-4.3,2.7-5.9l0.8,0.1c-0.1,0.5-0.1,0.9-0.3,1.5
			h2.8c-0.1,0.9-0.2,1.3-0.3,1.6h2.1V1.1h0.9v3.3h3.1v0.7h-3c0.1,0.3,0.4,3.6,3.1,5.3l-0.5,0.8c-1.8-1.2-2.7-3.2-3-5.3
			c-0.5,2.7-1.9,4.4-3.7,5.2l-0.5-0.7c0.9-0.5,3.3-1.7,3.7-5.3h-2.3c-0.6,1.9-1.7,4.3-4.3,6l-0.6-0.6c0.9-0.6,1.9-1.4,2.8-2.7
			c-0.5-0.3-1.4-0.8-2.1-1.1c-0.3,0.5-0.5,0.6-0.7,0.9L62.1,7.1z M62.5,14.5c1.1-1,1.5-1.7,2.1-3.1l0.8,0.3c-0.2,0.5-0.8,2.3-2,3.4
			L62.5,14.5z M66.5,6.1C65.9,5.7,65,5.2,64.4,5c-0.1,0.3-0.3,0.5-0.6,1.1c0.7,0.3,1.5,0.8,2.1,1.1C66.1,6.9,66.3,6.6,66.5,6.1z
			 M65.1,3.5c-0.2,0.6-0.3,0.8-0.3,0.9c0.7,0.2,1.2,0.5,2,1c0.3-0.8,0.4-1.4,0.5-1.9H65.1z M66.7,14.8c0-0.3,0.1-0.5,0.1-0.9
			c0-0.9-0.1-1.7-0.1-2.1l0.7-0.1c0.2,0.9,0.3,2.3,0.2,3L66.7,14.8z M69.8,14.8c-0.1-1-0.6-2.5-0.9-3l0.8-0.2
			c0.3,0.7,0.8,2.1,0.9,3.1L69.8,14.8z M73.3,15.1c-0.3-0.7-0.9-2.1-2.1-3.5l0.7-0.3c0.7,0.8,1.6,2.2,2.1,3.5L73.3,15.1z M73,3.9
			c-0.4-0.7-1.3-1.7-1.7-2.1L72,1.4c0.6,0.5,1.3,1.4,1.8,2.1L73,3.9z"/>
		<path class="st1" d="M81.1,14.7c-0.5-2.9-1.2-5.2-2.1-8.2c-1.6,0.5-2.1,0.7-3,1.1l-0.4-0.9c0.9-0.3,1.1-0.3,3.1-1
			c-0.2-0.7-0.6-1.8-1.1-3.2l1.1-0.3c0.2,0.5,0.7,2.1,1.1,3.2c1.9-0.6,3.4-0.9,4-1.1c-0.5-1.1-1.3-1.9-1.5-2.2l0.8-0.3
			c0.9,0.9,1.3,1.8,1.6,2.3c0.4,0,0.9-0.1,1.5-0.1c2.3,0,3.6,1.6,3.6,3.2c0,2.2-2,3.3-4.2,3.3c-1.3,0-2.3-0.4-2.6-0.5l0.3-0.9
			c0.5,0.2,1.2,0.5,2.4,0.5c1.6,0,3.1-0.9,3.1-2.5c0-0.7-0.4-2.3-2.7-2.3c-1.6,0-4.5,0.9-6.1,1.5c0.9,2.8,1.7,5.9,2.3,8.3L81.1,14.7
			z"/>
		<path class="st1" d="M102.7,10c-0.7-0.7-1.8-2.1-3-4.9c-0.5,0-2.2,0-3.2,0h-4.4V4.3l4.4,0.1h2.9c-0.3-0.7-0.4-1.2-0.7-2.7l1.1-0.1
			c0.1,0.7,0.3,1.5,0.7,2.7c2.8-0.1,4.1-0.3,5.1-0.5l0.2,0.9c-2,0.4-3.1,0.4-4.9,0.5c0.7,1.7,1.7,3.3,2.8,4.3L102.7,10z M95.8,9
			c-1.3,0.6-1.8,1.4-1.8,2.1c0,2.5,3.9,2.5,5.6,2.5c2,0,3.3-0.1,4.5-0.3v0.9c-0.6,0.1-2.3,0.2-4.5,0.2c-3.2,0-4.2-0.5-4.9-0.7
			c-0.7-0.3-1.8-1.1-1.8-2.5c0-0.6,0.3-1.9,2.2-2.9L95.8,9z"/>
		<path class="st1" d="M116.4,3.7v0.9h-4c-1.3,4.9-2.3,6.8-3.2,8.1l-1-0.5c1.7-2.4,2.7-5.7,3.2-7.6h-3.1V3.7h3.3
			c0.2-1.1,0.2-1.5,0.3-2.1l1.1,0.1c-0.1,0.4-0.3,1.8-0.4,2.1L116.4,3.7L116.4,3.7z M119,9.7c1.5,0.6,2.9,1.6,3.8,2.5l-0.7,0.8
			c-1.2-1.4-2.6-2.1-3.1-2.3v0.8c0,0.9-0.1,1.4-0.3,1.9c-0.6,1-1.9,1.2-2.9,1.2c-2.6,0-3.7-1.3-3.7-2.6c0-1.1,0.9-2.7,3.9-2.7
			c1,0,1.6,0.1,2,0.2L117.9,6h1L119,9.7z M118,10.3c-0.4-0.1-1-0.3-2-0.3c-2,0-2.9,0.9-2.9,1.9c0,1.8,2.3,1.8,2.7,1.8
			c2.1,0,2.1-1.2,2.1-2.3C118,11.5,118,10.3,118,10.3z M121.8,5.7c-1-0.6-2.5-1.3-4.3-1.9l0.4-0.7c1.3,0.4,2.5,0.9,4.4,1.9
			L121.8,5.7z"/>
		<path class="st1" d="M126.4,2.5c-0.1,0.8-0.3,2.1-0.3,4.2c0,2.7,0.3,6.3,2.4,6.3c0.7,0,1.1-0.3,1.5-0.9c0.5-0.6,1.1-1.5,1.6-2.8
			l0.9,0.4c-0.5,1.1-1.9,4.3-4.1,4.3c-2.5,0-3.3-3.1-3.3-7.4c0-1.6,0.1-3.1,0.2-4.2L126.4,2.5z M137.5,12.6c0.1-0.4,0.1-0.9,0.1-1.7
			c0-4.6-1.7-6.3-3.1-7.3l0.7-0.6c2.1,1.5,3.5,3.7,3.5,8.3c0,0.5,0,0.9-0.1,1.3C138.6,12.6,137.5,12.6,137.5,12.6z"/>
		<path class="st1" d="M143.9,8.5c-0.8,0.9-0.9,1.7-0.9,2.2c0,0.8,0.5,1.5,1.1,1.9c0.9,0.5,1.9,0.7,4,0.7c2.7,0,4.4-0.2,5.9-0.3
			l0.1,1c-1.2,0.1-3.1,0.2-5.7,0.2c-2.2,0-3.5-0.2-4.7-0.7c-1.1-0.5-1.7-1.6-1.7-2.7c0-1.2,0.6-2.1,1.1-2.7L143.9,8.5z M151.8,3.7
			c-1.1,0.3-2.5,0.7-4.3,1.9L146.8,5c0.9-0.6,1.6-0.9,2.5-1.2c-2.7,0-4.5,0.1-6.3,0.1v-1c1.3,0,2,0,8.8,0V3.7z M152.8,1
			c0.5,0.7,1.1,1.5,1.7,2.9l-0.9,0.5c-0.5-1.3-0.9-2.1-1.5-2.9L152.8,1z M155,0.4c0.9,1.1,1.3,2.1,1.7,2.9l-0.9,0.5
			c-0.6-1.3-1.1-2.1-1.6-2.9L155,0.4z"/>
		<path class="st1" d="M163.8,13.9c3.4-0.9,4.2-2.9,4.7-5.1c-2.4-0.8-3.7-0.9-4.7-1c-1.1,4-1.7,5.9-4.1,5.9c-1.6,0-2.7-1-2.7-2.5
			c0-1.7,1.3-3.1,2.7-3.7c0.9-0.3,2.1-0.5,3.2-0.5c0.3-1.1,0.5-2.8,0.7-4l-5.3,0V2.1h6.6c-0.2,1.7-0.5,3.3-0.9,4.9
			c0.6,0.1,2,0.1,4.7,0.9c0.2-0.9,0.3-1.7,0.4-3.4l1.1,0.1c-0.3,2-0.3,2.7-0.5,3.7c1,0.3,1.1,0.4,2.1,0.9l-0.3,0.9
			c-0.7-0.4-1.1-0.6-2-0.9c-0.4,1.6-1.3,4.5-5.1,5.5L163.8,13.9z M160.1,8.2c-1.3,0.6-2.1,1.7-2.1,2.9c0,0.5,0.3,1.8,1.6,1.8
			c1.9,0,2.3-1.3,3.3-5.1C161.8,7.7,161,7.8,160.1,8.2z"/>
	</g>
</g>
<g>
	<path class="st1" d="M38.6,10.6L38.6,10.6C38.7,10.7,38.7,10.7,38.6,10.6L38.6,10.6z"/>
	<path class="st1" d="M53,8.8c-0.4-1.1-1-2-1.7-2.9c-0.5-0.7-0.5-1.4-0.1-2c-1,0.5-1.6,1.1-1.3,2.1c-0.1-0.1-0.2-0.2-0.3-0.3
		c-0.8-0.9-1.8-2.1-2.3-3.1c-0.3-0.9-0.4-1.9,0.3-2.5c-1,0.4-2.1,1-2.9,1.5C42.6,3,40.2,6,41.9,8.3c-0.8-0.5-1-1.3-0.9-1.9
		c-0.8,0.7-1.3,1.6-1.3,2.4c-0.1,1,0.2,2.1,0.7,3c-0.1-0.1-0.1-0.1-0.1-0.2l-0.1-0.1c-0.6,0-1.1-0.4-1.5-0.9c0.4,2.2,4,4.5,7.1,5
		c-0.7-0.1-1.1-0.3-1.7-0.5c0.5,0.2,1.1,0.4,1.7,0.5c-1.5-0.3-3.3-1.7-3.2-3.3c0.1-1.9,2-2.8,2.7-4.3c0.3-0.7,0.5-1.6-0.2-2.1
		c1.5,0.5,2.7,2.3,2.3,3.7c-0.1,0.5-0.5,0.9-0.9,1.1h0.1c0.7-0.3,1.4-1.1,1.1-1.9c0.5,0.3,0.9,0.9,0.8,1.3c0,0.6-0.5,1.1-0.9,1.6
		c-0.3,0.5,0.1,1,0.7,0.8c0.7-0.2,0.8-1.1,0.1-1.5c1.4,0.7,1.3,2.3,0.3,3.2c-0.5,0.5-1.5,1-2.3,1.3c1.5-0.3,2.7-0.7,3.7-1.3
		C52.4,13.1,53.8,11,53,8.8z M41.3,13.1c-0.1-0.1-0.3-0.3-0.4-0.5C41,12.9,41.2,13,41.3,13.1L41.3,13.1z M44.1,15.1L44.1,15.1
		L44.1,15.1L44.1,15.1z"/>
</g>
<g>
	<rect x="38.1" y="8.5" transform="matrix(0.7071 -0.7071 0.7071 0.7071 6.8452 34.996)" class="st2" width="15.1" height="1.5"/>
	<rect x="44.9" y="1.7" transform="matrix(0.7071 -0.7071 0.7071 0.7071 6.8452 34.9956)" class="st2" width="1.5" height="15.1"/>
</g>
<g>
	<path class="st0" d="M82.7,21.1L82.7,21.1L82.7,21.1z"/>
	<g>
		<path class="st1" d="M92,20.5c-0.2,0.9-0.3,1.3-0.5,1.9h8.8v0.8h-9.2c-0.2,0.5-0.5,1.1-1,1.9h8.2v8.4c0,0.6-0.1,1.1-1.1,1.1h-2.5
			l-0.2-0.9h2.4c0.4,0,0.4-0.2,0.4-0.5v-2h-8.1v3.3h-0.9v-7.3c-0.7,0.6-1.4,1.3-2.9,2.3l-0.5-0.7c3.2-1.9,4.4-3.8,5.3-5.6H85v-0.8
			h5.5c0.3-0.8,0.4-1.3,0.6-1.9C91.1,20.5,92,20.5,92,20.5z M89.6,25.8c-0.1,0.2-0.2,0.3-0.3,0.4v1.5h8.1v-1.9
			C97.4,25.8,89.6,25.8,89.6,25.8z M97.4,28.5h-8.1v1.9h8.1V28.5z"/>
		<path class="st1" d="M101.7,27.9h7.2v-1.3h-5.3v-0.7h5.4v-1.3h-5.2v-0.7h5.2v-1h0.9v0.9h5.3v0.7h-5.3v1.2h5.4v0.7h-5.4v1.3h7.3
			v0.7h-15.3v-0.7C101.8,27.9,101.7,27.9,101.7,27.9z M108.9,21.7v-1.3h0.9v1.3h6.7v3.1h-0.9v-2.4h-12.5v2.3h-0.9v-3H108.9z
			 M115.2,30v4.3h-11.7V30H115.2z M104.5,30.7v2.9h9.8v-2.9C114.3,30.7,104.5,30.7,104.5,30.7z"/>
		<path class="st1" d="M122.1,27.9c-0.8,0.9-0.9,1.7-0.9,2.2c0,0.8,0.5,1.5,1.1,1.9c0.9,0.5,1.9,0.7,4,0.7c2.7,0,4.4-0.2,5.9-0.3
			l0.1,1c-1.2,0.1-3.1,0.2-5.7,0.2c-2.2,0-3.5-0.2-4.7-0.7c-1.1-0.5-1.7-1.6-1.7-2.7c0-1.2,0.6-2.1,1.1-2.7L122.1,27.9z M129.9,23
			c-1.1,0.3-2.5,0.7-4.3,1.9l-0.7-0.6c0.9-0.6,1.6-0.9,2.5-1.2c-2.7,0-4.5,0.1-6.3,0.1v-1c1.3,0,2,0,8.8,0V23z M130.9,20.3
			c0.5,0.7,1.1,1.5,1.7,2.9l-0.9,0.5c-0.5-1.3-0.9-2.1-1.5-2.9L130.9,20.3z M133.1,19.7c0.9,1.1,1.3,2.1,1.7,2.9l-0.9,0.5
			c-0.6-1.3-1.1-2.1-1.6-2.9L133.1,19.7z"/>
		<path class="st1" d="M142.4,33.3c3.4-0.9,4.2-2.9,4.7-5.1c-2.4-0.8-3.7-0.9-4.7-1c-1.1,4-1.7,5.9-4.1,5.9c-1.6,0-2.7-1-2.7-2.5
			c0-1.7,1.3-3.1,2.7-3.7c0.9-0.3,2.1-0.5,3.2-0.5c0.3-1.1,0.5-2.8,0.7-4l-5.5,0.1v-0.9h6.6c-0.2,1.7-0.5,3.3-0.9,4.9
			c0.6,0.1,2,0.1,4.7,0.9c0.2-0.9,0.3-1.7,0.4-3.4l1.1,0.1c-0.3,2-0.3,2.7-0.5,3.7c1,0.3,1.1,0.4,2.1,0.9l-0.3,0.9
			c-0.7-0.4-1.1-0.6-2-0.9c-0.4,1.6-1.3,4.5-5.1,5.5L142.4,33.3z M138.7,27.6c-1.3,0.6-2.1,1.7-2.1,2.9c0,0.5,0.3,1.8,1.6,1.8
			c1.9,0,2.3-1.3,3.3-5.1C140.3,27,139.6,27.1,138.7,27.6z"/>
	</g>
</g>
<g>
	<path class="st1" d="M76.2,33.5l1.2-2.6c0.1-0.1,0.1-0.3,0-0.4s-0.1-0.2-0.3-0.3l-0.2-0.1l0.3-2.2l0.3,0.1c0.7-0.1,1.1-0.5,1.2-1.1
		c0.1-0.7,0.4-1.5,0.7-2.9c0.3-1.3-0.1-2.3-1.2-3.3c-0.3-2-1.9-4.9-6.7-4.9c-4.8,0-6.5,2.9-6.7,4.8c-1.1,1.1-1.5,1.9-1.2,3.3
		s0.5,2.1,0.7,2.9c0.1,0.7,0.5,1.1,1.2,1.1l0.3-0.1l0.3,2.2l-0.2,0.1c-0.1,0.1-0.2,0.2-0.2,0.3c-0.1,0.1-0.1,0.3,0,0.4l1.2,2.6
		c0.1,0.2,0.4,0.3,0.6,0.3l0.3-0.1c0,0,1.1,1.5,3.8,1.5c2.7,0,3.8-1.5,3.8-1.5l0.3,0.1C75.8,33.8,76.1,33.7,76.2,33.5z M66.8,26.9
		c-0.9-0.1-1.5-0.7-1.7-1.5l-0.3-1.5c-0.1-0.3,0-0.7,0.3-1s0.6-0.5,0.9-0.5l3.6,0.1c0.3,0,0.7,0.2,0.9,0.5s0.3,0.6,0.2,1l-0.6,2
		c-0.1,0.7-0.8,1.1-1.5,1.1L66.8,26.9z M71.5,33.9c-1.7,0-3-1.3-3-3s1.3-3,3-3s3,1.3,3,3C74.5,32.6,73.2,33.9,71.5,33.9z M74.3,27.1
		c-0.7,0.1-1.3-0.4-1.5-1.1l-0.5-2.2c-0.1-0.3,0-0.7,0.2-1s0.5-0.5,0.9-0.5l3.6-0.1c0.4,0,0.7,0.1,0.9,0.5c0.3,0.3,0.3,0.7,0.3,1
		l-0.3,1.5c-0.2,0.8-0.9,1.5-1.7,1.5L74.3,27.1z"/>
	<path class="st1" d="M71.5,29c-1,0-1.9,0.9-1.9,1.9s0.9,1.9,1.9,1.9s1.9-0.9,1.9-1.9C73.4,29.8,72.5,29,71.5,29z"/>
	<path class="st1" d="M64.9,30.4c-0.3-0.5-0.9-0.8-1.4-0.5l-1.9,0.8c-0.5,0.2-0.7,0.8-0.5,1.3l2,4.5c0.3,0.5,0.9,0.8,1.4,0.5
		l1.9-0.9c0.5-0.3,0.8-0.9,0.5-1.4L64.9,30.4z"/>
	<path class="st1" d="M81.4,30.6l-1.9-0.9c-0.5-0.3-1.2,0-1.4,0.5l-2,4.5c-0.3,0.5,0,1.2,0.5,1.4l1.9,0.9c0.5,0.3,1.2,0,1.4-0.5
		l2-4.5C82.2,31.6,81.9,30.9,81.4,30.6z"/>
	<path class="st1" d="M65.7,23.7c0.1,0.2,0.2,0.9,0.2,0.9l1.7-1.7c0,0-0.5,0-1.3,0C65.8,23,65.7,23.5,65.7,23.7z"/>
	<path class="st1" d="M73.3,23.7c0.1,0.2,0.2,0.9,0.2,0.9l1.6-1.6c0,0-0.5,0-1.3,0C73.3,23,73.2,23.5,73.3,23.7z"/>
</g>
</svg>
