<?xml version="1.0" encoding="utf-8"?>
<!-- Generator: Adobe Illustrator 28.0.0, SVG Export Plug-In . SVG Version: 6.00 Build 0)  -->
<svg version="1.1" id="レイヤー_1" xmlns="http://www.w3.org/2000/svg" xmlns:xlink="http://www.w3.org/1999/xlink" x="0px"
	 y="0px" viewBox="0 0 200.8 82" style="enable-background:new 0 0 200.8 82;" xml:space="preserve">
<style type="text/css">
	.st0{fill-rule:evenodd;clip-rule:evenodd;fill:#231815;}
	.st1{fill:#231815;}
	.st2{fill:#747374;}
</style>
<g>
	<path class="st0" d="M71.2,59.4L71.2,59.4L71.2,59.4z"/>
	<g>
		<path class="st1" d="M74.1,74.2c2-2,3.9-4.6,4.9-12.1l1.5,0.2c-0.9,7.2-2.8,10.4-5.1,13L74.1,74.2z M86.8,77.7
			c0,1.6-0.7,1.8-2.1,1.8h-4.8l-0.3-1.4h4.6c1,0,1-0.1,1-0.9V58.5h1.5L86.8,77.7L86.8,77.7z M93.1,62.1c1.2,7.8,3.6,10.9,4.6,12.1
			l-1.2,1.1c-1.9-2.3-3.7-5.2-5-13.1L93.1,62.1z"/>
		<path class="st1" d="M112.1,59.4v1.1h-2.7v3.6h3.4v1.1h-3.4v6h-1.3v-6h-3.3c-0.5,2.9-1.9,4.9-4.1,6.6l-1.1-1
			c1.6-1.1,3.5-2.9,3.7-5.6h-3.7v-1.1h3.8v-3.6h-3.1v-1.1H112.1z M110.5,77.6V74h-8.8v-1.1h8.8v-2.4h1.3v2.4h8.9V74h-8.9v3.6h10.9
			v1.1H99.6v-1.1H110.5z M108.1,60.5h-3.3v3.6h3.3V60.5z M115.8,59.8v8.7h-1.4v-8.7H115.8z M121.7,69.6c0,1-0.2,1.5-1.9,1.5H117
			l-0.3-1.2h2.8c0.7,0,0.8-0.1,0.8-0.7V58.8h1.4V69.6z"/>
		<path class="st1" d="M146.7,66.8c-0.8,0.7-2,1.8-5.5,3.4c2,3.7,5,5.7,6.6,6.8l-1,1c-4.1-3-7.3-6.6-8.7-13.3h-1
			c-0.4,0.4-0.7,0.7-1.6,1.5c1,0.9,3.7,3.4,3.7,8.7c0,1.9-0.4,4.6-3.1,4.6h-3.2l-0.3-1.4h3.3c0.7,0,1.9,0,1.9-3.2
			c0-0.6-0.1-1.3-0.3-2.4c-2.7,2.4-7.2,4.3-12.3,5.3l-0.6-1.2c5.5-0.9,9.8-2.7,12.6-5.3c-0.1-0.3-0.3-1.1-0.9-2
			c-3.8,3.3-8.6,4.3-10.2,4.7l-0.6-1.1c2.5-0.5,6.6-1.6,10.2-4.5c-0.7-0.8-1.1-1.2-1.3-1.4c-2.8,1.8-5.2,2.7-8.3,3.4l-0.7-1.1
			c4.8-0.8,8.2-2.6,10-4.4h-7.6v-1.2h16.9v1.1h-5.6c0.5,2.2,1.2,3.7,1.6,4.5c1.9-0.9,3.5-1.9,4.9-3.2L146.7,66.8z M135.6,60.5v-2
			h1.4v2h10.2v4.6h-1.4v-3.5h-19v3.5h-1.4v-4.6H135.6z"/>
		<path class="st1" d="M171.5,60.4h-9.4v1.4h10.4v4.5h-1.4v-3.5h-9v4.5h-1.4v-4.5h-9v3.5h-1.3v-4.5h10.4v-1.4h-9.3v-1.1h20V60.4z
			 M162.1,77.2c0,0.6,0,0.8,1,0.8h7c1.4,0,1.8,0,1.9-2.8l1.2,0.5c-0.4,3.2-0.9,3.4-3.1,3.4h-7.3c-1.6,0-2-0.7-2-1.7v-1.5h-9.1v-7.6
			h19.5v7.5h-9.1L162.1,77.2L162.1,77.2z M160.8,69.3h-7.7v2.1h7.7V69.3z M160.8,72.4h-7.7v2.3h7.7V72.4z M159.2,63.9v0.9h-5.9v-0.9
			H159.2z M159.2,66v0.9h-5.9V66H159.2z M169.8,69.3h-7.7v2.1h7.7V69.3z M169.8,72.4h-7.7v2.3h7.7V72.4z M169.6,63.9v0.9h-5.9v-0.9
			H169.6z M169.6,66v0.9h-5.9V66H169.6z"/>
	</g>
</g>
<g>
	<path class="st1" d="M35.5,64.5v2.2l3.6-3.6h-2.2C36.2,63.1,35.5,63.7,35.5,64.5z"/>
	<rect x="32.7" y="80.5" class="st1" width="3.5" height="1.5"/>
	<rect x="57.1" y="80.5" class="st1" width="3.5" height="1.5"/>
	<path class="st1" d="M62.2,56.1H31c-1.2,0-2.2,1-2.2,2.2v19.3c0,1.2,1,2.2,2.2,2.2h31.3c1.2,0,2.2-1,2.2-2.2V58.3
		C64.4,57.1,63.4,56.1,62.2,56.1z M53,73.7c0,0.8-0.6,1.4-1.4,1.4H34.5c-0.8,0-1.4-0.6-1.4-1.4V62c0-0.8,0.6-1.4,1.4-1.4h17.1
		c0.8,0,1.4,0.6,1.4,1.4V73.7z M56.8,75c-0.6,0-1-0.5-1-1c0-0.6,0.5-1,1-1c0.6,0,1,0.5,1,1C57.9,74.5,57.4,75,56.8,75z M56.8,70.9
		c-0.6,0-1-0.5-1-1c0-0.6,0.5-1,1-1c0.6,0,1,0.5,1,1C57.9,70.4,57.4,70.9,56.8,70.9z M61,75c-0.6,0-1-0.5-1-1c0-0.6,0.5-1,1-1
		c0.6,0,1,0.5,1,1S61.5,75,61,75z M61,70.9c-0.6,0-1-0.5-1-1c0-0.6,0.5-1,1-1c0.6,0,1,0.5,1,1S61.5,70.9,61,70.9z M62,64.1h-6.2
		v-3.3H62V64.1z"/>
</g>
<g>
	<path class="st0" d="M27.2,2.7L27.2,2.7L27.2,2.7z"/>
	<g>
		<path class="st1" d="M30.3,12.3c0.5-1.4,0.7-3.2,0.7-6.4h1.2c0,3.7,0,5.3-0.6,6.9L30.3,12.3z M30.4,21.7c1.3-1.1,3-2.9,3-9.3V1.7
			h1.2v5.9c0.9-1.5,1.2-2,1.7-3l1.1,0.7c-0.6,1.4-2.6,4.1-2.8,4.3v2.8c0,1.1,0,1.2,0,2.3c0.8,2.2,2.3,3.7,2.9,4.2l-1,1
			c-0.8-0.8-1.3-1.5-2.1-3c-0.4,2.1-1.1,4-3,5.9L30.4,21.7z M35.8,10.6c2.5-2.4,3.7-6.4,4-8.8L41,2c-0.1,0.8-0.2,1.3-0.5,2.2h4.3
			c-0.2,1.4-0.3,2-0.4,2.4h3.2V1.7h1.3v4.9h4.6v1.1H49c0.1,0.4,0.6,5.4,4.7,8l-0.8,1.2c-2.7-1.9-4.1-4.9-4.6-8
			c-0.7,4.1-2.9,6.6-5.5,7.8l-0.8-1c1.4-0.7,4.9-2.5,5.6-8h-3.4c-0.9,2.9-2.6,6.5-6.4,9l-0.9-0.9c1.4-0.9,2.9-2.1,4.2-4
			c-0.9-0.6-2.2-1.3-3.2-1.7c-0.5,0.7-0.7,0.9-1.1,1.3L35.8,10.6z M36.4,21.8c1.6-1.5,2.3-2.6,3.1-4.7l1.2,0.4
			c-0.3,0.8-1.2,3.4-3,5.1L36.4,21.8z M42.4,9.1c-0.9-0.6-2.3-1.3-3.1-1.6c-0.2,0.4-0.4,0.8-0.9,1.6c1,0.4,2.3,1.2,3.1,1.7
			C41.8,10.4,42.1,9.9,42.4,9.1z M40.3,5.2c-0.3,0.9-0.4,1.2-0.5,1.4c1,0.3,1.8,0.8,3,1.5c0.4-1.2,0.6-2.1,0.7-2.9
			C43.5,5.2,40.3,5.2,40.3,5.2z M42.7,22.2c0-0.4,0.1-0.8,0.1-1.4c0-1.4-0.1-2.5-0.2-3.1l1.1-0.1c0.3,1.4,0.4,3.5,0.3,4.5L42.7,22.2
			z M47.3,22.2c-0.2-1.5-0.9-3.7-1.3-4.5l1.2-0.3c0.5,1,1.2,3.1,1.4,4.6L47.3,22.2z M52.5,22.6c-0.4-1-1.4-3.2-3.1-5.2l1.1-0.5
			c1,1.2,2.4,3.3,3.2,5.2L52.5,22.6z M52.1,5.8c-0.6-1-2-2.6-2.5-3.1l1-0.6c0.9,0.8,2,2.1,2.7,3.2L52.1,5.8z"/>
		<path class="st1" d="M64.3,22.1c-0.8-4.3-1.8-7.8-3.2-12.3c-2.4,0.8-3.2,1.1-4.5,1.7L56,10.1c1.4-0.4,1.7-0.5,4.7-1.5
			c-0.3-1.1-0.9-2.8-1.7-4.8l1.6-0.4c0.3,0.8,1.1,3.2,1.6,4.8c2.9-0.9,5.1-1.4,6-1.7c-0.8-1.6-1.9-2.9-2.2-3.3l1.3-0.5
			c1.3,1.4,2,2.7,2.4,3.5C70.3,6.1,71,6,71.9,6c3.5,0,5.4,2.4,5.4,4.8c0,3.3-3,5-6.3,5c-1.9,0-3.4-0.6-3.9-0.7l0.4-1.3
			c0.7,0.3,1.8,0.7,3.6,0.7c2.4,0,4.6-1.3,4.6-3.7c0-1-0.6-3.5-4.1-3.5c-2.4,0-6.8,1.4-9.1,2.2c1.4,4.2,2.6,8.9,3.5,12.4L64.3,22.1z
			"/>
		<path class="st1" d="M96.7,15c-1.1-1.1-2.7-3.2-4.5-7.3c-0.8,0-3.3,0-4.8,0h-6.6V6.4l6.6,0.1h4.3c-0.4-1.1-0.6-1.8-1.1-4l1.7-0.1
			c0.2,1,0.4,2.3,1,4c4.2-0.1,6.1-0.5,7.6-0.8l0.3,1.3c-3,0.6-4.7,0.6-7.4,0.7c1.1,2.6,2.6,5,4.2,6.5L96.7,15z M86.3,13.5
			c-1.9,0.9-2.7,2.1-2.7,3.1c0,3.7,5.9,3.7,8.4,3.7c3,0,5-0.2,6.7-0.4v1.4c-0.9,0.1-3.4,0.3-6.7,0.3c-4.8,0-6.3-0.7-7.3-1.1
			c-1-0.5-2.7-1.6-2.7-3.7c0-0.9,0.4-2.9,3.3-4.3L86.3,13.5z"/>
		<path class="st1" d="M117.1,5.6v1.3h-6c-1.9,7.4-3.5,10.2-4.8,12.1l-1.5-0.7c2.6-3.6,4.1-8.6,4.8-11.4h-4.7V5.6h5
			c0.3-1.6,0.3-2.3,0.5-3.2l1.6,0.1c-0.1,0.6-0.5,2.7-0.6,3.2L117.1,5.6L117.1,5.6z M121,14.6c2.3,0.9,4.4,2.4,5.7,3.7l-1,1.2
			c-1.8-2.1-3.9-3.1-4.7-3.5v1.2c0,1.4-0.1,2.1-0.5,2.8c-0.9,1.5-2.9,1.8-4.3,1.8c-3.9,0-5.6-2-5.6-3.9c0-1.6,1.3-4.1,5.8-4.1
			c1.5,0,2.4,0.2,3,0.3l-0.2-5.2h1.5L121,14.6z M119.5,15.5c-0.6-0.2-1.5-0.5-3-0.5c-3,0-4.3,1.4-4.3,2.9c0,2.7,3.5,2.7,4.1,2.7
			c3.1,0,3.2-1.8,3.2-3.4C119.5,17.2,119.5,15.5,119.5,15.5z M125.3,8.6c-1.5-0.9-3.7-2-6.4-2.9l0.6-1.1c1.9,0.6,3.7,1.3,6.6,2.8
			L125.3,8.6z"/>
		<path class="st1" d="M132.1,3.8c-0.2,1.2-0.4,3.2-0.4,6.3c0,4.1,0.4,9.5,3.6,9.5c1,0,1.6-0.5,2.3-1.3c0.8-0.9,1.6-2.3,2.4-4.2
			l1.3,0.6c-0.7,1.6-2.8,6.4-6.1,6.4c-3.8,0-5-4.7-5-11.1c0-2.4,0.2-4.6,0.3-6.3L132.1,3.8z M148.8,18.9c0.1-0.6,0.1-1.4,0.1-2.6
			c0-6.9-2.6-9.5-4.7-11l1.1-0.9c3.1,2.3,5.2,5.5,5.2,12.5c0,0.8,0,1.4-0.1,2H148.8z"/>
		<path class="st1" d="M158.4,12.8c-1.2,1.4-1.4,2.6-1.4,3.3c0,1.2,0.8,2.3,1.7,2.9c1.4,0.8,2.9,1,6,1c4.1,0,6.6-0.3,8.8-0.5
			l0.1,1.5c-1.8,0.1-4.7,0.3-8.6,0.3c-3.3,0-5.3-0.3-7-1.1c-1.6-0.8-2.5-2.4-2.5-4.1c0-1.8,0.9-3.1,1.6-4.1L158.4,12.8z M170.2,5.5
			c-1.7,0.5-3.7,1.1-6.5,2.8l-1.1-0.9c1.4-0.9,2.4-1.3,3.8-1.8c-4,0-6.7,0.1-9.4,0.2V4.3c1.9,0,3,0,13.2,0V5.5z M171.7,1.5
			c0.8,1.1,1.6,2.3,2.5,4.4l-1.4,0.7c-0.8-1.9-1.4-3.1-2.3-4.4L171.7,1.5z M175,0.6c1.3,1.7,2,3.2,2.5,4.3l-1.3,0.8
			c-0.9-2-1.6-3.2-2.4-4.4L175,0.6z"/>
		<path class="st1" d="M188.3,20.9c5.1-1.3,6.3-4.4,7.1-7.7c-3.6-1.2-5.5-1.4-7-1.5c-1.6,6-2.5,8.8-6.1,8.8c-2.4,0-4-1.5-4-3.8
			c0-2.6,2-4.7,4.1-5.5c1.4-0.5,3.1-0.8,4.8-0.8c0.4-1.7,0.8-4.2,1-6L180,4.5V3.1h9.9c-0.3,2.5-0.8,4.9-1.3,7.4c0.9,0.1,3,0.2,7,1.4
			c0.3-1.4,0.4-2.5,0.6-5.1l1.6,0.1c-0.4,3-0.5,4-0.8,5.5c1.5,0.5,1.7,0.6,3.2,1.3l-0.5,1.4c-1.1-0.6-1.7-0.9-3-1.4
			c-0.6,2.4-1.9,6.8-7.6,8.3L188.3,20.9z M182.7,12.3c-2,0.9-3.1,2.6-3.1,4.3c0,0.8,0.4,2.7,2.4,2.7c2.8,0,3.4-2,4.9-7.7
			C185.2,11.5,184,11.7,182.7,12.3z"/>
	</g>
</g>
<g>
	<path class="st1" d="M0.6,15.9L0.7,16C0.7,16,0.7,16,0.6,15.9L0.6,15.9z"/>
	<path class="st1" d="M22.1,13.2c-0.6-1.6-1.5-3-2.5-4.4c-0.7-1-0.7-2.1-0.2-3c-1.5,0.7-2.4,1.7-2,3.1c-0.1-0.1-0.3-0.3-0.4-0.4
		c-1.2-1.3-2.7-3.2-3.4-4.7C13.1,2.5,13,1,14.1,0c-1.5,0.6-3.2,1.5-4.3,2.3C6.5,4.5,2.9,9,5.5,12.4C4.3,11.7,4,10.5,4.1,9.6
		c-1.2,1-1.9,2.4-2,3.6c-0.1,1.5,0.3,3.1,1.1,4.5c-0.1-0.1-0.1-0.2-0.2-0.3l-0.1-0.1c-0.9,0-1.7-0.6-2.2-1.3c0.6,3.3,6,6.8,10.7,7.5
		c-1-0.2-1.7-0.4-2.5-0.8c0.8,0.3,1.6,0.6,2.5,0.8c-2.3-0.5-5-2.5-4.8-4.9c0.2-2.9,3-4.2,4-6.5c0.4-1,0.8-2.4-0.3-3.2
		c2.2,0.8,4.1,3.5,3.4,5.6c-0.2,0.7-0.7,1.3-1.3,1.7h0.1c1-0.5,2.1-1.6,1.7-2.9c0.7,0.4,1.3,1.3,1.2,2c0,0.9-0.8,1.6-1.3,2.4
		c-0.4,0.7,0.1,1.5,1,1.2c1-0.3,1.2-1.6,0.2-2.2c2.1,1,2,3.4,0.5,4.8c-0.8,0.8-2.2,1.5-3.5,1.9c2.2-0.4,4-1,5.6-1.9
		C21.3,19.6,23.4,16.5,22.1,13.2z M4.6,19.7C4.4,19.5,4.2,19.3,4,19C4.2,19.3,4.4,19.5,4.6,19.7L4.6,19.7z M8.8,22.7
		C8.8,22.6,8.8,22.6,8.8,22.7C8.8,22.6,8.8,22.6,8.8,22.7C8.8,22.6,8.8,22.6,8.8,22.7z"/>
</g>
<g>
	
		<rect x="-0.2" y="12.7" transform="matrix(0.7071 -0.7071 0.7071 0.7071 -6.5107 11.9152)" class="st2" width="22.6" height="2.2"/>
	<rect x="10" y="2.5" transform="matrix(0.7071 -0.7071 0.7071 0.7071 -6.5114 11.9159)" class="st2" width="2.2" height="22.6"/>
</g>
<g>
	<path class="st0" d="M66.7,31.7L66.7,31.7L66.7,31.7z"/>
	<g>
		<path class="st1" d="M80.6,30.8c-0.3,1.4-0.5,2-0.8,2.8H93v1.2H79.3c-0.3,0.7-0.7,1.6-1.5,2.8h12.3v12.6c0,0.9-0.2,1.6-1.7,1.6
			h-3.7l-0.3-1.4H88c0.6,0,0.6-0.3,0.6-0.7v-3H76.5v5h-1.4V40.8c-1,0.9-2.1,2-4.4,3.4l-0.8-1c4.8-2.9,6.6-5.7,7.9-8.4H70v-1.2h8.3
			c0.5-1.2,0.6-1.9,0.9-2.8C79.2,30.8,80.6,30.8,80.6,30.8z M77,38.7c-0.2,0.3-0.3,0.4-0.5,0.6v2.3h12.2v-2.9H77z M88.7,42.7H76.5
			v2.9h12.2V42.7z"/>
		<path class="st1" d="M95.1,41.8h10.8v-1.9h-8v-1.1h8.1v-1.9h-7.8v-1h7.8v-1.5h1.4v1.4h7.9v1.1h-7.9v1.8h8.1v1.1h-8.1v1.9h10.9v1.1
			h-23v-1H95.1z M105.9,32.6v-1.9h1.4v1.9h10.1v4.6H116v-3.6H97.3v3.5h-1.4v-4.5H105.9z M115.4,44.9v6.5H97.9v-6.5H115.4z M99.3,46
			v4.3H114V46C114,46,99.3,46,99.3,46z"/>
		<path class="st1" d="M125.7,41.8c-1.2,1.4-1.4,2.6-1.4,3.3c0,1.2,0.8,2.3,1.7,2.9c1.4,0.8,2.9,1,6,1c4.1,0,6.6-0.3,8.8-0.5
			l0.1,1.5c-1.8,0.1-4.7,0.3-8.6,0.3c-3.3,0-5.3-0.3-7-1.1c-1.6-0.8-2.5-2.4-2.5-4.1c0-1.8,0.9-3.1,1.6-4.1L125.7,41.8z M137.4,34.5
			c-1.7,0.5-3.8,1.1-6.5,2.8l-1.1-0.9c1.4-0.9,2.4-1.3,3.8-1.8c-4,0-6.7,0.1-9.4,0.2v-1.5c1.9,0,3,0,13.2,0V34.5z M138.9,30.5
			c0.8,1.1,1.6,2.3,2.5,4.4l-1.4,0.7c-0.8-1.9-1.4-3.1-2.3-4.4L138.9,30.5z M142.2,29.6c1.3,1.7,2,3.2,2.5,4.3l-1.4,0.7
			c-0.9-2-1.6-3.2-2.4-4.4L142.2,29.6z"/>
		<path class="st1" d="M156.1,49.9c5.1-1.3,6.3-4.4,7.1-7.7c-3.6-1.2-5.5-1.4-7-1.5c-1.6,6-2.5,8.8-6.1,8.8c-2.4,0-4-1.5-4-3.8
			c0-2.6,2-4.7,4.1-5.5c1.4-0.5,3.1-0.8,4.8-0.8c0.4-1.7,0.8-4.2,1-6l-8.2,0.1v-1.4h9.9c-0.3,2.5-0.8,4.9-1.3,7.4
			c0.9,0.1,3,0.2,7,1.4c0.3-1.4,0.4-2.5,0.6-5.1l1.6,0.1c-0.4,3-0.5,4-0.8,5.5c1.5,0.5,1.7,0.6,3.2,1.3l-0.5,1.4
			c-1.1-0.6-1.7-0.9-3-1.4c-0.6,2.4-1.9,6.8-7.6,8.3L156.1,49.9z M150.6,41.3c-2,0.9-3.1,2.6-3.1,4.3c0,0.8,0.4,2.7,2.4,2.7
			c2.8,0,3.4-2,4.9-7.7C153,40.5,151.9,40.7,150.6,41.3z"/>
	</g>
</g>
<g>
	<path class="st1" d="M56.9,50.2l1.8-3.9c0.1-0.2,0.1-0.4,0-0.6s-0.2-0.3-0.4-0.4L58,45.2l0.5-3.3l0.4,0.1c1-0.1,1.6-0.7,1.8-1.7
		s0.6-2.2,1-4.3c0.4-2-0.2-3.4-1.8-4.9c-0.4-3-2.8-7.3-10-7.3s-9.7,4.3-10.1,7.2c-1.6,1.6-2.2,2.9-1.8,4.9s0.8,3.2,1,4.3
		c0.2,1,0.8,1.6,1.8,1.7l0.4-0.1l0.5,3.3l-0.3,0.1c-0.1,0.2-0.3,0.3-0.3,0.5c-0.1,0.2-0.1,0.4,0,0.6l1.8,3.9
		c0.2,0.3,0.6,0.5,0.9,0.4l0.4-0.1c0,0,1.6,2.3,5.7,2.3c4,0,5.7-2.3,5.7-2.3l0.4,0.1C56.3,50.7,56.7,50.5,56.9,50.2z M42.8,40.3
		c-1.3-0.1-2.3-1-2.6-2.3l-0.5-2.3c-0.1-0.5,0-1.1,0.4-1.5c0.4-0.4,0.9-0.7,1.4-0.7l5.4,0.1c0.5,0,1,0.3,1.3,0.7
		c0.3,0.4,0.4,0.9,0.3,1.5L47.8,39c-0.2,1-1.2,1.7-2.2,1.6L42.8,40.3z M49.9,50.8c-2.5,0-4.5-2-4.5-4.5s2-4.5,4.5-4.5s4.5,2,4.5,4.5
		S52.4,50.8,49.9,50.8z M54.1,40.6c-1,0.1-2-0.6-2.2-1.6l-0.8-3.3c-0.1-0.5,0-1,0.3-1.5c0.3-0.4,0.8-0.7,1.3-0.7l5.4-0.1
		c0.6,0,1.1,0.2,1.4,0.7c0.4,0.4,0.5,1,0.4,1.5l-0.5,2.3c-0.3,1.2-1.3,2.2-2.6,2.3L54.1,40.6z"/>
	<path class="st1" d="M49.9,43.5c-1.5,0-2.8,1.3-2.8,2.8s1.3,2.8,2.8,2.8s2.8-1.3,2.8-2.8C52.7,44.7,51.4,43.5,49.9,43.5z"/>
	<path class="st1" d="M40,45.5c-0.4-0.8-1.3-1.2-2.1-0.8l-2.8,1.2c-0.8,0.4-1.2,1.3-0.8,2.1l3,6.7c0.4,0.8,1.3,1.2,2.1,0.8l2.8-1.3
		c0.8-0.4,1.2-1.3,0.8-2.1L40,45.5z"/>
	<path class="st1" d="M64.7,45.9l-2.8-1.3c-0.8-0.4-1.8,0-2.1,0.8l-3,6.7c-0.4,0.8,0,1.8,0.8,2.1l2.8,1.3c0.8,0.4,1.8,0,2.1-0.8
		l3-6.7C65.9,47.3,65.5,46.3,64.7,45.9z"/>
	<path class="st1" d="M41.2,35.6c0.1,0.3,0.3,1.4,0.3,1.4l2.5-2.5c0,0-0.7,0-1.9,0C41.3,34.5,41.1,35.3,41.2,35.6z"/>
	<path class="st1" d="M52.5,35.6c0.1,0.3,0.3,1.4,0.3,1.4l2.5-2.5c0,0-0.7,0-1.9,0C52.6,34.5,52.4,35.3,52.5,35.6z"/>
</g>
</svg>
