<?xml version="1.0" encoding="utf-8"?>
<!-- Generator: Adobe Illustrator 28.0.0, SVG Export Plug-In . SVG Version: 6.00 Build 0)  -->
<svg version="1.1" id="レイヤー_1" xmlns="http://www.w3.org/2000/svg" xmlns:xlink="http://www.w3.org/1999/xlink" x="0px"
	 y="0px" viewBox="0 0 198.4 85" style="enable-background:new 0 0 198.4 85;" xml:space="preserve">
<style type="text/css">
	.st0{enable-background:new    ;}
	.st1{fill:#333333;}
</style>
<g>
	<g class="st0">
		<path class="st1" d="M51,29.6c0-0.7,0.2-1,0.7-1s0.8,0.2,0.8,1v1.1c0,2.3,0.7,5.1,2.1,7c0.4,0.5,0.5,0.7,0.5,1.2
			c0,0.6-0.3,1.2-0.8,1.2c-0.3,0-0.6-0.1-1.3-1.5c-0.8-1.5-1-3-1.2-3.7c-0.3,1.3-0.6,2.4-1.1,3.5c-0.2,0.4-0.8,1.6-1.4,1.6
			c-0.3,0-0.6-0.3-0.8-0.8c-0.1,0-0.1,0-0.2,0c-0.5,0-0.6-0.5-0.7-1.1c-0.5,0.2-3.1,1.5-3.4,1.5c-0.4,0-0.6-0.5-0.6-1.1
			c0-0.8,0.4-0.9,0.7-1V30c0-1.3,0.1-1.5,0.3-1.7c-0.1,0.1-0.2,0.1-0.4,0.1c-0.4,0-0.7-0.7-0.7-1.1c0-0.5,0.1-0.7,0.7-1.3
			c0.6-0.7,1.1-1.7,1.5-2.5c0.2-0.4,0.4-0.6,0.9-0.6c0.6,0,0.7,0.2,1.3,1.2c0.1,0.2,0.5,0.7,0.8,1.1c0.4,0.5,0.5,0.6,0.5,1.1
			c0,0.7-0.3,1.1-0.7,1.1c-0.5,0-1.2-1.3-1.6-2c-0.2-0.5-0.3-0.5-0.3-0.5c-0.1,0-0.1,0.1-0.2,0.3c-0.5,1.1-1.3,2.4-1.8,3
			c0.3-0.2,0.7-0.2,0.9-0.2h0.4v-0.6c0-0.5,0.1-1.1,0.6-1.1s0.7,0.4,0.7,1.1V28h0.4c1.1,0,1.1,0.9,1.1,1.6c0.7-1.6,0.9-2.1,1.2-3.8
			c0.1-0.4,0.4-2.2,0.4-2.3c0.1-0.2,0.2-0.6,0.6-0.6c0.1,0,0.8,0,0.8,0.9c0,0.4-0.2,1.2-0.2,1.6h1.8c0.7,0,1.5,0,1.5,1.7
			c0,0.7-0.1,1.6-0.5,3.2C54.2,31.5,54,32,53.5,32c-0.4,0-0.8-0.4-0.8-0.9c0-0.2,0-0.3,0.3-1.2c0.2-0.6,0.4-1.4,0.4-1.8
			c0-0.3-0.1-0.4-0.4-0.4h-1.9c-0.5,2-0.8,2.8-1.2,3.5c-0.1,0.3-0.3,0.4-0.5,0.4c0,0-0.3,0-0.6-0.4v1.7c0,1.6-0.2,2-1.4,2h-1.9v2.2
			c0.9-0.4,1-0.4,1.5-0.6c-0.1-0.4-0.2-0.6-0.2-0.8c0-0.5,0.3-0.8,0.7-0.8s0.5,0.3,0.7,0.9c0.4,1.2,0.5,1.4,0.6,1.9
			c1.3-1.7,2-4.5,2-7.1v-1H51z M45.6,30.8h1.9v-0.5c0-0.3-0.1-0.4-0.3-0.4h-1.3c-0.2,0-0.3,0.2-0.3,0.4
			C45.6,30.3,45.6,30.8,45.6,30.8z M47.6,32.2h-1.9v1h1.6c0.2,0,0.3-0.2,0.3-0.5C47.6,32.7,47.6,32.2,47.6,32.2z"/>
	</g>
	<g class="st0">
		<path class="st1" d="M57.9,34.6c-0.1,0.3-0.3,0.8-0.5,1.3c-0.4,1-0.7,1.1-0.9,1.1c-0.4,0-0.8-0.6-0.8-1.3c0-0.4,0-0.5,0.6-1.5
			c0.1-0.2,0.9-1.6,1.5-3.5h-1.3c-0.5,0-0.8-0.3-0.8-1.1c0-1,0.6-1,0.8-1h1.3V24c0-0.8,0.2-1.1,0.8-1.1c0.7,0,0.7,0.8,0.7,1.1v4.6
			h1.1c0.4,0,0.7,0.2,0.7,1c0,1-0.5,1-0.7,1h-1.1c0.2,0.7,0.9,1.9,1,2.2c0.6,1,0.6,1.1,0.6,1.4c0,0.5-0.3,1.1-0.7,1.1
			c-0.3,0-0.5-0.4-1-1.6V39c0,0.8-0.2,1.1-0.8,1.1c-0.7,0-0.7-0.8-0.7-1.1v-4.4H57.9z M57.2,24.8c0.2,0.9,0.4,2.1,0.4,2.4
			c0,0.8-0.7,0.8-0.8,0.8c-0.4,0-0.4-0.3-0.5-1.1c-0.1-0.5-0.3-1.5-0.4-1.8c0-0.2-0.1-0.4-0.1-0.5c0-0.5,0.4-0.8,0.7-0.8
			C56.9,23.9,57,24.2,57.2,24.8z M61.4,24.8c0,0.4-0.2,1.6-0.4,2.4s-0.3,0.9-0.6,0.9c-0.2,0-0.7-0.2-0.7-0.8c0-0.1,0-0.3,0.2-1.2
			c0.1-0.4,0.1-0.6,0.3-1.4c0-0.3,0.1-0.7,0.5-0.7C61.2,23.9,61.4,24.4,61.4,24.8z M66.6,32.5c0,0,0.1,0,0.2,0
			c0.5,0,0.6,0.8,0.6,1.3c0,0.4-0.1,0.8-0.6,0.9l-0.6,0.1V39c0,0.5-0.1,1.1-0.7,1.1s-0.9-0.3-0.9-1.1v-3.7l-2.9,0.8
			c-0.5,0.2-0.8-0.4-0.8-1.2c0-0.7,0.3-0.9,0.5-1l3.1-0.9v-9c0-0.5,0.1-1.1,0.7-1.1s0.9,0.2,0.9,1.1v8.6L66.6,32.5z M63.2,29.5
			c0.7,0.9,0.9,1.1,0.9,1.5c0,0.6-0.4,1.2-0.8,1.2c-0.2,0-0.2,0-0.8-0.8c-0.1-0.2-0.7-0.9-0.8-1.1s-0.2-0.4-0.2-0.6
			c0-0.6,0.3-1.2,0.7-1.2C62.5,28.6,62.9,29.1,63.2,29.5z M63.8,25.1c0.5,0.7,0.6,0.9,0.6,1.3c0,0.6-0.3,1.2-0.7,1.2
			c-0.2,0-0.3,0-0.8-0.8c-0.1-0.2-0.7-0.9-0.8-1c-0.1-0.2-0.2-0.4-0.2-0.7c0-0.6,0.4-1.1,0.7-1.1S63.4,24.6,63.8,25.1z"/>
	</g>
	<g class="st0">
		<path class="st1" d="M68.8,29c-0.2,0-0.8,0-0.8-1.1s0.6-1.1,0.8-1.1h2.9c0-0.6,0-1.6,0-2.2c0-0.5,0.1-1.1,0.8-1.1
			c0.9,0,0.9,0.7,0.9,1.4c0,0.1,0,1,0,1.8h3c1.5,0,1.5,1.4,1.5,3.1c0,0.7-0.1,5.8-0.5,7.5c-0.5,2-1.4,2.1-2.6,2.1
			c-1.4,0-1.9-0.1-1.9-1.4c0-0.9,0.4-1.1,0.8-1.1c0.2,0,1.1,0.1,1.3,0.1c1,0,1-0.6,1.2-2.1c0.2-2.1,0.2-4.8,0.2-4.9c0-0.7,0-1-0.5-1
			h-2.5c-0.1,1.8-0.5,5.3-2.3,8.2c-0.3,0.4-1.5,2.2-2.2,2.2c-0.4,0-0.8-0.6-0.8-1.3c0-0.5,0.3-0.8,0.6-1.2c1.1-1.2,2.7-2.9,3.1-8h-3
			V29z"/>
	</g>
	<g class="st0">
		<path class="st1" d="M80.1,24.5c0.2,0,0.5,0.1,1.4,0.9c2.7,2.2,2.7,2.5,2.7,3.1c0,0.5-0.4,1.3-0.8,1.3c-0.3,0-0.6-0.3-1.3-1
			c-0.6-0.7-1.4-1.3-2.2-1.9c-0.3-0.2-0.6-0.5-0.6-1.1c0-0.7,0.4-1.2,0.7-1.3C80,24.5,80.1,24.5,80.1,24.5z M89.6,27.3
			c0,0.9-1.1,4.7-2.3,6.8c-1.6,2.8-3.4,3.8-4.9,4.3c-0.7,0.3-1.6,0.5-2,0.5c-0.8,0-0.9-1-0.9-1.4c0-0.9,0.3-1.1,0.9-1.2
			c3.5-0.6,5.9-2.6,7.4-9c0.2-0.9,0.3-1.3,0.8-1.3c0.1,0,0.2,0,0.3,0.1C89.2,26.3,89.6,26.6,89.6,27.3z"/>
	</g>
	<g class="st0">
		<path class="st1" d="M94.1,31.6c0,1.2-0.6,2.1-1.4,2.1s-1.4-1-1.4-2.1c0-1.2,0.6-2.1,1.4-2.1C93.4,29.4,94.1,30.4,94.1,31.6z"/>
	</g>
	<g class="st0">
		<path class="st1" d="M104.3,29.6c0-0.7,0.2-1,0.7-1s0.8,0.2,0.8,1v1.1c0,2.3,0.7,5.1,2.1,7c0.4,0.5,0.5,0.7,0.5,1.2
			c0,0.6-0.3,1.2-0.8,1.2c-0.3,0-0.6-0.1-1.3-1.5c-0.8-1.5-1-3-1.2-3.7c-0.3,1.3-0.6,2.4-1.1,3.5c-0.2,0.4-0.8,1.6-1.4,1.6
			c-0.3,0-0.6-0.3-0.8-0.8c-0.1,0-0.1,0-0.2,0c-0.5,0-0.6-0.5-0.7-1.1c-0.5,0.2-3.1,1.5-3.4,1.5c-0.4,0-0.6-0.5-0.6-1.1
			c0-0.8,0.4-0.9,0.7-1V30c0-1.3,0.1-1.5,0.3-1.7c-0.1,0.1-0.2,0.1-0.4,0.1c-0.4,0-0.7-0.7-0.7-1.1c0-0.5,0.1-0.7,0.7-1.3
			c0.6-0.7,1.1-1.7,1.5-2.5c0.2-0.4,0.4-0.6,0.9-0.6c0.6,0,0.7,0.2,1.3,1.2c0.1,0.2,0.5,0.7,0.8,1.1c0.4,0.5,0.5,0.6,0.5,1.1
			c0,0.7-0.3,1.1-0.7,1.1c-0.5,0-1.2-1.3-1.6-2c-0.2-0.5-0.3-0.5-0.3-0.5c-0.1,0-0.1,0.1-0.2,0.3c-0.5,1.1-1.3,2.4-1.8,3
			c0.3-0.2,0.7-0.2,0.9-0.2h0.4v-0.6c0-0.5,0.1-1.1,0.6-1.1s0.7,0.4,0.7,1.1V28h0.4c1.1,0,1.1,0.9,1.1,1.6c0.7-1.6,0.9-2.1,1.2-3.8
			c0.1-0.4,0.4-2.2,0.4-2.3c0.1-0.2,0.2-0.6,0.6-0.6c0.1,0,0.8,0,0.8,0.9c0,0.4-0.2,1.2-0.2,1.6h1.8c0.7,0,1.5,0,1.5,1.7
			c0,0.7-0.1,1.6-0.5,3.2c-0.3,1.1-0.4,1.6-0.9,1.6c-0.4,0-0.8-0.4-0.8-0.9c0-0.2,0-0.3,0.3-1.2c0.2-0.6,0.4-1.4,0.4-1.8
			c0-0.3-0.1-0.4-0.4-0.4h-1.9c-0.5,2-0.8,2.8-1.2,3.5c-0.1,0.3-0.3,0.4-0.5,0.4c0,0-0.3,0-0.6-0.4v1.7c0,1.6-0.2,2-1.4,2h-1.9V37
			c0.9-0.4,1-0.4,1.5-0.6c-0.1-0.4-0.2-0.6-0.2-0.8c0-0.5,0.3-0.8,0.7-0.8c0.4,0,0.5,0.3,0.7,0.9c0.4,1.2,0.5,1.4,0.6,1.9
			c1.3-1.7,2-4.5,2-7.1v-0.9H104.3z M98.9,30.8h1.9v-0.5c0-0.3-0.1-0.4-0.3-0.4h-1.3c-0.2,0-0.3,0.2-0.3,0.4
			C98.9,30.3,98.9,30.8,98.9,30.8z M100.9,32.2H99v1h1.6c0.2,0,0.3-0.2,0.3-0.5V32.2z"/>
		<path class="st1" d="M119,32.5c0,0.6,0,0.8,0,0.9c0.1-0.1,0.2-0.2,0.4-0.2c0.4,0,0.8,0.5,0.8,1.2c0,0.3-0.1,0.5-0.7,1.3
			c-0.1,0.1-0.6,0.8-1.3,1.4c0.5,0.3,0.6,0.3,1.8,0.7c0.3,0.1,0.6,0.3,0.6,0.9c0,0.5-0.2,1.4-0.7,1.4c-0.6,0-4.3-1.1-6.1-5.7h-1.6v3
			c0.9-0.1,1-0.1,2.4-0.4c0,0,0.2,0,0.3,0c0.5,0,0.6,0.7,0.6,1.1c0,0.8-0.3,0.9-1.2,1.1c-1.1,0.3-4.1,0.7-4.4,0.7
			c-0.2,0-0.7,0-0.7-1.2c0-0.4,0.1-0.7,0.3-0.9c0.1-0.1,0.2-0.1,1.1-0.2v-8.1c0-0.6,0-0.9,0.1-1.1c-0.5,0.4-0.7,0.5-0.9,0.5
			c-0.5,0-0.7-0.8-0.7-1.4c0-0.7,0.3-0.9,0.6-1.1c2-1,2.8-1.9,3.7-2.9c0.5-0.5,0.7-0.8,1.5-0.8s1,0.3,1.4,0.8c1.1,1.3,1.8,2,3.6,2.9
			c0.5,0.3,0.7,0.5,0.7,1.1s-0.2,1.3-0.8,1.3c-0.2,0-0.4-0.1-1-0.5c0.1,0.4,0.1,0.8,0.1,1.1L119,32.5L119,32.5z M114.1,27.6v-0.9
			c0-0.5,0.1-0.9,0.7-0.9c0.5,0,0.8,0.3,0.8,0.9v0.9h2.1c-0.3-0.2-1.6-1.3-2.5-2.6c-0.2-0.2-0.2-0.3-0.3-0.3c-0.1,0-0.1,0.1-0.3,0.3
			c-0.9,1.3-2.4,2.6-2.5,2.6H114.1z M117.5,30.3v-0.6c0-0.2-0.1-0.4-0.3-0.4h-4.7c-0.2,0-0.3,0.1-0.3,0.4v0.6H117.5z M117.5,31.8
			h-5.3v1h5c0.2,0,0.3-0.2,0.3-0.4V31.8z M115.5,34.5c0.4,0.6,0.8,1.2,1.2,1.6c0.6-0.6,0.9-0.9,1.5-1.7c-0.1,0-0.2,0.1-0.6,0.1
			C117.6,34.5,115.5,34.5,115.5,34.5z"/>
		<path class="st1" d="M128,34.7v4.2c0,0.5,0,1.1-0.7,1.1c-0.5,0-0.8-0.2-0.8-1.1v-4.2H124c-0.1,1.4-0.3,2.6-0.7,4
			c-0.4,1.2-0.6,1.3-1,1.3c-0.5,0-0.9-0.6-0.9-1.3c0-0.3,0-0.3,0.5-1.7c0.3-0.9,0.6-2.4,0.6-4.7V26c0-1.7,0.5-2.3,1.5-2.3h6.7
			c1,0,1.5,0.5,1.5,2.3v11.9c0,2.1-0.8,2.1-2.1,2.1c-0.7,0-1.3,0-1.3-1.2c0-0.7,0.2-1.1,0.7-1.1c0.1,0,0.6,0,0.7,0
			c0.3,0,0.4-0.2,0.4-0.7v-2.3H128z M126.5,28.2v-2.4h-2.1c-0.3,0-0.4,0.2-0.4,0.6v1.8H126.5z M126.5,30.2H124v2.5h2.5V30.2z
			 M128,28.2h2.7v-1.8c0-0.4-0.1-0.6-0.4-0.6H128V28.2z M130.6,30.2H128v2.5h2.7L130.6,30.2L130.6,30.2z"/>
	</g>
	<g class="st0">
		<path class="st1" d="M142.8,33c0,1.5-0.2,4.6-1.8,5.8c-0.9,0.7-1.9,0.8-2.4,0.8c-1,0-2.1-0.3-2.9-1.3c-0.9-1.1-1.3-2.9-1.3-4.4
			c0-2.2,0.6-4.5,1.4-5.9c0.2-0.4,0.5-0.8,0.7-1.1c-0.5,0.1-1.2,0.1-1.6,0.1c-0.2,0-0.9,0-0.9-1.2s0.6-1.2,0.9-1.2h2.9
			c0.2,0,0.9,0,0.9,1.1c0,0.6-0.3,1-0.9,1.8c-1.3,1.8-1.9,4.3-1.9,6.1c0,2,0.9,3.6,2.6,3.6c1.6,0,2.8-1,2.8-4.7c0-1.1-0.1-2.7-1-5.3
			c-0.1-0.3-0.7-1.6-0.8-1.9s-0.1-0.4-0.1-0.6c0-1,0.9-1,0.9-1c0.4,0,0.5,0.3,0.8,1.1c0.7,1.6,1.7,2.8,2.9,3.6
			c0.6,0.4,0.8,0.6,0.8,1.2c0,0.4-0.2,1.2-0.8,1.2c-0.5,0-1.4-1-1.9-1.8C142.4,29.7,142.8,31,142.8,33z M142.5,24.4
			c0-0.1,0-0.2,0-0.3c0-0.4,0.3-0.5,0.4-0.5c0.2,0,0.3,0.2,0.5,0.9c0.1,0.4,0.3,1.2,0.3,1.5c0,0.6-0.4,0.6-0.5,0.6
			c-0.2,0-0.3-0.3-0.3-0.4s-0.2-0.8-0.2-0.9C142.7,25.1,142.5,24.6,142.5,24.4z M143.8,23.5c0-0.4,0.3-0.5,0.4-0.5
			c0.2,0,0.3,0.2,0.5,0.9c0.3,0.8,0.4,1.4,0.4,1.5c0,0.6-0.4,0.6-0.5,0.6c-0.2,0-0.3-0.2-0.3-0.4c-0.1-0.4-0.1-0.5-0.2-0.9
			C143.9,23.8,143.8,23.6,143.8,23.5z"/>
	</g>
	<g class="st0">
		<path class="st1" d="M148.7,24.7c0.1-0.6,0.3-1.3,0.9-1.3c0.3,0,0.9,0.3,0.9,1.1c0,0.4-0.1,0.9-0.5,2.2c-0.4,1.3-0.6,2.3-1.1,4.4
			c0.6-0.7,1-1.1,1.8-1.1c1.5,0,1.9,1.5,1.9,3.1c0,0.4-0.1,2.4-0.1,2.5c0,0.3,0,1.5,0.8,1.5c0.9,0,1.3-1.5,1.5-3
			c0.1-0.6,0.1-0.9,0.1-2.4c0-0.6,0.1-1.3,0.8-1.3c0.8,0,0.8,0.9,0.8,1.4c0,1.4-0.2,3.3-0.5,4.6c-0.2,0.6-0.7,2.4-2,2.9
			c-0.4,0.2-0.7,0.2-0.9,0.2c-0.7,0-1.5-0.3-1.9-1.4c-0.3-0.9-0.3-1.6-0.3-2.1c0-0.3,0.1-1.9,0.1-2.2c0-0.8,0-1.6-0.8-1.6
			c-0.7,0-1.6,1.1-2,2.8c-0.1,0.5-0.3,1.3-0.5,2.8c-0.1,0.9-0.2,1.5-0.9,1.5c-0.3,0-0.9-0.2-0.9-1.1c0-0.3,0-0.5,0.3-1.7
			c0.7-3.4,1.4-6.7,2.2-10L148.7,24.7z"/>
	</g>
	<g>
		<path class="st1" d="M175.7,20c0.8,0,1.2-0.2,1.2-0.2l0,0l0,0l0,0l0,0c0,0,0-0.5,0-0.8c-0.2,0.1-0.6,0.1-1.2,0.1
			c-0.6,0-1-0.1-1.2-0.1c0,0.3,0,0.8,0,0.8S174.9,20,175.7,20"/>
		<path class="st1" d="M175.7,18.3c0.8,0,1.2-0.2,1.2-0.2c0-0.1-0.4-0.2-1.2-0.2s-1.2,0.2-1.2,0.2C174.5,18.1,174.9,18.3,175.7,18.3
			"/>
		<path class="st1" d="M177,23.2L177,23.2c0-0.1,0-2.5-0.1-3.2c-0.2,0.1-0.7,0.2-1.2,0.2s-1-0.1-1.2-0.2c0,0.8-0.1,3.1-0.1,3.2l0,0
			l0,0c-0.3,0.8-1.7,1.4-1.6,3.5c0,0,0,9,0,12.1c0.1,0.4,0.6,0.7,0.7,0.8c0.2,0.2,1,0.5,2.2,0.5s2-0.4,2.2-0.5
			c0.1-0.1,0.6-0.4,0.7-0.8c0-3,0-12.1,0-12.1C178.7,24.7,177.3,24.1,177,23.2L177,23.2z M178,31.4c0,1.6-1,2.9-2.2,3
			c-1.2,0-2.2-1.3-2.2-2.9s1-2.9,2.2-3C177,28.5,178,29.8,178,31.4"/>
		<path class="st1" d="M166.4,24.9c-1.9,0-3.4-0.3-3.6-0.7c-0.2,0.4-0.5,1.1-0.5,1.5c0,0-0.1,12.4-0.1,12.9v0.1c0.2,0.5,0.9,0.9,1,1
			c0.3,0.3,1.4,0.7,3.1,0.7c1.7,0,2.9-0.4,3.1-0.7c0.1-0.1,0.8-0.5,1-1v-0.1c0-0.3,0.1-12.9,0.1-12.9c0-0.2-0.3-1.1-0.5-1.5
			C169.7,24.7,168.2,25,166.4,24.9"/>
		<path class="st1" d="M166.4,22.9c-2,0-3.7,0.3-3.7,0.8c0,0.4,1.6,0.8,3.7,0.8c2,0,3.7-0.3,3.7-0.8
			C170.1,23.3,168.4,22.9,166.4,22.9 M167.1,23.9l-1.2,0.3c-0.3,0.1-0.9,0.1-1.3,0c-0.3,0-0.4-0.2-0.3-0.2c0,0,0.2-0.1,0.3-0.1
			l1.1-0.2c0.3-0.1,1-0.1,1.4,0c0.2,0,0.3,0,0.4,0.1C167.4,23.7,167.3,23.8,167.1,23.9 M169.9,23.8c0,0-0.1,0.1-0.2,0.2
			c-0.4-0.2-1.5-0.5-3.3-0.5s-2.9,0.3-3.3,0.5c-0.1-0.1-0.2-0.1-0.2-0.2c0-0.2,1.2-0.6,3.5-0.6C168.7,23.1,169.9,23.6,169.9,23.8"/>
	</g>
</g>
</svg>
