<?xml version="1.0" encoding="utf-8"?>
<!-- Generator: Adobe Illustrator 28.0.0, SVG Export Plug-In . SVG Version: 6.00 Build 0)  -->
<svg version="1.1" id="レイヤー_1" xmlns="http://www.w3.org/2000/svg" xmlns:xlink="http://www.w3.org/1999/xlink" x="0px"
	 y="0px" viewBox="0 0 200.8 24.1" style="enable-background:new 0 0 200.8 24.1;" xml:space="preserve">
<style type="text/css">
	.st0{fill:#231815;}
</style>
<g>
	<path class="st0" d="M63,21.6c4.3-2.5,7-5.9,7.9-12.4h-7.1V7.8h7.3c0.2-2.1,0.2-3.1,0.2-4.4h1.6c-0.1,2.1-0.2,3-0.3,4.3h10v3.9
		c0,0.6,0,6.9-0.9,9c-0.8,1.8-3,1.8-4,1.8c-2.1,0-3.2-0.2-4-0.3v-1.4c1.3,0.2,2.6,0.4,4.2,0.4c2,0,2.3-0.9,2.5-1.4
		c0.5-1.4,0.7-6.2,0.7-8.1V9.1h-8.7c-1.1,8-4.6,11.4-8.5,13.5L63,21.6z"/>
	<path class="st0" d="M96.7,9.6C94.5,8.2,91.3,7,89,6.4l0.9-1.3c2.5,0.7,5.6,1.9,7.7,3.2L96.7,9.6z M89.5,20.5
		c1.7,0,6.8-0.3,11.6-3.9c4.6-3.5,6.3-8.3,7-10.3l1.3,0.9c-0.9,2.3-2.8,7.1-7.7,10.7c-3.4,2.5-7.6,3.9-11.9,4.1L89.5,20.5z"/>
	<path class="st0" d="M121.4,5.1v1.3c-3.2,2.1-5.7,5.1-5.7,8.9c0,3.9,2.5,5.8,6.3,5.8c1.3,0,4-0.2,5.5-2c1.3-1.5,1.5-3.6,1.5-4.7
		c0-2.6-0.7-6-2-8c-0.3-0.5-1-1.6-1.3-2.4l1.5-0.3c0.5,1.1,2,5.1,7.5,7.1l-0.5,1.5c-3-1.1-4.3-2.7-5-3.6c1.1,2.9,1.1,5.4,1.1,5.8
		c0,3.7-1.5,8-8.3,8c-6.6,0-7.8-4.6-7.8-7.1c0-5.2,4-8.1,5.2-9h-5.6V5.1H121.4z M130.8,2.3c1.1,1.8,1.7,3.4,2.1,4.5l-1.4,0.6
		c-0.6-2-1.2-3.2-2-4.6L130.8,2.3z M134.2,1.4c1.2,1.9,1.7,3.4,2.1,4.5l-1.4,0.6c-0.6-2-1.1-3.1-2-4.6L134.2,1.4z"/>
	<path class="st0" d="M146.8,3.9c-2.1,4.2-3.6,8-4.1,9.5c1.1-0.9,2.3-1.8,4.2-1.8c4.1,0,4.1,3.5,4.1,5.6v0.7c0,1.5,0,3.4,2.5,3.4
		c4.3,0,4.8-6,4.8-7.9l1.5,0.2c-0.1,3.2-0.9,9-6.2,9c-1.3,0-2.6-0.3-3.4-1.5c-0.6-0.8-0.6-2.6-0.6-3.6v-0.4c0-1.6,0-4.3-2.7-4.3
		c-1.1,0-3.4,0.6-5,3.2c-0.8,1.2-1.7,4.4-2.3,6.4L138,22c4.4-12.1,4.9-13.4,7.1-18.6L146.8,3.9z"/>
</g>
<g>
	<rect x="42.3" y="0" class="st0" width="12.3" height="1.2"/>
	<path class="st0" d="M55.9,3.8c-0.2-0.3-1.5-2-1.5-2h-1.5c-0.7,0.8-2.3,3.9-0.6,12.8c0.3,1.8,0.5,5.9-0.6,7.9h-4.4
		c1.5-1.9,3.5-5.5,2.9-9.8c-0.7-5.6-0.8-8.9,0-11h-7.6c0,0-1.3,1.7-1.5,2C41,4.1,41,4.3,41,4.8s0,15.8,0,16.5c0,0.6,0.2,1.5,0.6,1.7
		c0.9,0.4,0.6,1.2,1.6,1.2h10.6c1,0,0.6-0.7,1.6-1.2c0.5-0.2,0.6-1,0.6-1.7c0-0.6,0-16,0-16.5C56,4.3,56.1,4.1,55.9,3.8z"/>
</g>
</svg>
