<?xml version="1.0" encoding="utf-8"?>
<!-- Generator: Adobe Illustrator 28.0.0, SVG Export Plug-In . SVG Version: 6.00 Build 0)  -->
<svg version="1.1" id="レイヤー_1" xmlns="http://www.w3.org/2000/svg" xmlns:xlink="http://www.w3.org/1999/xlink" x="0px"
	 y="0px" viewBox="0 0 200.8 82" style="enable-background:new 0 0 200.8 82;" xml:space="preserve">
<style type="text/css">
	.st0{fill:#231815;}
</style>
<g>
	<path class="st0" d="M72.8,37.1c3.7-2.2,6.1-5.1,6.9-10.8h-6.2v-1.2h6.3c0.2-1.8,0.2-2.7,0.2-3.8h1.4c-0.1,1.8-0.2,2.6-0.3,3.7h8.7
		v3.4c0,0.5,0,6-0.8,7.8c-0.7,1.6-2.6,1.6-3.5,1.6c-1.8,0-2.8-0.2-3.5-0.3v-1.2c1.1,0.2,2.3,0.3,3.6,0.3c1.7,0,2-0.8,2.2-1.2
		c0.4-1.2,0.6-5.4,0.6-7v-2.2h-7.5c-1,6.9-4,9.9-7.4,11.7L72.8,37.1z"/>
	<path class="st0" d="M102.1,26.7c-1.9-1.2-4.7-2.3-6.7-2.8l0.8-1.1c2.2,0.6,4.9,1.6,6.7,2.8L102.1,26.7z M95.8,36.2
		c1.5,0,5.9-0.3,10.1-3.4c4-3,5.5-7.2,6.1-8.9l1.1,0.8c-0.8,2-2.4,6.2-6.7,9.3c-3,2.2-6.6,3.4-10.3,3.6L95.8,36.2z"/>
	<path class="st0" d="M123.5,22.8V24c-2.8,1.8-4.9,4.4-4.9,7.7c0,3.4,2.2,5,5.5,5c1.1,0,3.5-0.2,4.8-1.7c1.1-1.3,1.3-3.1,1.3-4.1
		c0-2.3-0.6-5.2-1.7-6.9c-0.3-0.4-0.9-1.4-1.1-2.1l1.3-0.3c0.4,1,1.7,4.4,6.5,6.2l-0.4,1.3c-2.6-1-3.7-2.3-4.3-3.1c1,2.5,1,4.7,1,5
		c0,3.2-1.3,6.9-7.2,6.9c-5.7,0-6.8-4-6.8-6.2c0-4.5,3.5-7,4.5-7.8h-4.9v-1.1C117.1,22.8,123.5,22.8,123.5,22.8z M131.7,20.4
		c1,1.6,1.5,3,1.8,3.9l-1.2,0.5c-0.5-1.7-1-2.8-1.7-4L131.7,20.4z M134.6,19.6c1,1.6,1.5,3,1.8,3.9l-1.2,0.5c-0.5-1.7-1-2.7-1.7-4
		L134.6,19.6z"/>
	<path class="st0" d="M145.6,21.8c-1.8,3.6-3.1,6.9-3.6,8.2c1-0.8,2-1.6,3.6-1.6c3.6,0,3.6,3,3.6,4.9v0.6c0,1.3,0,3,2.2,3
		c3.7,0,4.2-5.2,4.2-6.9l1.3,0.2c-0.1,2.8-0.8,7.8-5.4,7.8c-1.1,0-2.3-0.3-3-1.3c-0.5-0.7-0.5-2.3-0.5-3.1v-0.3c0-1.4,0-3.7-2.3-3.7
		c-1,0-3,0.5-4.3,2.8c-0.7,1-1.5,3.8-2,5.6l-1.4-0.3c3.8-10.5,4.3-11.6,6.2-16.1L145.6,21.8z"/>
</g>
<g>
	<rect x="54.9" y="18.4" class="st0" width="10.7" height="1"/>
	<path class="st0" d="M66.7,21.7c-0.2-0.3-1.3-1.7-1.3-1.7h-1.3c-0.6,0.7-2,3.4-0.5,11.1c0.3,1.6,0.4,5.1-0.5,6.9h-3.8
		c1.3-1.6,3-4.8,2.5-8.5c-0.6-4.9-0.7-7.7,0-9.5h-6.7c0,0-1.1,1.5-1.3,1.7c-0.1,0.3-0.1,0.5-0.1,1c0,0.4,0,13.7,0,14.3
		c0,0.5,0.2,1.3,0.5,1.5c0.8,0.3,0.5,1,1.4,1h9.2c0.9,0,0.5-0.6,1.4-1c0.4-0.2,0.5-0.9,0.5-1.5c0-0.5,0-13.9,0-14.3
		S66.9,22,66.7,21.7z"/>
</g>
</svg>
