<?xml version="1.0" encoding="utf-8"?>
<!-- Generator: Adobe Illustrator 28.0.0, SVG Export Plug-In . SVG Version: 6.00 Build 0)  -->
<svg version="1.1" id="レイヤー_1" xmlns="http://www.w3.org/2000/svg" xmlns:xlink="http://www.w3.org/1999/xlink" x="0px"
	 y="0px" viewBox="0 0 200.8 22.4" style="enable-background:new 0 0 200.8 22.4;" xml:space="preserve">
<style type="text/css">
	.st0{fill-rule:evenodd;clip-rule:evenodd;fill:#231815;}
	.st1{fill:#231815;}
</style>
<g>
	<path class="st0" d="M48.5,2.1L48.5,2.1L48.5,2.1z"/>
	<g>
		<path class="st1" d="M51.6,11.7c0.5-1.4,0.7-3.2,0.7-6.4h1.3c0,3.7-0.1,5.3-0.6,6.9L51.6,11.7z M51.7,21.1c1.3-1.1,3-2.9,3-9.3
			V1.1h1.2V7c0.9-1.5,1.2-2,1.7-3l1.1,0.7c-0.6,1.4-2.6,4.1-2.8,4.3v2.8c0,1.1,0,1.2,0,2.3c0.8,2.2,2.3,3.7,2.9,4.2l-1,1
			c-0.8-0.8-1.3-1.5-2.1-3c-0.4,2.1-1.1,4-3,5.9L51.7,21.1z M57.1,10c2.5-2.4,3.7-6.4,4-8.8l1.2,0.2c-0.1,0.8-0.2,1.3-0.5,2.2h4.3
			c-0.2,1.4-0.3,2-0.4,2.4h3.2V1.1h1.3V6h4.6v1.1h-4.5c0.1,0.4,0.6,5.4,4.7,8l-0.8,1.2c-2.7-1.9-4.1-4.9-4.6-8
			c-0.7,4.1-2.9,6.6-5.5,7.8l-0.8-1c1.4-0.7,4.9-2.5,5.6-8h-3.4c-0.9,2.9-2.6,6.5-6.4,9l-0.9-0.9c1.4-0.9,2.9-2.1,4.2-4
			c-0.9-0.6-2.2-1.3-3.2-1.7c-0.5,0.7-0.7,0.9-1.1,1.3L57.1,10z M57.7,21.2c1.6-1.5,2.3-2.6,3.1-4.7l1.2,0.4c-0.3,0.8-1.2,3.4-3,5.1
			L57.7,21.2z M63.8,8.5c-0.9-0.6-2.3-1.3-3.1-1.6c-0.2,0.4-0.4,0.8-0.9,1.6c1,0.4,2.3,1.2,3.1,1.7C63.2,9.8,63.4,9.3,63.8,8.5z
			 M61.6,4.6c-0.3,0.8-0.4,1.1-0.5,1.4c1,0.3,1.8,0.8,3,1.5c0.4-1.2,0.6-2.1,0.7-2.9H61.6z M64,21.6c0-0.4,0.1-0.8,0.1-1.4
			c0-1.4-0.1-2.5-0.2-3.1L65,17c0.3,1.4,0.4,3.5,0.3,4.5L64,21.6z M68.6,21.6c-0.2-1.5-0.9-3.7-1.3-4.5l1.2-0.3
			c0.5,1,1.2,3.1,1.4,4.6L68.6,21.6z M73.8,22c-0.4-1-1.4-3.1-3.1-5.2l1.1-0.5c1,1.2,2.4,3.3,3.2,5.2L73.8,22z M73.4,5.2
			c-0.6-1-2-2.6-2.5-3.1l1-0.6c0.9,0.8,2,2.1,2.7,3.2L73.4,5.2z"/>
		<path class="st1" d="M86.2,21.5c-0.8-4.3-1.8-7.8-3.2-12.3c-2.4,0.8-3.2,1.1-4.5,1.7l-0.6-1.4c1.4-0.5,1.6-0.6,4.7-1.6
			c-0.3-1.1-0.9-2.8-1.7-4.8l1.6-0.4c0.3,0.8,1.1,3.2,1.6,4.8c2.9-0.9,5.1-1.4,6-1.7c-0.8-1.6-1.9-2.9-2.2-3.3L89.2,2
			c1.3,1.4,2,2.7,2.4,3.5c0.6-0.1,1.3-0.2,2.2-0.2c3.5,0,5.4,2.4,5.4,4.8c0,3.3-3,5-6.3,5c-1.9,0-3.4-0.6-3.9-0.7l0.4-1.3
			c0.7,0.3,1.8,0.7,3.6,0.7c2.4,0,4.6-1.3,4.6-3.7c0-1-0.6-3.5-4.1-3.5c-2.4,0-6.8,1.4-9.1,2.2c1.4,4.2,2.6,8.9,3.5,12.4L86.2,21.5z
			"/>
		<path class="st1" d="M124.1,4.6v1.3h-6.7v4.6c0.2,0.5,0.3,1.1,0.4,1.7c0.1,0.6,0.2,1.2,0.2,1.8c0,4.9-3.7,7.1-10.1,7.3l-0.5-1.3
			c8.5,0.1,9.1-4.1,9.3-5.9c-0.7,1.8-2.5,2.8-4.6,2.8c-2.9,0-4.7-2-4.7-4.4c0-2.3,1.5-4.7,5.2-4.7c2.1,0,2.9,0.9,3.2,1.2V6H103V4.6
			h12.9V1.8h1.5v2.8H124.1z M115.9,11.4c-0.3-1.1-1.1-2.4-3.2-2.4c-1.8,0-3.6,0.9-3.6,3.3c0,1.4,0.8,3.3,3.3,3.3
			c2.3,0,3.6-1.6,3.6-3.1L115.9,11.4L115.9,11.4z"/>
		<path class="st1" d="M132.6,12.2c-1.2,1.4-1.4,2.6-1.4,3.3c0,1.2,0.8,2.3,1.7,2.9c1.4,0.8,2.9,1,6,1c4.1,0,6.6-0.3,8.8-0.5
			l0.1,1.5c-1.8,0.1-4.7,0.3-8.6,0.3c-3.3,0-5.3-0.3-7-1.1c-1.6-0.8-2.5-2.4-2.5-4.1c0-1.8,0.9-3.1,1.6-4.1L132.6,12.2z M144.3,4.9
			c-1.6,0.5-3.7,1.1-6.4,2.8l-1.1-0.9c1.3-0.9,2.3-1.3,3.8-1.8c-4,0-6.7,0.1-9.4,0.2V3.7c1.9,0,3,0,13.2,0L144.3,4.9L144.3,4.9z
			 M145.9,0.9c0.7,1.1,1.5,2.3,2.4,4.4L147,6c-0.8-1.9-1.4-3.1-2.4-4.5L145.9,0.9z M149.2,0c1.3,1.7,2,3.2,2.5,4.3L150.3,5
			c-0.9-2-1.6-3.2-2.4-4.4L149.2,0z"/>
		<path class="st1" d="M163.1,20.3c5.1-1.3,6.3-4.4,7.1-7.7c-3.6-1.2-5.5-1.4-7-1.5c-1.6,6-2.5,8.8-6.1,8.8c-2.4,0-4-1.5-4-3.8
			c0-2.6,2-4.7,4.1-5.5c1.4-0.5,3.1-0.8,4.8-0.8c0.4-1.7,0.8-4.2,1-6l-8.2,0.1V2.5h9.9c-0.3,2.5-0.8,4.9-1.3,7.4
			c0.9,0.1,3,0.2,7,1.4c0.3-1.4,0.4-2.5,0.6-5.1l1.6,0.1c-0.4,3-0.5,4-0.8,5.5c1.5,0.5,1.7,0.6,3.2,1.3l-0.5,1.4
			c-1.1-0.6-1.7-0.9-3-1.4c-0.6,2.4-1.9,6.8-7.6,8.3L163.1,20.3z M157.5,11.7c-2,0.9-3.1,2.6-3.1,4.3c0,0.8,0.4,2.7,2.4,2.7
			c2.8,0,3.4-2,4.9-7.7C160,10.9,158.9,11.1,157.5,11.7z"/>
	</g>
</g>
<g>
	<path class="st1" d="M25.8,15.5l0.1,0.1C25.9,15.6,25.9,15.6,25.8,15.5L25.8,15.5z"/>
	<path class="st1" d="M45.4,13.1c-0.5-1.4-1.4-2.7-2.3-4.1c-0.6-0.9-0.7-1.9-0.2-2.7c-1.3,0.6-2.2,1.5-1.8,2.8
		C41,9,40.9,8.8,40.7,8.7c-1.1-1.2-2.5-2.9-3.1-4.3C37.1,3.2,37,1.9,38,1c-1.2,0.6-2.8,1.5-3.8,2.2c-3,2-6.3,6.1-3.9,9.2
		c-1.1-0.6-1.4-1.7-1.3-2.6c-1.1,0.9-1.7,2.2-1.8,3.3c-0.1,1.4,0.3,2.8,1,4.1c-0.1-0.1-0.1-0.2-0.2-0.3l-0.1-0.1
		c-0.8,0-1.6-0.6-2-1.2c0.5,3,5.5,6.2,9.7,6.8c-0.9-0.2-1.5-0.4-2.3-0.7c0.7,0.3,1.5,0.6,2.3,0.7c-2.1-0.5-4.5-2.3-4.4-4.5
		c0.2-2.7,2.8-3.9,3.7-5.9c0.3-0.9,0.7-2.2-0.3-3c2,0.7,3.7,3.1,3.1,5.1c-0.2,0.6-0.6,1.2-1.2,1.6h0.1c0.9-0.5,1.9-1.4,1.6-2.7
		c0.6,0.4,1.2,1.1,1.1,1.9c0,0.8-0.7,1.5-1.2,2.2c-0.3,0.6,0.1,1.3,0.9,1.1c0.9-0.2,1.1-1.5,0.2-2c1.9,0.9,1.8,3.1,0.4,4.4
		c-0.7,0.7-2,1.3-3.2,1.7c2-0.3,3.6-0.9,5.1-1.7C44.6,18.9,46.6,16.1,45.4,13.1z M29.5,19c-0.2-0.2-0.4-0.4-0.5-0.6
		C29.1,18.6,29.3,18.8,29.5,19L29.5,19z M33.3,21.7L33.3,21.7C33.2,21.7,33.2,21.7,33.3,21.7C33.2,21.7,33.3,21.7,33.3,21.7z"/>
</g>
</svg>
