<?xml version="1.0" encoding="utf-8"?>
<!-- Generator: Adobe Illustrator 28.0.0, SVG Export Plug-In . SVG Version: 6.00 Build 0)  -->
<svg version="1.1" id="レイヤー_1" xmlns="http://www.w3.org/2000/svg" xmlns:xlink="http://www.w3.org/1999/xlink" x="0px"
	 y="0px" viewBox="0 0 200.8 82" style="enable-background:new 0 0 200.8 82;" xml:space="preserve">
<style type="text/css">
	.st0{fill-rule:evenodd;clip-rule:evenodd;fill:#231815;}
	.st1{fill:#231815;}
</style>
<g>
	<path class="st0" d="M62.5,20.2L62.5,20.2L62.5,20.2z"/>
	<g>
		<path class="st1" d="M65.1,28.4c0.4-1.2,0.6-2.7,0.6-5.4h1.1c0,3.1-0.1,4.5-0.5,5.9L65.1,28.4z M65.2,36.3
			c1.1-0.9,2.5-2.5,2.5-7.9v-9.1h1v5c0.8-1.3,1-1.7,1.4-2.5l0.9,0.6c-0.5,1.2-2.2,3.5-2.4,3.6v2.4c0,0.9,0,1,0,2
			c0.7,1.9,2,3.1,2.5,3.6l-0.8,0.8c-0.7-0.7-1.1-1.3-1.8-2.5c-0.3,1.8-0.9,3.4-2.5,5L65.2,36.3z M69.8,26.9c2.1-2,3.1-5.4,3.4-7.5
			l1,0.2c-0.1,0.7-0.2,1.1-0.4,1.9h3.6c-0.2,1.2-0.3,1.7-0.3,2h2.7v-4.2h1.1v4.2h3.9v0.9H81c0.1,0.3,0.5,4.6,4,6.8l-0.7,1
			c-2.3-1.6-3.5-4.2-3.9-6.8c-0.6,3.5-2.5,5.6-4.7,6.6l-0.6-0.8c1.2-0.6,4.2-2.1,4.8-6.8H77c-0.8,2.5-2.2,5.5-5.4,7.6l-0.8-0.8
			c1.2-0.8,2.5-1.8,3.6-3.4c-0.8-0.5-1.9-1.1-2.7-1.4c-0.4,0.6-0.6,0.8-0.9,1.1L69.8,26.9z M70.3,36.4c1.4-1.3,2-2.2,2.6-4l1,0.3
			c-0.3,0.7-1,2.9-2.5,4.3L70.3,36.4z M75.5,25.7c-0.8-0.5-2-1.1-2.6-1.4c-0.2,0.3-0.3,0.7-0.8,1.4c0.8,0.3,2,1,2.6,1.4
			C75,26.8,75.1,26.3,75.5,25.7z M73.6,22.3c-0.3,0.7-0.3,0.9-0.4,1.2c0.8,0.3,1.5,0.7,2.5,1.3c0.3-1,0.5-1.8,0.6-2.5H73.6z
			 M75.6,36.8c0-0.3,0.1-0.7,0.1-1.2c0-1.2-0.1-2.1-0.2-2.6l0.9-0.1c0.3,1.2,0.3,3,0.3,3.8L75.6,36.8z M79.5,36.8
			c-0.2-1.3-0.8-3.1-1.1-3.8l1-0.3c0.4,0.8,1,2.6,1.2,3.9L79.5,36.8z M84,37.1c-0.3-0.8-1.2-2.6-2.6-4.4l0.9-0.4
			c0.8,1,2,2.8,2.7,4.4L84,37.1z M83.6,22.9c-0.5-0.8-1.7-2.2-2.1-2.6l0.8-0.5c0.8,0.7,1.7,1.8,2.3,2.7L83.6,22.9z"/>
		<path class="st1" d="M94.5,36.7c-0.7-3.6-1.5-6.6-2.7-10.4c-2,0.7-2.7,0.9-3.8,1.4l-0.5-1.2c1.2-0.4,1.4-0.5,4-1.4
			c-0.3-0.9-0.8-2.4-1.4-4.1l1.4-0.3c0.3,0.7,0.9,2.7,1.4,4.1c2.5-0.8,4.3-1.2,5.1-1.4c-0.7-1.4-1.6-2.5-1.9-2.8l1.1-0.4
			c1.1,1.2,1.7,2.3,2,3c0.5-0.1,1.1-0.2,1.9-0.2c3,0,4.6,2,4.6,4.1c0,2.8-2.5,4.2-5.3,4.2c-1.6,0-2.9-0.5-3.3-0.6l0.3-1.1
			c0.6,0.3,1.5,0.6,3.1,0.6c2,0,3.9-1.1,3.9-3.1c0-0.8-0.5-3-3.5-3c-2,0-5.8,1.2-7.7,1.9c1.2,3.6,2.2,7.5,3,10.5L94.5,36.7z"/>
		<path class="st1" d="M126.6,22.3v1.1h-5.7v3.9c0.2,0.4,0.3,0.9,0.3,1.4c0.1,0.5,0.2,1,0.2,1.5c0,4.2-3.1,6-8.6,6.2l-0.4-1.1
			c7.2,0.1,7.7-3.5,7.9-5c-0.6,1.5-2.1,2.4-3.9,2.4c-2.5,0-4-1.7-4-3.7s1.3-4,4.4-4c1.8,0,2.5,0.8,2.7,1v-2.5h-10.9v-1.2h10.9V20
			h1.3v2.4h5.8V22.3z M119.7,28.1c-0.3-0.9-0.9-2-2.7-2c-1.5,0-3.1,0.8-3.1,2.8c0,1.2,0.7,2.8,2.8,2.8c2,0,3.1-1.4,3.1-2.6
			L119.7,28.1L119.7,28.1z"/>
		<path class="st1" d="M133.8,28.8c-1,1.2-1.2,2.2-1.2,2.8c0,1,0.7,2,1.4,2.5c1.2,0.7,2.5,0.8,5.1,0.8c3.5,0,5.6-0.3,7.5-0.4
			l0.1,1.3c-1.5,0.1-4,0.3-7.3,0.3c-2.8,0-4.5-0.3-5.9-0.9c-1.4-0.7-2.1-2-2.1-3.5s0.8-2.6,1.4-3.5L133.8,28.8z M143.8,22.6
			c-1.4,0.4-3.1,0.9-5.4,2.4l-0.9-0.8c1.1-0.8,2-1.1,3.2-1.5c-3.4,0-5.7,0.1-8,0.2v-1.3c1.6,0,2.5,0,11.2,0L143.8,22.6L143.8,22.6z
			 M145.1,19.2c0.6,0.9,1.3,2,2,3.7l-1.1,0.6c-0.7-1.6-1.2-2.6-2-3.8L145.1,19.2z M147.9,18.4c1.1,1.4,1.7,2.7,2.1,3.6l-1.2,0.6
			c-0.8-1.7-1.4-2.7-2-3.7L147.9,18.4z"/>
		<path class="st1" d="M159.7,35.7c4.3-1.1,5.3-3.7,6-6.5c-3.1-1-4.7-1.2-5.9-1.3c-1.4,5.1-2.1,7.5-5.2,7.5c-2,0-3.4-1.3-3.4-3.2
			c0-2.2,1.7-4,3.5-4.7c1.2-0.4,2.6-0.7,4.1-0.7c0.3-1.4,0.7-3.6,0.8-5.1l-7,0.1v-1.2h8.4c-0.3,2.1-0.7,4.2-1.1,6.3
			c0.8,0.1,2.5,0.2,5.9,1.2c0.3-1.2,0.3-2.1,0.5-4.3l1.4,0.1c-0.3,2.5-0.4,3.4-0.7,4.7c1.3,0.4,1.4,0.5,2.7,1.1l-0.4,1.2
			c-0.9-0.5-1.4-0.8-2.5-1.2c-0.5,2-1.6,5.8-6.4,7L159.7,35.7z M155,28.4c-1.7,0.8-2.6,2.2-2.6,3.6c0,0.7,0.3,2.3,2,2.3
			c2.4,0,2.9-1.7,4.2-6.5C157.1,27.7,156.1,27.9,155,28.4z"/>
	</g>
</g>
<g>
	<path class="st1" d="M43.2,31.6L43.2,31.6C43.3,31.7,43.3,31.7,43.2,31.6L43.2,31.6z"/>
	<path class="st1" d="M59.9,29.6c-0.4-1.2-1.2-2.3-2-3.5c-0.5-0.8-0.6-1.6-0.2-2.3c-1.1,0.5-1.9,1.3-1.5,2.4
		c-0.1-0.1-0.2-0.3-0.3-0.3c-0.9-1-2.1-2.5-2.6-3.6c-0.4-1-0.5-2.1,0.3-2.9c-1,0.5-2.4,1.3-3.2,1.9c-2.5,1.7-5.3,5.2-3.3,7.8
		c-0.9-0.5-1.2-1.4-1.1-2.2c-0.9,0.8-1.4,1.9-1.5,2.8c-0.1,1.2,0.3,2.4,0.8,3.5c-0.1-0.1-0.1-0.2-0.2-0.3L45,32.8
		c-0.7,0-1.4-0.5-1.7-1c0.4,2.5,4.7,5.3,8.2,5.8c-0.8-0.2-1.3-0.3-2-0.6c0.6,0.3,1.3,0.5,2,0.6c-1.8-0.4-3.8-2-3.7-3.8
		c0.2-2.3,2.4-3.3,3.1-5c0.3-0.8,0.6-1.9-0.3-2.5c1.7,0.6,3.1,2.6,2.6,4.3c-0.2,0.5-0.5,1-1,1.4h0.1c0.8-0.4,1.6-1.2,1.4-2.3
		c0.5,0.3,1,0.9,0.9,1.6c0,0.7-0.6,1.3-1,1.9c-0.3,0.5,0.1,1.1,0.8,0.9c0.8-0.2,0.9-1.3,0.2-1.7c1.6,0.8,1.5,2.6,0.3,3.7
		c-0.6,0.6-1.7,1.1-2.7,1.4c1.7-0.3,3.1-0.8,4.3-1.4C59.2,34.5,60.9,32.1,59.9,29.6z M46.4,34.6c-0.2-0.2-0.3-0.3-0.4-0.5
		C46,34.2,46.2,34.4,46.4,34.6L46.4,34.6z M49.6,36.8L49.6,36.8C49.5,36.8,49.5,36.8,49.6,36.8C49.5,36.8,49.6,36.8,49.6,36.8z"/>
</g>
</svg>
