<?xml version="1.0" encoding="utf-8"?>
<!-- Generator: Adobe Illustrator 28.0.0, SVG Export Plug-In . SVG Version: 6.00 Build 0)  -->
<svg version="1.1" id="レイヤー_1" xmlns="http://www.w3.org/2000/svg" xmlns:xlink="http://www.w3.org/1999/xlink" x="0px"
	 y="0px" viewBox="0 0 200.8 82" style="enable-background:new 0 0 200.8 82;" xml:space="preserve">
<style type="text/css">
	.st0{fill-rule:evenodd;clip-rule:evenodd;fill:#231815;}
	.st1{fill:#231815;}
</style>
<g>
	<g>
		<path class="st0" d="M84.7,2.7L84.7,2.7L84.7,2.7z"/>
		<g>
			<path class="st1" d="M87.3,12c0.8-0.9,4.6-5.3,5-5.7c0.6-0.5,1-0.8,1.7-0.8c0.8,0,1.6,0.4,2.5,1.3l8.9,7.9l-0.9,1l-9.1-8.6
				c-0.3-0.3-0.9-0.6-1.3-0.6s-0.8,0.2-1,0.5c-0.6,0.7-1.8,2.2-4.7,5.9L87.3,12z M105.1,4.8c0,1.4-1.3,2.6-2.8,2.6
				c-1.6,0-2.8-1.2-2.8-2.6s1.3-2.6,2.8-2.6C103.9,2.2,105.1,3.4,105.1,4.8z M100.5,4.8c0,0.9,0.9,1.7,1.8,1.7s1.8-0.8,1.8-1.7
				s-0.9-1.7-1.8-1.7C101.3,3.1,100.5,3.8,100.5,4.8z"/>
			<path class="st1" d="M111.6,11.9c-0.3-1.9-1-3.2-1.6-4.3l1.1-0.3c0.5,0.8,1.1,2.1,1.7,4.3L111.6,11.9z M111.6,17
				c3.8-0.7,9-2.1,10.1-10.1l1.1,0.2c-1.4,7.2-4.8,9.6-10.5,10.9L111.6,17z M115.9,11.1c-0.4-2.1-1-3.6-1.3-4.2l1-0.2
				c0.5,1,1.2,3,1.4,4.2L115.9,11.1z"/>
			<path class="st1" d="M143,12.4c-2.1-1.2-5-2.7-9.2-4v9.5h-1.3V2.5h1.3v4.8c3.5,1,6.7,2.4,9.8,4L143,12.4z"/>
		</g>
	</g>
	<g>
		<path class="st1" d="M80.9,15.5c-0.5-0.6-0.7-2,0.1-3.5c0.2-0.3,0.3-0.6,0.5-1c0.2-0.8,0.2-1.5-0.2-2.3c-0.2-0.5-0.6-1-1-1.6
			c-0.6-0.8-1.3-2.9-1-3.2c0.2-0.2,0.1-0.6,0-0.8c0.2-0.2,0.4-0.4,0.4-0.6c0-0.4-0.5-0.7-1-0.7h-3.1c-0.6,0-1,0.3-1,0.7
			c0,0.2,0.2,0.5,0.4,0.6c-0.2,0.3-0.2,0.6,0,0.8s-0.5,2.4-1,3.2c-0.5,0.6-0.8,1.1-1,1.6c-0.4,0.8-0.4,1.5-0.2,2.3
			c0.1,0.4,0.3,0.7,0.5,1c0.8,1.5,0.5,3,0.1,3.5C73,16.1,72,18.2,73.6,19c1.2,0.6,2.4,0.6,3.3,0.6h0.5h0.5c0.9,0,2.1-0.1,3.3-0.6
			C82.3,18.2,81.3,16.1,80.9,15.5z M75.6,3.5c0,0,0-0.1,0.2-0.3h2.3c0.1,0.2,0.1,0.2,0.2,0.3c-0.2,0.2-0.3,0.7,0.1,2
			c0.1,0.2,0.2,0.4,0.2,0.6h-3.2c0.1-0.2,0.1-0.4,0.2-0.6C75.9,4.2,75.8,3.7,75.6,3.5z"/>
	</g>
	<g>
		<path class="st0" d="M97.1,38.7L97.1,38.7L97.1,38.7z"/>
		<g>
			<path class="st1" d="M108.2,41v-3.1h1.1V41h8.5v0.9h-8.5v3.9h6.5v8.3h-14.2v-8.3h6.5v-3.9h-8.4V41H108.2z M102.8,46.6v6.6h11.9
				v-6.6H102.8z"/>
			<path class="st1" d="M137.6,45.1h-14c-0.2,3.9-0.7,6.3-3.5,8.7l-0.8-0.8c2.8-2,3.1-4.2,3.2-7.9h-3.1v-0.9h8.6v-1.5h-7.1v-0.8h7.1
				v-1.4h-7.9v-0.9h5c-0.4-0.7-0.9-1.3-1-1.6l0.9-0.2c0.6,0.9,0.7,0.9,1.2,1.8h4.8c0.3-0.5,0.9-1.4,1-1.8l1.2,0.2
				c-0.2,0.3-0.6,1.2-0.9,1.6h4.8v0.9h-8v1.4h7.1v0.8h-7.1v1.5h8.5V45.1L137.6,45.1z M135.5,54.2h-10.8v-7.9h10.7L135.5,54.2
				L135.5,54.2z M134.4,47.1h-8.7v1.6h8.7V47.1z M134.4,49.4h-8.7V51h8.7V49.4z M134.4,51.7h-8.7v1.7h8.7V51.7z"/>
		</g>
	</g>
	<g>
		<path class="st1" d="M93,42.1c-1.5-2.8-4.2-2.2-4.2-3.1s0-0.9,0-0.9c0-0.3-0.3-0.6-0.6-0.6h-2.8c-0.4,0-0.6,0.3-0.6,0.6
			c0,0,0,0,0,0.9s-2.8,0.2-4.2,3.1c-1.3,2.7,0,5.8-2,10.5l2.7,0.7c0.8-1.9,1.2-4.5,1.4-7c0,0,0.1,5,0,8.3h8.5c-0.1-3.3,0-8.3,0-8.3
			c0.2,2.5,0.6,5.1,1.4,7l2.7-0.7C93,48,94.4,44.7,93,42.1z"/>
	</g>
	<g>
		<path class="st0" d="M77.7,21.4L77.7,21.4L77.7,21.4z"/>
		<g>
			<path class="st1" d="M87,22.7c-1.3,2.3-2.7,4.2-3.8,5.6c1.5-0.1,2-0.2,3.1-0.2c-0.3-0.6-0.6-0.9-0.8-1.4l0.9-0.4
				c0.2,0.3,1.1,1.7,1.7,3.4L87.3,30c-0.2-0.6-0.4-0.9-0.6-1.3c-0.4,0.1-0.9,0.2-2.1,0.2v8.2h-1V29c-1.8,0.1-2.4,0.1-3.1,0.2
				l-0.2-0.9c0.9,0,1.3,0,1.8,0c0.7-0.8,0.9-1.1,1.1-1.3c-0.7-0.8-1.6-1.7-3-2.6l0.6-0.7c0.5,0.3,0.6,0.4,0.8,0.6
				c0.7-0.9,1.5-2.4,2-3.6l1,0.3c-0.7,1.4-1.3,2.6-2.4,3.9c0.7,0.6,1.1,1,1.4,1.4c0.9-1.3,1.7-2.7,2.5-4L87,22.7z M80.3,35.5
				c0.8-1.5,1-3.5,1.2-4.7l0.9,0.2c-0.1,1.1-0.5,3.5-1.2,5L80.3,35.5z M86.8,34.7c-0.3-1.7-0.6-2.8-1.2-4l0.9-0.2
				c0.5,1,0.9,2.5,1.2,4L86.8,34.7z M97.6,21.5c-0.6,0.2-1.6,0.6-3.5,0.8c0,0.3-0.1,0.9-0.1,1.7c0,0.2,0,1.3,0.1,3h4.1v1h-4
				c0.5,6.8,2.2,7.9,2.5,7.9c0.6,0,0.9-2,0.9-2.7l0.9,0.6c-0.2,1.5-0.7,3.5-1.8,3.5c-0.5,0-0.9-0.5-1.3-0.9c-1.9-2.2-2.1-6-2.3-8.3
				h-3.3v7.3c1.3-0.3,2-0.6,3.3-0.9v0.9c-1.6,0.5-3.9,1.1-5.9,1.5L86.8,36c0.6-0.2,1-0.2,1.9-0.4v-14l1,0.2c2,0.1,5.1-0.5,7.3-1.1
				L97.6,21.5z M89.9,27h3.3c-0.1-1.5-0.1-3.1-0.1-4.5c-1.7,0.2-2.7,0.2-3.2,0.2V27z"/>
			<path class="st1" d="M106.5,22.3c-0.4,3-1.4,8.6-5.2,13.5l-1.1-0.6c2.8-3.8,4.2-7.5,5-13.1L106.5,22.3z M115.5,35.5
				c-0.9-5.9-3.2-10.4-4.8-13l1.1-0.6c1.7,2.7,4.1,7.2,5.1,13.1L115.5,35.5z M119.2,22.2c0,1.4-1.3,2.5-2.8,2.5s-2.8-1.1-2.8-2.5
				s1.3-2.5,2.8-2.5C118,19.6,119.2,20.7,119.2,22.2z M114.7,22.2c0,0.9,0.8,1.6,1.7,1.6s1.7-0.7,1.7-1.6s-0.8-1.6-1.7-1.6
				S114.7,21.3,114.7,22.2z"/>
			<path class="st1" d="M124.3,30.6c-0.3-1.9-1-3.2-1.6-4.3l1-0.3c0.5,0.8,1.1,2.1,1.7,4.3L124.3,30.6z M124.2,35.8
				c3.8-0.7,9-2.1,10.1-10.1l1.2,0.2c-1.5,7.2-4.8,9.5-10.5,10.7L124.2,35.8z M128.6,29.8c-0.4-2.1-1-3.6-1.3-4.2l1-0.2
				c0.5,1,1.2,3,1.4,4.2L128.6,29.8z"/>
			<path class="st1" d="M142,35.5c3.5-0.8,10.9-2.9,12.3-12.1h-7.6c-1.4,2-2.8,3.5-5.3,5.1l-0.8-0.9c1.7-1,3.9-2.8,5.2-5.3h9.9
				c-1,11.4-10.1,13.5-13.2,14.2L142,35.5z"/>
		</g>
	</g>
	<g>
		<path class="st1" d="M74.3,24.7l-2.2-1.3V22c0-0.2-0.2-0.4-0.3-0.4L63.9,20c-0.2,0-0.2,0-0.3,0.1c-0.2,0.1-0.2,0.2-0.2,0.4V22
			l-3.1,3.2c0,0.1-0.1,0.2-0.1,0.3v9.4c0,0.2,0.2,0.3,0.3,0.4l8.3,2.4c0.1,0,0.2,0,0.3-0.1l5-3c0.1,0,0.2-0.1,0.2-0.2
			c0.1-0.1,0.2-0.2,0.2-0.3v-9C74.5,24.9,74.4,24.8,74.3,24.7z M71.6,24.1l1.8,1l-3.9,1.7L71.6,24.1z M71.2,22.4v1l-7-1.5v-1
			L71.2,22.4z M64.1,22.3L64.1,22.3l7.2,1.5l0,0l-2.5,3.4l-7.6-1.8L64.1,22.3z M61.1,25.8l7.6,1.8v9l-7.6-2.2V25.8z M69.1,36.6v-9
			l4.6-2v8.3L69.1,36.6z"/>
	</g>
</g>
</svg>
