<?xml version="1.0" encoding="utf-8"?>
<!-- Generator: Adobe Illustrator 28.0.0, SVG Export Plug-In . SVG Version: 6.00 Build 0)  -->
<svg version="1.1" id="レイヤー_1" xmlns="http://www.w3.org/2000/svg" xmlns:xlink="http://www.w3.org/1999/xlink" x="0px"
	 y="0px" viewBox="0 0 200.8 68" style="enable-background:new 0 0 200.8 68;" xml:space="preserve">
<style type="text/css">
	.st0{fill-rule:evenodd;clip-rule:evenodd;fill:#231815;}
	.st1{fill:#231815;}
</style>
<g>
	<path class="st0" d="M70.9,1.5L70.9,1.5L70.9,1.5z"/>
	<g>
		<path class="st1" d="M74.2,13.3c1-1.1,5.8-6.7,6.4-7.2c0.7-0.6,1.3-1,2.2-1c1,0,2,0.5,3.2,1.6l11.3,10.1l-1.2,1.3L84.5,7.2
			c-0.4-0.4-1.2-0.8-1.7-0.8s-1,0.3-1.3,0.6c-0.8,0.9-2.3,2.8-6,7.5L74.2,13.3z M96.8,4.1c0,1.8-1.6,3.3-3.6,3.3s-3.6-1.5-3.6-3.3
			s1.6-3.3,3.6-3.3S96.8,2.3,96.8,4.1z M90.9,4.1c0,1.2,1.1,2.1,2.3,2.1c1.2,0,2.3-1,2.3-2.1c0-1.2-1.1-2.1-2.3-2.1
			C91.9,2,90.9,2.9,90.9,4.1z"/>
		<path class="st1" d="M105.1,13.2c-0.4-2.4-1.3-4.1-2-5.5l1.4-0.4c0.6,1,1.4,2.7,2.1,5.5L105.1,13.2z M105,19.7
			c4.8-0.9,11.4-2.7,12.8-12.9l1.4,0.3c-1.8,9.2-6.1,12.2-13.3,13.8L105,19.7z M110.5,12.2c-0.5-2.7-1.3-4.6-1.6-5.4l1.3-0.3
			c0.6,1.3,1.5,3.8,1.8,5.4L110.5,12.2z"/>
		<path class="st1" d="M144.9,13.8c-2.7-1.5-6.4-3.4-11.7-5.1v12.1h-1.6V1.2h1.6v6.1c4.5,1.3,8.5,3.1,12.5,5.1L144.9,13.8z"/>
	</g>
</g>
<g>
	<path class="st1" d="M66,17.8c-0.6-0.7-0.9-2.5,0.1-4.5c0.2-0.4,0.4-0.8,0.6-1.3c0.3-1,0.2-1.9-0.3-2.9c-0.3-0.6-0.7-1.3-1.3-2
		c-0.8-1-1.6-3.7-1.3-4.1c0.3-0.3,0.1-0.7,0-1c0.3-0.2,0.5-0.5,0.5-0.8c0-0.5-0.6-0.9-1.3-0.9h-4c-0.7,0-1.3,0.4-1.3,0.9
		c0,0.3,0.2,0.6,0.5,0.7c-0.2,0.4-0.3,0.8,0,1C58.5,3.2,57.6,6,56.9,7c-0.6,0.7-1,1.4-1.3,2c-0.5,1-0.5,1.9-0.3,2.9
		c0.1,0.5,0.4,0.9,0.6,1.3c1,1.9,0.6,3.8,0.1,4.5s-1.8,3.4,0.2,4.4c1.5,0.7,3,0.8,4.2,0.8H61h0.6c1.2,0,2.7-0.1,4.2-0.8
		C67.8,21.2,66.5,18.5,66,17.8z M59.3,2.5c0,0,0-0.1,0.2-0.4h3c0.1,0.2,0.1,0.3,0.2,0.4c-0.3,0.3-0.4,0.9,0.1,2.5
		c0.1,0.2,0.2,0.5,0.3,0.7H59c0.1-0.2,0.1-0.5,0.2-0.7C59.7,3.4,59.6,2.8,59.3,2.5z"/>
</g>
<g>
	<path class="st0" d="M86.6,47.2L86.6,47.2L86.6,47.2z"/>
	<g>
		<path class="st1" d="M100.7,50.1v-3.9h1.4v3.9h10.8v1.2h-10.8v4.9h8.2v10.6h-18V56.2h8.3v-4.9H89.9v-1.2H100.7z M93.9,57.3v8.4
			H109v-8.4C109,57.3,93.9,57.3,93.9,57.3z"/>
		<path class="st1" d="M138.1,55.3h-17.8c-0.2,5-0.9,8-4.5,11l-1-1c3.5-2.6,3.9-5.3,4.1-10H115v-1.1h10.9v-1.9h-9v-1h9v-1.8h-10
			v-1.1h6.3c-0.5-0.9-1.1-1.6-1.3-2l1.2-0.3c0.8,1.1,0.9,1.2,1.5,2.3h6.1c0.4-0.6,1.1-1.8,1.3-2.3l1.5,0.3c-0.2,0.4-0.8,1.5-1.2,2
			h6.1v1.1h-10.1v1.8h9v1h-9v1.9h10.8L138.1,55.3L138.1,55.3z M135.4,66.9h-13.7v-10h13.6L135.4,66.9L135.4,66.9z M134,57.9h-11v2
			h11V57.9z M134,60.8h-11v2h11V60.8z M134,63.8h-11v2.1h11V63.8z"/>
	</g>
</g>
<g>
	<path class="st1" d="M81.4,51.6c-1.9-3.6-5.4-2.8-5.4-4s0-1.2,0-1.2c0-0.4-0.4-0.8-0.8-0.8h-3.6c-0.5,0-0.8,0.4-0.8,0.8
		c0,0,0,0,0,1.2s-3.5,0.3-5.4,4c-1.7,3.4,0,7.4-2.6,13.3l3.4,0.9c1-2.4,1.5-5.7,1.8-8.9c0,0,0.1,6.3,0,10.6h10.8
		c-0.1-4.2,0-10.6,0-10.6c0.2,3.2,0.8,6.5,1.8,8.9l3.4-0.9C81.4,59,83.2,54.9,81.4,51.6z"/>
</g>
<g>
	<path class="st0" d="M61.9,25.2L61.9,25.2L61.9,25.2z"/>
	<g>
		<path class="st1" d="M73.8,26.9c-1.7,2.9-3.4,5.3-4.8,7.1c1.9-0.1,2.5-0.2,4-0.3c-0.4-0.7-0.7-1.2-1-1.8l1.1-0.5
			c0.3,0.4,1.4,2.2,2.1,4.3l-1.1,0.5c-0.3-0.8-0.5-1.2-0.7-1.6c-0.5,0.1-1.2,0.2-2.7,0.3v10.4h-1.3V35c-2.3,0.1-3.1,0.1-4,0.2
			L65.2,34c1.1,0,1.6,0,2.3,0c0.9-1,1.2-1.4,1.4-1.7c-0.9-1-2-2.1-3.8-3.3l0.7-0.9c0.6,0.4,0.7,0.5,1,0.7c0.9-1.2,1.9-3.1,2.6-4.6
			l1.3,0.4c-0.9,1.8-1.7,3.3-3,5c0.9,0.7,1.4,1.3,1.8,1.8c1.2-1.7,2.2-3.4,3.2-5.1L73.8,26.9z M65.2,43.2c1-1.9,1.3-4.4,1.5-6
			l1.2,0.2c-0.1,1.4-0.6,4.5-1.5,6.3L65.2,43.2z M73.5,42.2c-0.4-2.2-0.8-3.5-1.5-5.1l1.1-0.3c0.6,1.3,1.2,3.2,1.5,5.1L73.5,42.2z
			 M87.3,25.4c-0.8,0.3-2,0.7-4.5,1c0,0.4-0.1,1.1-0.1,2.2c0,0.2,0,1.7,0.1,3.8H88v1.2h-5.1c0.6,8.7,2.8,10.1,3.2,10.1
			c0.7,0,1.1-2.5,1.2-3.4l1.2,0.7c-0.3,1.9-0.9,4.4-2.3,4.4c-0.6,0-1.2-0.6-1.7-1.1c-2.4-2.8-2.7-7.6-2.9-10.6h-4.2V43
			c1.6-0.4,2.5-0.7,4.2-1.2V43c-2,0.6-5,1.4-7.5,1.9l-0.5-1.2c0.8-0.2,1.3-0.2,2.4-0.5V25.5l1.3,0.3c2.5,0.1,6.5-0.6,9.3-1.4
			L87.3,25.4z M77.4,32.4h4.2c-0.1-1.9-0.1-4-0.1-5.8c-2.1,0.2-3.4,0.3-4.1,0.3C77.4,26.9,77.4,32.4,77.4,32.4z"/>
		<path class="st1" d="M98.6,26.4c-0.5,3.8-1.8,10.9-6.6,17.2l-1.4-0.7c3.6-4.8,5.4-9.5,6.4-16.6L98.6,26.4z M110,43.2
			c-1.2-7.5-4.1-13.2-6.1-16.5l1.4-0.7c2.1,3.4,5.2,9.2,6.5,16.7L110,43.2z M114.7,26.2c0,1.8-1.6,3.2-3.5,3.2s-3.5-1.4-3.5-3.2
			c0-1.8,1.6-3.2,3.5-3.2C113.2,23,114.7,24.4,114.7,26.2z M109,26.2c0,1.1,1,2,2.2,2s2.2-0.9,2.2-2s-1-2-2.2-2S109,25.1,109,26.2z"
			/>
		<path class="st1" d="M121.2,36.9c-0.4-2.4-1.3-4.1-2-5.5l1.3-0.4c0.6,1,1.4,2.7,2.1,5.5L121.2,36.9z M121.1,43.5
			c4.8-0.9,11.4-2.7,12.8-12.9l1.5,0.3C133.5,40,129.3,43,122,44.5L121.1,43.5z M126.7,35.9c-0.5-2.7-1.3-4.6-1.6-5.4l1.3-0.3
			c0.6,1.3,1.5,3.8,1.8,5.4L126.7,35.9z"/>
		<path class="st1" d="M143.7,43.1c4.4-1,13.9-3.7,15.6-15.4h-9.7c-1.8,2.6-3.6,4.5-6.7,6.5l-1-1.1c2.1-1.3,4.9-3.5,6.6-6.7h12.6
			c-1.3,14.5-12.8,17.1-16.8,18L143.7,43.1z"/>
	</g>
</g>
<g>
	<path class="st1" d="M57.6,29.4l-2.8-1.6V26c0-0.3-0.2-0.5-0.4-0.5l-10-2.1c-0.2,0-0.3,0-0.4,0.1c-0.2,0.1-0.3,0.3-0.3,0.5v1.9
		L39.8,30c0,0.1-0.1,0.2-0.1,0.4v11.9c0,0.2,0.2,0.4,0.4,0.5l10.5,3c0.1,0,0.3,0,0.4-0.1l6.4-3.8c0.1,0,0.2-0.1,0.3-0.2
		c0.1-0.1,0.2-0.2,0.2-0.4V29.9C57.9,29.7,57.8,29.5,57.6,29.4z M54.2,28.7l2.3,1.3l-4.9,2.2L54.2,28.7z M53.7,26.5v1.3l-8.9-1.9
		v-1.3L53.7,26.5z M44.7,26.4L44.7,26.4l9.1,1.9l0,0l-3.2,4.3L41,30.3L44.7,26.4z M40.8,30.8l9.7,2.3v11.5l-9.7-2.8
		C40.8,41.8,40.8,30.8,40.8,30.8z M51,44.5V33l5.8-2.6V41L51,44.5z"/>
</g>
</svg>
