<?xml version="1.0" encoding="utf-8"?>
<!-- Generator: Adobe Illustrator 28.0.0, SVG Export Plug-In . SVG Version: 6.00 Build 0)  -->
<svg version="1.1" id="レイヤー_1" xmlns="http://www.w3.org/2000/svg" xmlns:xlink="http://www.w3.org/1999/xlink" x="0px"
	 y="0px" viewBox="0 0 198.4 85" style="enable-background:new 0 0 198.4 85;" xml:space="preserve">
<style type="text/css">
	.st0{enable-background:new    ;}
	.st1{fill:#333333;}
</style>
<g>
	<g class="st0">
		<path class="st1" d="M44.4,28.5c-0.2,0-0.7,0-0.7-1.2c0-1.1,0.4-1.2,0.7-1.2h5.8c0.2,0,0.3,0,0.6,0.1c0-0.1-0.1-0.3-0.1-0.7
			c0-1.1,0.5-2,1.1-2c0.6,0,1.1,0.9,1.1,2c0,1.1-0.5,2.1-1.3,2c0,0.2,0.1,0.4,0.1,0.9c0,1.2-0.4,4.8-1.8,7.6
			c-1.6,3.3-4.1,4.2-4.5,4.2c-0.6,0-0.7-1.1-0.7-1.3c0-0.8,0.4-0.9,0.8-1.1c0.7-0.3,2.1-0.9,3.3-3.2c0.7-1.3,1.1-3.1,1.3-4.9
			c0-0.3,0.1-0.5,0.1-0.7c0-0.5-0.2-0.5-0.3-0.5H44.4z M51.8,24.6c-0.3,0-0.5,0.4-0.5,0.9c0,0.5,0.2,0.9,0.5,0.9s0.5-0.4,0.5-0.9
			C52.3,25,52.1,24.6,51.8,24.6z"/>
	</g>
	<g class="st0">
		<path class="st1" d="M54.2,31.7c-0.1,0-0.6,0-0.6-1.1c0-1,0.4-1.1,0.6-1.1H61c0.3,0,1,0.1,1,1.6c0,0.5-0.2,3.4-1.4,5.7
			c-1.1,2-2.3,2.7-3.1,3c-0.8,0.4-1.4,0.5-1.7,0.5c-0.2,0-0.4-0.1-0.5-0.3c-0.1-0.2-0.2-0.6-0.2-1c0-0.9,0.4-1,0.8-1.1
			c1.1-0.3,3-0.7,4-3.3c0.4-1,0.6-2.2,0.6-2.5c0-0.3-0.1-0.4-0.3-0.4H54.2z M60.8,25.1c0.1,0,0.6,0,0.6,1.1c0,1.1-0.5,1.1-0.6,1.1
			h-5.9c-0.1,0-0.6,0-0.6-1.1c0-1,0.4-1.1,0.6-1.1H60.8z"/>
	</g>
	<g class="st0">
		<path class="st1" d="M63.9,27.4c-0.2,0-0.7-0.1-0.7-1.1c0-0.9,0.3-1.2,0.7-1.2H69c0.5,0,1.1,0.1,1.1,1.6c0,1.3-0.8,4.2-1.7,6.3
			c0.6,0.8,1.3,1.8,2.6,3.8c0.6,0.9,0.7,1.2,0.7,1.7c0,0.8-0.4,1.4-0.8,1.4c-0.3,0-0.5-0.3-0.8-1c-0.8-1.6-2-3.5-2.4-4.1
			c-1.4,2.9-3.5,5.2-4.1,5.2c-0.3,0-0.7-0.6-0.7-1.3c0-0.6,0.1-0.7,0.8-1.3c3.2-2.9,4.7-8.8,4.7-9.6c0-0.3-0.1-0.3-0.3-0.3H63.9z"/>
	</g>
	<g class="st0">
		<path class="st1" d="M78.3,30.4H81c0.2,0,0.6,0,0.6,1.1c0,1.1-0.5,1.1-0.6,1.1h-2.8c-0.1,3.3-0.9,5.1-2.1,6.3
			c-0.8,0.8-1.7,1.2-2.1,1.2c-0.7,0-0.7-1.3-0.7-1.3c0-0.7,0.3-0.9,0.6-1c2.3-1,2.8-2.6,2.9-5.2h-3.5c-0.2,0-0.6,0-0.6-1.1
			c0-1.1,0.5-1.1,0.6-1.1h3.5v-2.6c-0.8,0.2-2,0.4-2.8,0.4c-0.2,0-0.7,0-0.7-1.2c0-1,0.5-1,0.8-1c0.4,0,3-0.3,4.7-1
			c0.2-0.1,0.8-0.4,0.9-0.4c0.1-0.1,0.2-0.1,0.3-0.1c0.5,0,0.6,0.8,0.6,1.3c0,0.7-0.2,0.9-0.5,1c-0.5,0.3-1.5,0.6-1.9,0.7V30.4z"/>
	</g>
	<g class="st0">
		<path class="st1" d="M82.4,33.2c-0.2-1.4-0.4-2.1-0.6-2.9c-0.1-0.2-0.1-0.4-0.1-0.7c0-0.6,0.4-1,0.7-1c0.5,0,0.7,0.8,1.2,3.7
			c0.1,0.4,0.1,0.6,0.1,0.9c0,0.9-0.5,1.1-0.8,1.1C82.6,34.4,82.5,33.8,82.4,33.2z M88.7,29.3c0,0.1-0.2,3.5-1.3,6.4
			c-1.5,3.9-4,4.5-4.2,4.5c-0.5,0-0.6-0.8-0.6-1.2c0-0.7,0.2-0.8,0.9-1.2c0.8-0.4,2.7-1.5,3.5-5.8c0.1-0.7,0.2-0.9,0.4-2.7
			c0.1-0.5,0.1-1.1,0.6-1.1c0.1,0,0.1,0,0.2,0.1C88.7,28.5,88.7,29,88.7,29.3z M84.6,32.3c-0.2-1.4-0.3-2.1-0.5-3
			c0-0.2-0.1-0.4-0.1-0.6c0-0.6,0.3-0.9,0.7-0.9c0.4,0,0.5,0.4,0.6,0.9c0.2,0.9,0.6,3.4,0.6,3.8c0,1-0.6,1.1-0.8,1.1
			C84.8,33.5,84.7,32.9,84.6,32.3z"/>
	</g>
	<g class="st0">
		<path class="st1" d="M97.1,26.7c0.7,0,1,0.7,1,1.6c0,0.7-0.4,5.7-2.7,9c-1.6,2.3-3.8,3-4.1,3c-0.6,0-0.7-1-0.7-1.3
			c0-0.8,0.2-0.9,1-1.2c1.7-0.7,3.4-1.9,4.5-5.6c0.3-0.9,0.6-2.4,0.6-2.9c0-0.3-0.1-0.3-0.4-0.3h-3c-0.5,1.2-1.8,3.8-2.5,3.8
			c-0.4,0-0.7-0.6-0.7-1.2c0-0.5,0.1-0.6,0.6-1.2c1.2-1.6,2-3.8,2.1-4.4c0.4-1.3,0.4-1.6,0.9-1.6c0.3,0,0.7,0.3,0.7,0.9
			c0,0.3-0.1,0.6-0.3,1.6H97.1z"/>
	</g>
	<g class="st0">
		<path class="st1" d="M102.4,37.6c-0.8,0.6-1.8,1.1-2.2,1.1c-0.5,0-0.5-0.9-0.5-1c0-0.6,0.2-0.8,0.4-0.9c1.1-0.4,1.5-0.6,2.4-1.5
			h-2.2c-0.3,0-0.6-0.2-0.6-0.9c0-0.8,0.4-0.9,0.6-0.9h3.5v-0.3c0-0.4,0.1-0.5,0.2-0.6c-0.2,0-0.5-0.1-0.5-0.7
			c0-0.4,0.2-0.5,0.3-0.5c0.3,0,0.4,0,0.4-0.2c0-0.6-0.1-0.6-0.2-0.6h-0.8V32c0,0.3,0,1.1-0.6,1.1c-0.5,0-0.6-0.6-0.6-1.1v-1.4h-0.6
			c-0.2,0-0.3,0.2-0.3,0.5v0.9c0,0.4,0,1.1-0.6,1.1s-0.6-0.7-0.6-1.1v-1c0-1.5,0.2-1.8,1-1.8h0.9v-0.6h-1.9c-0.1,0-0.4,0-0.4-0.7
			s0.3-0.7,0.5-0.7h0.2c-0.4-0.1-0.5-0.5-0.5-0.8c0-0.3,0.1-0.6,0.4-1.4c0-0.1,0.2-0.8,0.3-0.9c0.1-0.2,0.3-0.3,0.4-0.3
			c0.4,0,0.6,0.3,0.6,0.7c0,0.1,0,0.3-0.1,0.5h0.6v-0.5c0-0.6,0.3-0.7,0.5-0.7c0.3,0,0.6,0.1,0.6,0.7V25h1.5c0.3,0,0.5,0.3,0.5,0.8
			c0,0.5-0.2,0.8-0.5,0.8h-1.5v0.6h1.9c0.1,0,0.4,0,0.4,0.7c0,0.7-0.3,0.7-0.4,0.7h-1.9v0.6h1c0.8,0,1,0.3,1,1.7v0.5
			c0,0.4,0,1-0.4,1.2c0.1,0,0.4,0.1,0.4,0.7v0.3h3.5c0.4,0,0.6,0.3,0.6,0.9c0,0.7-0.4,0.9-0.6,0.9h-0.4c0.3,0.3,0.3,0.7,0.3,0.8
			c0,0.4-0.2,0.7-0.4,0.9c-0.2,0.3-0.6,0.8-0.7,0.8c0.3,0.3,0.7,0.5,1.3,0.9c0.3,0.1,0.4,0.3,0.4,0.8c0,0.3-0.1,1.2-0.6,1.2
			c-0.4,0-3.1-1.4-4.2-5.4h0c-0.2,0.3-0.3,0.6-0.8,1.1v2.2c0.6-0.1,0.8-0.1,1.7-0.2c0,0,0.1,0,0.1,0c0.4,0,0.5,0.7,0.5,0.9
			c0,0.8-0.2,0.9-0.9,1c-1.6,0.3-3.7,0.5-3.7,0.5c-0.1,0-0.5,0-0.5-1c0-0.4,0.1-0.8,0.4-0.9c0.2-0.1,1-0.1,1.2-0.1V37.6z
			 M101.1,26.5c-0.2,0.4-0.2,0.6-0.5,0.6h1.5v-0.6H101.1z M105.7,35.3c0.2,0.4,0.4,1,0.8,1.5c0.2-0.3,0.4-0.6,0.7-1
			c0.1-0.1,0.3-0.5,0.3-0.5H105.7z M107,29.2c0,0.2,0,1-0.6,1c-0.6,0-0.6-0.7-0.6-1v-3.9c0-0.3,0-1,0.5-1c0.6,0,0.6,0.7,0.6,1V29.2z
			 M109,30.7c0,1.9-0.3,2.1-1.6,2.1c-0.3,0-0.7,0-0.9-0.1c-0.2-0.2-0.3-0.6-0.3-1c0-0.9,0.4-0.9,0.6-0.9c0.1,0,0.7,0,0.7,0
			c0.2-0.1,0.2-0.2,0.2-0.6v-5.3c0-0.3,0-1.1,0.6-1.1c0.5,0,0.6,0.3,0.6,1.1V30.7z"/>
		<path class="st1" d="M111.3,36.3c0-0.3,0-0.6,0.1-1c-0.4,0.2-0.5,0.3-0.7,0.3c-0.3,0-0.6-0.6-0.6-1.2c0-0.7,0.3-0.8,0.5-1
			c1.7-0.9,2.4-1.9,3.2-3c0.4-0.5,0.6-0.8,1.1-0.8c0.5,0,0.7,0.2,0.9,0.5c0.1,0.1,0.6,0.8,0.7,1c0.9,1.3,2.1,2,2.8,2.4
			c0.3,0.2,0.5,0.4,0.5,1c0,0.7-0.3,1.2-0.6,1.2c-0.1,0-0.2,0-0.7-0.3c0,0.3,0.1,0.6,0.1,0.9v2.2c0,1.6-0.4,2.1-1.2,2.1h-4.7
			c-0.8,0-1.2-0.5-1.2-2.1V36.3z M118.2,25.2c0.8,0,1.2,0.5,1.2,2.1v1.2c0,0.3,0,1-0.6,1c-0.4,0-0.7-0.2-0.7-1v-0.8
			c0-0.4-0.1-0.6-0.3-0.6h-5.9c-0.2,0-0.3,0.2-0.3,0.6v0.8c0,0.9-0.4,1-0.7,1c-0.5,0-0.6-0.4-0.6-1v-1.3c0-1.6,0.4-2.1,1.2-2.1h2.7
			v-0.7c0-0.7,0.3-0.9,0.6-0.9c0.4,0,0.7,0.1,0.7,0.9v0.7H118.2z M113.3,29.9c-0.6,0.9-1.9,2.1-2.3,2.1c-0.3,0-0.6-0.5-0.6-1.1
			c0-0.5,0.1-0.6,0.8-1.1c0.7-0.5,1.2-1.1,1.7-1.8c0.2-0.2,0.3-0.3,0.5-0.3c0.3,0,0.6,0.4,0.6,1.1C114,28.9,113.9,29.1,113.3,29.9z
			 M117.1,36.6c0-0.4-0.1-0.5-0.3-0.5h-4c-0.2,0-0.3,0.1-0.3,0.5v1.6c0,0.3,0.1,0.5,0.3,0.5h4c0.2,0,0.3-0.2,0.3-0.5V36.6z
			 M116.8,34.2c-0.6-0.6-1.2-1.4-1.8-2.2c-0.1-0.2-0.2-0.3-0.2-0.3c-0.1,0-0.1,0.1-0.2,0.3c-0.4,0.7-1,1.4-1.8,2.2H116.8z
			 M117.1,28.5c0.7,0.9,1.2,1.3,1.7,1.6c0.2,0.1,0.4,0.3,0.4,0.8c0,0.5-0.2,1.1-0.6,1.1c-0.4,0-1.5-1.2-1.9-1.7
			c-1.1-1.3-1.1-1.5-1.1-1.8c0-0.4,0.2-1,0.7-1C116.5,27.6,116.6,27.7,117.1,28.5z"/>
		<path class="st1" d="M123.5,34.5c0.9,0,1.1,0.4,1.1,2v1.8c0,1.6-0.2,2-1.1,2H122c-0.9,0-1.1-0.4-1.1-2v-1.9
			c-0.5,0.1-0.6-0.8-0.6-1.2c0-0.6,0.2-0.8,0.5-1c0.8-0.6,1.4-1.1,2-2h-1.9c-0.2,0-0.6-0.1-0.6-0.9c0-0.7,0.3-0.9,0.6-0.9h2.9
			c0.1-0.2,0.3-1.1,0.4-1.2c-0.1,0-0.2,0.1-0.6,0.1h-1.6c-0.9,0-1.1-0.3-1.1-2v-1.1c0-1.7,0.2-2,1.1-2h1.6c0.9,0,1.1,0.4,1.1,2v1.1
			c0,1.1-0.1,1.4-0.2,1.5c0.3-0.1,0.7,0.3,0.7,0.9c0,0.3-0.1,0.5-0.1,0.8h4.2c0.2,0,0.6,0.1,0.6,0.9c0,0.7-0.2,0.9-0.6,0.9h-1.8
			c0.6,0.8,0.7,1,1.5,1.6c0.1,0.1,0.7,0.4,0.8,0.5c0.2,0.2,0.2,0.5,0.2,0.7c0,0.1,0,1.4-0.7,1.2v2c0,1.6-0.2,2-1.1,2h-1.6
			c-0.9,0-1.1-0.4-1.1-2v-1.8c0-1.7,0.2-2,1.1-2h0.5c-0.8-1-1.1-1.5-1.3-2.1h-1.4c-0.5,0.9-0.9,1.6-1.3,2.1H123.5z M123.5,26.5
			c0-0.3-0.1-0.4-0.2-0.4h-1c-0.2,0-0.2,0.1-0.2,0.4v0.7c0,0.3,0.1,0.5,0.2,0.5h1c0.2,0,0.2-0.2,0.2-0.5V26.5z M123.5,36.7
			c0-0.3-0.1-0.4-0.2-0.4h-1c-0.2,0-0.2,0.1-0.2,0.4v1.6c0,0.3,0.1,0.4,0.2,0.4h1c0.1,0,0.2-0.1,0.2-0.4V36.7z M129.3,27.4
			c0,1.6-0.2,2-1.1,2h-1.6c-0.9,0-1.1-0.3-1.1-2v-1.1c0-1.7,0.2-2,1.1-2h1.6c0.9,0,1.1,0.4,1.1,2V27.4z M128.1,36.7
			c0-0.3-0.1-0.4-0.2-0.4h-1.1c-0.2,0-0.2,0.2-0.2,0.4v1.6c0,0.3,0.1,0.4,0.2,0.4h1.1c0.2,0,0.2-0.1,0.2-0.4V36.7z M128.2,26.5
			c0-0.3-0.1-0.4-0.2-0.4h-1.1c-0.2,0-0.2,0.1-0.2,0.4v0.7c0,0.3,0.1,0.5,0.2,0.5h1.1c0.2,0,0.2-0.2,0.2-0.5V26.5z"/>
		<path class="st1" d="M133.2,34.9c-0.2,0-0.3,0.1-0.3,0.5v2.3c0,0.6,0.3,0.6,0.3,0.7c0.2,0.1,3.4,0.1,3.8,0.1
			c1.2,0,1.3-0.1,1.3-0.1c0.2-0.1,0.2-0.5,0.3-1.1c0-0.4,0.1-1.2,0.6-1.2c0.1,0,0.7,0,0.7,1.1c0,0.7-0.1,2.3-0.5,2.8
			c-0.3,0.5-0.7,0.5-1.2,0.5h-2.7c-0.5,0-3,0-3.2-0.1c-0.8-0.2-0.8-1.2-0.8-2V35c0-1.6,0.4-2.1,1.2-2.1h2.6c0.2,0,0.3-0.2,0.3-0.5
			v-0.9c0-0.4-0.1-0.5-0.3-0.5h-2.9c-0.2,0-0.5,0-0.6-0.7c-0.5,1.1-0.7,1.2-0.9,1.2c-0.4,0-0.7-0.6-0.7-1.3c0-0.3,0.1-0.5,0.2-0.8
			c1.2-2.1,1.4-2.5,2.1-5c0.1-0.3,0.2-0.7,0.6-0.7c0.2,0,0.7,0.2,0.7,1c0,0.3-0.1,0.5-0.2,0.9h4.4c0.7,0,1.3,0.2,1.3,2.2
			c0,1.5-0.1,6.1-0.4,7.3c-0.3,1.2-0.7,1.3-1.6,1.3c-0.2,0-0.7,0-0.8-0.1c-0.2-0.1-0.4-0.6-0.4-1.1c0-0.2,0-0.3,0-0.4
			c-0.1,0.1-0.3,0.2-0.7,0.2H133.2z M137,32.8c0,0.7-0.1,1-0.1,1.3c0,0,0.1,0,0.3,0c0.1,0,0.4,0,0.5,0c0.2,0,0.4-0.1,0.5-0.7
			c0.1-1.3,0.2-5,0.2-5.1c0-0.7-0.2-0.7-0.5-0.7h-4.6c-0.2,0.5-0.3,0.9-0.6,1.3h3.2c0.8,0,1.2,0.4,1.2,2.1V32.8z"/>
		<path class="st1" d="M143,24.8c0-0.4,0-1.1,0.6-1.1c0.5,0,0.7,0.3,0.7,1.1V31c0,0.3,0,1.1-0.6,1.1c-0.5,0-0.7-0.5-0.7-1.1v-0.6
			c-1.1,0.7-1.5,0.9-1.8,0.9c-0.5,0-0.5-1-0.5-1.1c0-0.9,0.3-1,0.9-1.2c0.5-0.2,0.8-0.4,1.5-0.7V24.8z M148.8,34.6
			c0.4,0.1,0.6,0.6,0.6,1.1c0,0.3-0.1,0.5-0.3,0.8c-0.3,0.5-0.5,0.7-0.8,1c0.4,0.4,0.5,0.5,1.6,1.2c0.1,0.1,0.3,0.3,0.3,0.8
			c0,0.3-0.1,1.3-0.7,1.3c-0.4,0-1.2-0.7-1.9-1.5c-1.4-1.5-1.9-3.6-2.2-4.7c-0.3,0.6-0.6,0.9-0.9,1.3v2.6c0.1,0,0.5-0.1,0.7-0.1
			c0.1,0,0.7-0.2,0.8-0.2c0.3,0,0.5,0.2,0.5,1c0,0.2,0,0.8-0.4,0.9c-0.9,0.3-3.6,0.7-4,0.7c-0.5,0-0.6-0.8-0.6-1.1
			c0-0.4,0.1-0.8,0.4-0.9c0.2,0,0.7-0.1,1.2-0.1v-1.6c-0.8,0.6-1.9,1.3-2.2,1.3c-0.5,0-0.5-1.1-0.5-1.2c0-0.3,0.1-0.6,0.2-0.7
			c0.1-0.1,0.8-0.4,0.9-0.4c1-0.4,1.8-1.3,2-1.4h-2.5c-0.3,0-0.6-0.1-0.6-1c0-1,0.5-1,0.6-1h3.5v-0.5c0-0.4,0.1-0.8,0.4-0.9
			c-0.3-0.1-0.4-0.4-0.4-1c0-1,0.5-1,0.6-1h1.3v-1.8h-1.6c-0.5,0-0.6-0.4-0.6-1.1c0-1,0.4-1,0.6-1h1.6v-0.7c0-0.7,0.3-0.9,0.7-0.9
			c0.3,0,0.6,0.1,0.6,0.9v0.7h1.6c0.5,0,0.6,0.4,0.6,1.1c0,1-0.4,1-0.6,1H148v1.8h1.3c0.3,0,0.6,0.2,0.6,1c0,1-0.4,1-0.6,1h-3.6
			c0.3,0.1,0.4,0.6,0.4,0.8v0.5h3.5c0.3,0,0.6,0.1,0.6,1c0,1-0.5,1-0.6,1H148.8z M142.3,25.2c0.3,0.7,0.4,1,0.4,1.3
			c0,0.7-0.4,1.1-0.7,1.1c-0.2,0-0.3-0.2-0.7-1.1c-0.5-1-0.5-1.1-0.5-1.3c0-0.6,0.4-1.1,0.7-1.1C141.7,24.1,141.8,24.2,142.3,25.2z
			 M146.7,34.6c0.2,0.7,0.5,1.1,0.7,1.6c0.2-0.2,0.3-0.4,0.7-0.9c0.4-0.6,0.5-0.6,0.6-0.7H146.7z"/>
	</g>
	<path class="st1" d="M174.1,37.6c0,0.9-0.8,1.7-1.7,1.7h-12.3c-0.9,0-1.7-0.8-1.7-1.7v-3.9h1.8l-3.2-3.6l-3.2,3.6h1.8v3.9
		c0,2.6,2.1,4.6,4.6,4.6h12.2c2.6,0,4.6-2.1,4.6-4.6v-1.3h-2.9L174.1,37.6L174.1,37.6z"/>
	<path class="st1" d="M158.4,25.8c0-0.9,0.8-1.7,1.7-1.7h12.3c0.9,0,1.7,0.8,1.7,1.7l0,0h-1.8l3.2,3.6l3.2-3.6H177l0,0
		c0-2.6-2.1-4.6-4.6-4.6h-12.2c-2.6,0-4.6,2.1-4.6,4.6v3h2.9L158.4,25.8L158.4,25.8z"/>
	<path class="st1" d="M166.2,29.9c-0.5,0-0.9-0.4-0.9-0.9s0.4-0.9,0.9-0.9s0.9,0.4,0.9,0.9C167.1,29.5,166.7,29.9,166.2,29.9
		 M168.8,29c0-1.4-1.2-2.6-2.6-2.6c-1.4,0-2.6,1.2-2.6,2.6c0,0.4,0.1,0.7,0.2,1h-2.7v1.5h4.7c0.1,4.2-4.7,3.7-4.7,3.7v1.5
		c6.6,0,6.6-4.6,6.5-5.4C168.3,30.8,168.8,30,168.8,29"/>
	<path class="st1" d="M169.1,32.3v1.3h4.2c-0.9,1.8-4.2,1.7-4.2,1.7v1.5c0,0,5.9,0.1,6.3-4.4l0,0v-0.1H169.1z"/>
	<rect x="169.2" y="30" class="st1" width="6.3" height="1.5"/>
</g>
</svg>
