<?xml version="1.0" encoding="utf-8"?>
<!-- Generator: Adobe Illustrator 28.0.0, SVG Export Plug-In . SVG Version: 6.00 Build 0)  -->
<svg version="1.1" id="レイヤー_1" xmlns="http://www.w3.org/2000/svg" xmlns:xlink="http://www.w3.org/1999/xlink" x="0px"
	 y="0px" viewBox="0 0 200.8 22.3" style="enable-background:new 0 0 200.8 22.3;" xml:space="preserve">
<style type="text/css">
	.st0{fill-rule:evenodd;clip-rule:evenodd;fill:#231815;}
	.st1{fill:#231815;}
</style>
<g>
	<path class="st0" d="M62.5,2.4L62.5,2.4L62.5,2.4z"/>
	<g>
		<path class="st1" d="M82.5,4.3L84.1,6c-0.4,3-1.9,13.5-14.3,15.2L69,20c2.7-0.3,12.2-1.6,13.5-14.3H66.8V4.3H82.5z M90.4,3.2
			c0,1.8-1.6,3.2-3.5,3.2S83.4,5,83.4,3.2S85,0,86.9,0C88.8,0,90.4,1.4,90.4,3.2z M84.7,3.2c0,1.1,1,2,2.2,2c1.2,0,2.2-0.9,2.2-2
			s-1-2-2.2-2C85.7,1.2,84.7,2.1,84.7,3.2z"/>
		<path class="st1" d="M112.1,8.5c-1.4,9.6-6.8,12-15.8,12.9L95.9,20c6.1-0.6,13-1.7,14.6-10.2h-18V8.5H112.1z M110.6,3.1v1.3H94.3
			V3.1H110.6z"/>
		<path class="st1" d="M135.6,22.1h-16.1v-7.4c-0.9,0.3-1.5,0.6-3,1l-0.7-1.1c4.3-1.2,9.2-3.3,11-5.7h1.5c1.9,2.3,6,4.4,10.9,5.6
			l-0.7,1.2c-1.4-0.4-2-0.6-2.9-1C135.6,14.7,135.6,22.1,135.6,22.1z M128.3,1.4v2.1h10.1v4.7H137V4.7h-18.9v3.6h-1.4V3.5h10.1V1.4
			H128.3z M117.2,10c2-0.7,4.4-1.8,6.4-3.9l1.1,0.6c-2.2,2.4-5.5,3.8-6.7,4.3L117.2,10z M135.3,14.6c-1-0.4-5.3-2.1-7.6-4.8
			c-2.2,2.5-6.9,4.3-7.9,4.8H135.3z M134.2,15.8h-13.3V21h13.3C134.2,21,134.2,15.8,134.2,15.8z M131.3,6.1c2,1.7,3.9,2.9,6.5,4
			l-0.9,1c-3.7-1.8-5.6-3.4-6.6-4.3L131.3,6.1z"/>
		<path class="st1" d="M151.4,15.2v7h-8.3v-5.3c-0.4,0.2-0.6,0.2-1.2,0.4l-0.5-1c2-0.6,5.4-2,8-4.6h-8.1v-1.1h9.1
			c0.6-0.8,0.8-1.3,1.1-1.8h1.3c-0.3,0.5-0.5,1-0.9,1.7h12.4v1.1h-8c2.2,2.3,6.4,3.8,8.1,4.4l-0.7,1.1c-0.8-0.3-0.9-0.3-1.3-0.5v5.5
			h-8.5v-7h5.4c-1.7-0.9-3-1.7-4.7-3.6h-3.4c-1.8,2-3.9,3.2-4.6,3.6L151.4,15.2L151.4,15.2z M151.2,2.2v5.7h-8.3V2.2H151.2z
			 M149.9,3.3h-5.7v3.5h5.7V3.3z M144.5,16.2C144.4,16.2,144.4,16.2,144.5,16.2l-0.1,4.8h5.8v-4.9h-5.7V16.2z M162.6,2.2v5.7h-8.5
			V2.2H162.6z M161.2,16.2h-6.1v4.9h6.1V16.2z M161.4,3.3h-6v3.5h6V3.3z"/>
	</g>
</g>
<g>
	<path class="st0" d="M60.7,5c0.6,0,1.2,0,1.7,0c0.1,0.1-0.2,0.3-0.3,0.5c-0.9,1.1-1.9,2.4-3,3.4c-1-1.3-2.3-2.6-3.3-3.9
		c0.6,0,1.2,0,1.8,0c0.2-1.1-0.4-2-1.5-2.1c-1-0.1-2.2,0-3.3,0c-2.1,0-4.6,0-6.7,0c-1.5,0-3.5-0.2-4.3,0.4c-1,0.8-0.5,3-0.6,4.7
		c-1,0-2,0-3,0c0.1-1.3-0.1-2.5,0-3.6c0.3-2.6,2.4-4.4,5-4.4c3.5,0,7.7,0,11.3,0c1,0,1.9-0.1,2.7,0.1C59.3,0.7,60.7,2.4,60.7,5z"/>
	<path class="st0" d="M50.7,10.6c0.2,2.4-0.8,3.6-2.2,4.5c-1.2,0.7-2.7,1.3-4.5,1.2c0-0.6,0.1-0.9,0-1.5c2.9,0,5-1,4.9-4
		c-1.6-0.1-3.3,0-4.9,0c0-0.5,0-1,0-1.5c1,0,2,0,2.9,0c-0.7-1.9,0.4-3.7,2.3-3.9c1.6-0.1,2.8,1.1,2.9,2.4
		C52.3,9.2,51.6,10,50.7,10.6z M49.6,9.1c1.2-0.1,1.1-2-0.1-1.9C48.1,7.3,48.4,9.2,49.6,9.1z"/>
	<path class="st0" d="M43.1,13.2c-0.4,0-1.3,0-1.7,0c0.2,2.1-0.8,5.5,1.1,6c0.9,0.2,2.4,0,3.5,0c2.9,0,5.9,0,8.8,0
		c0.7,0,1.5,0.1,2-0.1c1-0.4,1.1-1.7,1-3.1c1,0,2,0,3,0c0.2,1.8-0.2,3.2-1,4.3c-0.7,0.9-1.8,1.8-3.4,1.9c-2,0.1-4.4,0-6.8,0
		c-2.3,0-4.7,0.1-6.8,0c-2.3-0.2-4.3-2-4.4-4.3c-0.1-1.7,0.1-3,0-4.7c-0.4,0-1.3,0.1-1.8,0c-0.1,0,0.1-0.3,0.3-0.4
		c0.9-1.1,2.1-2.5,3-3.4C40.9,10.6,42,11.8,43.1,13.2z"/>
	<path class="st0" d="M52.6,9.3c2.2,0,4.3,0,6.5,0c0,0.5,0,1,0,1.5c-2.2,0-4.4,0-6.5,0C52.6,10.3,52.5,9.8,52.6,9.3z"/>
	<path class="st0" d="M59.2,11.7c-0.4,3.3-3,4.5-6.6,4.6c0-0.5,0-1,0-1.5c2,0,3.7-0.3,4.4-1.7c-1.4-0.1-2.9,0-4.3,0c0-0.5,0-1,0-1.4
		C54.8,11.7,57,11.7,59.2,11.7z"/>
</g>
</svg>
