<?xml version="1.0" encoding="utf-8"?>
<!-- Generator: Adobe Illustrator 28.0.0, SVG Export Plug-In . SVG Version: 6.00 Build 0)  -->
<svg version="1.1" id="レイヤー_1" xmlns="http://www.w3.org/2000/svg" xmlns:xlink="http://www.w3.org/1999/xlink" x="0px"
	 y="0px" viewBox="0 0 200.8 82" style="enable-background:new 0 0 200.8 82;" xml:space="preserve">
<style type="text/css">
	.st0{fill-rule:evenodd;clip-rule:evenodd;fill:#231815;}
	.st1{fill:#231815;}
</style>
<g>
	<path class="st0" d="M76.6,22.9L76.6,22.9L76.6,22.9z"/>
	<g>
		<path class="st1" d="M92.6,24.4l1.3,1.4c-0.3,2.4-1.5,10.8-11.4,12.1l-0.6-1c2.2-0.2,9.7-1.3,10.8-11.4H80v-1.1
			C80,24.4,92.6,24.4,92.6,24.4z M98.9,23.5c0,1.4-1.3,2.6-2.8,2.6s-2.8-1.1-2.8-2.6c0-1.4,1.3-2.6,2.8-2.6
			C97.6,21,98.9,22.1,98.9,23.5z M94.3,23.5c0,0.9,0.8,1.6,1.8,1.6s1.8-0.7,1.8-1.6S97.1,22,96.1,22S94.3,22.7,94.3,23.5z"/>
		<path class="st1" d="M116.2,27.8c-1.1,7.7-5.4,9.6-12.6,10.3l-0.3-1.1c4.9-0.5,10.4-1.4,11.7-8.1h-14.4v-1h15.6V27.8z M115,23.5v1
			h-13v-1H115z"/>
		<path class="st1" d="M135,38.6h-12.9v-5.9c-0.7,0.2-1.2,0.5-2.4,0.8l-0.6-0.9c3.4-1,7.3-2.6,8.8-4.6h1.2c1.5,1.8,4.8,3.5,8.7,4.5
			l-0.6,1c-1.1-0.3-1.6-0.5-2.3-0.8C135,32.7,135,38.6,135,38.6z M129.2,22.1v1.7h8.1v3.8h-1.2v-2.8H121v2.9h-1.1v-3.8h8.1v-1.7h1.2
			V22.1z M120.3,29c1.6-0.6,3.5-1.4,5.1-3.1l0.9,0.5c-1.8,1.9-4.4,3-5.3,3.4L120.3,29z M134.7,32.7c-0.8-0.3-4.2-1.7-6.1-3.8
			c-1.8,2-5.5,3.4-6.3,3.8H134.7z M133.9,33.6h-10.6v4.2h10.6V33.6z M131.5,25.9c1.6,1.4,3.1,2.3,5.2,3.2l-0.7,0.8
			c-3-1.4-4.5-2.7-5.3-3.4L131.5,25.9z"/>
		<path class="st1" d="M147.6,33.1v5.6H141v-4.2c-0.3,0.2-0.5,0.2-1,0.3l-0.4-0.8c1.6-0.5,4.3-1.6,6.4-3.7h-6.5v-0.9h7.3
			c0.5-0.6,0.6-1,0.9-1.4h1c-0.2,0.4-0.4,0.8-0.7,1.4h9.9v0.9h-6.4c1.8,1.8,5.1,3,6.5,3.5l-0.6,0.9c-0.6-0.2-0.7-0.2-1-0.4v4.4h-6.8
			v-5.6h4.3c-1.4-0.7-2.4-1.4-3.8-2.9h-2.7c-1.4,1.6-3.1,2.6-3.7,2.9H147.6L147.6,33.1z M147.4,22.8v4.6h-6.6v-4.6H147.4z
			 M146.4,23.6h-4.6v2.8h4.6V23.6z M142.1,33.9C142,33.9,142,33.9,142.1,33.9l-0.1,3.8h4.6v-3.9L142.1,33.9L142.1,33.9z M156.5,22.8
			v4.6h-6.8v-4.6H156.5z M155.4,33.9h-4.9v3.9h4.9V33.9z M155.6,23.6h-4.8v2.8h4.8V23.6z"/>
	</g>
</g>
<g>
	<path class="st0" d="M75.2,25c0.5,0,1,0,1.4,0c0.1,0.1-0.2,0.2-0.2,0.4c-0.7,0.9-1.5,1.9-2.4,2.7c-0.9-1-1.9-2.1-2.7-3.1
		c0.5,0,1,0,1.4,0c0.2-0.9-0.3-1.6-1.2-1.7c-0.8-0.1-1.8,0-2.6,0c-1.7,0-3.7,0-5.3,0c-1.2,0-2.8-0.2-3.4,0.3
		c-0.8,0.6-0.4,2.4-0.5,3.8c-0.8,0-1.6,0-2.4,0c0.1-1-0.1-2,0-2.9c0.2-2.1,1.9-3.5,4-3.5c2.8,0,6.1,0,9,0c0.8,0,1.5-0.1,2.2,0.1
		C74.1,21.6,75.2,22.9,75.2,25z"/>
	<path class="st0" d="M67.2,29.5c0.2,1.9-0.6,2.9-1.8,3.6c-1,0.6-2.2,1-3.6,1c0-0.5,0.1-0.7,0-1.2c2.3,0,4-0.8,3.9-3.2
		c-1.3-0.1-2.6,0-3.9,0c0-0.4,0-0.8,0-1.2c0.8,0,1.6,0,2.3,0c-0.6-1.5,0.3-3,1.8-3.1c1.3-0.1,2.2,0.9,2.3,1.9
		C68.5,28.3,67.9,29,67.2,29.5z M66.3,28.3c1-0.1,0.9-1.6-0.1-1.5C65.1,26.8,65.4,28.3,66.3,28.3z"/>
	<path class="st0" d="M61.1,31.5c-0.3,0-1,0-1.4,0c0.2,1.7-0.6,4.4,0.9,4.8c0.7,0.2,1.9,0,2.8,0c2.3,0,4.7,0,7,0
		c0.6,0,1.2,0.1,1.6-0.1c0.8-0.3,0.9-1.4,0.8-2.5c0.8,0,1.6,0,2.4,0c0.2,1.4-0.2,2.6-0.8,3.4c-0.6,0.7-1.4,1.4-2.7,1.5
		c-1.6,0.1-3.5,0-5.4,0c-1.8,0-3.8,0.1-5.4,0c-1.8-0.2-3.4-1.6-3.5-3.4c-0.1-1.4,0.1-2.4,0-3.8c-0.3,0-1,0.1-1.4,0
		c-0.1,0,0.1-0.2,0.2-0.3c0.7-0.9,1.7-2,2.4-2.7C59.4,29.5,60.2,30.4,61.1,31.5z"/>
	<path class="st0" d="M68.7,28.4c1.8,0,3.4,0,5.2,0c0,0.4,0,0.8,0,1.2c-1.8,0-3.5,0-5.2,0C68.7,29.2,68.6,28.8,68.7,28.4z"/>
	<path class="st0" d="M74,30.3c-0.3,2.6-2.4,3.6-5.3,3.7c0-0.4,0-0.8,0-1.2c1.6,0,3-0.2,3.5-1.4c-1.1-0.1-2.3,0-3.4,0
		c0-0.4,0-0.8,0-1.1C70.5,30.3,72.2,30.3,74,30.3z"/>
</g>
</svg>
