<?xml version="1.0" encoding="utf-8"?>
<!-- Generator: Adobe Illustrator 28.0.0, SVG Export Plug-In . SVG Version: 6.00 Build 0)  -->
<svg version="1.1" id="レイヤー_1" xmlns="http://www.w3.org/2000/svg" xmlns:xlink="http://www.w3.org/1999/xlink" x="0px"
	 y="0px" viewBox="0 0 198.4 85" style="enable-background:new 0 0 198.4 85;" xml:space="preserve">
<style type="text/css">
	.st0{enable-background:new    ;}
	.st1{fill:#333333;}
</style>
<g>
	<g class="st0">
		<path class="st1" d="M50.1,28.7c0.2,0,0.9,0,0.9,1c0,1-0.5,1-0.9,1h-1.7V32h1.6c0.4,0,0.9,0.1,0.9,1c0,0.8-0.4,1-0.9,1h-1.3
			c0.6,0.9,1.1,1.5,1.2,1.5c0.5,0.6,0.7,0.7,0.7,1.1c0,0.5-0.4,1.1-0.9,1.1c-0.3,0-0.6-0.3-1.3-1.5v3.1c0,0.3,0,1.1-0.8,1.1
			c-0.6,0-0.9-0.2-0.9-1.1v-2.7c-0.3,0.4-0.8,1.2-1.3,1.7c-0.3,0.4-0.5,0.5-0.8,0.5c-0.6,0-1-0.6-1-1.2c0-0.5,0.1-0.6,1-1.4
			c1-0.9,1.5-1.8,1.8-2.2h-1.6c-0.4,0-0.9-0.1-0.9-1c0-0.7,0.3-1,0.9-1h1.9v-1.3h-2c-0.4,0-0.9,0-0.9-0.9c0-0.9,0.5-1,0.9-1h0.8
			c-0.1-0.6-0.3-1.7-0.3-2.1h-0.3c-0.4,0-0.7-0.3-0.7-0.9c0-0.9,0.3-1.1,0.8-1.1h1.8v-0.6c0-0.6,0.4-0.9,0.8-0.9
			c0.3,0,0.9,0.1,0.9,0.9v0.6h1.7c0.2,0,0.9,0,0.9,1c0,0.4-0.1,1-0.7,1h-0.3c-0.1,0.5-0.1,0.7-0.4,2.1H50.1z M48,28.7
			c0.2-0.9,0.2-1,0.3-2.1h-1.6c0.1,0.9,0.2,1.3,0.3,2.1H48z M56.4,30.9v8.4c0,0.9-0.3,1.1-1,1.1c-0.7,0-0.8-0.6-0.8-1.1v-8.4H53v1.1
			c0,3.4-0.7,5.8-1.2,7c-0.5,1-0.7,1.2-1.1,1.2c-0.6,0-1-0.5-1-1.1c0-0.3,0.1-0.5,0.3-0.9c1-1.8,1.3-4.1,1.3-6.3v-5.6
			c0-1,0-1.6,0.7-1.9c0.4-0.2,2.3-0.4,2.7-0.5c0.3-0.1,2-0.5,2.2-0.5c0.5,0,0.9,0.6,0.9,1.2c0,0.5-0.2,0.9-0.7,1
			c-0.9,0.3-2.2,0.5-3,0.6c-0.9,0.1-1,0.1-1,0.9v1.5h4c0.7,0,0.9,0.4,0.9,1.2c0,0.9-0.5,1-0.9,1H56.4z"/>
	</g>
	<g class="st0">
		<path class="st1" d="M61,39.4c0,0.3,0,1-0.8,1c-0.7,0-0.9-0.4-0.9-1V25.8c0-1.5,0.5-2,1.6-2h2.9c1.1,0,1.6,0.5,1.6,2V28
			c0,1.5-0.5,2-1.6,2H61V39.4z M63.7,26.2v-0.3c0-0.3-0.1-0.4-0.3-0.4h-2c-0.3,0-0.4,0.2-0.4,0.4v0.3H63.7z M63.7,27.6H61v0.8h2.3
			c0.3,0,0.4-0.2,0.4-0.4V27.6z M62.6,32.2h-0.4c-0.3,0-0.6-0.1-0.6-0.8c0-0.9,0.5-0.9,0.8-0.9h6.9c0.2,0,0.8,0,0.8,0.8
			c0,0.6-0.3,0.8-0.6,0.8H69v6.9c0,0.3,0,1-0.8,1c-0.8,0-0.8-0.6-0.8-1v-0.6c-1.8,0.2-4.8,0.5-5.1,0.5c-0.5,0-0.8-0.3-0.8-0.9
			c0-0.9,0.4-0.9,1.1-0.9V32.2z M64.1,32.2v0.7h3.2v-0.7H64.1z M64.1,34.2v0.7h3.2v-0.7H64.1z M64.1,37.1c1.8-0.1,2.1-0.1,3.2-0.2
			v-0.6h-3.2V37.1z M68,29.9c-1.1,0-1.6-0.5-1.6-2v-2.2c0-1.5,0.5-2,1.6-2h2.9c1.1,0,1.6,0.5,1.6,2v12.3c0,1.7-0.3,2.1-2.1,2.1
			c-0.7,0-1.4,0-1.4-1.2c0-1,0.6-1,0.7-1h0.6c0.3,0,0.4-0.2,0.4-0.6v-7.5H68z M68.1,26.2h2.7v-0.3c0-0.3-0.1-0.4-0.4-0.4h-1.9
			c-0.3,0-0.4,0.2-0.4,0.4V26.2z M68.1,27.6V28c0,0.3,0.1,0.4,0.4,0.4h2.3v-0.8H68.1z"/>
	</g>
	<g class="st0">
		<path class="st1" d="M78.2,31.8c0,1.2-0.8,2.1-1.8,2.1s-1.8-1-1.8-2.1c0-1.2,0.8-2.1,1.8-2.1C77.4,29.7,78.2,30.6,78.2,31.8z"/>
	</g>
	<g class="st0">
		<path class="st1" d="M85.9,28.3c-1.1,1.6-2,2.6-2.6,3.1c-0.6,0.6-1,0.9-1.4,0.9c-0.5,0-1-0.7-1-1.2c0-0.4,0.2-0.7,0.6-1
			c2.3-1.9,3.1-3.7,3.7-5c0.5-1,0.6-1.3,1.2-1.3c0.4,0,1.1,0.3,1.1,1c0,0.4-0.2,0.8-0.5,1.4h4.5c0.9,0,1.5,0.4,1.5,1.5
			c0,0.9-0.8,5.8-4,8.9c-2.6,2.5-5.9,3.2-6.3,3.2c-0.7,0-1-0.7-1-1.3c0-0.8,0.4-0.9,1-1.1c1.7-0.5,3.6-1.1,5.2-2.8
			c-1-1-1.3-1.2-2.8-2.3c-0.5-0.4-0.7-0.6-0.7-1c0-0.4,0.4-1.1,0.9-1.1c0.4,0,0.8,0.2,1.6,0.8c1.3,0.9,1.9,1.5,2.3,1.9
			c0.9-1.5,1.5-3.6,1.5-4.2c0-0.3-0.2-0.3-0.6-0.3H85.9z M91.3,23.8c0-0.1-0.1-0.3-0.1-0.4c0-0.4,0.4-0.5,0.6-0.5
			c0.3,0,0.4,0.3,0.6,0.9c0.2,0.5,0.4,1.2,0.4,1.5c0,0.6-0.5,0.6-0.5,0.6c-0.1,0-0.3,0-0.5-0.4c0-0.1-0.2-0.8-0.2-0.9
			C91.4,24.3,91.4,24.3,91.3,23.8z M93,23.7c0-0.1,0-0.2,0-0.3c0-0.3,0.2-0.5,0.6-0.5s0.4,0.3,0.6,0.9c0.3,0.8,0.4,1.3,0.4,1.5
			c0,0.5-0.5,0.6-0.5,0.6c-0.2,0-0.4-0.2-0.4-0.4c0-0.1-0.2-0.8-0.3-0.9C93.3,24.4,93.1,23.9,93,23.7z"/>
	</g>
	<g class="st0">
		<path class="st1" d="M96.2,24.7c0.3,0,0.6,0.1,1.7,0.9c3.4,2.2,3.4,2.5,3.4,3.1c0,0.5-0.5,1.3-1,1.3c-0.4,0-0.7-0.3-1.6-1
			c-0.8-0.7-1.7-1.3-2.7-1.9c-0.3-0.2-0.8-0.5-0.8-1.1c0-0.7,0.5-1.2,0.8-1.3C96.1,24.7,96.2,24.7,96.2,24.7z M107.9,27.5
			c0,0.9-1.3,4.7-2.9,6.8c-2,2.8-4.2,3.8-6,4.3c-0.9,0.3-2,0.5-2.5,0.5c-1,0-1.1-1-1.1-1.4c0-0.9,0.4-1.1,1.1-1.2
			c4.3-0.6,7.3-2.6,9.1-9c0.3-0.9,0.4-1.3,1-1.3c0.1,0,0.2,0,0.4,0.1C107.5,26.6,107.9,26.8,107.9,27.5z"/>
	</g>
	<g class="st0">
		<path class="st1" d="M113.7,31.5c0,0.5-0.7,3.3-1.3,4.6c-0.5,1.1-1,1.8-1.3,2.1c-0.1,0.1-0.3,0.2-0.5,0.2c-0.5,0-1.2-0.5-1.2-1.3
			c0-0.4,0.1-0.5,0.7-1.4c0.3-0.4,1-1.7,1.6-4.3c0.1-0.5,0.2-1.1,1.1-1C113.1,30.6,113.7,30.8,113.7,31.5z M114.9,24.9
			c0-0.5,0.1-1.2,1-1.2c0.8,0,1,0.4,1,1.2v1.8h4.3c0.2,0,1,0,1,1.1c0,1.1-0.8,1.1-1,1.1H117v9.7c0,0.5-0.1,1.2-1,1.2
			c-0.8,0-1-0.4-1-1.2V29h-4.3c-0.2,0-1,0-1-1.1c0-1.1,0.8-1.1,1-1.1h4.3V24.9z M120.3,31.5c0.6,2.5,1.3,3.8,1.6,4.3
			c0.6,0.9,0.7,1,0.7,1.4c0,0.8-0.8,1.3-1.2,1.3c-0.7,0-1.4-1.4-1.8-2.4c-0.6-1.2-1.3-4-1.3-4.5c0-0.7,0.5-0.9,0.9-1
			C120,30.4,120.1,31,120.3,31.5z M119.7,24.1c0-0.1-0.1-0.3-0.1-0.4c0-0.4,0.4-0.5,0.5-0.5c0.3,0,0.4,0.3,0.6,0.9
			c0.2,0.5,0.3,1.2,0.3,1.5c0,0.6-0.5,0.6-0.5,0.6c-0.1,0-0.3,0-0.4-0.4c0-0.1-0.2-0.8-0.3-0.9C119.9,24.5,119.8,24.4,119.7,24.1z
			 M121.5,23.8c0-0.1,0-0.2,0-0.3c0-0.4,0.4-0.5,0.5-0.5c0.3,0,0.4,0.3,0.6,0.9c0.2,0.7,0.4,1.3,0.4,1.5c0,0.5-0.4,0.6-0.5,0.6
			c-0.3,0-0.4-0.2-0.7-1.3C121.7,24.5,121.6,24,121.5,23.8z"/>
	</g>
	<g class="st0">
		<path class="st1" d="M125.4,33.1c-0.3,0-1.1,0-1.1-1.2c0-1.2,0.7-1.3,1.1-1.3h11.2c0.3,0,1.1,0,1.1,1.2c0,1.2-0.7,1.3-1.1,1.3
			H125.4z"/>
		<path class="st1" d="M143.5,29.5c0,4-0.2,6.3-1.6,8.4c-1,1.6-1.4,1.6-1.7,1.6c-0.5,0-1.1-0.5-1.1-1.3c0-0.3,0.1-0.6,0.5-1
			c1.6-1.8,1.9-2.9,1.9-7.8v-4.1c0-0.5,0.1-1.1,1-1.1c0.7,0,1,0.3,1,1.1V29.5z M145.4,25.1c0-0.6,0.2-1.1,1-1.1c0.6,0,1,0.3,1,1.1
			V36c0,0.3,0,0.5,0.2,0.5c0.5,0,1.9-0.8,2.9-3.2c0.3-0.6,0.3-0.9,0.6-1.9c0.2-0.7,0.6-0.8,0.8-0.8c0.3,0,1.1,0.2,1.1,1.1
			c0,0.8-0.6,2.7-1.3,3.9c-1.4,2.6-3.8,3.7-5,3.7c-1.4,0-1.4-1.2-1.4-1.6V25.1z"/>
	</g>
	<g>
		<polygon class="st1" points="157.4,40.6 167.3,42.4 167.3,30.9 157.4,29.1 		"/>
		<polygon class="st1" points="167.7,31.3 167.7,42.4 178.7,39.6 178.7,28.2 		"/>
		<polygon class="st1" points="172.1,19.8 160.7,22.8 157.4,29.1 157.8,29.2 161,23.1 172.4,20.2 		"/>
		<polygon class="st1" points="178.7,27.8 167.3,30.9 164.1,23.3 175.6,20.4 		"/>
	</g>
</g>
</svg>
