<?xml version="1.0" encoding="utf-8"?>
<!-- Generator: Adobe Illustrator 28.0.0, SVG Export Plug-In . SVG Version: 6.00 Build 0)  -->
<svg version="1.1" id="レイヤー_1" xmlns="http://www.w3.org/2000/svg" xmlns:xlink="http://www.w3.org/1999/xlink" x="0px"
	 y="0px" viewBox="0 0 200.8 82" style="enable-background:new 0 0 200.8 82;" xml:space="preserve">
<style type="text/css">
	.st0{fill-rule:evenodd;clip-rule:evenodd;fill:#231815;}
	.st1{fill:#231815;}
</style>
<g>
	<g>
		<path class="st0" d="M61.8,22.8L61.8,22.8L61.8,22.8z"/>
		<g>
			<path class="st1" d="M70.4,33c-0.3-0.3-1-0.8-1.9-1.9v4.6h-0.9v-4.5c-0.5,0.6-1.7,1.9-3.4,3l-0.4-0.6c2.1-1.4,3.3-2.7,3.8-3.6
				h-3.4v-0.7h3.4v-1.8h-3.7v-0.7h2.2c-0.1-0.6-0.3-1.9-0.5-2.5h-1.4v-0.8h3.4v-1.4h0.9v1.4h3v0.7h-1c-0.1,0.8-0.3,1.9-0.5,2.5h1.7
				v0.7h-3.3v1.8h3V30h-2.9c0.3,0.5,1.1,1.4,2.4,2.3L70.4,33z M69.2,26.9c0.2-1,0.3-1.5,0.5-2.6h-3.1c0.2,0.7,0.3,1.7,0.5,2.5
				L69.2,26.9C69.2,26.8,69.2,26.9,69.2,26.9z M73.3,26.9h5.5v0.8h-2v8.2h-0.9v-8.3h-2.7v1.1c0,3.6-1.2,5.9-2.3,7l-0.8-0.5
				c1.4-1.4,2.2-3.6,2.2-6.6v-5.4c0.7,0,2.9,0,5.6-0.8l0.4,0.8c-2.3,0.6-4.5,0.8-5,0.8C73.3,23.9,73.3,26.9,73.3,26.9z"/>
			<path class="st1" d="M86.7,22.6v4.3h-5.1v8.9h-0.9V22.6H86.7z M81.5,23.3v1.1h4.3v-1.1H81.5z M81.5,25.1v1.1h4.3v-1.1H81.5z
				 M82.7,33.5c0.8,0,1.1,0,1.5-0.1v-4.8h-1.4V28h9.6v0.7h-1.6v6.8H90v-1.7c-1,0.1-2.9,0.3-7.1,0.5L82.7,33.5z M85.1,28.7v1h4.8v-1
				H85.1z M85.1,30.4v1h4.8v-1H85.1z M85.1,33.4c0.5,0,2.1-0.1,4.8-0.3v-0.9h-4.8V33.4z M94.5,22.6v12.1c0,0.6-0.3,1.1-1.1,1.1h-2
				L91.3,35h1.8c0.5,0,0.6-0.1,0.6-0.3v-7.8h-5.2v-4.3C88.5,22.6,94.5,22.6,94.5,22.6z M89.4,23.3v1.1h4.3v-1.1H89.4z M89.4,25.1
				v1.1h4.3v-1.1H89.4z"/>
			<path class="st1" d="M102,23.9c-1.1,1.9-2.2,3.5-3.2,4.6c1.2-0.1,1.6-0.1,2.6-0.2c-0.3-0.5-0.5-0.8-0.6-1.2l0.7-0.3
				c0.2,0.3,0.9,1.4,1.4,2.8l-0.8,0.4c-0.2-0.5-0.3-0.8-0.5-1c-0.3,0.1-0.8,0.1-1.7,0.2v6.7h-0.8v-6.7c-1.5,0.1-2,0.1-2.6,0.1
				l-0.1-0.8c0.7,0,1,0,1.5,0c0.6-0.6,0.8-0.9,0.9-1.1c-0.6-0.6-1.3-1.4-2.5-2.1l0.5-0.6c0.4,0.3,0.5,0.3,0.6,0.5
				c0.6-0.8,1.3-2,1.7-3l0.8,0.3c-0.6,1.2-1.1,2.1-1.9,3.2c0.6,0.5,0.9,0.9,1.2,1.2c0.8-1.1,1.4-2.2,2.1-3.3L102,23.9z M96.4,34.4
				c0.6-1.2,0.8-2.8,1-3.9l0.8,0.1c-0.1,0.9-0.4,2.9-1,4.1L96.4,34.4z M101.7,33.8c-0.3-1.5-0.5-2.3-0.9-3.3l0.7-0.2
				c0.4,0.8,0.8,2.1,1,3.3L101.7,33.8z M110.7,22.9c-0.5,0.2-1.3,0.5-2.9,0.6c0,0.3,0,0.7,0,1.4c0,0.1,0,1.1,0.1,2.5h3.4v0.8H108
				c0.4,5.6,1.8,6.5,2.1,6.5c0.5,0,0.7-1.6,0.8-2.2l0.8,0.5c-0.2,1.2-0.6,2.8-1.5,2.8c-0.4,0-0.8-0.4-1.1-0.7
				c-1.6-1.8-1.7-4.9-1.9-6.9h-2.7v6c1-0.3,1.6-0.5,2.7-0.8v0.8c-1.3,0.4-3.2,0.9-4.8,1.2l-0.3-0.8c0.5-0.1,0.8-0.1,1.6-0.3V23
				l0.8,0.2c1.6,0.1,4.2-0.4,6-0.9L110.7,22.9z M104.3,27.5h2.7c-0.1-1.2-0.1-2.6-0.1-3.7c-1.4,0.1-2.2,0.2-2.7,0.2L104.3,27.5
				L104.3,27.5z"/>
			<path class="st1" d="M118.9,32.6c-1.9,0.4-3.1,0.6-4.3,0.8v2.4h-0.9v-2.2c-0.5,0.1-0.6,0.1-1,0.1l-0.1-0.8c0.6-0.1,0.8-0.1,1-0.1
				v-9.6c1.1-0.1,2.5-0.3,4.3-1.1l0.6,0.6c-1.6,0.7-3.1,1-4.1,1.1v2.3h3.7v0.7h-3.7v2.4h3.7v0.7h-3.7v2.7c0.6-0.1,2.3-0.4,4.3-0.8
				L118.9,32.6L118.9,32.6z M117.8,35c2-0.5,3.5-1.3,4.5-1.9c-1.1-1.1-1.7-2.2-2.2-3.2l0.7-0.3c0.5,0.9,1,1.9,2.1,3
				c1.7-1.4,2.4-2.8,2.7-3.3h-6.5v-0.7h7.6v0.7c-0.3,0.6-1.2,2.3-3,3.9c1.6,1.2,3.6,1.7,4.1,1.8l-0.5,0.8c-0.8-0.2-2.6-0.7-4.3-2.2
				c-1.9,1.4-3.9,1.9-4.6,2.1L117.8,35z M125.2,26.2c0,0.3,0,0.4,0.3,0.4h0.5c0.6,0,0.6,0,0.7-1.7l0.9,0.2c-0.2,1.9-0.3,2.3-1.2,2.3
				h-0.8c-0.7,0-1.2-0.1-1.2-1v-2.9h-3.1c-0.1,2.2-0.5,3.6-1.6,4.5l-0.8-0.5c1.2-1,1.4-2.2,1.4-4.8h4.9V26.2z"/>
			<path class="st1" d="M129.7,33.5c1.7-1.6,2.4-3.8,2.6-5.8l1,0.1c-0.4,2.8-1,4.7-2.7,6.4L129.7,33.5z M136.9,35.3h-1v-9.1h-5.8
				v-0.9h5.8v-2.7h1v2.7h5.9v0.8h-5.9V35.3z M140.4,27.7c0.4,1.9,1,4.1,2.6,5.8l-0.8,0.6c-1.4-1.6-2.1-3.3-2.7-6.3L140.4,27.7z
				 M140.5,21.6c0.6,0.9,1,1.8,1.4,2.8l-0.9,0.4c-0.5-1.2-0.7-1.9-1.3-2.8L140.5,21.6z M142.9,21.3c0.8,1.2,1.2,2.1,1.4,2.8
				l-0.9,0.3c-0.5-1.2-0.7-1.8-1.3-2.8L142.9,21.3z"/>
			<path class="st1" d="M159.6,28.5v1h-14v-1H159.6z"/>
			<path class="st1" d="M165.4,27c0,3.7-0.8,5.9-3.2,8.1l-0.7-0.6c2.8-2.3,3-5.2,3-7.4v-3.8h1V27H165.4z M169.6,33.9
				c4.1-0.7,5.1-3.4,5.6-6.1l0.9,0.2c-0.6,3-1.9,6.3-7.5,6.9V22.8h1V33.9L169.6,33.9z"/>
		</g>
	</g>
	<g>
		<path class="st1" d="M58.8,21.9c-0.3,0-0.5,0.2-0.5,0.5v12.5c0,0.5-0.4,0.9-0.9,0.9H41.2c-0.5,0-0.9-0.4-0.9-0.9V21.7l1.5,0.6
			c0.1,0.1,0.3,0.1,0.4,0l1.9-0.8l1.9,0.8c0.1,0.1,0.3,0.1,0.4,0l1.9-0.8l1.9,0.8c0.1,0.1,0.3,0.1,0.4,0l1.9-0.8l1.9,0.8
			c0.1,0.1,0.3,0.1,0.4,0l1.5-0.6V34c0,0.3,0.2,0.5,0.5,0.5s0.5-0.2,0.5-0.5V20.9c0-0.1-0.1-0.3-0.2-0.4c-0.2-0.1-0.3-0.1-0.5,0
			l-1.9,0.8l-1.9-0.8c-0.1-0.1-0.3-0.1-0.4,0l-1.9,0.8l-1.9-0.8c-0.1-0.1-0.3-0.1-0.4,0l-1.9,0.8l-1.9-0.8c-0.1-0.1-0.3-0.1-0.4,0
			l-1.9,0.8l-1.9-0.8c-0.1-0.1-0.3-0.1-0.5,0c-0.1,0.1-0.2,0.3-0.2,0.4v13.9c0,1,0.8,1.9,1.9,1.9h16.2c1,0,1.9-0.8,1.9-1.9V22.4
			C59.3,22.2,59,21.9,58.8,21.9z"/>
		<rect x="42.5" y="25.1" class="st1" width="5.2" height="5"/>
		<rect x="49.6" y="25.1" class="st1" width="4.5" height="0.8"/>
		<rect x="49.6" y="27.3" class="st1" width="4.5" height="0.8"/>
		<rect x="49.6" y="29.6" class="st1" width="4.5" height="0.8"/>
		<rect x="42.5" y="31.8" class="st1" width="11.6" height="0.8"/>
	</g>
</g>
</svg>
