<?xml version="1.0" encoding="utf-8"?>
<!-- Generator: Adobe Illustrator 28.0.0, SVG Export Plug-In . SVG Version: 6.00 Build 0)  -->
<svg version="1.1" id="レイヤー_1" xmlns="http://www.w3.org/2000/svg" xmlns:xlink="http://www.w3.org/1999/xlink" x="0px"
	 y="0px" viewBox="0 0 211.6 25.1" style="enable-background:new 0 0 211.6 25.1;" xml:space="preserve">
<style type="text/css">
	.st0{fill-rule:evenodd;clip-rule:evenodd;fill:#231815;}
	.st1{fill:#231815;}
</style>
<g>
	<path class="st0" d="M34.8,3.6L34.8,3.6L34.8,3.6z"/>
	<g>
		<path class="st1" d="M48.1,19.4c-0.5-0.4-1.6-1.2-2.9-2.9v7.1h-1.4v-6.9c-0.7,0.9-2.6,2.9-5.3,4.7l-0.6-1c3.2-2.1,5.1-4.1,5.9-5.5
			h-5.2v-1.1h5.3V11h-5.8V9.9h3.4c-0.1-0.9-0.4-3-0.7-3.9h-2.2V4.8h5.3V2.6h1.4v2.2h4.6v1.1h-1.6c-0.2,1.3-0.5,3-0.7,3.9h2.7v1.1
			h-5.1v2.8h4.6v1.1h-4.5c0.5,0.7,1.7,2.1,3.7,3.5L48.1,19.4z M46.2,9.9c0.3-1.5,0.5-2.3,0.7-4h-4.8c0.3,1.1,0.5,2.7,0.7,3.9h3.4
			C46.2,9.8,46.2,9.9,46.2,9.9z M52.6,9.9h8.5v1.2H58v12.7h-1.4V11h-4.1v1.7c0,5.6-1.8,9.1-3.6,10.9l-1.2-0.9
			c2.1-2.1,3.4-5.6,3.4-10.2V4.1c1.1,0,4.5,0,8.7-1.3l0.6,1.3c-3.5,0.9-6.9,1.2-7.8,1.2C52.6,5.3,52.6,9.9,52.6,9.9z"/>
		<path class="st1" d="M73.3,3.3V10h-7.9v13.7H64V3.3H73.3z M65.3,4.4v1.7h6.6V4.4H65.3z M65.3,7.2v1.7h6.6V7.2H65.3z M67.1,20.2
			c1.2,0,1.7,0,2.3-0.1v-7.4h-2.2v-1.1H82v1.1h-2.4v10.5h-1.3v-2.6c-1.6,0.2-4.5,0.5-11,0.8L67.1,20.2z M70.8,12.7v1.6h7.5v-1.6
			H70.8z M70.8,15.4V17h7.5v-1.6H70.8z M70.8,20c0.7,0,3.3-0.1,7.5-0.5v-1.4h-7.5V20z M85.4,3.3V22c0,1-0.5,1.7-1.7,1.7h-3.1
			l-0.2-1.2h2.8c0.7,0,0.9-0.1,0.9-0.5V10h-8V3.3H85.4z M77.5,4.4v1.7h6.6V4.4H77.5z M77.5,7.2v1.7h6.6V7.2H77.5z"/>
		<path class="st1" d="M97,5.3c-1.7,2.9-3.4,5.4-4.9,7.1c1.9-0.1,2.5-0.2,4-0.3c-0.4-0.7-0.7-1.2-1-1.8l1.1-0.4
			c0.3,0.4,1.4,2.2,2.1,4.3l-1.1,0.5c-0.3-0.8-0.5-1.2-0.7-1.6c-0.5,0.1-1.2,0.2-2.7,0.3v10.4h-1.3V13.4c-2.3,0.1-3.1,0.1-4,0.2
			l-0.2-1.2c1.1,0,1.6,0,2.3,0c0.9-1,1.2-1.4,1.4-1.7c-0.9-0.9-2-2.1-3.8-3.3l0.7-0.9c0.6,0.4,0.7,0.5,1,0.7c1-1.3,2-3.1,2.6-4.7
			l1.3,0.4c-0.9,1.8-1.7,3.3-3,5c0.9,0.8,1.4,1.4,1.9,1.9c1.2-1.7,2.2-3.4,3.2-5.1L97,5.3z M88.3,21.6c1-1.9,1.3-4.4,1.5-6l1.2,0.2
			c-0.1,1.4-0.6,4.5-1.5,6.3L88.3,21.6z M96.6,20.6c-0.4-2.3-0.8-3.5-1.4-5.1l1.1-0.3c0.6,1.3,1.2,3.2,1.5,5.1L96.6,20.6z
			 M110.4,3.7c-0.8,0.3-2,0.7-4.5,1c0,0.4,0,1.1,0,2.2c0,0.2,0,1.7,0.1,3.8h5.2v1.2h-5.1c0.6,8.7,2.8,10.1,3.2,10.1
			c0.7,0,1.1-2.5,1.2-3.4l1.2,0.7c-0.3,1.9-0.9,4.4-2.3,4.4c-0.6,0-1.2-0.6-1.7-1.1c-2.4-2.8-2.7-7.6-2.9-10.6h-4.2v9.3
			c1.6-0.4,2.5-0.7,4.2-1.2v1.3c-2,0.6-5,1.4-7.5,1.9l-0.5-1.2c0.8-0.2,1.3-0.2,2.4-0.5V3.9l1.3,0.3c2.5,0.1,6.5-0.6,9.3-1.4
			L110.4,3.7z M100.5,10.8h4.2c-0.1-1.9-0.1-4-0.1-5.8c-2.1,0.2-3.4,0.3-4.1,0.3V10.8z"/>
		<path class="st1" d="M123.1,18.8c-3,0.6-4.8,0.9-6.6,1.2v3.7h-1.4v-3.4c-0.8,0.1-0.9,0.1-1.5,0.2l-0.1-1.2c1-0.1,1.3-0.1,1.6-0.2
			V4.3c1.7-0.1,3.9-0.5,6.6-1.7l1,0.9c-2.4,1.1-4.8,1.5-6.3,1.7v3.5h5.8v1.1h-5.8v3.7h5.8v1.1h-5.8v4.2c1-0.1,3.6-0.6,6.6-1.2v1.2
			H123.1z M121.4,22.4c3.1-0.8,5.4-2,6.9-3c-1.7-1.7-2.6-3.4-3.4-5L126,14c0.7,1.4,1.6,3,3.3,4.7c2.6-2.1,3.7-4.3,4.1-5.1h-10v-1.1
			h11.7v1.1c-0.5,0.9-1.8,3.6-4.7,6c2.4,1.9,5.5,2.6,6.4,2.8l-0.8,1.3c-1.2-0.3-4-1.1-6.7-3.4c-2.9,2.1-6.1,3-7.1,3.3L121.4,22.4z
			 M132.9,8.8c0,0.5,0,0.6,0.5,0.6h0.7c1,0,1,0,1.1-2.7l1.4,0.3c-0.3,3-0.4,3.5-1.9,3.5h-1.3c-1.1,0-1.9-0.1-1.9-1.5V4.5h-4.8
			c-0.1,3.4-0.7,5.5-2.4,7l-1.2-0.8c1.8-1.6,2.2-3.4,2.2-7.4h7.6V8.8z"/>
		<path class="st1" d="M139.9,20.1c2.7-2.5,3.7-5.9,4-9l1.5,0.1c-0.6,4.3-1.5,7.2-4.1,9.9L139.9,20.1z M150.9,22.9h-1.6v-14h-9V7.5
			h9V3.4h1.6v4.1h9.1v1.3h-9.1V22.9z M156.4,11.2c0.6,2.9,1.5,6.3,4,9l-1.3,0.9c-2.2-2.5-3.2-5.1-4.1-9.8L156.4,11.2z M156.6,1.7
			c0.9,1.4,1.6,2.8,2.2,4.3l-1.4,0.6c-0.7-1.9-1.1-2.9-2-4.3L156.6,1.7z M160.3,1.3c1.2,1.8,1.8,3.2,2.2,4.4l-1.4,0.5
			c-0.7-1.8-1.1-2.8-2-4.3L160.3,1.3z"/>
		<path class="st1" d="M186.1,12.4v1.5h-21.7v-1.5H186.1z"/>
		<path class="st1" d="M195,10.1c0,5.7-1.3,9.2-5,12.6l-1.1-1c4.3-3.6,4.6-8,4.6-11.5V4.3h1.5V10.1z M201.5,20.7
			c6.4-1.1,7.9-5.2,8.7-9.5l1.4,0.5c-1,4.6-3,9.7-11.6,10.6V3.6h1.5L201.5,20.7L201.5,20.7z"/>
	</g>
</g>
<g>
	<path class="st1" d="M30.1,2.2c-0.4,0-0.7,0.3-0.7,0.7v19.3c0,0.8-0.6,1.4-1.4,1.4H2.9c-0.8,0-1.4-0.6-1.4-1.4V1.9l2.3,0.9
		c0.2,0.1,0.4,0.1,0.6,0l3-1.2l3,1.2c0.2,0.1,0.4,0.1,0.6,0l3-1.2l3,1.2c0.2,0.1,0.4,0.1,0.6,0l3-1.2l3,1.2c0.2,0.1,0.4,0.1,0.6,0
		l2.3-0.9V21c0,0.4,0.3,0.7,0.7,0.7c0.4,0,0.7-0.3,0.7-0.7V0.7c0-0.2-0.1-0.5-0.3-0.6c-0.3-0.1-0.5-0.1-0.8,0l-3,1.2l-3-1.2
		c-0.2-0.1-0.4-0.1-0.6,0l-3,1.2l-3-1.2C14,0,13.8,0,13.6,0.1l-3,1.2l-3-1.2C7.4,0,7.2,0,7,0.1L4,1.3L1,0.1C0.8,0,0.5,0,0.3,0.1
		C0.1,0.3,0,0.5,0,0.7v21.5c0,1.6,1.3,2.9,2.9,2.9H28c1.6,0,2.9-1.3,2.9-2.9V3C30.9,2.6,30.5,2.2,30.1,2.2z"/>
	<rect x="4.9" y="7.1" class="st1" width="8.1" height="7.8"/>
	<rect x="16" y="7.1" class="st1" width="6.9" height="1.2"/>
	<rect x="16" y="10.6" class="st1" width="6.9" height="1.2"/>
	<rect x="16" y="14.1" class="st1" width="6.9" height="1.2"/>
	<rect x="4.9" y="17.5" class="st1" width="18" height="1.2"/>
</g>
</svg>
