<?xml version="1.0" encoding="utf-8"?>
<!-- Generator: Adobe Illustrator 28.0.0, SVG Export Plug-In . SVG Version: 6.00 Build 0)  -->
<svg version="1.1" id="レイヤー_1" xmlns="http://www.w3.org/2000/svg" xmlns:xlink="http://www.w3.org/1999/xlink" x="0px"
	 y="0px" viewBox="0 0 200.8 27.8" style="enable-background:new 0 0 200.8 27.8;" xml:space="preserve">
<style type="text/css">
	.st0{fill-rule:evenodd;clip-rule:evenodd;fill:#231815;}
	.st1{fill:#231815;}
</style>
<g>
	<path class="st0" d="M60.2,4.1L60.2,4.1L60.2,4.1z"/>
	<g>
		<path class="st1" d="M71,5.4v5.1c0,0.3,0,0.6,0.4,0.6H72c0.2,0,0.4,0,0.5-0.3c-0.1-0.3,0-1.2,0-2.4l1.3,0.3c0,0.5-0.1,0.8-0.1,1.4
			c2.4-2.7,3.3-6.3,3.5-7l1.3,0.2c-0.3,1.1-0.6,2-1.4,3.7h3.7c0.4-0.9,1.2-3,1.4-3.7l1.4,0.3c-0.4,1.1-1.2,2.7-1.6,3.5h4v1.1h-4.2v4
			h3.8v1.1h-3.8V17h3.8v1.1h-3.8v4.5h4.5v1.1h-11V10.3c-0.4,0.6-0.5,0.7-0.8,1.1l-0.8-0.9c-0.1,1-0.2,1.6-1.4,1.6h-1.1
			c-0.7,0-1.5-0.1-1.5-1.2V6.5h-2c-0.2,1.9-0.5,4.7-3.2,6.8l-1-1c2.5-1.8,2.8-3.8,2.9-5.8h-2.8V5.4h2.8c0-0.9,0-1.3,0-2.3h1.3
			c0,1.4,0,1.8,0,2.3H71z M63.6,16v-1.1h4.5v-2h1.3v2h4.3V16h-4.3v0.5c0.9,1.2,2.5,2.9,4.6,4.3l-0.8,1c-2.1-1.4-3.6-3.3-3.8-3.6v6
			h-1.3v-6c-0.3,0.6-1.6,2.8-3.9,4.7l-0.7-1.1c2.5-2.1,4.2-5.1,4.5-5.8C68,16,63.6,16,63.6,16z M76.7,8.1l-0.1,0.1V12h4.2V8h-4.1
			C76.7,8,76.7,8.1,76.7,8.1z M80.8,13.1h-4.2V17h4.2V13.1z M80.8,18.1h-4.2v4.5h4.2V18.1z"/>
		<path class="st1" d="M96.6,7v1.1h-7.9V7H96.6z M95.9,3.9V5h-6.5V3.9H95.9z M95.9,10.2v1.1h-6.5v-1.1H95.9z M95.9,13.5v1.1h-6.5
			v-1.1H95.9z M95.9,16.7v7.1h-6.4v-7.1H95.9z M94.6,17.8h-3.9v4.9h3.9V17.8z M96.4,22.3c1.6-2.2,2-4.6,2.1-5.5l1.3,0.3
			c-0.4,2-1,4.1-2.2,6L96.4,22.3z M111.1,11.9V13h-13v-1.1h5.8V7.4h-6.4V6.3h6.4V3.1h1.4v3.2h6.4v1.1h-6.4v4.5H111.1z M102.3,22
			c0,0.5,0.1,0.7,0.9,0.7h2.6c0.9,0,1.2,0,1.3-2.6l1.4,0.3c-0.3,2.9-0.6,3.4-2.6,3.4h-3.2c-1.8,0-1.8-1.1-1.8-1.7v-5.6h1.3L102.3,22
			L102.3,22z M105.7,17c-1.5-1-2.8-1.6-4.6-2.3l0.6-0.9c1.8,0.5,3.3,1.2,4.8,2.2L105.7,17z M110.6,22.6c-0.6-2.8-1.6-4.5-2.5-5.9
			l1.3-0.5c0.6,0.9,1.7,2.5,2.6,5.9L110.6,22.6z"/>
		<path class="st1" d="M121.2,5.4v5.1c0,0.3,0,0.6,0.4,0.6h0.6c0.2,0,0.4,0,0.5-0.3c0-0.2,0.1-1.1,0.2-2.3l1.3,0.3
			c0,0.5,0,0.8-0.1,1.4c2.4-2.7,3.3-6.3,3.5-7l1.3,0.2c-0.3,1.1-0.6,2-1.4,3.7h3.7c0.4-0.9,1.2-3,1.4-3.7l1.4,0.3
			c-0.4,1.1-1.2,2.7-1.6,3.5h4v1.1h-4.2v4h3.8v1.1h-3.8V17h3.8v1.1h-3.8v4.5h4.5v1.1h-11.1V10.3c-0.4,0.6-0.5,0.7-0.8,1.1l-0.8-0.9
			c-0.1,1.1-0.2,1.7-1.5,1.7h-1c-0.7,0-1.5-0.1-1.5-1.3V6.5h-2c-0.1,1.9-0.5,4.7-3.2,6.8l-1-1c2.5-1.8,2.8-3.8,2.9-5.8h-2.8V5.4h2.8
			c0-0.9,0-1.3,0-2.3h1.3c0,1.4,0,1.8,0,2.3H121.2z M113.9,16v-1.1h4.5v-2h1.3v2h4.3V16h-4.3v0.5c0.9,1.2,2.5,2.9,4.6,4.3l-0.8,1
			c-2.1-1.4-3.6-3.3-3.8-3.6v6h-1.3v-6c-0.4,0.7-1.7,2.9-3.9,4.8l-0.7-1.1c2.5-2.1,4.2-5.1,4.5-5.8L113.9,16
			C113.9,16.1,113.9,16,113.9,16z M126.9,8.1L126.9,8.1l-0.1,3.9h4.2V8h-4.1V8.1z M131,13.1h-4.2V17h4.2V13.1z M131,18.1h-4.2v4.5
			h4.2V18.1z"/>
		<path class="st1" d="M147.6,5.7c-1.7,2.9-3.4,5.4-4.9,7.1c1.9-0.1,2.5-0.2,4-0.3c-0.4-0.7-0.7-1.2-1-1.8l1.1-0.4
			c0.3,0.4,1.4,2.2,2.1,4.3l-1.1,0.5c-0.3-0.8-0.5-1.2-0.7-1.6c-0.5,0.1-1.2,0.2-2.7,0.3v10.4h-1.3V13.9c-2.3,0.1-3.1,0.1-4,0.2
			l-0.2-1.2c1.1,0,1.6,0,2.3,0c0.9-1,1.2-1.4,1.4-1.7c-0.9-0.9-2-2.1-3.8-3.3l0.7-0.9c0.6,0.4,0.7,0.5,1,0.7c1-1.3,2-3.2,2.7-4.7
			l1.3,0.4c-0.9,1.8-1.7,3.3-3,5c0.9,0.8,1.4,1.4,1.9,1.9c1.1-1.7,2.1-3.4,3.1-5.2L147.6,5.7z M138.9,22c1-1.9,1.3-4.4,1.5-6
			l1.2,0.2c-0.1,1.4-0.6,4.5-1.5,6.3L138.9,22z M147.2,21.1c-0.4-2.3-0.8-3.5-1.4-5.1l1.1-0.3c0.6,1.3,1.2,3.2,1.5,5.1L147.2,21.1z
			 M161,4.2c-0.8,0.3-2,0.7-4.5,1c0,0.4,0,1.1,0,2.2c0,0.2,0,1.7,0.1,3.8h5.2v1.2h-5.1c0.6,8.7,2.8,10.1,3.2,10.1
			c0.7,0,1.1-2.5,1.2-3.4l1.2,0.7c-0.3,1.9-0.9,4.4-2.3,4.4c-0.6,0-1.2-0.6-1.7-1.1c-2.4-2.8-2.7-7.6-2.9-10.6h-4.2v9.3
			c1.6-0.4,2.5-0.7,4.2-1.2v1.3c-2,0.6-5,1.4-7.5,1.9l-0.5-1.2c0.8-0.2,1.3-0.2,2.4-0.5V4.4l1.3,0.3c2.5,0.1,6.5-0.6,9.3-1.4
			L161,4.2z M151.1,11.3h4.2c-0.1-1.9-0.1-4-0.1-5.8c-2.1,0.2-3.4,0.3-4.1,0.3V11.3z"/>
	</g>
</g>
<g>
	<path class="st1" d="M40.9,6.1c0.1,0.1,0.2,0.2,0.4,0.2l11.4-4.5c0.1-0.1,0.2-0.2,0.2-0.4c-0.1-0.1-0.2-0.2-0.4-0.2L41.1,5.8
		C40.9,5.8,40.8,6,40.9,6.1z"/>
	<path class="st1" d="M42.1,7c-1.2-0.1-2-0.4-2.6-0.8c-0.7-0.4-0.1-0.8,0.2-1C40.1,5,50.9,0.9,50.9,0.9v0.6l0.6-0.1V0L38.8,4.9
		c-0.2,0-0.3,0.2-0.3,0.4v0.5v20c0,0,0.6,1.9,3.6,2l13-5V2L42.1,7z"/>
</g>
</svg>
