<?xml version="1.0" encoding="utf-8"?>
<!-- Generator: Adobe Illustrator 28.0.0, SVG Export Plug-In . SVG Version: 6.00 Build 0)  -->
<svg version="1.1" id="レイヤー_1" xmlns="http://www.w3.org/2000/svg" xmlns:xlink="http://www.w3.org/1999/xlink" x="0px"
	 y="0px" viewBox="0 0 200.8 82" style="enable-background:new 0 0 200.8 82;" xml:space="preserve">
<style type="text/css">
	.st0{fill-rule:evenodd;clip-rule:evenodd;fill:#231815;}
	.st1{fill:#231815;}
</style>
<g>
	<path class="st0" d="M75.7,23.1L75.7,23.1L75.7,23.1z"/>
	<g>
		<path class="st1" d="M83.9,24.1v3.8c0,0.2,0,0.5,0.3,0.5h0.5c0.2,0,0.3,0,0.4-0.2c-0.1-0.2,0-0.9,0-1.8l1,0.2
			c0,0.4-0.1,0.6-0.1,1.1c1.8-2,2.5-4.8,2.6-5.3l1,0.2c-0.2,0.8-0.5,1.5-1.1,2.8h2.8c0.3-0.7,0.9-2.3,1.1-2.8l1.1,0.2
			c-0.3,0.8-0.9,2-1.2,2.6h3v0.8h-3.2v3H95V30h-2.9v2.8H95v0.8h-2.9V37h3.4v0.8h-8.4v-10c-0.3,0.5-0.4,0.5-0.6,0.8l-0.6-0.7
			c-0.1,0.8-0.2,1.2-1.1,1.2H84c-0.5,0-1.1-0.1-1.1-0.9v-3.3h-1.5C81.2,26.3,81,28.4,79,30l-0.8-0.8c1.9-1.4,2.1-2.9,2.2-4.4h-2.1
			V24h2.1c0-0.7,0-1,0-1.7h1c0,1.1,0,1.4,0,1.7L83.9,24.1L83.9,24.1z M78.3,32.1v-0.8h3.4v-1.5h1v1.5h3.2v0.8h-3.2v0.4
			c0.7,0.9,1.9,2.2,3.5,3.2l-0.6,0.8c-1.6-1.1-2.7-2.5-2.9-2.7v4.5h-1v-4.5c-0.2,0.5-1.2,2.1-2.9,3.5l-0.5-0.8
			c1.9-1.6,3.2-3.8,3.4-4.4C81.6,32.1,78.3,32.1,78.3,32.1z M88.2,26.1L88.2,26.1l-0.1,3h3.2v-3H88.2L88.2,26.1z M91.3,29.9h-3.2
			v2.9h3.2V29.9z M91.3,33.7h-3.2v3.4h3.2V33.7z"/>
		<path class="st1" d="M103.2,25.3v0.8h-6v-0.8H103.2z M102.7,23v0.8h-4.9V23H102.7z M102.7,27.7v0.8h-4.9v-0.8H102.7z M102.7,30.2
			V31h-4.9v-0.8H102.7z M102.7,32.6V38h-4.8v-5.4H102.7z M101.7,33.5h-2.9v3.7h2.9V33.5z M103,36.9c1.2-1.7,1.5-3.5,1.6-4.1l1,0.2
			c-0.3,1.5-0.8,3.1-1.7,4.5L103,36.9z M114.1,29v0.8h-9.8V29h4.4v-3.4h-4.8v-0.8h4.8v-2.4h1.1v2.4h4.8v0.8h-4.8V29H114.1z
			 M107.5,36.6c0,0.4,0.1,0.5,0.7,0.5h2c0.7,0,0.9,0,1-2l1.1,0.2c-0.2,2.2-0.5,2.6-2,2.6h-2.4c-1.4,0-1.4-0.8-1.4-1.3v-4.2h1
			L107.5,36.6L107.5,36.6z M110.1,32.9c-1.1-0.8-2.1-1.2-3.5-1.7l0.5-0.7c1.4,0.4,2.5,0.9,3.6,1.7L110.1,32.9z M113.8,37.1
			c-0.5-2.1-1.2-3.4-1.9-4.5l1-0.4c0.5,0.7,1.3,1.9,2,4.5L113.8,37.1z"/>
		<path class="st1" d="M121.7,24.1v3.8c0,0.2,0,0.5,0.3,0.5h0.5c0.2,0,0.3,0,0.4-0.2c0-0.2,0.1-0.8,0.2-1.7l1,0.2
			c0,0.4,0,0.6-0.1,1.1c1.8-2,2.5-4.8,2.6-5.3l1,0.2c-0.2,0.8-0.5,1.5-1.1,2.8h2.8c0.3-0.7,0.9-2.3,1.1-2.8l1.1,0.2
			c-0.3,0.8-0.9,2-1.2,2.6h3v0.8h-3.2v3h2.9v0.8h-2.9v2.7h2.9v0.8h-2.9V37h3.4v0.8h-8.4v-10c-0.3,0.5-0.4,0.5-0.6,0.8l-0.6-0.7
			c-0.1,0.8-0.2,1.3-1.1,1.3H122c-0.5,0-1.1-0.1-1.1-1v-3.3h-1.5c-0.1,1.4-0.4,3.5-2.4,5.1l-0.8-0.8c1.9-1.4,2.1-2.9,2.2-4.4h-2.1
			V24h2.1c0-0.7,0-1,0-1.7h1c0,1.1,0,1.4,0,1.7h2.3V24.1z M116.2,32.1v-0.8h3.4v-1.5h1v1.5h3.2v0.8h-3.2v0.4
			c0.7,0.9,1.9,2.2,3.5,3.2l-0.6,0.8c-1.6-1.1-2.7-2.5-2.9-2.7v4.5h-1v-4.5c-0.3,0.5-1.3,2.2-2.9,3.6l-0.5-0.8
			c1.9-1.6,3.2-3.8,3.4-4.4L116.2,32.1C116.2,32.2,116.2,32.1,116.2,32.1z M126,26.1L126,26.1l-0.1,2.9h3.2v-3L126,26.1L126,26.1z
			 M129.1,29.9h-3.2v2.9h3.2V29.9z M129.1,33.7h-3.2v3.4h3.2V33.7z"/>
		<path class="st1" d="M141.7,24.3c-1.3,2.2-2.6,4.1-3.7,5.4c1.4-0.1,1.9-0.2,3-0.2c-0.3-0.5-0.5-0.9-0.8-1.4l0.8-0.3
			c0.2,0.3,1.1,1.7,1.6,3.2l-0.8,0.4c-0.2-0.6-0.4-0.9-0.5-1.2c-0.4,0.1-0.9,0.2-2,0.2v7.8h-1v-7.8c-1.7,0.1-2.3,0.1-3,0.2l-0.2-0.9
			c0.8,0,1.2,0,1.7,0c0.7-0.8,0.9-1.1,1.1-1.3c-0.7-0.7-1.5-1.6-2.9-2.5l0.5-0.7c0.5,0.3,0.5,0.4,0.8,0.5c0.8-1,1.5-2.4,2-3.5l1,0.3
			c-0.7,1.4-1.3,2.5-2.3,3.8c0.7,0.6,1.1,1.1,1.4,1.4c0.8-1.3,1.6-2.6,2.3-3.9L141.7,24.3z M135.1,36.6c0.8-1.4,1-3.3,1.1-4.5
			l0.9,0.2c-0.1,1.1-0.5,3.4-1.1,4.8L135.1,36.6z M141.4,35.9c-0.3-1.7-0.6-2.6-1.1-3.8l0.8-0.2c0.5,1,0.9,2.4,1.1,3.8L141.4,35.9z
			 M151.8,23.2c-0.6,0.2-1.5,0.5-3.4,0.8c0,0.3,0,0.8,0,1.7c0,0.2,0,1.3,0.1,2.9h3.9v0.9h-3.8c0.5,6.6,2.1,7.6,2.4,7.6
			c0.5,0,0.8-1.9,0.9-2.6l0.9,0.5c-0.2,1.4-0.7,3.3-1.7,3.3c-0.5,0-0.9-0.5-1.3-0.8c-1.8-2.1-2-5.7-2.2-8h-3.2v7
			c1.2-0.3,1.9-0.5,3.2-0.9v1c-1.5,0.5-3.8,1.1-5.7,1.4l-0.4-0.9c0.6-0.2,1-0.2,1.8-0.4V23.3l1,0.2c1.9,0.1,4.9-0.5,7-1.1
			L151.8,23.2z M144.3,28.6h3.2c-0.1-1.4-0.1-3-0.1-4.4c-1.6,0.2-2.6,0.2-3.1,0.2L144.3,28.6L144.3,28.6z"/>
	</g>
</g>
<g>
	<path class="st1" d="M61.2,24.6c0.1,0.1,0.2,0.2,0.3,0.2l8.6-3.4c0.1-0.1,0.2-0.2,0.2-0.3c-0.2-0.1-0.2-0.2-0.4-0.2l-8.6,3.5
		C61.2,24.4,61.1,24.6,61.2,24.6z"/>
	<path class="st1" d="M62.1,25.3c-0.9-0.1-1.5-0.3-2-0.6c-0.5-0.3-0.1-0.6,0.2-0.8c0.3-0.2,8.4-3.2,8.4-3.2v0.5l0.5-0.1V20l-9.6,3.7
		c-0.2,0-0.2,0.2-0.2,0.3v0.4v15.1c0,0,0.5,1.4,2.7,1.5l9.8-3.8V21.5L62.1,25.3z"/>
</g>
</svg>
