<?xml version="1.0" encoding="utf-8"?>
<!-- Generator: Adobe Illustrator 28.0.0, SVG Export Plug-In . SVG Version: 6.00 Build 0)  -->
<svg version="1.1" id="レイヤー_1" xmlns="http://www.w3.org/2000/svg" xmlns:xlink="http://www.w3.org/1999/xlink" x="0px"
	 y="0px" viewBox="0 0 198.4 85" style="enable-background:new 0 0 198.4 85;" xml:space="preserve">
<style type="text/css">
	.st0{enable-background:new    ;}
	.st1{fill:#333333;}
</style>
<g>
	<g class="st0">
		<path class="st1" d="M59.3,35.3c0.4,0.6,0.5,0.8,0.5,1.3c0,0.9-0.6,1.5-1.1,1.5c-0.4,0-0.6-0.3-1.4-1.6c-0.8-1.2-4.3-7.5-4.5-7.8
			c-0.3-0.4-0.5-0.7-0.7-0.7c-0.3,0-0.5,0.3-0.8,1c-0.9,1.8-2,4.1-2.3,4.6c-0.2,0.3-0.4,0.4-0.7,0.4c-0.6,0-1.1-0.7-1.1-1.4
			c0-0.5,0.1-0.7,0.7-1.5c0.7-1.1,1.3-2.2,2.1-3.8c0.6-1.2,1.1-2,2.1-2c1,0,1.5,0.7,2.6,2.6c2.2,3.8,2.3,4.1,3.1,5.2L59.3,35.3z
			 M57.8,28.2c-0.8,0-1.5-0.9-1.5-2c0-1.1,0.7-2,1.5-2c0.8,0,1.5,0.9,1.5,2C59.3,27.3,58.6,28.2,57.8,28.2z M57.8,25.3
			c-0.4,0-0.7,0.4-0.7,0.9c0,0.5,0.3,0.9,0.7,0.9s0.7-0.4,0.7-0.9C58.5,25.7,58.2,25.3,57.8,25.3z"/>
	</g>
	<g class="st0">
		<path class="st1" d="M60.4,32.5c-0.3-1.4-0.6-2.1-0.8-2.9c-0.1-0.2-0.1-0.4-0.1-0.7c0-0.6,0.5-1,0.9-1c0.6,0,0.9,0.8,1.7,3.7
			c0.1,0.4,0.1,0.6,0.1,0.9c0,0.9-0.7,1.1-1,1.1C60.7,33.7,60.5,33.1,60.4,32.5z M68.8,28.6c0,0.1-0.3,3.5-1.8,6.4
			c-2,3.9-5.3,4.5-5.5,4.5c-0.6,0-0.8-0.8-0.8-1.2c0-0.7,0.3-0.8,1.2-1.2c1.1-0.4,3.5-1.5,4.6-5.8c0.2-0.7,0.2-0.9,0.5-2.7
			c0.1-0.5,0.2-1.1,0.8-1.1c0.1,0,0.2,0,0.3,0.1C68.7,27.8,68.8,28.3,68.8,28.6z M63.4,31.6c-0.3-1.4-0.4-2.1-0.7-3
			c-0.1-0.2-0.1-0.4-0.1-0.6c0-0.6,0.4-0.9,0.9-0.9c0.5,0,0.6,0.4,0.8,0.9c0.3,0.9,0.9,3.4,0.9,3.8c0,1-0.8,1.1-1.1,1.1
			C63.6,32.8,63.5,32.2,63.4,31.6z"/>
	</g>
	<g class="st0">
		<path class="st1" d="M72.6,38.5c0,0.4,0,1.3-0.9,1.3c-0.9,0-1-0.8-1-1.3V24.7c0-0.4,0-1.3,0.9-1.3c0.9,0,1,0.8,1,1.3v3.4
			c1.8,0.7,3.6,1.7,5.3,2.9c1,0.7,1.2,1,1.2,1.6c0,0.6-0.3,1.5-0.9,1.5c-0.3,0-0.6-0.2-1.2-0.7c-0.8-0.6-1.9-1.4-2.7-1.8
			c-0.9-0.5-1.4-0.7-1.7-0.9V38.5z"/>
	</g>
	<g class="st0">
		<path class="st1" d="M84.2,31.3c0,0.5-0.6,3.3-1.2,4.6c-0.4,1.1-0.9,1.8-1.1,2.1c-0.1,0.1-0.3,0.2-0.5,0.2c-0.4,0-1.1-0.5-1.1-1.3
			c0-0.4,0.1-0.5,0.6-1.4c0.3-0.4,0.9-1.7,1.4-4.3c0.1-0.5,0.2-1.1,1-1C83.7,30.4,84.2,30.6,84.2,31.3z M85.3,24.7
			c0-0.5,0.1-1.2,0.9-1.2c0.7,0,0.9,0.4,0.9,1.2v1.8H91c0.2,0,0.9,0,0.9,1.1c0,1.1-0.7,1.1-0.9,1.1h-3.9v9.7c0,0.5-0.1,1.2-0.9,1.2
			c-0.7,0-0.9-0.4-0.9-1.2v-9.7h-3.9c-0.2,0-0.9,0-0.9-1.1c0-1.1,0.7-1.1,0.9-1.1h3.9V24.7z M90.1,31.3c0.5,2.5,1.2,3.8,1.4,4.3
			c0.6,0.9,0.6,1,0.6,1.4c0,0.8-0.7,1.3-1.1,1.3c-0.6,0-1.2-1.4-1.6-2.4c-0.5-1.2-1.1-4-1.1-4.5c0-0.7,0.5-0.9,0.8-1
			C89.9,30.2,90,30.8,90.1,31.3z M89.7,23.8c0-0.1-0.1-0.3-0.1-0.4c0-0.4,0.4-0.5,0.5-0.5c0.3,0,0.4,0.3,0.6,0.9
			c0.2,0.5,0.3,1.2,0.3,1.5c0,0.6-0.4,0.6-0.5,0.6c-0.1,0-0.3,0-0.4-0.4c0-0.1-0.2-0.8-0.2-0.9C89.8,24.3,89.8,24.2,89.7,23.8z
			 M91.3,23.6c0-0.1,0-0.2,0-0.3c0-0.4,0.3-0.5,0.5-0.5c0.3,0,0.4,0.3,0.6,0.9c0.2,0.7,0.3,1.3,0.3,1.5c0,0.5-0.4,0.6-0.5,0.6
			c-0.3,0-0.3-0.2-0.6-1.3C91.5,24.3,91.3,23.7,91.3,23.6z"/>
	</g>
	<path class="st1" d="M96.5,38.5c0,0.4,0,1.3-0.9,1.3c-0.9,0-1-0.8-1-1.3V24.7c0-0.4,0-1.3,0.9-1.3s1,0.8,1,1.3v3.4
		c1.8,0.7,3.6,1.7,5.3,2.9c1,0.7,1.2,1,1.2,1.6c0,0.6-0.3,1.5-0.9,1.5c-0.3,0-0.6-0.2-1.2-0.7c-0.8-0.6-1.9-1.4-2.7-1.8
		c-0.9-0.5-1.4-0.7-1.7-0.9V38.5z"/>
	<g class="st0">
		<path class="st1" d="M107.7,29.3c0,4-0.2,6.3-1.4,8.4c-0.9,1.6-1.3,1.6-1.5,1.6c-0.5,0-1-0.5-1-1.3c0-0.3,0.1-0.6,0.4-1
			c1.4-1.8,1.7-2.9,1.7-7.8v-4.1c0-0.5,0.1-1.1,0.9-1.1c0.6,0,0.9,0.3,0.9,1.1V29.3z M109.5,24.9c0-0.6,0.1-1.1,0.9-1.1
			c0.6,0,0.9,0.3,0.9,1.1v10.9c0,0.3,0,0.5,0.2,0.5c0.4,0,1.7-0.8,2.6-3.2c0.2-0.6,0.3-0.9,0.5-1.9c0.2-0.7,0.5-0.8,0.7-0.8
			c0.3,0,1,0.2,1,1.1c0,0.8-0.6,2.7-1.2,3.9c-1.3,2.6-3.5,3.7-4.5,3.7c-1.2,0-1.2-1.2-1.2-1.6V24.9z"/>
	</g>
	<g class="st0">
		<path class="st1" d="M120.9,24.7c0.3-0.4,1.1-1.3,1.5-1.3c0.1,0,0.3,0.1,0.3,0.3c0,0.1,0,0.2-0.3,0.5c-0.7,0.8-2.9,3.8-2.9,7.7
			c0,4,2.2,6.9,2.9,7.7c0.3,0.3,0.3,0.4,0.3,0.5c0,0.2-0.2,0.3-0.3,0.3c-0.4,0-1.1-0.8-1.5-1.2c-1.4-1.5-2.8-4.6-2.8-7.3
			C118.2,28.9,119.9,25.8,120.9,24.7z"/>
	</g>
	<g class="st0">
		<path class="st1" d="M129.7,26.5c0-0.3,0.1-0.5,0.5-0.5c0.3,0,0.5,0.1,0.5,0.5V27c0,1.2,0.5,2.6,1.5,3.5c0.3,0.2,0.4,0.4,0.4,0.6
			c0,0.3-0.2,0.6-0.5,0.6c-0.2,0-0.4,0-0.9-0.7c-0.5-0.8-0.7-1.5-0.8-1.8c-0.2,0.6-0.4,1.2-0.8,1.7c-0.1,0.2-0.6,0.8-1,0.8
			c-0.2,0-0.4-0.1-0.5-0.4c0,0-0.1,0-0.1,0c-0.3,0-0.4-0.3-0.5-0.5c-0.3,0.1-2.2,0.7-2.4,0.7c-0.3,0-0.4-0.3-0.4-0.5
			c0-0.4,0.3-0.4,0.5-0.5v-3.8c0-0.6,0.1-0.7,0.2-0.9c0,0-0.1,0.1-0.3,0.1c-0.3,0-0.5-0.3-0.5-0.6c0-0.2,0.1-0.3,0.5-0.7
			c0.4-0.3,0.8-0.8,1.1-1.2c0.1-0.2,0.3-0.3,0.6-0.3c0.4,0,0.5,0.1,0.9,0.6c0.1,0.1,0.3,0.4,0.6,0.6c0.3,0.2,0.4,0.3,0.4,0.6
			c0,0.3-0.2,0.6-0.5,0.6c-0.4,0-0.9-0.6-1.2-1c-0.2-0.2-0.2-0.3-0.2-0.3c-0.1,0-0.1,0-0.1,0.1c-0.4,0.6-0.9,1.2-1.3,1.5
			c0.2-0.1,0.5-0.1,0.7-0.1h0.3v-0.3c0-0.2,0.1-0.5,0.5-0.5c0.3,0,0.5,0.2,0.5,0.5v0.3h0.3c0.8,0,0.8,0.5,0.8,0.8
			c0.5-0.8,0.6-1.1,0.9-1.9c0.1-0.2,0.3-1.1,0.3-1.2c0-0.1,0.1-0.3,0.5-0.3c0.1,0,0.6,0,0.6,0.5c0,0.2-0.1,0.6-0.2,0.8h1.3
			c0.5,0,1,0,1,0.8c0,0.3-0.1,0.8-0.4,1.6c-0.2,0.5-0.3,0.8-0.6,0.8c-0.3,0-0.6-0.2-0.6-0.5c0-0.1,0-0.1,0.2-0.6
			c0.1-0.3,0.3-0.7,0.3-0.9c0-0.2-0.1-0.2-0.3-0.2h-1.4c-0.4,1-0.6,1.4-0.9,1.7c-0.1,0.1-0.2,0.2-0.4,0.2c0,0-0.2,0-0.4-0.2v0.8
			c0,0.8-0.2,1-1,1h-1.3v1.1c0.7-0.2,0.7-0.2,1.1-0.3c-0.1-0.2-0.1-0.3-0.1-0.4c0-0.2,0.2-0.4,0.5-0.4c0.3,0,0.3,0.1,0.5,0.4
			c0.3,0.6,0.4,0.7,0.5,1c1-0.8,1.4-2.2,1.4-3.5V26.5z M125.9,27.1h1.4v-0.3c0-0.1-0.1-0.2-0.2-0.2h-1c-0.1,0-0.2,0.1-0.2,0.2V27.1z
			 M127.3,27.8h-1.4v0.5h1.2c0.1,0,0.2-0.1,0.2-0.2V27.8z"/>
		<path class="st1" d="M134.7,29c-0.1,0.1-0.2,0.4-0.3,0.7c-0.3,0.5-0.5,0.6-0.6,0.6c-0.3,0-0.5-0.3-0.5-0.6c0-0.2,0-0.2,0.5-0.8
			c0.1-0.1,0.6-0.8,1.1-1.8h-0.9c-0.4,0-0.5-0.2-0.5-0.5c0-0.5,0.4-0.5,0.5-0.5h0.9v-2.3c0-0.4,0.2-0.6,0.5-0.6
			c0.5,0,0.5,0.4,0.5,0.6V26h0.8c0.3,0,0.5,0.1,0.5,0.5c0,0.5-0.3,0.5-0.5,0.5h-0.8c0.2,0.3,0.6,1,0.7,1.1c0.4,0.5,0.4,0.5,0.4,0.7
			c0,0.3-0.2,0.5-0.5,0.5c-0.2,0-0.4-0.2-0.7-0.8v2.7c0,0.4-0.2,0.6-0.5,0.6c-0.5,0-0.5-0.4-0.5-0.6V29z M134.1,24.1
			c0.1,0.4,0.3,1,0.3,1.2c0,0.4-0.5,0.4-0.5,0.4c-0.3,0-0.3-0.2-0.4-0.5c-0.1-0.2-0.2-0.7-0.3-0.9c0-0.1,0-0.2,0-0.2
			c0-0.3,0.3-0.4,0.5-0.4C134,23.7,134.1,23.8,134.1,24.1z M137.2,24.1c0,0.2-0.2,0.8-0.3,1.2c-0.1,0.4-0.2,0.5-0.4,0.5
			c-0.2,0-0.5-0.1-0.5-0.4c0-0.1,0-0.1,0.2-0.6c0.1-0.2,0.1-0.3,0.2-0.7c0-0.1,0.1-0.4,0.3-0.4C137,23.7,137.2,23.9,137.2,24.1z
			 M140.8,28c0,0,0.1,0,0.1,0c0.4,0,0.4,0.4,0.4,0.6c0,0.2-0.1,0.4-0.4,0.5l-0.4,0.1v2.1c0,0.3-0.1,0.6-0.5,0.6
			c-0.4,0-0.6-0.1-0.6-0.6v-1.9l-2.1,0.4c-0.4,0.1-0.6-0.2-0.6-0.6c0-0.4,0.2-0.5,0.4-0.5l2.2-0.5v-4.5c0-0.3,0.1-0.6,0.5-0.6
			c0.4,0,0.6,0.1,0.6,0.6V28L140.8,28z M138.5,26.5c0.5,0.4,0.6,0.5,0.6,0.7c0,0.3-0.3,0.6-0.6,0.6c-0.1,0-0.2,0-0.6-0.4
			c-0.1-0.1-0.5-0.5-0.6-0.5c-0.1-0.1-0.1-0.2-0.1-0.3c0-0.3,0.2-0.6,0.5-0.6C137.9,26,138.2,26.3,138.5,26.5z M138.8,24.2
			c0.4,0.3,0.5,0.4,0.5,0.7c0,0.3-0.2,0.6-0.5,0.6c-0.2,0-0.2,0-0.6-0.4c-0.1-0.1-0.5-0.4-0.6-0.5c-0.1-0.1-0.1-0.2-0.1-0.3
			c0-0.3,0.3-0.5,0.5-0.5C138.2,23.7,138.6,24,138.8,24.2z"/>
		<path class="st1" d="M146.6,29.1v2.1c0,0.2,0,0.6-0.5,0.6c-0.4,0-0.6-0.1-0.6-0.6v-2.1h-1.8c-0.1,0.7-0.2,1.3-0.5,2
			c-0.3,0.6-0.4,0.7-0.7,0.7c-0.4,0-0.7-0.3-0.7-0.6c0-0.1,0-0.1,0.4-0.9c0.2-0.5,0.4-1.2,0.4-2.4v-3.2c0-0.9,0.4-1.1,1.1-1.1h4.7
			c0.7,0,1.1,0.3,1.1,1.1v6c0,1.1-0.5,1.1-1.5,1.1c-0.5,0-0.9,0-0.9-0.6c0-0.3,0.1-0.6,0.5-0.6c0.1,0,0.4,0,0.5,0
			c0.2,0,0.3-0.1,0.3-0.3v-1.2H146.6z M145.6,25.8v-1.2h-1.5c-0.2,0-0.3,0.1-0.3,0.3v0.9H145.6z M145.6,26.8h-1.8V28h1.8V26.8z
			 M146.6,25.8h1.9v-0.9c0-0.2-0.1-0.3-0.3-0.3h-1.6V25.8z M148.5,26.8h-1.9V28h1.9V26.8z"/>
	</g>
	<g class="st0">
		<path class="st1" d="M132.3,38.6c-0.4,0.7-0.9,1.1-1.5,1.1c-1.1,0-1.7-1.2-1.7-2.6c0-2.8,2-4.2,4.2-4.2c2.7,0,3.7,1.8,3.7,3.8
			c0,0.5,0,2-1.6,3.1c-0.9,0.6-2,0.7-2.1,0.7c-0.6,0-0.6-0.6-0.6-0.6c0-0.5,0.3-0.5,0.6-0.6c0.7-0.1,2.4-0.4,2.4-2.7
			c0-1.5-0.8-2.5-2.1-2.6C133.3,36.3,132.7,37.8,132.3,38.6z M131.4,34.4c-1,0.6-1.3,1.8-1.3,2.7c0,0.9,0.3,1.4,0.7,1.4
			c0.4,0,0.6-0.5,0.9-1.2c0.5-1.3,0.6-2.3,0.8-3.3C132.2,34,131.8,34.1,131.4,34.4z"/>
		<path class="st1" d="M143.4,34.7c0-0.3,0.1-0.6,0.6-0.6c0.5,0,0.6,0.3,0.6,0.9c0,0.4-0.1,1.5-0.1,1.6c0.8,0.4,1.1,0.5,1.1,0.9
			c0,0.3-0.2,0.7-0.5,0.7c-0.2,0-0.2,0-0.8-0.3c-0.5,1.9-1.7,2.8-2.4,2.8c-0.3,0-0.6-0.3-0.6-0.6c0-0.3,0.1-0.4,0.9-0.8
			c0.8-0.5,1-1.6,1-1.9c-0.4-0.1-1.3-0.5-1.9-0.6c-0.2,0.7-0.4,1.4-0.7,2.1c-0.3,0.8-0.7,1.2-1.3,1.2c-0.7,0-1.6-0.6-1.6-1.9
			c0-0.8,0.4-1.9,1.7-2.3c0.5-0.2,1-0.2,1.2-0.2c0-0.1,0.2-0.8,0.2-0.9c0-0.1,0.1-0.5,0.1-0.6c0-0.2-0.1-0.2-0.3-0.2
			c-0.1,0-1.3,0.1-1.6,0.1c-0.2,0-0.6,0-0.6-0.6c0-0.6,0.4-0.6,0.7-0.6c0.6,0,1.5,0,2,0c0.2,0,0.9,0,0.9,0.8c0,0.3-0.1,0.9-0.1,1
			c0,0.2-0.3,1-0.3,1.2c0.2,0,0.7,0.1,1.7,0.4C143.4,35.6,143.4,35.5,143.4,34.7z M139.7,36.8c-0.7,0.3-1,0.8-1,1.4
			c0,0.6,0.4,0.8,0.5,0.8c0.2,0,0.4-0.3,0.6-0.8c0.2-0.5,0.3-0.9,0.5-1.5C140,36.7,139.9,36.7,139.7,36.8z"/>
	</g>
	<g class="st0">
		<path class="st1" d="M153.1,39.3c-0.3,0.4-1.1,1.3-1.5,1.3c-0.1,0-0.3-0.1-0.3-0.3c0-0.1,0-0.2,0.3-0.5c0.7-0.8,2.9-3.8,2.9-7.7
			c0-4-2.2-6.9-2.9-7.7c-0.3-0.3-0.3-0.4-0.3-0.5c0-0.2,0.2-0.3,0.3-0.3c0.4,0,1.1,0.8,1.5,1.2c1.4,1.5,2.8,4.6,2.8,7.3
			C155.8,35.1,154.1,38.2,153.1,39.3z"/>
	</g>
	<path class="st1" d="M168.2,26.5h1.3v7.9H168v-5.3c-0.3,0.2-0.8,0.2-0.8,0.2v-1.6C168.2,27.5,168.2,26.5,168.2,26.5"/>
	<path class="st1" d="M178,32.4l-2.9-5l-1.6,0.9l2.9,5c0.5,0.8,0.6,1.6,0.3,2.1s-1,0.8-2,0.8h-3.3V35l-2.4,2.2l2.4,2.2v-1.3h3.3
		c1.7,0,2.9-0.6,3.6-1.7C178.9,35.3,178.8,33.9,178,32.4"/>
	<path class="st1" d="M162.4,36.2c-1,0-1.7-0.3-2-0.8s-0.2-1.3,0.3-2.1c0,0,1.2-2,1.6-2.8l1.1,0.6l-0.7-3.1l-3.1,1l1.1,0.6l-1.6,2.8
		c-0.8,1.4-0.9,2.8-0.3,3.9c0.6,1.1,1.9,1.7,3.6,1.7h5.7v-1.8L162.4,36.2z"/>
	<path class="st1" d="M173.5,24.6l-1.6-2.8c-0.8-1.4-2-2.2-3.3-2.2s-2.4,0.8-3.3,2.2l-2.9,5l1.6,0.9l2.9-5c0.5-0.8,1.1-1.3,1.7-1.3
		c0.6,0,1.2,0.5,1.7,1.3l1.6,2.8l-1.1,0.6l3.1,1l0.7-3.1L173.5,24.6z"/>
	<path class="st1" d="M165,43.6h0.8c0.9,0,1.1-0.8,1.1-1.1c0-0.7-0.4-1.1-1.1-1.1h-1.6v3.5h0.7v-1.3H165z M165,43v-1h0.6
		c0.4,0,0.6,0.1,0.6,0.5c0,0.2,0,0.5-0.5,0.5H165z"/>
	<polygon class="st1" points="170.1,42 168.2,42 168.2,42.7 169.9,42.7 169.9,43.4 168.2,43.4 168.2,44.2 170.1,44.2 170.1,44.9 
		167.5,44.9 167.5,41.4 170.1,41.4 	"/>
	<polygon class="st1" points="172.2,44.9 171.5,44.9 171.5,42 170.4,42 170.4,41.4 173.3,41.4 173.3,42 172.2,42 	"/>
</g>
</svg>
