<?xml version="1.0" encoding="utf-8"?>
<!-- Generator: Adobe Illustrator 28.0.0, SVG Export Plug-In . SVG Version: 6.00 Build 0)  -->
<svg version="1.1" id="レイヤー_1" xmlns="http://www.w3.org/2000/svg" xmlns:xlink="http://www.w3.org/1999/xlink" x="0px"
	 y="0px" viewBox="0 0 198.4 85" style="enable-background:new 0 0 198.4 85;" xml:space="preserve">
<style type="text/css">
	.st0{enable-background:new    ;}
	.st1{fill:#333333;}
</style>
<g>
	<g class="st0">
		<path class="st1" d="M103.1,30.5v-2.9h-6.3c-0.7,0-1.1-0.3-1.1-1.2c0-1.1,0.9-1.1,1.1-1.1h6.3v-1.5c0-0.7,0.3-1.1,1.3-1.1
			c1.1,0,1.1,0.8,1.1,1.1v1.5h6.3c0.7,0,1.1,0.2,1.1,1.2c0,1.1-0.8,1.1-1.1,1.1h-6.3v2.9h3.7c1.4,0,2.1,0.4,2.1,2.1v4.7
			c0,1.7-0.7,2.1-2.1,2.1h-9.7c-1.4,0-2.1-0.5-2.1-2.1v-4.7c0-1.7,0.7-2.1,2.1-2.1H103.1z M108.9,33.4c0-0.4-0.2-0.6-0.6-0.6h-7.9
			c-0.4,0-0.6,0.2-0.6,0.6v3.2c0,0.4,0.2,0.6,0.6,0.6h7.9c0.4,0,0.6-0.2,0.6-0.6V33.4z"/>
		<path class="st1" d="M129.5,33.6v3.9c0,1.7-0.8,2.1-2.1,2.1h-7.5c-1.4,0-2.1-0.5-2.1-2.1v-1.6c-0.4,0.6-1.6,2.3-2.5,2.3
			c-0.6,0-1.2-0.6-1.2-1.2c0-0.4,0-0.4,1.3-1.7c0.9-0.9,1.7-2.6,2.2-4.4h-2.6c-0.3,0-1-0.1-1-0.9c0-0.7,0.4-0.9,1-0.9h6.4v-0.7H116
			c-0.3,0-0.8,0-0.8-0.8c0-0.7,0.5-0.8,0.8-0.8h5.3v-0.7h-5.9c-0.2,0-1,0-1-0.9c0-0.9,0.7-0.9,1-0.9h2.9c-0.4-0.7-0.4-0.8-0.4-1
			c0-0.6,0.9-0.7,1.3-0.7c0.6,0,0.9,0.2,1.1,0.6c0.1,0.2,0.4,0.8,0.5,1.1h3.3c0.5-1.6,0.9-1.7,1.5-1.7c0.2,0,1.3,0.1,1.3,0.8
			c0,0.2-0.1,0.5-0.4,0.9h2.9c0.2,0,1,0,1,0.9c0,0.9-0.7,0.9-1,0.9h-6v0.7h5.3c0.3,0,0.8,0,0.8,0.8c0,0.7-0.4,0.8-0.8,0.8h-5.3v0.7
			h6.5c0.3,0,0.9,0,0.9,0.9c0,0.7-0.5,0.9-0.9,0.9h-10.3c0,0.1-0.1,0.5-0.2,0.6h7.8C128.7,31.5,129.5,32,129.5,33.6z M119.9,33.9
			h7.3v-0.4c0-0.3-0.2-0.4-0.4-0.4h-6.4c-0.3,0-0.4,0.1-0.4,0.4V33.9z M119.9,35.1v0.8h7.3v-0.8H119.9z M119.9,37.1v0.4
			c0,0.3,0.2,0.5,0.4,0.5h6.4c0.3,0,0.4-0.1,0.4-0.5v-0.4H119.9z"/>
		<path class="st1" d="M133.2,34.7c-0.2,0-1.1,0-1.1-1c0-1,0.9-1,1.1-1h2.1c0-0.8,0-1.2,0.7-1.3c-0.5-0.1-0.6-0.6-0.6-0.9v-1.3
			c-0.6,0.7-1.8,2.1-2.4,2.1c-0.5,0-1-0.5-1-1.2c0-0.5,0.1-0.5,1.1-1.2c0.8-0.5,1.3-1.2,1.5-1.4H133c-0.4,0-0.9-0.1-0.9-0.9
			c0-0.6,0.3-0.9,0.9-0.9h2.4v-2c0-0.3,0-1,0.9-1c0.8,0,1,0.3,1,1v2h2.3c0.3,0,0.9,0.1,0.9,0.9c0,0.8-0.5,0.9-0.9,0.9H138
			c0.5,0.5,1,1,1.5,1.4c0.7,0.5,1,0.7,1,1.2c0,0.5-0.4,1-0.9,1c-0.7,0-1.7-1.3-2.3-2.1v1.4c0,0.5-0.1,0.8-0.6,0.9
			c0.6,0.2,0.6,0.7,0.5,1.3h2.2c0.2,0,1.1,0,1.1,1c0,1-0.9,1-1.1,1h-1.8c0.6,1.1,1.3,1.8,1.4,1.9c0.9,0.8,1,0.9,1,1.3
			c0,0.1,0,0.2-0.1,0.3c0.2-0.1,1.1-0.6,1.3-0.7c0.2-0.1,1.1-0.8,1.3-0.9c0.1-0.1,0.3-0.1,0.5-0.1c0.5,0,1,0.5,1,1
			c0,0.3,0,0.6-1.6,1.6c-0.5,0.3-1.4,0.9-1.8,0.9c-0.6,0-1-0.6-1-1.2c-0.1,0.1-0.3,0.3-0.7,0.3c-0.8,0-1.9-1.7-2.5-2.7
			c-0.9,2.4-2.5,3.5-3.2,3.5s-1.2-0.5-1.2-1.2c0-0.4,0.3-0.6,0.6-0.9c1-0.8,1.8-1.4,2.2-3.1H133.2z M134.2,23.6
			c0,0.1,0.5,0.9,0.5,1.3c0,0.5-0.5,0.8-1.1,0.8c-0.5,0-0.6-0.1-0.9-0.9c-0.3-0.7-0.3-0.8-0.3-0.9c0-0.6,0.7-0.7,1-0.7
			C133.8,23.1,133.9,23.2,134.2,23.6z M140.4,23.8c0,0.1,0,0.3-0.5,1.2c-0.2,0.3-0.4,0.7-0.9,0.7c-0.5,0-1-0.3-1-0.7
			c0-0.2,0.1-0.4,0.4-1c0.4-0.8,0.5-0.9,1-0.9C139.9,23.1,140.4,23.3,140.4,23.8z M141.5,25.3c-0.3,0-1,0-1-1c0-0.9,0.6-1,1-1h6.7
			c0.3,0,1,0,1,1c0,1-0.7,1-1,1h-2.4c-0.1,0.2-0.3,1-0.4,1.1h1.1c1.7,0,2,0.4,2,2v5.6c0,1.6-0.3,2-2,2h-3.4c-1.6,0-2-0.4-2-2v-5.6
			c0-1.6,0.4-2,2-2h0.3c0.2-0.7,0.2-0.7,0.3-1.1H141.5z M143.2,29.2h3.2v-0.7c0-0.3-0.1-0.4-0.5-0.4h-2.4c-0.3,0-0.4,0.2-0.4,0.4
			V29.2z M146.4,30.7h-3.2v1h3.2V30.7z M143.2,33.3V34c0,0.3,0.1,0.4,0.4,0.4h2.4c0.3,0,0.5-0.1,0.5-0.4v-0.8H143.2z M147.3,36.9
			c0.5,0.5,0.9,0.7,1.5,1.1c0.1,0.1,0.4,0.3,0.4,0.7c0,0.6-0.5,1.1-1,1.1c-0.5,0-1.4-0.8-1.9-1.2c-1-0.8-1-1.1-1-1.3
			c0-0.4,0.3-1,1.1-1C146.7,36.3,146.7,36.4,147.3,36.9z"/>
	</g>
	<g>
		<path class="st1" d="M170.4,19.9c0.3,0,0.7,0.1,0.9,0.3l7.1,5c0.2,0.2,0.3,0.5,0.2,0.8l-1.8,5c-0.1,0.3-0.4,0.4-0.6,0.2l-2.6-1.6
			c-0.2-0.2-0.4,0-0.4,0.2l1.5,10.1c0,0.3-0.2,0.5-0.4,0.5h-15.8c-0.3,0-0.5-0.2-0.4-0.5l1.5-10.1c0-0.3-0.1-0.4-0.4-0.2l-2.6,1.6
			c-0.2,0.2-0.5,0.1-0.6-0.2l-1.8-5c-0.1-0.3,0-0.6,0.2-0.8l7.1-5c0.2-0.2,0.7-0.3,0.9-0.3C162.4,19.9,170.4,19.9,170.4,19.9z
			 M169.9,19.9h-0.5c0,0.1,0,0.2,0,0.3c0,0.2-0.1,0.3-0.2,0.5c-0.4,0.6-1.5,1.2-2.7,1.2c-0.8,0-1.6-0.3-2.1-0.6
			c-0.3-0.2-0.5-0.4-0.6-0.6s-0.2-0.4-0.2-0.5c0,0,0-0.1,0-0.3h-0.5c0,0.1,0,0.2,0,0.3c0,0.3,0.1,0.6,0.3,0.8
			c0.5,0.8,1.7,1.4,3.1,1.4c0.9,0,1.8-0.3,2.4-0.7c0.3-0.2,0.6-0.5,0.7-0.7c0.2-0.3,0.3-0.5,0.3-0.8C169.9,20.1,169.9,20,169.9,19.9
			"/>
	</g>
</g>
</svg>
