<?xml version="1.0" encoding="utf-8"?>
<!-- Generator: Adobe Illustrator 28.0.0, SVG Export Plug-In . SVG Version: 6.00 Build 0)  -->
<svg version="1.1" id="レイヤー_1" xmlns="http://www.w3.org/2000/svg" xmlns:xlink="http://www.w3.org/1999/xlink" x="0px"
	 y="0px" viewBox="0 0 198.4 85" style="enable-background:new 0 0 198.4 85;" xml:space="preserve">
<style type="text/css">
	.st0{enable-background:new    ;}
	.st1{fill:#333333;}
</style>
<g>
	<g class="st0">
		<path class="st1" d="M46.8,39.1c0,0.3,0,1.1-0.8,1.1c-0.8,0-0.9-0.5-0.9-1.1v-7.4c-0.1,0.3-0.3,0.5-0.7,0.5
			c-0.5,0-0.9-0.7-0.9-1.3c0-0.4,0.1-0.6,0.4-1.2c1-1.8,1.5-3.8,1.9-5.6c0.1-0.5,0.2-1,0.8-1c0.4,0,0.9,0.2,0.9,0.9
			c0,0.5-0.3,2-0.7,3.5V39.1z M48.1,26.7c-0.3,0-0.8-0.1-0.8-1c0-0.9,0.4-1,0.8-1h3.1V24c0-0.4,0-1,0.8-1c0.7,0,0.9,0.4,0.9,1v0.7
			H56c0.2,0,0.9,0,0.9,1c0,0.9-0.5,1-0.9,1h-3.1v1.1h1.8c1,0,1.6,0.4,1.6,2.1v1.6c0,1.6-0.5,2.1-1.6,2.1h-2
			c-0.1,1.1-0.3,1.9-0.6,2.7c1.4,0.9,2.3,1.1,4,1.5c0.5,0.1,0.7,0.5,0.7,1c0,0.2,0,1.3-0.9,1.3c-0.6,0-3-0.6-4.8-2
			c-1,1.3-2.4,2-3.1,2c-0.7,0-0.9-0.8-0.9-1.2c0-0.7,0.3-0.9,0.6-1c1.3-0.6,1.4-0.6,1.9-1c-0.7-0.7-1.1-1.4-1.2-1.5
			c-0.1-0.2-0.2-0.3-0.2-0.6c0-0.4,0.3-1.1,0.8-1.1c0.3,0,0.4,0.1,0.6,0.4c0.4,0.6,0.7,0.9,1,1.1c0.1-0.3,0.3-0.7,0.4-1.5h-1.6
			c-1.1,0-1.6-0.5-1.6-2.1v-1.6c0-1.6,0.6-2.1,1.6-2.1h1.8v-1.1H48.1z M51.2,29.7h-1.4c-0.3,0-0.5,0.2-0.5,0.6v0.9
			c0,0.4,0.2,0.6,0.5,0.6h1.3c0-1,0-1.3,0-1.8V29.7z M52.9,29.7c0,0.9,0,1.2,0,2.1h1.4c0.3,0,0.5-0.2,0.5-0.6v-0.9
			c0-0.4-0.1-0.6-0.5-0.6H52.9z"/>
		<path class="st1" d="M65.3,34.8v4.2c0,0.5-0.1,1.1-0.8,1.1c-0.6,0-0.9-0.2-0.9-1.1v-4.2h-2.9c-0.1,1.4-0.3,2.6-0.8,4
			c-0.4,1.2-0.7,1.3-1.1,1.3c-0.6,0-1.1-0.6-1.1-1.3c0-0.3,0-0.3,0.6-1.7c0.3-0.9,0.7-2.4,0.7-4.7V26c0-1.7,0.6-2.3,1.7-2.3h7.6
			c1.1,0,1.7,0.5,1.7,2.3V38c0,2.1-0.9,2.1-2.4,2.1c-0.8,0-1.5,0-1.5-1.2c0-0.7,0.2-1.1,0.8-1.1c0.1,0,0.7,0,0.8,0
			c0.3,0,0.4-0.2,0.4-0.7v-2.3H65.3z M63.6,28.3v-2.4h-2.4c-0.3,0-0.5,0.2-0.5,0.6v1.8H63.6z M63.6,30.3h-2.8v2.5h2.8V30.3z
			 M65.3,28.3h3.1v-1.8c0-0.4-0.2-0.6-0.5-0.6h-2.6V28.3z M68.3,30.3h-3.1v2.5h3.1V30.3z"/>
		<path class="st1" d="M73.7,28.8c0.1,0.1,0.7,0.6,0.9,0.9c0.1,0.2,0.2,0.3,0.2,0.6c0,0.5-0.3,1.2-0.9,1.2c-0.3,0-0.5-0.2-0.8-0.6
			c-0.3-0.3-0.6-0.6-0.9-0.9c-0.3-0.3-0.6-0.5-0.6-1c0-0.4,0.3-1,0.8-1.1C72.8,27.9,73.3,28.4,73.7,28.8z M74.6,35.8
			c-0.3,1-0.9,2.7-1.3,3.6c-0.2,0.5-0.5,0.5-0.7,0.5c-0.5,0-1-0.5-1-1.1c0-0.3,0-0.4,0.6-1.6c0.3-0.7,0.7-1.8,1.1-3.1
			c0.2-0.6,0.3-1,0.8-1c0.5,0,0.8,0.5,0.8,0.8C75,34.4,75,34.6,74.6,35.8z M74.3,24.1c0.7,0.6,0.9,0.9,0.9,1.3
			c0,0.5-0.3,1.2-0.8,1.2c-0.3,0-0.3,0-1.1-0.8c-0.2-0.1-0.9-0.8-1.1-1c-0.2-0.2-0.2-0.4-0.2-0.6c0-0.5,0.4-1.1,0.8-1.1
			C73.1,23.1,73.3,23.1,74.3,24.1z M77.7,36.9c-0.2,1.1-0.5,1.9-0.8,2.3c-0.3,0.7-0.6,0.9-1,0.9c-0.3,0-1-0.3-1-1.1
			c0-0.3,0.1-0.4,0.5-1.3c0.8-1.5,0.8-3,0.8-3.6v-1.7c0-0.5,0.1-0.6,0.1-0.7c-0.2,0-0.5,0.1-0.7,0.1c-0.7,0-0.7-1.1-0.7-1.2
			c0-0.8,0.4-0.9,0.8-0.9c1.1-0.2,1.7-0.3,2.7-0.7c-0.6-0.6-1.1-1.4-1.6-2.6H76c-0.2,0-0.8,0-0.8-1c0-1,0.5-1,0.8-1h3.1v-0.6
			c0-0.7,0.6-0.8,0.9-0.8c0.3,0,0.8,0.1,0.8,0.8v0.6H84c0.3,0,0.8,0.1,0.8,1c0,0.9-0.5,1-0.7,1h-0.7c-0.4,0.9-0.9,1.8-1.8,2.7
			c0.7,0.3,1.1,0.4,2.4,0.7c0.5,0.1,0.9,0.3,0.9,1c0,0.3-0.1,1.2-0.8,1.2c-0.1,0-0.3,0-0.4-0.1c0,0.1,0.1,0.2,0.1,0.5v6.7
			c0,0.8-0.3,1.1-0.9,1.1c-0.8,0-0.8-0.8-0.8-1.1v-2.2H77.7z M81.9,32.3c0-0.5,0.1-0.7,0.4-0.8c-1.2-0.4-1.9-0.9-2.4-1.2
			c-1.1,0.7-1.9,1-2.5,1.2c0.5,0.2,0.5,0.5,0.5,0.8H81.9z M81.9,35.1V34h-4c0,0.5,0,0.7,0,1.2H81.9z M78.5,26.4
			c0.4,0.7,0.9,1.3,1.4,1.7c0.7-0.6,1.1-1.1,1.5-1.7H78.5z"/>
		<path class="st1" d="M89.7,27c0,0.3-0.5,4.1-1.4,6.9c-0.2,0.7-0.7,2-1.2,2.4c-0.1,0.1-0.3,0.2-0.5,0.2c-0.6,0-1.1-0.7-1.1-1.3
			c0-0.3,0.1-0.6,0.4-1.2c1.1-2.2,1.4-3.8,1.8-7c0.1-0.8,0.3-1.1,0.9-1.1C88.8,25.9,89.7,25.9,89.7,27z M93.1,37.8
			c0,2.3-0.9,2.3-2.6,2.3c-0.3,0-1.2,0-1.5-0.1c-0.6-0.1-0.7-0.8-0.7-1.2c0-1.2,0.7-1.2,0.9-1.2c0.1,0,1,0,1.2,0
			c0.5,0,0.8,0,0.8-0.8V24.1c0-0.4,0-1.1,0.9-1.1c0.8,0,1,0.3,1,1.1V37.8z M96.6,27.2c0.4,2.7,1,4.9,1.6,6.1
			c0.1,0.2,0.6,1.2,0.6,1.4c0.1,0.2,0.1,0.4,0.1,0.6c0,0.9-0.7,1.3-1.1,1.3c-0.5,0-0.8-0.4-1.2-1.5c-0.9-2-1.3-4.3-1.6-5.5
			c-0.1-0.7-0.4-2-0.4-2.6c0-1,0.9-1.1,1-1.1C96.4,25.9,96.5,26.3,96.6,27.2z"/>
		<path class="st1" d="M107.1,34h3.9c0.2,0,0.8,0,0.8,1c0,1-0.6,1-0.8,1H107v1.5h4.9c0.2,0,0.9,0,0.9,1.1c0,1.1-0.6,1.1-0.9,1.1
			h-11.5c-0.2,0-0.8,0-0.8-1c0-0.8,0.2-1.1,0.8-1.1h4.9V36h-3.9c-0.2,0-0.8,0-0.8-1c0-1,0.6-1,0.8-1h3.9v-0.9
			c-0.1,0.1-0.3,0.1-0.4,0.1c-0.6,0-0.9-0.3-0.9-1.1v-2.7h-1.2c-0.1,2-0.9,4.2-1.8,4.2c-0.4,0-1-0.4-1-1c0-0.3,0.1-0.5,0.5-1.1
			c0.4-0.7,0.6-1.6,0.6-2h-0.9c-0.2,0-0.7,0-0.7-1c0-1,0.5-1,0.7-1h0.9v-1.8h-0.6c-0.5,0-0.7-0.4-0.7-1c0-1,0.5-1,0.8-1h5.5
			c0.2,0,0.8,0,0.8,1c0,0.7-0.3,1-0.7,1h-0.6v1.8h0.8c0.2,0,0.7,0.1,0.7,1c0,0.8-0.3,1-0.7,1h-0.8v2.7c0,0.2,0,0.2,0,0.3
			c0.1-0.1,0.2-0.1,0.5-0.1c0.8,0,0.9,0.5,0.9,1V34z M104,25.6h-1.1v1.8h1.1V25.6z M109.2,30.2c0,0.3,0,1-0.8,1
			c-0.8,0-0.8-0.7-0.8-1v-5.4c0-0.3,0-1,0.8-1c0.8,0,0.8,0.7,0.8,1V30.2z M112.3,31.3c0,1.9-0.8,1.9-1.9,1.9c-0.3,0-0.9,0-1.1-0.1
			c-0.2-0.1-0.6-0.3-0.6-1.1c0-0.9,0.5-1,0.8-1c0.1,0,0.8,0.1,0.9,0c0.2-0.1,0.3-0.3,0.3-0.6v-6.3c0-0.3,0-1.1,0.8-1.1
			c0.8,0,0.8,0.7,0.8,1.1V31.3z"/>
		<path class="st1" d="M122.8,29c0.1,0.8,0.3,1.7,0.5,2.5c0.3-0.2,0.7-0.6,1.2-1.1c0.7-0.7,0.7-0.7,0.9-0.7c0.4,0,0.8,0.5,0.8,1.1
			c0,0.4-0.1,0.5-0.7,1.1c-0.7,0.7-1.2,1.1-1.7,1.4c0.7,1.6,1.5,2.7,2.2,3.4c0.3,0.3,0.6,0.6,0.6,1.1c0,0.6-0.4,1.3-1,1.3
			c-0.2,0-0.4-0.1-0.5-0.3c-0.2-0.2-0.8-0.9-1.4-2c-1.7-3-2.2-6.6-2.4-7.8H121c-0.2,0.2-0.3,0.5-0.8,0.9c0.5,0.8,1.9,2.8,1.9,6.7
			c0,3.4-1.4,3.4-2.7,3.4c-0.2,0-1,0-1.2-0.1c-0.4-0.1-0.5-0.6-0.5-1c0-0.9,0.6-0.9,0.7-0.9c0.2,0,1,0.1,1.2,0.1c0.5,0,1,0,0.9-2.5
			c-2.1,2.2-5.6,3.5-6,3.5c-0.6,0-0.8-0.7-0.8-1.2c0-0.4,0.1-0.7,0.5-0.8c0.2-0.1,1-0.3,1.2-0.4c1.8-0.6,3.4-1.5,4.9-3
			c-0.1-0.4-0.2-0.6-0.2-0.8c-2.2,2.1-5,3-5.3,3c-0.5,0-0.7-0.7-0.7-1.1c0-0.7,0.3-0.8,0.8-0.9c0.2-0.1,2.6-0.7,4.6-2.4
			c-0.1-0.2-0.2-0.3-0.4-0.6c-2.3,1.6-4.1,1.9-4.3,1.9c-0.6,0-0.7-0.7-0.7-1c0-0.7,0.4-0.8,0.8-0.9c0.7-0.1,1.5-0.4,2.8-1.1
			c0.2-0.1,1-0.8,1.2-0.9h-2.3c-0.3,0-0.8-0.1-0.8-0.9c0-0.8,0.5-0.9,0.8-0.9h7.6c0.3,0,0.8,0.1,0.8,0.9c0,0.8-0.5,0.9-0.8,0.9
			H122.8z M124.9,24.4c1.3,0,1.6,0.4,1.6,2.1v1.2c0,0.4,0,1.1-0.8,1.1c-0.6,0-0.9-0.3-0.9-1.1v-0.9c0-0.3-0.1-0.4-0.3-0.4h-8.5
			c-0.2,0-0.3,0.1-0.3,0.4v0.9c0,0.3,0,1.1-0.8,1.1c-0.6,0-0.9-0.3-0.9-1.1v-1.2c0-1.7,0.3-2.1,1.6-2.1h3.8V24
			c0-0.7,0.4-0.9,0.8-0.9c0.5,0,0.9,0.2,0.9,0.9v0.5H124.9z"/>
		<path class="st1" d="M135,29.7c0,0.3,0,1-0.7,1c-0.6,0-0.8-0.3-0.8-1v-2.4H130c-0.3,0-0.5,0.2-0.5,0.6v1.3c0,0.3,0,1-0.8,1
			c-0.6,0-0.9-0.3-0.9-1v-1.1c0-1.8,0.3-2.2,1.7-2.2h3.9v-0.6h-4.2c-0.3,0-0.7,0-0.7-0.9c0-0.7,0.3-0.9,0.7-0.9h10
			c0.4,0,0.7,0.1,0.7,0.9c0,0.6-0.2,0.9-0.7,0.9H135v0.6h3.9c1.4,0,1.7,0.4,1.7,2.2v1.1c0,0.3,0,1-0.8,1c-0.7,0-0.9-0.3-0.9-1V28
			c0-0.4-0.1-0.6-0.5-0.6H135V29.7z M133.2,37.4H130c-1.2,0-1.5-0.6-1.5-2v-2.5c0-1.6,0.5-2,1.5-2h8.1c1,0,1.5,0.5,1.5,2v2.6
			c0,0.2,0,0.4,0,0.7c0.1,0,1.1-0.2,1.1,1c0,0.1,0,1.6-0.4,2.1c-0.3,0.6-0.8,0.6-1.8,0.6h-3.4c-1.6,0-2-0.1-2-2V37.4z M132.6,27.9
			c0.1,0,0.4,0,0.4,0.5c0,0.3-0.1,0.5-0.4,0.5h-2.3c-0.2,0-0.4-0.1-0.4-0.4c0-0.3,0-0.5,0.4-0.5H132.6z M132.6,29.4
			c0.1,0,0.4,0,0.4,0.5c0,0.3-0.1,0.5-0.4,0.5h-2.3c-0.2,0-0.4,0-0.4-0.5c0-0.3,0-0.5,0.4-0.5H132.6z M133.2,35.8v-1h-2.9v0.6
			c0,0.3,0.1,0.4,0.3,0.4H133.2z M133.2,33.4v-1h-2.6c-0.2,0-0.3,0.1-0.3,0.4v0.5H133.2z M134.8,33.4h3v-0.5c0-0.3-0.1-0.4-0.3-0.4
			h-2.7V33.4z M134.8,34.8v1h2.7c0.2,0,0.3-0.2,0.3-0.4v-0.6H134.8z M134.8,37.8c0,0.5,0.3,0.5,0.4,0.5h2.8c0.7,0,0.9,0,1-1.1
			c-0.1,0.1-0.3,0.2-0.9,0.2h-3.3V37.8z M138.1,27.9c0.1,0,0.4,0,0.4,0.4c0,0.3-0.1,0.5-0.4,0.5h-2.3c-0.1,0-0.4,0-0.4-0.4
			c0-0.3,0.1-0.5,0.4-0.5H138.1z M138.1,29.4c0.2,0,0.4,0.1,0.4,0.5c0,0.3-0.1,0.5-0.4,0.5h-2.3c-0.2,0-0.4,0-0.4-0.5
			c0-0.3,0-0.5,0.4-0.5H138.1z"/>
	</g>
	<g>
		<polygon class="st1" points="152.2,37 151,38.7 178.7,38.7 177,37 		"/>
		<path class="st1" d="M152.6,33.5c-0.4,1.5-0.4,2.6-0.4,2.6H177c0,0-1.6-4.1-5.2-7.1c-1.5-2.4-5.1-6.8-10.1-6.7
			c-6.5,0.1-8.5,3.6-9.1,10.5c-0.3-0.1-0.6-0.1-0.9-0.1c-1.1,0.1-1.9,1.3-2.6,2.4c-0.8,1.3-1.6,1.9-2.2,1.9l0,0
			c-0.4,0-0.8-0.3-1.1-0.8l-0.5,0.3c0.5,0.8,1,1.1,1.6,1.1l0,0c1.1,0,2.1-1.2,2.7-2.2c0.6-1,1.3-2.1,2.1-2.2
			C152,33.4,152.3,33.4,152.6,33.5 M161.7,24.5c1.5,0,2.9,0.7,4.1,1.7c-0.7-0.1-1.4-0.2-2.1-0.2c-3.1,0-5.3,0.7-7,1.7
			C157.8,25.8,159.4,24.5,161.7,24.5"/>
	</g>
</g>
</svg>
