<?xml version="1.0" encoding="utf-8"?>
<!-- Generator: Adobe Illustrator 28.0.0, SVG Export Plug-In . SVG Version: 6.00 Build 0)  -->
<svg version="1.1" id="レイヤー_1" xmlns="http://www.w3.org/2000/svg" xmlns:xlink="http://www.w3.org/1999/xlink" x="0px"
	 y="0px" viewBox="0 0 198.4 85" style="enable-background:new 0 0 198.4 85;" xml:space="preserve">
<style type="text/css">
	.st0{enable-background:new    ;}
	.st1{fill:#333333;}
</style>
<g>
	<g class="st0">
		<path class="st1" d="M106.3,24c0.3,0,1.1,0,1.1,1c0,0.8-0.3,1.1-1.1,1.1h-8.2c-0.2,0.4-0.4,0.7-0.7,1.2h5.8c1.5,0,2.2,0.5,2.2,2.3
			v7.1c0,2.2-0.6,2.4-3.1,2.4c-1.3,0-1.5-0.1-1.6-0.1c-0.5-0.1-0.8-0.4-0.8-1.1c0-1,0.7-1,1-1c0.2,0,1.1,0,1.3,0c0.5,0,1,0,1-0.8
			v-0.8H96v2.7c0,0.3,0,1.1-1.1,1.1c-0.8,0-1.2-0.3-1.2-1.1V32c-1.1,1.1-1.6,1.4-2.1,1.4c-0.7,0-1.3-0.7-1.3-1.3
			c0-0.5,0.3-0.8,0.9-1.2c1.3-0.9,3-2.5,4.2-4.7h-3.9c-0.3,0-1.1,0-1.1-1.1c0-1,0.7-1.1,1.1-1.1h4.8c0.1-0.1,0.5-1.3,0.5-1.4
			c0.2-0.4,0.5-0.6,1.1-0.6c0.4,0,1.4,0.1,1.4,0.9c0,0.3-0.1,0.6-0.2,1H106.3z M96,30.6h7.1v-0.8c0-0.4-0.2-0.5-0.5-0.5h-6.1
			c-0.4,0-0.5,0.2-0.5,0.5V30.6z M103.1,32.4H96v1.3h7.1V32.4z"/>
	</g>
	<g class="st0">
		<path class="st1" d="M118.1,26.1h4.1c0.5,0,0.7,0.3,0.7,0.8c0,0.5-0.2,0.8-0.7,0.8h-4.1v0.7h4.4c0.2,0,0.7,0,0.7,0.7
			c0,0.7-0.5,0.7-0.7,0.7h-4.4v0.7h6.5c0.3,0,1,0,1,0.9c0,0.9-0.6,0.9-1,0.9h-15.2c-0.3,0-1,0-1-0.9c0-0.9,0.6-0.9,1-0.9h6.5v-0.7
			h-4.4c-0.2,0-0.7,0-0.7-0.7c0-0.7,0.5-0.7,0.7-0.7h4.4v-0.7h-4c-0.5,0-0.7-0.4-0.7-0.8c0-0.5,0.2-0.8,0.7-0.8h4v-0.4
			c0-0.4,0.2-0.6,0.4-0.7h-4.6c-0.4,0-0.5,0.2-0.5,0.5v0.8c0,0.3,0,1.1-1.1,1.1c-1,0-1.2-0.4-1.2-1.1v-1.1c0-1.6,0.7-2.1,2.1-2.1
			h4.9v-0.5c0-0.7,0.7-0.8,1.1-0.8c0.8,0,1.3,0.1,1.3,0.8v0.5h4.9c1.4,0,2.1,0.5,2.1,2.1v1c0,0.3,0,1.1-1.1,1.1
			c-1,0-1.2-0.5-1.2-1.1v-0.8c0-0.4-0.2-0.5-0.5-0.5h-4.6c0.4,0.2,0.4,0.5,0.4,0.7V26.1z M123.6,36.8c0,1.6-0.7,2.1-2.1,2.1h-9
			c-1.4,0-2.1-0.5-2.1-2.1v-1.5c0-1.7,0.7-2.1,2.1-2.1h9c1.4,0,2.1,0.5,2.1,2.1V36.8z M121.2,35.6c0-0.4-0.2-0.5-0.5-0.5h-7.4
			c-0.3,0-0.5,0.1-0.5,0.5v0.9c0,0.4,0.2,0.5,0.5,0.5h7.4c0.3,0,0.5-0.2,0.5-0.5V35.6z"/>
	</g>
	<g class="st0">
		<path class="st1" d="M140.6,37.7c-0.9,0.2-3.2,0.5-5.8,0.5c-1.5,0-2.6-0.1-3.4-0.2c-1.3-0.2-4.7-0.8-4.7-3.8
			c0-1.8,1.2-3.1,2.1-3.8c0.4-0.3,0.7-0.4,1-0.4c0.9,0,1.3,0.7,1.3,1.1c0,0.4-0.3,0.7-1,1.4c-0.8,0.8-0.9,1.1-0.9,1.5
			c0,1.7,3,1.9,5.1,1.9c1.7,0,3.6-0.2,4.9-0.4c1-0.2,1.1-0.2,1.4-0.2c0.2,0,1.1,0,1.1,1.1C141.7,37.2,141.4,37.5,140.6,37.7z
			 M129.3,26c-0.6,0-1.5,0-1.5-1.2c0-1.2,0.8-1.2,1.6-1.2c0.3,0,2.4,0.1,2.8,0.1c0.7,0,4.5-0.1,5.3-0.1c0.2,0,0.9,0,1.1,0
			c0.7,0,1.5,0.1,1.5,1.1c0,0.7-0.2,0.9-1.5,1.6c-0.5,0.3-2.5,1.6-2.9,1.8c-0.5,0.3-0.8,0.4-1.1,0.4c-0.7,0-1.2-0.5-1.2-1.1
			c0-0.4,0.3-0.7,1-1.1c0.2-0.1,1-0.5,1.1-0.6C133.6,25.8,131.1,26,129.3,26z M137.7,28.4c-0.1-0.1-0.1-0.2-0.1-0.3
			c0-0.4,0.4-0.5,0.7-0.5c0.3,0,0.4,0.1,0.8,0.8c0.1,0.3,0.7,1.3,0.7,1.7c0,0.4-0.5,0.6-0.7,0.6c-0.3,0-0.4-0.2-0.5-0.3
			c-0.1-0.3-0.3-0.7-0.5-0.9C138.1,29.1,137.7,28.5,137.7,28.4z M139.6,27.5c-0.1-0.1-0.1-0.2-0.1-0.4c0-0.3,0.4-0.5,0.7-0.5
			c0.3,0,0.5,0.2,0.8,0.9c0.2,0.4,0.6,1.2,0.6,1.5s-0.3,0.6-0.7,0.6c-0.3,0-0.4-0.2-0.5-0.3c-0.1-0.1-0.4-0.8-0.4-0.9
			C140,28.2,139.7,27.6,139.6,27.5z"/>
	</g>
	<g class="st0">
		<path class="st1" d="M155.9,26.9c0-0.7,0.2-1.3,1.2-1.3c1.1,0,1.3,0.6,1.3,1.7c0,0.8-0.2,2.9-0.2,3.2c1.7,0.7,2.3,1.1,2.3,1.8
			c0,0.6-0.5,1.3-1.1,1.3c-0.3,0-0.5-0.1-1.6-0.7c-1,3.8-3.6,5.6-5,5.6c-0.6,0-1.2-0.6-1.2-1.2c0-0.6,0.2-0.7,1.8-1.6
			c1.7-1,2.1-3.1,2.2-3.8c-0.8-0.3-2.6-0.9-3.9-1.1c-0.4,1.5-0.9,2.9-1.5,4.3c-0.7,1.5-1.5,2.4-2.8,2.4c-1.5,0-3.4-1.3-3.4-3.8
			c0-1.7,0.9-3.8,3.5-4.7c1.1-0.4,2-0.4,2.4-0.4c0.1-0.3,0.4-1.7,0.5-1.8c0.1-0.2,0.2-1,0.2-1.2c0-0.3-0.2-0.5-0.7-0.5
			c-0.1,0-2.8,0.2-3.3,0.2c-0.4,0-1.3,0-1.3-1.1c0-1.2,0.8-1.2,1.5-1.2c1.2,0,3.1-0.1,4.2-0.1c0.4,0,2,0,2,1.5c0,0.7-0.2,1.7-0.3,2
			c-0.1,0.4-0.5,2-0.6,2.3c0.5,0.1,1.5,0.3,3.6,0.9C155.9,28.8,155.9,28.6,155.9,26.9z M148.2,31.1c-1.4,0.5-2,1.6-2,2.8
			c0,1.2,0.8,1.5,1.1,1.5c0.5,0,0.8-0.5,1.3-1.6c0.4-1.1,0.7-1.8,1-2.9C148.8,30.9,148.6,31,148.2,31.1z"/>
	</g>
	<path class="st1" d="M178.6,32.7c0-3.1-0.1-6.8-0.1-9.4l0,0c0-0.9,0-1.4,0-1.4c0-0.7-2.1-1.2-5-1.4c0-0.4,0-0.8,0-0.8
		c0-0.2-0.8-0.4-1.8-0.4s-1.8,0.2-1.8,0.4c0,0,0,0.4,0,0.8c-2.9,0.2-5,0.8-5,1.5c0,0,0,0.5,0,1.4l0,0c0.1,5.1,0.1,14.7,0.2,15.3l0,0
		c0,1,0,1.6,0,1.7c0,0.8,3.1,1.5,6.8,1.4c3.8,0,6.8-0.7,6.8-1.6C178.7,40.1,178.7,36.6,178.6,32.7z M173.2,19.8c0,0.4,0,1.1,0,1.4
		c-0.2,0.1-0.7,0.2-1.4,0.2s-1.3-0.1-1.4-0.2v-1.4H173.2z M165.3,22.5c0.9,0.6,3.5,1,6.5,1s5.6-0.5,6.4-1.1c0,0.3,0,0.8,0,1.4
		c-0.9,0.6-3.4,1.1-6.4,1.1s-5.6-0.4-6.5-1C165.3,23.3,165.3,22.8,165.3,22.5z M168.3,32.6l3.9-6.1l-1.5,5.1h4.7l-6.5,7.7l3.3-6.8
		L168.3,32.6z M171.9,41.5c-3.8,0-6.2-0.6-6.5-1.1l0,0c0-0.1,0-0.6,0-1.3c0.9,0.6,3.5,1,6.5,1s5.6-0.5,6.4-1.1c0,0.7,0,1.2,0,1.3
		C178.3,40.7,176,41.5,171.9,41.5z"/>
</g>
</svg>
