<?xml version="1.0" encoding="utf-8"?>
<!-- Generator: Adobe Illustrator 28.0.0, SVG Export Plug-In . SVG Version: 6.00 Build 0)  -->
<svg version="1.1" id="レイヤー_1" xmlns="http://www.w3.org/2000/svg" xmlns:xlink="http://www.w3.org/1999/xlink" x="0px"
	 y="0px" viewBox="0 0 198.4 85" style="enable-background:new 0 0 198.4 85;" xml:space="preserve">
<style type="text/css">
	.st0{enable-background:new    ;}
	.st1{fill:#333333;}
</style>
<g>
	<g class="st0">
		<path class="st1" d="M51.5,26.2c0,1.1-0.1,3.2-0.3,4.3c-0.1,0.5-0.2,0.9-0.8,0.9c-0.7,0-0.9-0.4-0.9-0.8c0-0.3,0.2-1.6,0.3-1.8
			c0.1-0.5,0.2-3,0.2-3.1c0.1-0.4,0.5-0.5,0.7-0.5C51.5,25.2,51.5,25.7,51.5,26.2z M53.7,30.4c0,0.9,0,1.2-0.1,2
			c0.5,1,0.9,1.5,1.6,2.4c0.1,0.2,0.2,0.4,0.2,0.6c0.1-0.2,0.1-0.2,0.3-0.9c0.1-0.5,0.5-0.5,0.8-0.5c0.1,0,1.1,0,1.1,0.8
			c0,0.5-0.4,1.6-0.9,2.6c-0.5,1.2-0.8,1.5-1.3,1.5c-0.5,0-1.3-0.4-1.3-1c0-0.2,0.1-0.5,0.2-0.6c0.4-0.7,0.5-0.7,0.6-1
			c-0.1,0.1-0.3,0.2-0.6,0.2c-0.6,0-0.7-0.3-1.3-1.6c-0.3,1.4-0.7,2.1-1.3,3.2c-0.2,0.3-0.4,0.8-1.1,0.8c-0.7,0-1.2-0.6-1.2-1.1
			c0-0.1,0-0.3,0.3-0.7c0.7-1.1,1.8-2.8,1.8-6.6v-7.6c0-0.9,0.4-1.1,1-1.1c0.9,0,0.9,0.8,0.9,1.1v2.5c0.1-0.1,0.5-0.7,0.5-0.7
			c0.1-0.1,0.2-0.3,0.5-0.3c0.3,0,0.8,0.4,0.8,0.9c0,0.3-0.2,0.5-0.3,0.7c-0.5,0.7-1.2,1.4-1.4,1.6V30.4z M60.2,27.4
			c-0.4,1.3-1.1,3.2-2.7,5c-0.5,0.6-1.2,1.3-1.7,1.3c-0.6,0-1-0.5-1-1.1c0-0.4,0.2-0.6,0.5-0.8c0.4-0.3,1.1-1,1.7-1.7
			c-0.7-0.5-0.7-0.6-1.2-0.9c-0.2,0.3-0.4,0.5-0.7,0.5c-0.5,0-1.1-0.4-1.1-0.9c0-0.2,0.1-0.3,0.3-0.8c1.1-1.8,1.6-2.9,2.1-5.4
			c0.1-0.4,0.2-0.9,0.9-0.9c0.3,0,1,0.1,1,0.7c0,0.2-0.1,0.5-0.1,0.9h0.9c0.9,0,1.7,0.2,1.7,1.3c0,0.3,0,0.6-0.1,0.8h1.2v-2.7
			c0-0.4,0.1-1,1-1c0.9,0,0.9,0.7,0.9,1v2.7h1.9c0.8,0,1.1,0.3,1.1,1.1c0,0.9-0.8,1-1.1,1h-1.7c0.2,1.2,0.9,2.7,1.8,3.7
			c1.1,1.2,1.1,1.2,1.1,1.5c0,0.6-0.5,1.2-1.1,1.2c-0.5,0-0.9-0.5-1.3-1c-0.9-1.1-1.1-1.9-1.6-3.4c-0.3,1.1-0.6,2.3-1.8,3.6
			c-0.3,0.3-1,1-1.5,1c-0.5,0-1.1-0.5-1.1-1.2c0-0.4,0.2-0.6,0.6-0.9c1.4-1.1,2.3-2.4,2.7-4.5H60.2z M57.8,28.8
			c0.1-0.2,0.2-0.4,0.3-0.8c-0.4-0.3-0.9-0.6-1.3-0.8c-0.1,0.2-0.1,0.3-0.4,0.7C57.2,28.4,57.3,28.5,57.8,28.8z M57.7,25.1
			c-0.1,0.4-0.1,0.4-0.2,0.6c0.4,0.2,0.8,0.5,1.2,0.7c0.1-0.5,0.2-0.8,0.2-1c0-0.2-0.1-0.3-0.4-0.3H57.7z M60,35
			c0.2,1.1,0.2,2.7,0.2,2.8c0,0.5-0.2,1-1,1c-1,0-1-0.5-1-0.8s0-1.4,0-1.6c0-0.2,0-1.2,0-1.4c0.1-0.6,0.7-0.6,0.8-0.6
			C59.7,34.3,60,34.4,60,35z M62.8,35.4c0.1,0.7,0.4,1.9,0.4,2.5c0,0.2,0,0.4-0.2,0.6c-0.2,0.1-0.5,0.2-0.7,0.2
			c-0.8,0-0.9-0.5-0.9-1c-0.1-1-0.1-1.1-0.3-2C61,35,61,35,61,34.9c0-0.2,0.1-0.7,1-0.7C62.6,34.2,62.7,34.7,62.8,35.4z M65.9,35.6
			c0.3,0.7,0.7,1.6,0.7,2.2c0,0.8-0.7,0.9-1.1,0.9c-0.7,0-0.7-0.2-1.1-1.4c0-0.1-0.3-0.9-0.8-2.1c-0.1-0.1-0.1-0.3-0.1-0.5
			c0-0.7,0.8-0.8,1-0.8C65.1,33.9,65.2,34.1,65.9,35.6z M65.9,23.1c0.3,0.5,0.5,1,0.5,1.3c0,0.4-0.5,0.7-0.9,0.7S65,25,64.7,24.4
			c-0.1-0.2-0.5-1-0.6-1.1c-0.1-0.1-0.1-0.3-0.1-0.5c0-0.3,0.3-0.7,0.8-0.7C65.3,22.1,65.4,22.3,65.9,23.1z"/>
		<path class="st1" d="M76,37.4c0,1.1-1.1,1.1-1.4,1.1c-1,0-1.1-0.7-1.2-1.4c-0.3-2.2-0.5-2.7-1.7-7.7c-0.3,0.1-1.3,0.6-1.5,0.7
			c-0.3,0.1-0.6,0.3-0.9,0.3c-0.8,0-1.1-0.8-1.1-1.3c0-0.4,0.1-0.7,0.6-0.9c0.5-0.3,1.5-0.6,2.4-1c-0.1-0.5-0.6-2-0.7-2.3
			c-0.1-0.4-0.2-0.7-0.2-0.9c0-1,1.1-1.1,1.3-1.1c0.7,0,0.9,0.4,1.1,0.7c0.1,0.3,0.2,0.5,0.8,2.8c0.9-0.3,1.9-0.7,2.7-0.9
			c-0.2-0.4-0.5-1.1-0.7-1.7c-0.1-0.2-0.1-0.3-0.1-0.5c0-0.8,0.8-1,1.2-1c0.9,0,1.1,0.5,2,2.6c0.5-0.1,1-0.1,1.5-0.1
			c2.8,0,4.5,1.8,4.5,4.5c0,1.6-0.5,3.2-1.7,4.2c-1,0.8-2.2,1-3.4,1c-0.8,0-2.2-0.1-2.2-1.3c0-0.8,0.5-1.1,1-1.1
			c0.2,0,1.1,0.1,1.3,0.1c2.1,0,2.7-1.6,2.7-2.8c0-0.6-0.1-1.3-0.5-1.8c-0.4-0.5-1.2-0.7-1.7-0.7c-0.3,0-0.5,0-0.6,0
			c0.2,0.6,0.4,1.4,0.4,1.8c0,0.7-0.5,1.1-1.3,1.1c-0.7,0-0.9-0.3-1-0.8c-0.1-0.3-0.4-1.4-0.5-1.6c-0.9,0.3-1.5,0.5-2.8,1
			C75.2,33.5,76,36.6,76,37.4z"/>
	</g>
	<g class="st0">
		<path class="st1" d="M91.3,32.7c0,2.5,0.5,3.1,4,3.1c1.4,0,2.5-0.1,3.7-0.3c0.2,0,0.6-0.1,1.1-0.1c0.8,0,1,0.7,1,1.1
			c0,0.9-0.6,1.1-1,1.1c-0.8,0.2-2.9,0.3-4.5,0.3c-3.6,0-5.5-0.5-6.2-2.5c-0.3-0.8-0.3-2.7-0.3-2.8v-4.1c-0.3,0-1.5,0.1-1.8,0.1
			s-1.2,0-1.2-1.1c0-1.1,0.8-1.1,1.2-1.1c0.5,0,1.3,0,1.7-0.1v-2.6c0-0.5,0.1-1.2,1.2-1.2c1,0,1.2,0.5,1.2,1.2l0,2.5
			c2.7-0.1,3-0.1,5.8-0.2c0-0.4-0.1-2.1-0.1-2.5c0-0.6,0-1.4,1.2-1.4c0.8,0,1.1,0.3,1.2,1c0,0.3,0.1,2.4,0.1,2.8c0.8,0,1.6,0,1.9,0
			c0.4,0,1.2,0,1.2,1.1c0,1-0.6,1.1-1.2,1.1c0,0-1.7,0-1.9,0c0,1.5,0,3.5-0.5,4.4c-0.5,1-1.8,1.1-2.4,1.1c-1,0-2.1-0.3-2.8-0.6
			c-0.6-0.3-0.7-0.7-0.7-1c0-0.7,0.5-1.1,1-1.1c0.2,0,0.3,0,1,0.3c0.6,0.2,1,0.2,1.2,0.2c0.5,0,0.8-0.2,0.9-1c0-0.2,0-1.9,0.1-2.3
			c-2.7,0.1-3,0.1-5.9,0.2L91.3,32.7z"/>
	</g>
	<g class="st0">
		<path class="st1" d="M113.8,27.7c3.8,0,5.5,2.3,5.5,5c0,1.4-0.5,3.8-3.3,4.9c-1.3,0.5-2.6,0.7-4,0.7c-2.2,0-3.2-0.4-3.9-0.9
			c-0.8-0.5-1.3-1.3-1.3-2.2c0-2.2,2-3.1,3.8-3.1c0.9,0,3.6,0.1,3.6,3.1c0,0.4,0,0.5-0.1,0.9c2.1-0.5,2.7-2,2.7-3.1
			c0-0.9-0.4-1.9-1.1-2.4c-0.8-0.6-1.9-0.7-2.8-0.7c-2.6,0-4.5,1.2-6.1,2.6c-1.2,1.1-1.2,1.1-1.6,1.1c-0.7,0-1.3-0.6-1.3-1.3
			c0-0.5,0.1-0.6,1.6-1.7c2.2-1.6,6.1-4.5,7.3-5.7c-0.4,0-5.2,0.3-5.9,0.3c-0.4,0-1.2,0-1.2-1.2c0-1.1,0.9-1.1,1.3-1.1
			c1,0,5.4-0.1,6.3-0.1c0.2,0,1.3-0.1,1.9-0.1c0.7,0,1.5,0.1,1.5,1.2c0,0.8-0.2,1-2.2,2.3c-1.5,0.9-2.2,1.6-2.7,2
			C112.1,28,112.7,27.7,113.8,27.7z M112.3,35.5c0-1.4-1.1-1.5-1.7-1.5c-0.9,0-1.7,0.5-1.7,1.2c0,0.8,1.2,1.2,2.4,1.2
			c0.3,0,0.5,0,0.8-0.1C112.2,36,112.3,35.8,112.3,35.5z"/>
	</g>
	<g class="st0">
		<path class="st1" d="M135,37.4c-0.9,0.2-3.2,0.5-5.8,0.5c-1.5,0-2.6-0.1-3.4-0.2c-1.3-0.2-4.7-0.8-4.7-3.8c0-1.8,1.2-3.1,2.1-3.8
			c0.4-0.3,0.7-0.4,1-0.4c0.9,0,1.3,0.7,1.3,1.1c0,0.4-0.3,0.7-1,1.4c-0.8,0.8-0.9,1.1-0.9,1.5c0,1.7,3,1.9,5.1,1.9
			c1.7,0,3.6-0.2,4.9-0.4c1-0.2,1.1-0.2,1.4-0.2c0.2,0,1.1,0,1.1,1.1C136.1,36.9,135.8,37.2,135,37.4z M123.7,25.7
			c-0.6,0-1.5,0-1.5-1.2c0-1.2,0.8-1.2,1.6-1.2c0.3,0,2.4,0.1,2.8,0.1c0.7,0,4.5-0.1,5.3-0.1c0.2,0,0.9,0,1.1,0
			c0.7,0,1.5,0.1,1.5,1.1c0,0.7-0.2,0.9-1.5,1.6c-0.5,0.3-2.5,1.6-2.9,1.8c-0.5,0.3-0.8,0.4-1.1,0.4c-0.7,0-1.2-0.5-1.2-1.1
			c0-0.4,0.3-0.7,1-1.1c0.2-0.1,1-0.5,1.1-0.6C128.1,25.5,125.6,25.7,123.7,25.7z M132.1,28.1c-0.1-0.1-0.1-0.2-0.1-0.3
			c0-0.4,0.4-0.5,0.7-0.5c0.3,0,0.4,0.1,0.8,0.8c0.1,0.3,0.7,1.3,0.7,1.7c0,0.4-0.5,0.6-0.7,0.6c-0.3,0-0.4-0.2-0.5-0.3
			c-0.1-0.3-0.3-0.7-0.5-0.9C132.5,28.8,132.2,28.2,132.1,28.1z M134.1,27.2c-0.1-0.1-0.1-0.2-0.1-0.4c0-0.3,0.4-0.5,0.7-0.5
			c0.3,0,0.5,0.2,0.8,0.9c0.2,0.4,0.6,1.2,0.6,1.5s-0.3,0.6-0.7,0.6c-0.3,0-0.4-0.2-0.5-0.3c-0.1-0.1-0.4-0.8-0.4-0.9
			C134.4,27.9,134.1,27.3,134.1,27.2z"/>
	</g>
	<g class="st0">
		<path class="st1" d="M150.4,26.6c0-0.7,0.2-1.3,1.2-1.3c1.1,0,1.3,0.6,1.3,1.7c0,0.8-0.2,2.9-0.2,3.2c1.7,0.7,2.3,1.1,2.3,1.8
			c0,0.6-0.5,1.3-1.1,1.3c-0.3,0-0.5-0.1-1.6-0.7c-1,3.8-3.6,5.6-5,5.6c-0.6,0-1.2-0.6-1.2-1.2c0-0.6,0.2-0.7,1.8-1.6
			c1.7-1,2.1-3.1,2.2-3.8c-0.8-0.3-2.6-0.9-3.9-1.1c-0.4,1.5-0.9,2.9-1.5,4.3c-0.7,1.5-1.5,2.4-2.8,2.4c-1.5,0-3.4-1.3-3.4-3.8
			c0-1.7,0.9-3.8,3.5-4.7c1.1-0.4,2-0.4,2.4-0.4c0.1-0.3,0.4-1.7,0.5-1.8c0.1-0.2,0.2-1,0.2-1.2c0-0.3-0.2-0.5-0.7-0.5
			c-0.1,0-2.8,0.2-3.3,0.2c-0.4,0-1.3,0-1.3-1.1c0-1.2,0.8-1.2,1.5-1.2c1.2,0,3.1-0.1,4.2-0.1c0.4,0,2,0,2,1.5c0,0.7-0.2,1.7-0.3,2
			c-0.1,0.4-0.5,2-0.6,2.3c0.5,0.1,1.5,0.3,3.6,0.9C150.4,28.5,150.4,28.3,150.4,26.6z M142.7,30.8c-1.4,0.5-2,1.6-2,2.8
			c0,1.2,0.8,1.5,1.1,1.5c0.5,0,0.8-0.5,1.3-1.6c0.4-1.1,0.7-1.8,1-2.9C143.3,30.6,143,30.7,142.7,30.8z"/>
	</g>
	<g>
		<path class="st1" d="M169.5,38.7c-8.7-1.1-5.1-8.4-0.5-13.4c3.6,1.8,4.1,6.4,4.2,7.3c0,0,1.4-1.3,1.6-2
			C177.2,33.6,175.1,38.7,169.5,38.7 M176.3,22.6c0,0,0.3,2.8-0.3,4.8c-1.7-0.6-4-7.6-4.4-9.9c-6.2,3.1-7.9,10.4-8,12
			c0,0-1.4-2.5-1.6-3.7c-4.2,5.3-1.8,14.3,8,14.2C179.2,40.2,180.8,29.2,176.3,22.6"/>
		<path class="st1" d="M172.3,35.5c0,1.9-1.2,2.9-2.6,2.9c-1.5,0-2.6-1-2.6-2.9s2.6-3.9,2.6-3.9S172.3,33.6,172.3,35.5"/>
	</g>
</g>
</svg>
