<?xml version="1.0" encoding="utf-8"?>
<!-- Generator: Adobe Illustrator 28.0.0, SVG Export Plug-In . SVG Version: 6.00 Build 0)  -->
<svg version="1.1" id="レイヤー_1" xmlns="http://www.w3.org/2000/svg" xmlns:xlink="http://www.w3.org/1999/xlink" x="0px"
	 y="0px" viewBox="0 0 198.4 85" style="enable-background:new 0 0 198.4 85;" xml:space="preserve">
<style type="text/css">
	.st0{enable-background:new    ;}
	.st1{fill:#333333;}
</style>
<g>
	<g class="st0">
		<path class="st1" d="M45.3,27.2c0,1.1-0.1,3.2-0.3,4.3c-0.1,0.5-0.2,0.9-0.7,0.9c-0.6,0-0.8-0.4-0.8-0.8c0-0.3,0.2-1.6,0.2-1.8
			c0-0.5,0.2-3,0.2-3.1c0.1-0.4,0.4-0.5,0.6-0.5C45.3,26.1,45.3,26.6,45.3,27.2z M47.3,31.3c0,0.9,0,1.2-0.1,2
			c0.5,1,0.7,1.5,1.4,2.4c0.1,0.2,0.2,0.4,0.2,0.6c0.1-0.2,0.1-0.2,0.3-0.9c0.1-0.5,0.5-0.5,0.7-0.5c0.1,0,0.9,0,0.9,0.8
			c0,0.5-0.4,1.6-0.8,2.6c-0.5,1.2-0.7,1.5-1.1,1.5c-0.5,0-1.1-0.4-1.1-1c0-0.2,0.1-0.5,0.2-0.6c0.4-0.7,0.4-0.7,0.5-1
			c-0.1,0.1-0.3,0.2-0.5,0.2c-0.5,0-0.6-0.3-1.1-1.6c-0.3,1.4-0.6,2.1-1.1,3.2c-0.2,0.3-0.4,0.8-0.9,0.8c-0.6,0-1.1-0.6-1.1-1.1
			c0-0.1,0-0.3,0.3-0.7c0.6-1.1,1.6-2.8,1.6-6.6v-7.6c0-0.9,0.3-1.1,0.9-1.1c0.8,0,0.8,0.8,0.8,1.1v2.5c0.1-0.1,0.4-0.7,0.4-0.7
			c0-0.1,0.2-0.3,0.4-0.3c0.3,0,0.7,0.4,0.7,0.9c0,0.3-0.1,0.5-0.3,0.7c-0.5,0.7-1,1.4-1.2,1.6V31.3z M52.9,28.4
			c-0.3,1.3-0.9,3.2-2.3,5c-0.4,0.6-1,1.3-1.5,1.3c-0.5,0-0.9-0.5-0.9-1.1c0-0.4,0.2-0.6,0.4-0.8c0.3-0.3,1-1,1.5-1.7
			c-0.6-0.5-0.6-0.6-1.1-0.9c-0.2,0.3-0.3,0.5-0.6,0.5c-0.4,0-0.9-0.4-0.9-0.9c0-0.2,0.1-0.3,0.3-0.8c1-1.8,1.4-2.9,1.8-5.4
			c0.1-0.4,0.1-0.9,0.8-0.9c0.3,0,0.8,0.1,0.8,0.7c0,0.2,0,0.5-0.1,0.9h0.8c0.8,0,1.5,0.2,1.5,1.3c0,0.3,0,0.6,0,0.8h1.1v-2.7
			c0-0.4,0.1-1,0.9-1c0.8,0,0.8,0.7,0.8,1v2.7h1.6c0.7,0,0.9,0.3,0.9,1.1c0,0.9-0.7,1-0.9,1h-1.5c0.2,1.2,0.8,2.7,1.6,3.7
			c1,1.2,1,1.2,1,1.5c0,0.6-0.5,1.2-1,1.2c-0.5,0-0.8-0.5-1.1-1c-0.8-1.1-1-1.9-1.4-3.4c-0.3,1.1-0.6,2.3-1.6,3.6
			c-0.2,0.3-0.9,1-1.3,1c-0.4,0-1-0.5-1-1.2c0-0.4,0.2-0.6,0.5-0.9c1.2-1.1,2-2.4,2.4-4.5H52.9z M50.8,29.8c0.1-0.2,0.2-0.4,0.3-0.8
			c-0.3-0.3-0.8-0.6-1.1-0.8c-0.1,0.2-0.1,0.3-0.3,0.7C50.3,29.3,50.4,29.4,50.8,29.8z M50.7,26c-0.1,0.4-0.1,0.4-0.2,0.6
			c0.3,0.2,0.7,0.5,1,0.7c0.1-0.5,0.2-0.8,0.2-1c0-0.2-0.1-0.3-0.3-0.3H50.7z M52.8,35.9c0.2,1.1,0.2,2.7,0.2,2.8c0,0.5-0.2,1-0.9,1
			c-0.8,0-0.8-0.5-0.8-0.8c0-0.3,0-1.4,0-1.6c0-0.2,0-1.2,0-1.4c0.1-0.6,0.6-0.6,0.7-0.6C52.5,35.3,52.7,35.4,52.8,35.9z M55.2,36.3
			c0.1,0.7,0.3,1.9,0.3,2.5c0,0.2,0,0.4-0.2,0.6c-0.2,0.1-0.4,0.2-0.6,0.2c-0.7,0-0.7-0.5-0.8-1c-0.1-1-0.1-1.1-0.2-2
			c-0.1-0.7-0.1-0.8-0.1-0.9c0-0.2,0.1-0.7,0.9-0.7C55,35.2,55.1,35.7,55.2,36.3z M57.9,36.6c0.3,0.7,0.6,1.6,0.6,2.2
			c0,0.8-0.6,0.9-1,0.9c-0.6,0-0.6-0.2-0.9-1.4c0-0.1-0.3-0.9-0.7-2.1c0-0.1-0.1-0.3-0.1-0.5c0-0.7,0.7-0.8,0.9-0.8
			C57.2,34.8,57.3,35,57.9,36.6z M57.9,24.1c0.2,0.5,0.5,1,0.5,1.3c0,0.4-0.4,0.7-0.8,0.7c-0.4,0-0.4-0.1-0.7-0.8
			c-0.1-0.2-0.4-1-0.5-1.1c-0.1-0.1-0.1-0.3-0.1-0.5c0-0.3,0.3-0.7,0.7-0.7C57.3,23,57.5,23.3,57.9,24.1z"/>
		<path class="st1" d="M66.7,38.3c0,1.1-0.9,1.1-1.2,1.1c-0.9,0-1-0.7-1.1-1.4c-0.3-2.2-0.4-2.7-1.5-7.7c-0.2,0.1-1.2,0.6-1.3,0.7
			c-0.3,0.1-0.5,0.3-0.8,0.3c-0.7,0-0.9-0.8-0.9-1.3c0-0.4,0.1-0.7,0.6-0.9c0.5-0.3,1.3-0.6,2.1-1c-0.1-0.5-0.5-2-0.6-2.3
			c-0.1-0.4-0.2-0.7-0.2-0.9c0-1,0.9-1.1,1.1-1.1c0.6,0,0.8,0.4,0.9,0.7c0.1,0.3,0.2,0.5,0.7,2.8c0.8-0.3,1.7-0.7,2.3-0.9
			c-0.1-0.4-0.4-1.1-0.6-1.7c-0.1-0.2-0.1-0.3-0.1-0.5c0-0.8,0.7-1,1-1c0.7,0,1,0.5,1.7,2.6c0.4-0.1,0.9-0.1,1.3-0.1
			c2.4,0,3.9,1.8,3.9,4.5c0,1.6-0.4,3.2-1.5,4.2c-0.9,0.8-1.9,1-3,1c-0.7,0-1.9-0.1-1.9-1.3c0-0.8,0.5-1.1,0.9-1.1
			c0.2,0,0.9,0.1,1.1,0.1c1.9,0,2.4-1.6,2.4-2.8c0-0.6-0.1-1.3-0.5-1.8c-0.4-0.5-1-0.7-1.5-0.7c-0.2,0-0.4,0-0.6,0
			c0.2,0.6,0.4,1.4,0.4,1.8c0,0.7-0.5,1.1-1.1,1.1c-0.6,0-0.7-0.3-0.9-0.8c-0.1-0.3-0.3-1.4-0.4-1.6c-0.8,0.3-1.3,0.5-2.5,1
			C66,34.5,66.7,37.6,66.7,38.3z"/>
		<path class="st1" d="M80,33.7c0,2.5,0.4,3.1,3.5,3.1c1.2,0,2.2-0.1,3.2-0.3c0.2,0,0.6-0.1,0.9-0.1c0.7,0,0.9,0.7,0.9,1.1
			c0,0.9-0.5,1.1-0.8,1.1c-0.7,0.2-2.5,0.3-4,0.3c-3.1,0-4.8-0.5-5.4-2.5C78,35.6,78,33.7,78,33.7v-4.1c-0.2,0-1.3,0.1-1.5,0.1
			c-0.2,0-1,0-1-1.1c0-1.1,0.7-1.1,1.1-1.1c0.4,0,1.1,0,1.5-0.1v-2.6c0-0.5,0.1-1.2,1-1.2c0.9,0,1,0.5,1,1.3l0,2.5
			c2.4-0.1,2.7-0.1,5.1-0.2c0-0.4,0-2.1,0-2.5c0-0.6,0-1.4,1-1.4c0.7,0,1,0.3,1.1,1c0,0.3,0,2.4,0,2.8c0.7,0,1.4,0,1.7,0
			c0.4,0,1.1,0,1.1,1.1c0,1-0.6,1.1-1.1,1.1c0,0-1.5,0-1.7,0c0,1.5,0,3.5-0.4,4.4c-0.5,1-1.6,1.1-2.1,1.1c-0.9,0-1.9-0.3-2.5-0.6
			c-0.6-0.3-0.6-0.7-0.6-1c0-0.7,0.4-1.1,0.9-1.1c0.2,0,0.3,0,0.9,0.3c0.5,0.2,0.9,0.2,1,0.2c0.5,0,0.7-0.2,0.8-1c0-0.2,0-1.9,0-2.3
			c-2.3,0.1-2.6,0.1-5.1,0.2L80,33.7z"/>
	</g>
	<g class="st0">
		<path class="st1" d="M93.7,35.2c-0.3,0.5-0.5,0.9-1,0.9c-0.6,0-1.1-0.5-1.1-1.1c0-0.4,0.1-0.6,1.2-2.7c0.6-1.3,1.1-2.9,1.5-4.3
			c-0.5,0-1.9,0-2.1,0c-0.3-0.1-0.6-0.4-0.6-1.1c0-0.9,0.6-1.1,0.8-1.1c0.1,0,2.2-0.1,2.5-0.1c0.1-0.3,0.3-1.6,0.3-1.9
			c0.1-0.4,0.4-0.7,0.9-0.7c0.2,0,1.1,0,1.1,1c0,0.4-0.1,0.9-0.3,1.5c0.1,0,1.5-0.1,1.5-0.1c0.3,0,1,0,1,1.1c0,1.1-0.7,1.1-1.1,1.1
			c-0.4,0-1.3,0.1-2.1,0.1C95.8,29.8,95.1,32.5,93.7,35.2z M100.1,29.5c0-0.5,0.1-1.2,1-1.2c0.6,0,1,0.3,1,1.1l0.2,3.7
			c0.9,0.5,1.7,1.1,2.4,1.8c0.4,0.4,0.6,0.8,0.6,1.2c0,0.6-0.4,1.2-1,1.2c-0.3,0-0.5-0.2-1.1-0.8c-0.6-0.6-0.7-0.6-1-0.9
			c0,0.7,0,1.2-0.3,1.8c-0.8,1.8-2.6,1.8-3.1,1.8c-2.8,0-3.9-1.8-3.9-3.4c0-1.5,0.9-3.6,4.1-3.6c0.5,0,0.9,0.1,1.2,0.1L100.1,29.5z
			 M98.9,34.2c-0.8,0-2.1,0.2-2.1,1.6c0,1.5,1.6,1.5,1.9,1.5c1.7,0,1.7-1.3,1.7-2.8C100.1,34.4,99.7,34.2,98.9,34.2z M101,24.1
			c0.6,0,2.4,1.1,3.7,2.3c0.5,0.4,0.7,0.8,0.7,1.3c0,0.7-0.6,1.2-1,1.2c-0.4,0-0.6-0.2-0.9-0.6c-1-1-1.2-1.1-2.9-2.2
			c-0.2-0.1-0.6-0.4-0.6-0.9c0-0.3,0.1-0.5,0.2-0.6C100.3,24.5,100.5,24.1,101,24.1z"/>
	</g>
	<g class="st0">
		<path class="st1" d="M109.6,25c0,0.2-0.1,1.2-0.1,1.4c0,0.5-0.2,2.1-0.2,3.6c0,1.6,0.2,4.3,0.8,5.5c0.2,0.3,0.5,0.6,0.9,0.6
			c0.8,0,1.4-1.1,1.7-2.3c0.3-0.9,0.3-1.2,1-1.2c0.6,0,1.1,0.4,1.1,1.1c0,0.8-0.4,1.8-0.9,2.8c-0.5,1.1-1.4,2.4-3,2.4
			c-3.7,0-3.7-7.2-3.7-9.2c0-1.5,0.1-4.5,0.2-5c0.2-0.8,0.7-0.8,1.1-0.8C109.3,23.9,109.6,24.3,109.6,25z M118.8,36.2
			c0-3,0-5.5-0.7-7.5c-0.5-1.3-1.3-1.4-1.9-1.5c-0.4-0.1-1-0.1-1-1.2c0-0.3,0.1-1.2,1.1-1.2c0.6,0,2.5,0.3,3.5,2.3
			c0.9,1.8,1.2,5.3,1.2,8.6c0,0.8,0,1.7-1.1,1.7C118.8,37.6,118.8,36.7,118.8,36.2z"/>
	</g>
	<g class="st0">
		<path class="st1" d="M134.5,38.4c-0.8,0.2-2.8,0.5-5.1,0.5c-1.3,0-2.3-0.1-3-0.2c-1.1-0.2-4.1-0.8-4.1-3.8c0-1.8,1.1-3.1,1.8-3.8
			c0.4-0.3,0.6-0.4,0.9-0.4c0.7,0,1.1,0.7,1.1,1.1c0,0.4-0.3,0.7-0.9,1.4c-0.7,0.8-0.8,1.1-0.8,1.5c0,1.7,2.6,1.9,4.5,1.9
			c1.5,0,3.1-0.2,4.3-0.4c0.9-0.2,1-0.2,1.2-0.2c0.2,0,1,0,1,1.1C135.5,37.9,135.2,38.2,134.5,38.4z M124.7,26.6
			c-0.5,0-1.3,0-1.3-1.2c0-1.2,0.7-1.2,1.4-1.2c0.2,0,2.1,0.1,2.5,0.1c0.6,0,3.9-0.1,4.6-0.1c0.2,0,0.8,0,0.9,0
			c0.6,0,1.3,0.1,1.3,1.1c0,0.7-0.2,0.9-1.3,1.6c-0.4,0.3-2.2,1.6-2.5,1.8c-0.4,0.3-0.7,0.4-1,0.4c-0.6,0-1-0.5-1-1.1
			c0-0.4,0.2-0.7,0.9-1.1c0.1-0.1,0.8-0.5,1-0.6C128.5,26.5,126.3,26.6,124.7,26.6z M132,29c0-0.1-0.1-0.2-0.1-0.3
			c0-0.4,0.3-0.5,0.6-0.5c0.2,0,0.4,0.1,0.7,0.8c0.1,0.3,0.6,1.3,0.6,1.6c0,0.4-0.4,0.6-0.6,0.6c-0.2,0-0.3-0.2-0.4-0.3
			c-0.1-0.3-0.3-0.7-0.4-0.9C132.3,29.7,132.1,29.1,132,29z M133.7,28.2c0-0.1-0.1-0.2-0.1-0.4c0-0.3,0.3-0.5,0.6-0.5
			c0.2,0,0.4,0.2,0.7,0.9c0.2,0.4,0.5,1.2,0.5,1.5c0,0.4-0.3,0.6-0.6,0.6c-0.2,0-0.4-0.2-0.4-0.3c-0.1-0.1-0.3-0.8-0.4-0.9
			C134,28.9,133.7,28.3,133.7,28.2z"/>
	</g>
	<g class="st0">
		<path class="st1" d="M147.9,27.5c0-0.7,0.2-1.3,1.1-1.3c1,0,1.2,0.6,1.2,1.7c0,0.8-0.2,2.9-0.2,3.2c1.5,0.7,2,1.1,2,1.8
			c0,0.6-0.4,1.3-1,1.3c-0.3,0-0.4-0.1-1.4-0.7c-0.9,3.8-3.1,5.6-4.3,5.6c-0.5,0-1-0.6-1-1.2c0-0.6,0.2-0.7,1.5-1.6
			c1.5-1,1.8-3.1,1.9-3.8c-0.7-0.3-2.3-0.9-3.4-1.1c-0.3,1.5-0.8,2.9-1.3,4.3c-0.6,1.5-1.3,2.4-2.4,2.4c-1.3,0-2.9-1.3-2.9-3.8
			c0-1.7,0.7-3.8,3-4.7c0.9-0.4,1.7-0.4,2.1-0.4c0-0.3,0.4-1.6,0.4-1.8c0-0.2,0.2-1,0.2-1.2c0-0.3-0.2-0.5-0.6-0.5
			c-0.1,0-2.4,0.2-2.9,0.2c-0.3,0-1.1,0-1.1-1.1c0-1.2,0.7-1.2,1.3-1.2c1,0,2.7-0.1,3.7-0.1c0.3,0,1.7,0,1.7,1.5
			c0,0.7-0.2,1.7-0.3,2c-0.1,0.4-0.5,2-0.5,2.3c0.4,0.1,1.3,0.3,3.1,0.9C147.9,29.4,147.9,29.3,147.9,27.5z M141.2,31.8
			c-1.2,0.5-1.8,1.6-1.8,2.8c0,1.2,0.7,1.5,0.9,1.5c0.4,0,0.7-0.5,1.1-1.6c0.4-1.1,0.6-1.8,0.8-2.9
			C141.7,31.6,141.5,31.6,141.2,31.8z"/>
	</g>
	<path class="st1" d="M164.5,37.4c0.4,1,1.3,1.5,2.3,1.5c1.4,0,2.6-1,2.6-2.9c0-0.8-0.5-1.7-1.1-2.4L164.5,37.4z"/>
	
		<rect x="151.6" y="29.8" transform="matrix(0.7071 -0.7071 0.7071 0.7071 26.4932 127.1462)" class="st1" width="30.3" height="3.6"/>
	<path class="st1" d="M161.7,33.1c0.6-2.3,2.5-5,4.5-7.2c0.6,0.3,1.1,0.7,1.6,1.1l2.8-2.8c-0.9-2.1-1.6-4.6-1.8-5.7
		c-6.1,3.1-7.7,10.2-7.8,11.8c0,0-1.4-2.4-1.6-3.6c-2.3,2.8-2.6,6.7-0.9,9.7L161.7,33.1z"/>
	<path class="st1" d="M170.1,31.8c0.1,0.6,0.2,1.1,0.2,1.3c0,0,1.4-1.3,1.5-2c2.4,3,0.4,8-5.1,8c-1.3-0.2-2.3-0.5-3-0.8l-1.4,1.4
		c1.4,0.6,3,1,4.9,1c7.6,0,9.9-7.5,7.9-13.7L170.1,31.8z"/>
</g>
</svg>
