<?xml version="1.0" encoding="utf-8"?>
<!-- Generator: Adobe Illustrator 28.0.0, SVG Export Plug-In . SVG Version: 6.00 Build 0)  -->
<svg version="1.1" id="レイヤー_1" xmlns="http://www.w3.org/2000/svg" xmlns:xlink="http://www.w3.org/1999/xlink" x="0px"
	 y="0px" viewBox="0 0 198.4 85" style="enable-background:new 0 0 198.4 85;" xml:space="preserve">
<style type="text/css">
	.st0{enable-background:new    ;}
	.st1{fill:#333333;}
</style>
<g>
	<g class="st0">
		<path class="st1" d="M87.1,31.9C85.6,32,85.3,32,85.2,32c-0.2,0-0.9,0-0.9-1c0-0.5,0.2-0.7,0.4-0.8c0.2-0.1,0.3-0.1,1.2-0.1
			c0.1-0.2,0.7-0.9,0.8-1c-0.4-0.6-0.9-1.2-1.5-1.7c-0.7-0.7-0.8-0.8-0.8-1.2c0-0.4,0.3-1.1,1-1.1c0.3,0,0.4,0.1,0.5,0.1
			c0.4-0.7,0.5-0.8,1.1-2c0.2-0.4,0.4-0.8,0.9-0.8c0.6,0,1.2,0.4,1.2,0.9c0,0.6-1.3,2.5-1.8,3.2c0.3,0.3,0.3,0.4,0.6,0.7
			c0.5-0.8,1-1.5,1.5-2.4c0.2-0.4,0.4-0.7,0.8-0.7c0.4,0,1.3,0.3,1.3,1c0,0.8-2.9,4.4-3.2,4.8c0.4,0,0.5,0,1.6-0.1
			c-0.2-0.5-0.3-0.8-0.3-1c0-0.4,0.5-0.7,0.9-0.7c0.5,0,0.6,0.3,0.9,1.1c0.3,0.8,0.8,2,0.8,2.4c0,0.7-0.7,0.8-0.9,0.8
			c-0.5,0-0.6-0.3-0.8-0.9c-0.2,0-0.8,0.1-1.3,0.2v6.9c0,0.6-0.2,1-1,1c-0.9,0-0.9-0.7-0.9-1V31.9z M86.6,33.7
			c0,0.7-0.3,4.1-0.7,4.5c-0.1,0.1-0.4,0.2-0.5,0.2c-0.2,0-1,0-1-0.9c0-0.3,0.3-1.5,0.3-1.8c0.1-0.8,0.2-1.3,0.2-2
			c0.1-0.7,0.3-0.8,0.8-0.8C86.6,32.8,86.6,33.4,86.6,33.7z M91.2,34c0.3,1.2,0.4,2.1,0.4,2.3c0,0.7-0.8,0.8-0.9,0.8
			c-0.6,0-0.6-0.3-0.7-1.2c-0.1-0.4-0.4-2.5-0.4-2.6c0-0.5,0.4-0.7,0.9-0.7C90.9,32.7,91,32.9,91.2,34z M98.3,30.6
			c0.1,1.9,0.2,3.6,0.7,5.1c0,0.1,0.2,0.8,0.5,0.8c0.1,0,0.2,0,0.5-0.7c0.3-0.7,0.3-0.8,0.7-0.8c0.4,0,0.9,0.3,0.9,1.1
			c0,0.3-0.2,1-0.5,1.8c-0.2,0.5-0.7,1.5-1.8,1.5c-1.2,0-1.8-1.3-2-1.7c-0.9-2-1-4.9-1.1-7.1h-2v5.8c0.1,0,0.1,0,0.2,0
			c0.3-0.1,1.3-0.3,1.5-0.3c0.7,0,0.7,0.9,0.7,1c0,0.8-0.6,1-1.1,1.1c-0.3,0.1-3.4,0.9-4,0.9c-0.6,0-0.9-0.6-0.9-1.2
			c0-0.8,0.4-0.8,1.5-1.1V25.2c0-1.6,0.6-1.8,2.3-1.9c1.1-0.1,2.3-0.2,3.2-0.4c0.3,0,1.7-0.3,2-0.3c0.9,0,1,1,1,1.2
			c0,0.3-0.1,0.8-0.6,0.9c-0.3,0.1-0.9,0.2-1.9,0.3c0,1.2,0,2.4,0,3.6h2.1c0.4,0,1,0.1,1,1.1c0,1-0.7,1-1,1H98.3z M94.3,28.6h1.9
			c0-0.2,0-1.5,0-1.8c0-0.3,0-0.5,0-1.5c-0.5,0-1.4,0.1-1.5,0.1c-0.4,0.1-0.4,0.4-0.4,0.7V28.6z"/>
	</g>
	<g class="st0">
		<path class="st1" d="M109.3,24.7c0,0.3-0.4,7.2-3.2,11.8c-0.9,1.5-1.3,1.8-1.9,1.8c-0.6,0-1.3-0.6-1.3-1.2c0-0.5,0.2-0.8,0.5-1.1
			c2.6-3.6,3.1-7.4,3.5-11.3c0.1-0.5,0.2-1.3,1.4-1.1C109.2,23.7,109.3,24.3,109.3,24.7z M114.9,24.7c0.4,3.7,0.9,7.7,3.6,11.3
			c0.3,0.4,0.5,0.7,0.5,1.1c0,0.7-0.8,1.3-1.3,1.3c-0.6,0-1-0.4-1.9-1.8c-2.8-4.5-3.2-11.5-3.2-11.8c0-0.3,0-1,1-1.1
			C114.7,23.4,114.9,24.2,114.9,24.7z M117.6,26.3c-1.1,0-2-0.9-2-2c0-1.1,0.9-2,2-2c1.1,0,2,0.9,2,2
			C119.5,25.4,118.6,26.3,117.6,26.3z M117.6,23.4c-0.5,0-0.9,0.4-0.9,0.9c0,0.5,0.4,0.9,0.9,0.9c0.5,0,0.9-0.4,0.9-0.9
			C118.5,23.8,118.1,23.4,117.6,23.4z"/>
	</g>
	<g class="st0">
		<path class="st1" d="M120.1,31.8c-0.4-1.4-0.7-2.1-1.1-2.9c-0.1-0.2-0.2-0.4-0.2-0.7c0-0.6,0.7-1,1.2-1c0.9,0,1.2,0.8,2.2,3.7
			c0.1,0.4,0.2,0.6,0.2,0.9c0,0.9-0.9,1.1-1.3,1.1C120.5,33,120.3,32.5,120.1,31.8z M131.4,28c0,0.1-0.4,3.5-2.4,6.4
			c-2.7,3.9-7.1,4.5-7.4,4.5c-0.8,0-1.1-0.8-1.1-1.2c0-0.7,0.4-0.8,1.6-1.2c1.5-0.4,4.7-1.5,6.2-5.8c0.3-0.7,0.3-0.9,0.7-2.7
			c0.1-0.5,0.3-1.1,1.1-1.1c0.1,0,0.2,0,0.4,0.1C131.3,27.1,131.4,27.6,131.4,28z M124.1,31c-0.3-1.4-0.6-2.1-0.9-3
			c-0.1-0.2-0.1-0.4-0.1-0.6c0-0.6,0.6-0.9,1.2-0.9c0.7,0,0.9,0.4,1.1,0.9c0.4,0.9,1.1,3.4,1.1,3.8c0,1-1,1.1-1.4,1.1
			C124.4,32.2,124.2,31.5,124.1,31z"/>
	</g>
	<g class="st0">
		<path class="st1" d="M146.2,25.4c1.3,0,1.8,0.7,1.8,1.6c0,0.7-0.7,5.7-4.9,9c-2.9,2.3-6.8,3-7.3,3c-1.1,0-1.2-1-1.2-1.3
			c0-0.8,0.3-0.9,1.7-1.2c3-0.7,6.1-1.9,8-5.6c0.5-0.9,1-2.4,1-2.9c0-0.3-0.2-0.3-0.7-0.3h-5.3c-0.9,1.2-3.2,3.8-4.4,3.8
			c-0.6,0-1.2-0.6-1.2-1.2c0-0.5,0.1-0.6,1-1.2c2.1-1.6,3.5-3.8,3.8-4.4c0.7-1.3,0.8-1.7,1.6-1.7c0.5,0,1.3,0.3,1.3,0.9
			c0,0.3-0.1,0.6-0.6,1.6H146.2z"/>
	</g>
	<g>
		<path class="st1" d="M165.1,37h3.8l-3.3-1.2l1.9-1.4h6.3l-6,4.9L165.1,37z M153,37h3.2l4.2,3.4h7.9l8.6-6.9h-9.6l-2.6,2l-6.8-2.5
			L153,37z"/>
		<path class="st1" d="M175.4,23.5c-2.7-3.3-6.6-3.2-6.6-3.2s-4,0-5.9,0c-7.9-0.4-9.7,6.5-9.7,6.5h7c1.5-3.8,5.1-4.7,5.1-4.7
			c0.8,0.2,2.3,1.5,2.3,1.5h-3.2l7.7,4.2l6.6-4.3H175.4z M159.4,25.9h-4.9c3.3-6.1,9.3-4.4,9.3-4.4
			C160.8,22.9,159.4,25.9,159.4,25.9"/>
		<path class="st1" d="M174,29.3h2c0,0-0.3,2.1-3.7,2.3l0.4,0.8c0,0,2-0.3,3.1-1.1s1.4-1.6,1.6-2.7h-2.6l0.3-0.5l-1.1-0.2
			c0,0-0.8,1.4-2,1.9l0.6,0.6C172.6,30.4,173.4,30,174,29.3"/>
		<path class="st1" d="M168.5,29.1l0.7-0.2c0,0,0.5,0.8,0.5,1.3l-0.8,0.1C168.9,30.3,168.9,29.9,168.5,29.1"/>
		<path class="st1" d="M167,29.4l0.7-0.2c0,0,0.5,0.8,0.6,1.3l-0.9,0.1C167.4,30.6,167.4,30.2,167,29.4"/>
		<path class="st1" d="M170.7,29l0.9,0.2c0,0-0.3,2.8-3.7,3.2l-0.5-0.6C167.4,31.8,170.4,31.6,170.7,29"/>
		<path class="st1" d="M166.5,27.7c-0.4,0-0.7,0.2-0.7,0.6c0,0.3,0.3,0.6,0.7,0.6s0.7-0.2,0.7-0.6C167.2,28,166.9,27.7,166.5,27.7
			 M166.5,28.5c-0.1,0-0.3-0.1-0.3-0.2s0.1-0.2,0.3-0.2s0.3,0.1,0.3,0.2S166.6,28.5,166.5,28.5"/>
		<path class="st1" d="M164.6,28.3l0.9-0.1c0,0,0.3,2.2,1.5,3.5l-0.9,0.5C166.1,32.2,164.7,30.9,164.6,28.3"/>
		<path class="st1" d="M162.4,28.2l1,0.1c0,0,0,2.8-1.4,4l-0.9-0.6C161.1,31.7,162.3,30.8,162.4,28.2"/>
		<path class="st1" d="M154.8,30.7h0.7c0,0-0.1,1.5-0.2,1.7l-0.7-0.4C154.6,32,154.8,31.8,154.8,30.7"/>
		<path class="st1" d="M160.3,31.1c0,0-0.1,0.3-0.3,0.3c-0.3,0-0.3-1.3-0.3-1.3h0.9v-0.7h-0.9v-0.8c0.1,0,0.9-0.1,0.9-0.1l-0.3-0.7
			c-1.2,0.2-2.9,0.3-2.9,0.3v2l-0.4-0.6l-0.6,0.2l0.2,0.3h-0.5c0.2-0.1,1.2-1.2,1.2-1.2c-0.1-0.1-0.8-0.3-0.8-0.3l-0.5,0.7l-0.2-0.2
			c0.3-0.2,0.7-0.9,0.7-0.9l-0.8-0.2c-0.1,0.3-0.5,0.7-0.5,0.7l-0.2-0.1l-0.4,0.6l0.8,0.7l-0.2,0.3h-0.5v0.6h1v2h0.8l0.1-2.1h0.4
			l0.1,0.2l0.5-0.1v1.2h-0.2l-0.2-1l-0.4,0.1l0.1,1h0.4l0.1,0.6c0.8,0,1.7-0.3,1.7-0.3l-0.1-0.6l-0.5,0.1v-1.5h0.6
			c0.1,1.5,0.4,2.4,1.1,2.4c0.7,0,0.8-0.8,0.8-0.8L160.3,31.1z M158.8,29.4h-0.5v-0.8h0.5V29.4z"/>
		<path class="st1" d="M154.8,30.7h0.7c0,0-0.1,1.5-0.2,1.7l-0.7-0.4C154.6,32,154.8,31.8,154.8,30.7"/>
	</g>
</g>
</svg>
