<?xml version="1.0" encoding="utf-8"?>
<!-- Generator: Adobe Illustrator 28.0.0, SVG Export Plug-In . SVG Version: 6.00 Build 0)  -->
<svg version="1.1" id="レイヤー_1" xmlns="http://www.w3.org/2000/svg" xmlns:xlink="http://www.w3.org/1999/xlink" x="0px"
	 y="0px" viewBox="0 0 198.4 85" style="enable-background:new 0 0 198.4 85;" xml:space="preserve">
<style type="text/css">
	.st0{enable-background:new    ;}
	.st1{fill:#333333;}
	.st2{fill:none;}
</style>
<g>
	<g>
		<g class="st0">
			<path class="st1" d="M81.2,33.6h-3.6c-2,0-2.5-0.4-2.5-2.1v-1.3c0-0.3,0-0.9,0.1-1.3c-0.3,0.2-0.8,0.2-0.9,0.2
				c-0.9,0-1.4-0.3-1.4-1.1v-1.4c0-1.6,0.8-2.1,2.4-2.1h0.3c-1.1-1.6-1.1-1.6-1.1-1.9c0-0.6,0.8-0.9,1.5-0.9c0.5,0,0.8,0.1,1.5,1.2
				c0.1,0.2,0.7,1,0.7,1.4c0,0.1,0,0.1,0,0.2h3.3c0-0.1-0.6-1.1-0.7-1.3c-0.3-0.6-0.4-0.6-0.4-0.9c0-0.9,1.4-0.9,1.5-0.9
				c0.6,0,0.9,0.3,1.2,0.7c0.2,0.3,0.9,1.3,0.9,1.9c0,0.2-0.1,0.4-0.1,0.5h2.4c0.2-0.4,1.2-1.9,1.3-2.2c0.2-0.3,0.4-0.6,1.1-0.6
				c0.9,0,1.5,0.5,1.5,1c0,0.3-0.4,0.8-0.6,1.1c-0.4,0.6-0.5,0.6-0.6,0.8h0.8c2,0,2,1.6,2,2.1V28c0,0.3,0,1.1-1.2,1.1
				c-0.1,0-0.8,0-1.1-0.2c0.1,0.3,0.2,0.6,0.2,1.3v1.3c0,1.7-0.5,2.1-2.5,2.1h-3.6v2.2c0.6,0,2.6-0.1,3.1-0.1c0.2,0,0.3,0,0.4,0
				c-0.5-0.4-0.8-0.7-0.8-1.1c0-0.6,0.8-1,1.4-1c0.4,0,0.7,0.1,2.4,1.4c2.1,1.7,2.1,2,2.1,2.3c0,0.6-0.7,1.1-1.4,1.1
				c-0.4,0-0.7-0.1-0.8-0.3c-0.2-0.2-0.5-0.5-0.7-0.7c-6.2,0.4-13.8,0.6-15,0.6c-0.8,0-1.6,0-1.6-1.1s0.9-1.1,2.4-1.1
				c2,0,4.1,0,6.1-0.1V33.6z M75.6,28c0,0.2,0,0.3-0.1,0.4c0.3-0.2,0.5-0.4,2-0.4h3.6v-0.6c0-0.4,0.2-0.8,1.3-0.8
				c0.8,0,1.2,0.3,1.2,0.8V28h3.6c1.4,0,1.7,0.2,2,0.4c0-0.1,0-0.2,0-0.4v-1c0-0.4-0.3-0.5-0.6-0.5H76.2c-0.4,0-0.6,0.2-0.6,0.5V28z
				 M81.2,29.9h-3c-0.4,0-0.6,0.2-0.6,0.5v0.9c0,0.3,0.1,0.5,0.6,0.5h3V29.9z M83.7,29.9v1.9h2.9c0.4,0,0.6-0.2,0.6-0.5v-0.9
				c0-0.4-0.3-0.5-0.6-0.5H83.7z"/>
			<path class="st1" d="M107,35.4c0,0.6,0.5,0.6,1.3,0.6c0.5,0,1.3,0,1.5,0c0.5-0.1,0.6-0.5,0.7-1.7c0.1-0.7,0.1-1.3,1.3-1.3
				c1.4,0,1.4,0.8,1.4,1.2c0,0.9-0.2,2.6-0.9,3.4c-0.6,0.7-1.5,0.7-3.7,0.7c-2.2,0-2.3,0-2.6-0.1c-1.5-0.2-1.8-1.1-1.8-2.2v-6.1
				h-2.2c0,1.6-0.2,4.2-2.1,6.1c-1.7,1.7-4.1,2.4-4.9,2.4c-0.8,0-1.4-0.7-1.4-1.4c0-0.7,0.4-0.8,1.7-1.2c3.1-1,4.1-2.5,4.1-6h-4.8
				c-0.4,0-1.2,0-1.2-1.1c0-0.9,0.7-1.1,1.2-1.1h7.3v-5.1c0-0.3,0-1.1,1.3-1.1c1.4,0,1.4,0.7,1.4,1.1v5.1h7.4c0.3,0,1.2,0,1.2,1
				c0,0.8-0.4,1.1-1.2,1.1H107V35.4z M96.8,25.9c-0.2-0.3-1.1-1.4-1.2-1.7c-0.2-0.3-0.3-0.4-0.3-0.7c0-0.6,0.8-1,1.5-1
				c0.6,0,0.9,0,2.8,2.6c0.5,0.6,0.5,0.9,0.5,1.1c0,0.8-1.1,1.1-1.5,1.1C97.8,27.3,97.7,27.1,96.8,25.9z M107,26.3
				c0-0.3,0-0.4,0.7-1.2c0.5-0.5,1.1-1.5,1.6-2.1c0.2-0.3,0.5-0.6,1.1-0.6c0.8,0,1.6,0.5,1.6,1.1c0,0.5-1,1.7-1.5,2.3
				c-1.2,1.4-1.4,1.4-2.1,1.4C107.9,27.3,107,27,107,26.3z"/>
			<path class="st1" d="M117.3,26.2c0,1.2-0.2,2.9-0.5,3.9c-0.1,0.7-0.3,1-1.1,1c-0.1,0-1.2,0-1.2-0.8c0-0.3,0.3-1.5,0.4-1.8
				c0.2-0.9,0.2-1.3,0.3-2.6c0-0.7,0.4-0.9,1.1-0.9C117.3,25,117.3,25.6,117.3,26.2z M118.1,22.7c0-0.4,0.1-1.1,1.2-1.1
				c0.9,0,1.4,0.3,1.4,1.1v3.4c0.2-0.2,0.9-0.9,1.1-1c0.2-0.2,0.5-0.5,1-0.5c0.7,0,1.2,0.6,1.2,1.1c0,0.4-0.3,0.8-1.2,1.5
				c-0.5,0.4-1.1,0.9-2,1.6c0,1.4-0.1,2-0.2,2.4c0.5,1.2,1.2,2.2,2.2,3.2c1.2,1.2,1.3,1.2,1.3,1.6c0,0.6-0.7,1.1-1.4,1.1
				c-0.6,0-0.9-0.3-1.3-0.8c-0.3-0.4-1-1.3-1.4-2.1c-1,2.8-2.4,4.4-3.5,4.4c-0.6,0-1.4-0.5-1.4-1.2c0-0.4,0.2-0.6,0.5-1
				c2-2.2,2.7-4.4,2.7-7.9V22.7z M123.5,24.4c-0.4,0-1.3-0.1-1.3-1c0-0.8,0.3-1.2,1.3-1.2h9.7c0.4,0,1.3,0,1.3,1
				c0,0.8-0.3,1.2-1.3,1.2h-1.3v11.9c0,0.5,0,1.3-0.8,1.8c-0.4,0.2-0.7,0.3-3.4,0.3c-0.8,0-1.9,0-2.3-0.1c-0.7-0.2-0.8-0.9-0.8-1.2
				c0-1.2,1-1.2,1.5-1.2c0.3,0,1.7,0,2,0c1,0,1-0.2,1-0.8V24.4H123.5z"/>
		</g>
		<g class="st0">
			<path class="st1" d="M75.8,52c-0.5,1-0.9,1.6-1.2,2c-0.2,0.3-0.5,0.5-0.9,0.5c-0.6,0-1.3-0.5-1.3-1.2c0-0.4,0.1-0.5,1.1-1.5
				c0.7-0.7,1.5-1.9,2.3-3.6h-2c-0.5,0-1.2-0.1-1.2-1c0-1,0.9-1,1.2-1h2.1v-4.6c0-0.7,0.4-1,1.3-1c1.1,0,1.1,0.7,1.1,1v4.6H80
				c0.3,0,1.2,0,1.2,1c0,1-0.9,1-1.2,1h-1.8c0.7,1.2,1.8,2.4,2.1,2.7c0.8,0.8,0.9,0.9,0.9,1.3c0,0.5-0.5,1.1-1.1,1.1
				c-0.6,0-1.1-0.6-1.9-2.1v5.5c0,0.7-0.3,1-1.3,1c-1.2,0-1.2-0.7-1.2-1V52z M74.9,42.9c0.1,0.3,0.5,1.6,0.5,2
				c0,0.6-0.8,0.8-1.2,0.8c-0.7,0-0.8-0.3-1-1.1c-0.2-0.7-0.2-0.9-0.5-1.7c-0.1-0.2-0.1-0.4-0.1-0.6c0-0.5,0.8-0.7,1.2-0.7
				C74.4,41.6,74.5,41.7,74.9,42.9z M80.6,44.8c-0.2,0.6-0.4,0.9-1,0.9c-0.4,0-1.1-0.1-1.1-0.8c0-0.2,0.2-0.6,0.3-1.1
				c0.1-0.3,0.5-1.7,0.6-1.9c0.1-0.2,0.2-0.4,0.8-0.4c0.1,0,1.2,0,1.2,0.8C81.4,42.6,81,43.9,80.6,44.8z M81.7,43.3
				c0-1.5,0.7-2.1,2.4-2.1h4.4c1.7,0,2.4,0.5,2.4,2.1v11.6h0.5c0.8,0,1,0.7,1,1c0,1.1-0.8,1.1-1.2,1.1H80.7c-0.4,0-1.1-0.2-1.1-1.1
				c0-0.8,0.6-1.1,1.1-1.1h1V43.3z M84.3,45.8h4.1v-1.9c0-0.4-0.2-0.6-0.7-0.6H85c-0.5,0-0.7,0.2-0.7,0.6V45.8z M88.3,47.8h-4.1v2.5
				h4.1V47.8z M88.3,52.2h-4.1v2.7h4.1V52.2z"/>
		</g>
		<g class="st0">
			<path class="st1" d="M94.9,47.1c-0.4,0-1.4-0.1-1.4-1.1c0-0.8,0.4-1.2,1.4-1.2h7.1v-3.1c0-0.7,0.4-1.1,1.3-1.1
				c0.9,0,1.5,0.2,1.5,1.1v3.1h7.3c0.5,0,1.4,0.1,1.4,1.1c0,0.8-0.4,1.2-1.4,1.2h-6.9c1.1,4,2.9,6,7.1,7.9c0.4,0.2,0.9,0.4,0.9,1.1
				c0,0.8-0.8,1.3-1.4,1.3c-1.1,0-3.5-1.6-4.6-2.6c-2.2-1.8-3.1-3.6-3.6-4.7c-1.6,3.5-4,5.1-5.4,6c-0.9,0.6-2.1,1.3-2.9,1.3
				c-0.9,0-1.4-0.8-1.4-1.3c0-0.6,0.3-0.8,1-1.1c5.5-2.4,6.4-5.7,6.9-7.8H94.9z"/>
		</g>
		<g class="st0">
			<path class="st1" d="M130.8,56.1c-1,0.2-3.7,0.5-6.8,0.5c-1.7,0-3-0.1-4-0.2c-1.5-0.2-5.4-0.8-5.4-3.7c0-1.8,1.4-3,2.5-3.7
				c0.5-0.3,0.8-0.4,1.1-0.4c1,0,1.5,0.7,1.5,1.1c0,0.4-0.4,0.7-1.2,1.4c-0.9,0.8-1,1.1-1,1.5c0,1.7,3.4,1.9,5.9,1.9
				c2,0,4.2-0.2,5.7-0.4c1.2-0.2,1.3-0.2,1.6-0.2c0.3,0,1.3,0,1.3,1.1C132.1,55.6,131.7,55.9,130.8,56.1z M117.7,44.5
				c-0.7,0-1.8,0-1.8-1.1c0-1.2,0.9-1.2,1.8-1.2c0.3,0,2.8,0.1,3.3,0.1c0.8,0,5.2-0.1,6.2-0.1c0.3,0,1.1,0,1.3,0
				c0.8,0,1.8,0.1,1.8,1.1c0,0.7-0.3,0.9-1.7,1.6c-0.5,0.3-2.9,1.5-3.4,1.8c-0.6,0.3-0.9,0.4-1.3,0.4c-0.8,0-1.4-0.5-1.4-1.1
				c0-0.4,0.3-0.7,1.1-1.1c0.2-0.1,1.1-0.5,1.3-0.6C122.8,44.3,119.9,44.5,117.7,44.5z M127.5,46.8c-0.1-0.1-0.1-0.2-0.1-0.3
				c0-0.4,0.5-0.5,0.8-0.5c0.3,0,0.5,0.1,0.9,0.8c0.2,0.3,0.8,1.2,0.8,1.6c0,0.4-0.5,0.6-0.8,0.6c-0.3,0-0.4-0.2-0.5-0.3
				c-0.1-0.2-0.4-0.7-0.5-0.9C127.9,47.5,127.5,46.9,127.5,46.8z M129.7,46c-0.1-0.1-0.1-0.2-0.1-0.4c0-0.3,0.5-0.5,0.8-0.5
				c0.3,0,0.5,0.2,1,0.9c0.2,0.4,0.7,1.1,0.7,1.5s-0.4,0.6-0.8,0.6c-0.3,0-0.5-0.2-0.5-0.3c-0.1-0.1-0.4-0.8-0.5-0.9
				C130.1,46.7,129.8,46.1,129.7,46z"/>
		</g>
		<g class="st0">
			<path class="st1" d="M148.7,45.4c0-0.7,0.3-1.2,1.4-1.2c1.3,0,1.5,0.6,1.5,1.7c0,0.8-0.2,2.9-0.3,3.2c2,0.7,2.7,1.1,2.7,1.8
				c0,0.6-0.5,1.3-1.3,1.3c-0.4,0-0.5-0.1-1.9-0.6c-1.2,3.8-4.2,5.5-5.8,5.5c-0.7,0-1.4-0.6-1.4-1.2c0-0.6,0.3-0.7,2.1-1.6
				c2-1,2.4-3.1,2.5-3.7c-0.9-0.3-3-0.9-4.5-1.1c-0.4,1.4-1,2.8-1.7,4.2c-0.8,1.5-1.7,2.4-3.2,2.4c-1.7,0-3.9-1.2-3.9-3.8
				c0-1.6,1-3.7,4.1-4.6c1.2-0.4,2.3-0.4,2.8-0.4c0.1-0.3,0.5-1.6,0.5-1.8c0.1-0.2,0.2-1,0.2-1.2c0-0.3-0.2-0.5-0.8-0.5
				c-0.1,0-3.2,0.2-3.9,0.2c-0.4,0-1.5,0-1.5-1.1c0-1.1,0.9-1.1,1.8-1.1c1.4,0,3.6-0.1,4.9-0.1c0.5,0,2.3,0,2.3,1.5
				c0,0.6-0.3,1.7-0.3,1.9c-0.1,0.4-0.6,2-0.7,2.3c0.5,0.1,1.8,0.3,4.1,0.9C148.7,47.2,148.7,47.1,148.7,45.4z M139.8,49.5
				c-1.6,0.5-2.4,1.5-2.4,2.7c0,1.2,0.9,1.5,1.3,1.5c0.5,0,1-0.5,1.5-1.6c0.5-1,0.8-1.8,1.1-2.9C140.4,49.4,140.2,49.4,139.8,49.5z"
				/>
		</g>
		<g>
			<g>
				<path class="st1" d="M161.2,58.4V41.1l11.7,1.3v17.3L161.2,58.4z M166.2,38.3l-5.4,2.4v18.1l12.5,1.3l5.4-2.3l0.1-18.3
					L166.2,38.3z"/>
				<path class="st1" d="M172.3,42.9h-0.1l-10.4-1.1v4.7l10.5,1.1V42.9z M172,47.4l-9.9-1.1v-4.2l9.9,1.1V47.4z"/>
				<path class="st1" d="M172.2,59v-6.3l-10.5-1.1v6.3h0.1L172.2,59z M162,51.9l10,1.1v5.8l-9.9-1.1L162,51.9z"/>
				<path class="st1" d="M172.2,47.7h-0.1l-10.4-1.1v4.9l10.5,1.1V47.7z M172,52.3l-9.9-1.1v-4.3L172,48V52.3z"/>
				<path class="st1" d="M163.8,45c0.3,0.1,0.5-0.1,0.5-0.4c0-0.3-0.1-0.6-0.4-0.7c-0.3-0.1-0.5,0.1-0.5,0.4
					C163.3,44.6,163.5,45,163.8,45"/>
				<path class="st1" d="M169.1,45.6c0.3,0.1,0.5-0.1,0.5-0.4c0-0.3-0.1-0.6-0.4-0.7c-0.3-0.1-0.5,0.1-0.5,0.4
					C168.7,45.2,168.9,45.5,169.1,45.6"/>
				<path class="st1" d="M163.8,50c0.3,0.1,0.5-0.1,0.5-0.4c0-0.3-0.1-0.6-0.4-0.7c-0.3-0.1-0.5,0.1-0.5,0.4
					C163.3,49.6,163.5,49.9,163.8,50"/>
				<path class="st1" d="M169.1,50.5c0.3,0.1,0.5-0.1,0.5-0.4c0-0.3-0.1-0.6-0.4-0.7c-0.3-0.1-0.5,0.1-0.5,0.4
					C168.7,50.1,168.9,50.4,169.1,50.5"/>
				<path class="st1" d="M163.9,54.5c-0.3-0.1-0.5,0.1-0.5,0.4c0,0.3,0.1,0.6,0.4,0.7c0.3,0.1,0.5-0.1,0.5-0.4
					C164.4,54.9,164.2,54.5,163.9,54.5"/>
				<path class="st1" d="M169.3,55c-0.3-0.1-0.5,0.1-0.5,0.4c0,0.3,0.1,0.6,0.4,0.7c0.3,0.1,0.5-0.1,0.5-0.4
					C169.7,55.4,169.5,55.1,169.3,55"/>
			</g>
		</g>
		<g>
			<path class="st2" d="M150.8,29.8c1.1,1.8,3,3,5.3,3c3.4,0,6.1-2.7,6.1-6.1c0-1.3-0.4-2.5-1.1-3.5L150.8,29.8z"/>
			<path class="st1" d="M162.8,22.2l0.9-0.6c0.4-0.2-0.6-1.9-1-1.6l-1.2,0.7c-0.2-0.2-0.4-0.3-0.6-0.5l0.4-0.2
				c0.4-0.2-0.6-1.9-1-1.6l-1.2,0.8c-0.9-0.4-1.9-0.6-3-0.6c-4.3,0-7.9,3.4-8.1,7.7l-8.4,5.3c-0.5,0.3,0.7,1.9,1,1.6l7.5-4.8
				c0.1,0.2,0.1,0.5,0.2,0.7l-6.3,4c-0.5,0.3,0.7,1.9,1,1.6l6.1-3.9c1.4,2.4,4,4,7,4c4.5,0,8.1-3.7,8.1-8.1
				C164.2,25,163.7,23.5,162.8,22.2z M156.1,20.6c0.2,0,0.5,0,0.7,0l-6.5,4.1C151.1,22.3,153.4,20.6,156.1,20.6z M150.1,28
				c-0.1-0.2-0.1-0.5-0.1-0.7l9.2-5.8c0.2,0.1,0.4,0.3,0.6,0.4L150.1,28z M156.1,32.8c-2.2,0-4.2-1.2-5.3-3l10.3-6.6
				c0.7,1,1.1,2.2,1.1,3.5C162.2,30.1,159.5,32.8,156.1,32.8z"/>
		</g>
	</g>
</g>
</svg>
