<?xml version="1.0" encoding="utf-8"?>
<!-- Generator: Adobe Illustrator 28.0.0, SVG Export Plug-In . SVG Version: 6.00 Build 0)  -->
<svg version="1.1" id="レイヤー_1" xmlns="http://www.w3.org/2000/svg" xmlns:xlink="http://www.w3.org/1999/xlink" x="0px"
	 y="0px" viewBox="0 0 198.4 85" style="enable-background:new 0 0 198.4 85;" xml:space="preserve">
<style type="text/css">
	.st0{enable-background:new    ;}
	.st1{fill:#333333;}
</style>
<g>
	<g class="st0">
		<path class="st1" d="M68.4,36.5c-0.3,0.5-0.6,1-1,1.5c-0.5,0.7-0.8,0.9-1.2,0.9c-0.6,0-1.1-0.6-1.1-1.2c0-0.4,0.1-0.4,0.8-1.1
			c0.8-0.7,1.5-1.6,2-2.6h-1.5c-0.7,0-1.1-0.3-1.1-1.1c0-1,0.9-1,1.1-1h1.9v-0.6c0-0.7,0.2-1.1,1.1-1.1c1,0,1,0.6,1,1.1V32h1.8
			c0.5,0,1.1,0.1,1.1,1c0,1-0.7,1-1.1,1h-1.7c0.6,0.8,1.5,1.6,2,2c0.5,0.4,0.7,0.6,0.7,1c0,0.6-0.5,1.1-1,1.1
			c-0.6,0-1.4-1.1-1.9-1.7v2.6c0,0.8-0.3,1.1-1.1,1.1c-1,0-1-0.8-1-1.1V36.5z M71.3,28.2c0,0.2,0,0.4,0.3,0.4c0.3,0,0.3-0.1,0.3-0.9
			c0-1.3,0-1.4,0.6-1.4c0.6,0,0.6,0.5,0.6,0.8c0,0.1,0,0.8,0,1c1-1.5,1.5-3,1.8-4.3c0.1-0.5,0.3-0.8,0.9-0.8c0.1,0,1.2,0,1.2,0.9
			c0,0.5-0.4,1.7-0.5,2h1.4c0.2-0.4,0.2-0.5,0.6-1.7c0.2-0.6,0.3-1.1,1.1-1.1c0.2,0,1.1,0.1,1.1,0.9c0,0.4-0.2,1-0.7,2h1.2
			c0.5,0,1.1,0.1,1.1,1c0,0.6-0.2,1.1-1.1,1.1H80v2h1.2c0.3,0,0.9,0,0.9,0.9c0,0.6-0.2,1-0.9,1H80v2h1.2c0.4,0,0.9,0.1,0.9,0.9
			c0,0.5-0.1,1-0.9,1H80v2.2h1.4c0.4,0,1.1,0.1,1.1,1c0,0.7-0.2,1.1-1.1,1.1H76c-1.3,0-2-0.5-2-2v-7.4c-0.1,0.1-0.3,0.2-0.5,0.2
			c-0.3,0-0.6-0.2-0.9-0.4c-0.3,0.3-0.6,0.3-1.4,0.3c-1.6,0-1.6-1-1.6-2v-1.4c0-0.4-0.3-0.4-0.6-0.4c-0.3,1.6-0.8,2.7-1.3,3.5
			c-0.5,0.7-0.8,1-1.2,1c-0.5,0-1.2-0.5-1.2-1.1c0-0.3,0-0.3,0.9-1.5c0.5-0.7,0.7-1.5,0.8-1.9h-0.5c-0.3,0-1.1,0-1.1-0.9
			c0-0.7,0.3-1.1,1.1-1.1h0.7c0-1.2,0-1.2,0.2-1.4c0.2-0.2,0.5-0.3,0.9-0.3c1.1,0,1.1,0.7,1,1.7c1.6,0,2.1,0.3,2.1,2V28.2z
			 M78.1,29.8v-2h-1.5c-0.3,0-0.4,0.2-0.4,0.4v1.5H78.1z M78.1,31.7h-1.9v2h1.9V31.7z M78.1,37.7v-2.2h-1.9v1.8
			c0,0.3,0.1,0.5,0.4,0.5H78.1z"/>
	</g>
	<g class="st0">
		<path class="st1" d="M84.3,28.1c-0.3,0-1,0-1-1c0-0.9,0.5-1,1-1h4.6c0.3,0,1,0,1,0.9c0,1-0.6,1-1,1H84.3z M84.7,25.4
			c-0.3,0-1,0-1-0.9c0-0.9,0.6-1,1-1h3.6c0.3,0,1,0,1,0.9s-0.7,0.9-1,0.9H84.7z M84.7,30.8c-0.3,0-1,0-1-0.9c0-0.9,0.6-1,1-1h3.6
			c0.3,0,1,0,1,1c0,0.9-0.6,1-1,1H84.7z M84.7,33.4c-0.3,0-1,0-1-0.9c0-0.7,0.4-0.9,1-0.9h3.6c0.3,0,1,0,1,0.9c0,0.9-0.6,0.9-1,0.9
			H84.7z M85.7,39.8c-1.5,0-1.9-0.3-1.9-1.9v-1.9c0-1.6,0.3-1.9,1.9-1.9h1.6c1.5,0,1.9,0.3,1.9,1.9v1.7c0.5-1.1,0.6-1.3,1-2.7
			c0.1-0.5,0.3-0.9,0.9-0.9c0.1,0,1,0,1,0.8c0,0.5-0.4,2-0.8,3c-0.4,1.2-0.7,1.4-1.2,1.4c-0.3,0-0.7-0.1-1-0.5
			c-0.2,0.9-1,0.9-1.8,0.9H85.7z M87.5,36.3c0-0.3-0.1-0.4-0.4-0.4h-0.7c-0.3,0-0.4,0.1-0.4,0.4v1.2c0,0.3,0.2,0.4,0.4,0.4H87
			c0.3,0,0.4-0.2,0.4-0.4V36.3z M91.4,31.7c-0.3,0-1.1,0-1.1-1s0.9-1,1.1-1h2.7v-2.4h-3.1c-0.3,0-1.1,0-1.1-1.1
			c0-0.9,0.6-1.1,1.1-1.1h3.1v-1c0-0.7,0.4-1.1,1.1-1.1c0.8,0,1.2,0.3,1.2,1.1v1h3c0.3,0,1.1,0,1.1,1.1c0,0.9-0.6,1.1-1.1,1.1h-3
			v2.4H99c0.3,0,1.1,0,1.1,1c0,1-0.7,1-1.1,1h-5.5c0.5,0.1,1.3,0.5,1.8,0.7c1.2,0.5,1.5,0.7,1.5,1.2c0,0.2-0.1,1.1-0.8,1.1
			c-0.3,0-0.5-0.1-1.1-0.4c-0.5-0.3-0.8-0.4-1.9-0.8c-0.4-0.2-0.7-0.3-0.7-0.7c0-0.2,0.1-0.9,0.7-1.1H91.4z M94.3,37.3
			c0,0.7,0.1,0.7,1.1,0.7c0.6,0,0.7,0,0.7-0.5c0.1-0.7,0.1-1.1,0.9-1.1c0.9,0,0.9,0.7,0.9,0.9c0,0.8-0.2,1.9-0.6,2.3
			C97.2,39.8,97,40,95.4,40c-1.5,0-1.9,0-2.3-0.2c-0.4-0.2-0.8-0.6-0.8-2v-2.9c0-0.2,0-0.9,1-0.9c0.9,0,1,0.5,1,0.9V37.3z
			 M99.7,35.6c0.1,0.1,0.9,2.1,0.9,2.8c0,0.8-1,0.9-1.2,0.9c-0.7,0-0.7-0.4-1-1.5c-0.2-0.9-0.4-1.3-0.9-2.4
			c-0.1-0.2-0.2-0.4-0.2-0.7c0-0.7,0.8-0.9,1.1-0.9C98.9,33.8,99.1,34.1,99.7,35.6z"/>
		<path class="st1" d="M107.6,31.6c0,1.2-1,2.1-2.1,2.1s-2.1-1-2.1-2.1c0-1.2,1-2.1,2.1-2.1C106.6,29.4,107.6,30.4,107.6,31.6z"/>
	</g>
	<g class="st0">
		<path class="st1" d="M114.9,36.5c-0.3,0.5-0.6,1-1,1.5c-0.5,0.7-0.8,0.9-1.2,0.9c-0.6,0-1.1-0.6-1.1-1.2c0-0.4,0.1-0.4,0.8-1.1
			c0.8-0.7,1.5-1.6,2-2.6H113c-0.7,0-1.1-0.3-1.1-1.1c0-1,0.9-1,1.1-1h1.9v-0.6c0-0.7,0.2-1.1,1.1-1.1c1,0,1,0.6,1,1.1V32h1.8
			c0.5,0,1.1,0.1,1.1,1c0,1-0.7,1-1.1,1h-1.7c0.6,0.8,1.5,1.6,2,2c0.5,0.4,0.7,0.6,0.7,1c0,0.6-0.5,1.1-1,1.1
			c-0.6,0-1.4-1.1-1.9-1.7v2.6c0,0.8-0.3,1.1-1.1,1.1c-1,0-1-0.8-1-1.1V36.5z M117.9,28.2c0,0.2,0,0.4,0.3,0.4
			c0.3,0,0.3-0.1,0.3-0.9c0-1.3,0-1.4,0.6-1.4c0.6,0,0.6,0.5,0.6,0.8c0,0.1,0,0.8,0,1c1-1.5,1.5-3,1.8-4.3c0.1-0.5,0.3-0.8,0.9-0.8
			c0.1,0,1.2,0,1.2,0.9c0,0.5-0.4,1.7-0.5,2h1.4c0.2-0.4,0.2-0.5,0.6-1.7c0.2-0.6,0.3-1.1,1.1-1.1c0.2,0,1.1,0.1,1.1,0.9
			c0,0.4-0.2,1-0.7,2h1.2c0.5,0,1.1,0.1,1.1,1c0,0.6-0.2,1.1-1.1,1.1h-1.2v2h1.2c0.3,0,0.9,0,0.9,0.9c0,0.6-0.2,1-0.9,1h-1.2v2h1.2
			c0.4,0,0.9,0.1,0.9,0.9c0,0.5-0.1,1-0.9,1h-1.2v2.2h1.4c0.4,0,1.1,0.1,1.1,1c0,0.7-0.2,1.1-1.1,1.1h-5.3c-1.3,0-2-0.5-2-2v-7.4
			c-0.1,0.1-0.3,0.2-0.5,0.2c-0.3,0-0.6-0.2-0.9-0.4c-0.3,0.3-0.6,0.3-1.4,0.3c-1.7,0-1.7-1-1.7-2v-1.4c0-0.4-0.3-0.4-0.6-0.4
			c-0.3,1.6-0.8,2.7-1.3,3.5c-0.5,0.7-0.8,1-1.2,1c-0.5,0-1.2-0.5-1.2-1.1c0-0.3,0-0.3,0.9-1.5c0.5-0.7,0.7-1.5,0.8-1.9H113
			c-0.3,0-1.1,0-1.1-0.9c0-0.7,0.3-1.1,1.1-1.1h0.7c0-1.2,0-1.2,0.2-1.4c0.2-0.2,0.5-0.3,0.9-0.3c1.1,0,1.1,0.7,1,1.7
			c1.6,0,2.1,0.3,2.1,2V28.2z M124.6,29.8v-2h-1.5c-0.3,0-0.4,0.2-0.4,0.4v1.5H124.6z M124.6,31.7h-1.9v2h1.9V31.7z M124.6,37.7
			v-2.2h-1.9v1.8c0,0.3,0.1,0.5,0.4,0.5H124.6z"/>
		<path class="st1" d="M132.9,32.5c-1.5,0.1-1.9,0.1-1.9,0.1c-0.2,0-0.9,0-0.9-1c0-0.5,0.2-0.7,0.4-0.8c0.2-0.1,0.3-0.1,1.2-0.1
			c0.1-0.2,0.7-0.9,0.8-1c-0.4-0.6-0.9-1.2-1.5-1.7c-0.7-0.7-0.8-0.8-0.8-1.2c0-0.4,0.3-1.1,1-1.1c0.3,0,0.4,0.1,0.5,0.1
			c0.4-0.7,0.5-0.8,1.1-2c0.2-0.4,0.4-0.8,0.9-0.8c0.6,0,1.2,0.4,1.2,0.9c0,0.6-1.3,2.5-1.8,3.2c0.3,0.3,0.3,0.4,0.6,0.7
			c0.5-0.8,1-1.5,1.5-2.4c0.2-0.4,0.4-0.7,0.8-0.7c0.4,0,1.3,0.3,1.3,1c0,0.8-2.9,4.4-3.2,4.8c0.4,0,0.5,0,1.6-0.1
			c-0.2-0.5-0.3-0.8-0.3-1c0-0.4,0.5-0.7,0.9-0.7c0.5,0,0.6,0.3,0.9,1.1c0.3,0.8,0.8,2,0.8,2.4c0,0.7-0.7,0.8-0.9,0.8
			c-0.5,0-0.6-0.3-0.8-0.9c-0.2,0-0.8,0.1-1.3,0.2v6.9c0,0.6-0.2,1-1,1c-0.9,0-0.9-0.7-0.9-1V32.5z M132.3,34.3
			c0,0.7-0.3,4.1-0.7,4.5c-0.1,0.1-0.4,0.2-0.5,0.2c-0.2,0-1,0-1-0.9c0-0.3,0.3-1.5,0.3-1.8c0.1-0.8,0.2-1.3,0.2-2
			c0.1-0.7,0.3-0.8,0.8-0.8C132.3,33.4,132.3,34.1,132.3,34.3z M137,34.6c0.3,1.2,0.4,2.1,0.4,2.3c0,0.7-0.8,0.8-0.9,0.8
			c-0.6,0-0.6-0.3-0.7-1.2c-0.1-0.4-0.4-2.5-0.4-2.6c0-0.5,0.4-0.7,0.9-0.7C136.7,33.3,136.8,33.5,137,34.6z M144.1,31.2
			c0.1,1.9,0.2,3.6,0.7,5.1c0,0.1,0.2,0.8,0.5,0.8c0.1,0,0.2,0,0.5-0.7c0.3-0.7,0.3-0.8,0.7-0.8c0.4,0,0.9,0.3,0.9,1.1
			c0,0.3-0.2,1-0.5,1.8c-0.2,0.5-0.7,1.5-1.8,1.5c-1.2,0-1.8-1.3-2-1.7c-0.9-2-1-4.9-1.1-7.1h-2V37c0.1,0,0.1,0,0.2,0
			c0.3-0.1,1.3-0.3,1.5-0.3c0.7,0,0.7,0.9,0.7,1c0,0.8-0.6,1-1.1,1.1c-0.3,0.1-3.4,0.9-4,0.9c-0.6,0-0.9-0.6-0.9-1.2
			c0-0.8,0.4-0.8,1.5-1.1V25.8c0-1.6,0.6-1.8,2.3-1.9c1.1-0.1,2.3-0.2,3.2-0.4c0.3,0,1.7-0.3,2-0.3c0.9,0,1,1,1,1.2
			c0,0.3-0.1,0.8-0.6,0.9c-0.3,0.1-0.9,0.2-1.9,0.3c0,1.2,0,2.4,0,3.6h2.1c0.4,0,1,0.1,1,1.1c0,1-0.7,1-1,1H144.1z M140,29.2h1.9
			c0-0.2,0-1.5,0-1.8c0-0.3,0-0.5,0-1.5c-0.5,0-1.4,0.1-1.5,0.1c-0.4,0.1-0.4,0.4-0.4,0.7V29.2z"/>
	</g>
	<g>
		<path class="st1" d="M178.7,35.2L178.7,35.2v-7.1c0-0.1-0.1-0.3-0.3-0.3l-6.5-1.2v-0.4c0-0.1,0-0.2-0.1-0.2
			c-0.1-0.1-0.2-0.1-0.2,0l-1.3,0.4l-3-0.6c0.1-0.2,0.2-0.4,0.2-0.6s-0.1-0.4-0.2-0.5c-0.1-0.1-0.3-0.2-0.4-0.2
			c-0.3,0-0.5,0.2-0.7,0.4c-0.2,0.2-0.5,0.5-0.7,0.8L164,26c-0.1-0.1-0.2-0.3-0.3-0.4c-0.2-0.3-0.5-0.6-0.7-0.8
			c-0.2-0.2-0.5-0.4-0.7-0.4c-0.1,0-0.3,0.1-0.4,0.2c-0.1,0.1-0.2,0.3-0.2,0.5s0.1,0.5,0.2,0.7c0.1,0.2,0.3,0.4,0.4,0.6L160,27
			l-0.8-0.2c-0.1,0-0.2,0-0.2,0.1c-0.1,0.1-0.1,0.1-0.1,0.2v0.2l-7.9,2.2c-0.1,0-0.3,0.2-0.3,0.3v8.6c0,0.1,0.1,0.3,0.3,0.3l4.9,0.9
			V40c0,0.2,0.1,0.3,0.3,0.3s0.6-0.4,0.6-0.5l6.6,1.2c0.1,0,0.4,0,0.5,0l7.2-2c0,0,0.4,0.3,0.5,0.3c0.2,0,0.3-0.1,0.3-0.3v-0.3
			l6.4-1.8c0.1,0,0.3-0.2,0.3-0.3L178.7,35.2L178.7,35.2z M164,27.2c-0.2-0.1-0.4-0.3-0.6-0.4l0.3-0.1C163.8,26.8,163.9,27,164,27.2
			 M166,26.1l0.3,0.1c-0.3,0.3-0.7,0.7-1.2,1c0.2-0.4,0.4-0.8,0.6-1.1C165.9,26.1,166,26.1,166,26.1 M163.4,32.2c0.1,0,0.4,0,0.5,0
			l7.5-2v1.4l-7.7,2l-7.2-1.3V31L163.4,32.2z M157.6,30.6l7-2l6.1,1.2l-6.8,1.9c-0.1,0-0.4,0-0.5,0L157.6,30.6z M163.8,34.1l7.7-2
			v1.7l-7.6,2l-7.3-1.3v-1.7L163.8,34.1z M178.2,32l-6.2,1.6v-1.7l6.2-1.6V32z M156,34.4l-4.7-0.8v-1.7l4.7,0.8V34.4z M151.3,34.1
			l4.7,0.8v2.2l-4.7-0.8V34.1z M156.5,35l7.3,1.3l7.6-2v2.3l-7.4,1.9l-7.5-1.4L156.5,35L156.5,35z M172,34.2l6.2-1.6v2.3l-6.2,1.6
			V34.2z M178.2,28.6v1.2l-6.2,1.6V30l5.9-1.6C178,28.4,178.2,28.4,178.2,28.6 M176.4,28.2l-4.5,1.3h-0.1l-6-1.2l4.6-1.3L176.4,28.2
			C176.5,28.1,176.5,28.2,176.4,28.2 M165.1,27.9L165.1,27.9c0.7-0.4,1.2-0.8,1.6-1.3c0.1-0.1,0.2-0.2,0.3-0.3l2.1,0.4L165.1,27.9z
			 M166.5,25.2c0.2-0.2,0.3-0.2,0.4-0.2l0,0v0.1c0,0.1,0,0.3-0.1,0.4c0,0,0,0.1-0.1,0.1l-0.6-0.1C166.3,25.4,166.4,25.3,166.5,25.2
			 M165,26.3c-0.2,0.3-0.3,0.5-0.4,0.8c-0.1-0.2-0.2-0.4-0.3-0.6L165,26.3z M162.8,26.2c-0.2-0.2-0.4-0.4-0.5-0.6s-0.1-0.3-0.1-0.4
			s0-0.1,0-0.1s0.2,0.1,0.4,0.2c0.2,0.2,0.5,0.5,0.8,0.9H162.8C162.9,26.3,162.9,26.2,162.8,26.2 M162.7,26.9
			c0.4,0.3,0.8,0.6,1.3,0.9c0,0,0,0,0,0.1l-2.8-0.6L162.7,26.9z M153.1,29.7l7-2l3.3,0.7l-7.1,2.1l-3.2-0.6
			C153,29.8,153,29.7,153.1,29.7 M151.5,30.1l4.4,0.8v1.2l-4.7-0.8v-1C151.3,30.2,151.4,30.1,151.5,30.1 M151.5,38.5
			c-0.1,0-0.3-0.2-0.3-0.3v-1.4l4.7,0.8v1.6L151.5,38.5z M164,40.6c-0.1,0-0.4,0-0.5,0l-6.9-1.2v-1.6l7.5,1.4l7.4-1.9v1.4L164,40.6z
			 M171.4,39.1L171.4,39.1L171.4,39.1L171.4,39.1z M178.2,36.4c0,0.1-0.1,0.3-0.3,0.3l-5.9,1.6V37l6.2-1.6V36.4z"/>
	</g>
</g>
</svg>
